G04 EAGLE Gerber RS-274X export*
G75*
%MOMM*%
%FSLAX34Y34*%
%LPD*%
%INTop Copper*%
%IPPOS*%
%AMOC8*
5,1,8,0,0,1.08239X$1,22.5*%
G01*
%ADD10R,0.800000X1.200000*%
%ADD11R,2.200000X1.800000*%
%ADD12R,1.300000X0.300000*%
%ADD13C,2.445000*%
%ADD14C,1.398000*%
%ADD15C,1.530000*%
%ADD16C,0.706400*%
%ADD17C,0.152400*%
%ADD18C,0.756400*%

G36*
X111199Y10162D02*
X111199Y10162D01*
X111207Y10161D01*
X111320Y10182D01*
X111434Y10200D01*
X111441Y10204D01*
X111448Y10206D01*
X111549Y10262D01*
X111651Y10316D01*
X111656Y10321D01*
X111663Y10325D01*
X111741Y10410D01*
X111820Y10494D01*
X111824Y10501D01*
X111829Y10507D01*
X111875Y10613D01*
X111924Y10717D01*
X111925Y10725D01*
X111928Y10732D01*
X111938Y10847D01*
X111951Y10961D01*
X111949Y10969D01*
X111950Y10977D01*
X111923Y11090D01*
X111899Y11202D01*
X111895Y11209D01*
X111893Y11216D01*
X111831Y11315D01*
X111773Y11413D01*
X111767Y11418D01*
X111762Y11425D01*
X111638Y11538D01*
X109781Y12887D01*
X108137Y14531D01*
X106771Y16411D01*
X105716Y18482D01*
X104998Y20692D01*
X104884Y21411D01*
X104873Y21445D01*
X104870Y21481D01*
X104834Y21561D01*
X104807Y21644D01*
X104785Y21673D01*
X104771Y21706D01*
X104712Y21771D01*
X104659Y21841D01*
X104630Y21861D01*
X104605Y21888D01*
X104529Y21930D01*
X104457Y21980D01*
X104422Y21990D01*
X104391Y22008D01*
X104304Y22024D01*
X104220Y22048D01*
X104184Y22046D01*
X104149Y22053D01*
X104062Y22040D01*
X103974Y22036D01*
X103941Y22023D01*
X103905Y22018D01*
X103752Y21951D01*
X99287Y19373D01*
X92443Y17539D01*
X85357Y17539D01*
X78513Y19373D01*
X72376Y22916D01*
X67366Y27926D01*
X63823Y34063D01*
X61989Y40907D01*
X61989Y47993D01*
X63363Y53120D01*
X63368Y53168D01*
X63382Y53214D01*
X63380Y53290D01*
X63388Y53365D01*
X63377Y53412D01*
X63376Y53460D01*
X63350Y53531D01*
X63333Y53605D01*
X63308Y53646D01*
X63291Y53691D01*
X63244Y53750D01*
X63204Y53815D01*
X63168Y53845D01*
X63138Y53883D01*
X63074Y53924D01*
X63016Y53973D01*
X62971Y53990D01*
X62931Y54016D01*
X62857Y54034D01*
X62787Y54062D01*
X62739Y54064D01*
X62692Y54076D01*
X62617Y54070D01*
X62541Y54074D01*
X62495Y54061D01*
X62447Y54057D01*
X62377Y54027D01*
X62304Y54006D01*
X62265Y53979D01*
X62221Y53961D01*
X62120Y53880D01*
X62101Y53867D01*
X62097Y53862D01*
X62090Y53856D01*
X60724Y52490D01*
X48502Y40268D01*
X48435Y40174D01*
X48364Y40080D01*
X48362Y40073D01*
X48359Y40068D01*
X48324Y39958D01*
X48288Y39846D01*
X48288Y39839D01*
X48286Y39833D01*
X48289Y39716D01*
X48290Y39600D01*
X48292Y39592D01*
X48293Y39588D01*
X48299Y39570D01*
X48337Y39439D01*
X49275Y37175D01*
X49275Y33525D01*
X47878Y30153D01*
X45297Y27572D01*
X41925Y26175D01*
X38275Y26175D01*
X34903Y27572D01*
X32322Y30153D01*
X30925Y33525D01*
X30925Y37175D01*
X32322Y40547D01*
X34903Y43128D01*
X38275Y44525D01*
X41925Y44525D01*
X44542Y43441D01*
X44656Y43414D01*
X44769Y43385D01*
X44776Y43386D01*
X44782Y43384D01*
X44898Y43395D01*
X45014Y43405D01*
X45020Y43407D01*
X45027Y43408D01*
X45134Y43455D01*
X45241Y43501D01*
X45247Y43506D01*
X45251Y43508D01*
X45265Y43520D01*
X45372Y43606D01*
X57490Y55724D01*
X57543Y55798D01*
X57603Y55868D01*
X57615Y55898D01*
X57634Y55924D01*
X57661Y56011D01*
X57695Y56096D01*
X57699Y56137D01*
X57706Y56159D01*
X57705Y56191D01*
X57713Y56263D01*
X57713Y70947D01*
X72490Y85724D01*
X72543Y85798D01*
X72603Y85868D01*
X72615Y85898D01*
X72634Y85924D01*
X72661Y86011D01*
X72695Y86096D01*
X72699Y86137D01*
X72706Y86159D01*
X72705Y86191D01*
X72713Y86263D01*
X72713Y104820D01*
X72699Y104910D01*
X72691Y105001D01*
X72679Y105031D01*
X72674Y105063D01*
X72631Y105144D01*
X72595Y105227D01*
X72569Y105260D01*
X72558Y105280D01*
X72535Y105302D01*
X72490Y105358D01*
X69943Y107905D01*
X69943Y112095D01*
X72905Y115057D01*
X77095Y115057D01*
X80057Y112095D01*
X80057Y107905D01*
X77510Y105358D01*
X77457Y105284D01*
X77397Y105215D01*
X77385Y105185D01*
X77366Y105159D01*
X77339Y105072D01*
X77305Y104987D01*
X77301Y104946D01*
X77294Y104924D01*
X77295Y104891D01*
X77287Y104820D01*
X77287Y84053D01*
X62510Y69276D01*
X62462Y69209D01*
X62458Y69205D01*
X62456Y69202D01*
X62397Y69132D01*
X62385Y69102D01*
X62366Y69076D01*
X62339Y68989D01*
X62305Y68904D01*
X62301Y68863D01*
X62294Y68841D01*
X62295Y68809D01*
X62287Y68737D01*
X62287Y54885D01*
X62291Y54861D01*
X62288Y54837D01*
X62310Y54740D01*
X62326Y54642D01*
X62338Y54621D01*
X62343Y54598D01*
X62395Y54513D01*
X62442Y54425D01*
X62459Y54408D01*
X62472Y54388D01*
X62548Y54324D01*
X62620Y54256D01*
X62642Y54246D01*
X62660Y54230D01*
X62753Y54194D01*
X62843Y54152D01*
X62867Y54149D01*
X62889Y54141D01*
X62989Y54136D01*
X63087Y54125D01*
X63111Y54130D01*
X63135Y54129D01*
X63231Y54156D01*
X63328Y54177D01*
X63349Y54190D01*
X63372Y54196D01*
X63454Y54252D01*
X63539Y54303D01*
X63555Y54322D01*
X63574Y54335D01*
X63634Y54415D01*
X63699Y54490D01*
X63708Y54513D01*
X63722Y54532D01*
X63783Y54688D01*
X63823Y54837D01*
X67366Y60974D01*
X72376Y65984D01*
X78513Y69527D01*
X85357Y71361D01*
X92443Y71361D01*
X99287Y69527D01*
X105424Y65984D01*
X110434Y60974D01*
X113977Y54837D01*
X115811Y47993D01*
X115811Y40907D01*
X115449Y39558D01*
X115444Y39503D01*
X115428Y39449D01*
X115432Y39381D01*
X115425Y39314D01*
X115437Y39259D01*
X115440Y39203D01*
X115465Y39140D01*
X115480Y39074D01*
X115509Y39026D01*
X115529Y38974D01*
X115573Y38922D01*
X115608Y38864D01*
X115651Y38828D01*
X115687Y38785D01*
X115745Y38750D01*
X115797Y38706D01*
X115849Y38686D01*
X115896Y38657D01*
X115963Y38641D01*
X116026Y38617D01*
X116082Y38614D01*
X116136Y38602D01*
X116241Y38606D01*
X116272Y38605D01*
X116284Y38608D01*
X116304Y38609D01*
X117877Y38859D01*
X117877Y24912D01*
X117880Y24892D01*
X117878Y24873D01*
X117900Y24771D01*
X117917Y24669D01*
X117926Y24652D01*
X117930Y24632D01*
X117983Y24543D01*
X118032Y24452D01*
X118046Y24438D01*
X118056Y24421D01*
X118135Y24354D01*
X118210Y24283D01*
X118228Y24274D01*
X118243Y24261D01*
X118339Y24223D01*
X118433Y24179D01*
X118453Y24177D01*
X118471Y24169D01*
X118638Y24151D01*
X119401Y24151D01*
X119401Y23388D01*
X119404Y23368D01*
X119402Y23349D01*
X119424Y23247D01*
X119441Y23145D01*
X119450Y23128D01*
X119454Y23108D01*
X119507Y23019D01*
X119556Y22928D01*
X119570Y22914D01*
X119580Y22897D01*
X119659Y22830D01*
X119734Y22759D01*
X119752Y22750D01*
X119767Y22737D01*
X119863Y22698D01*
X119957Y22655D01*
X119977Y22653D01*
X119995Y22645D01*
X120162Y22627D01*
X134109Y22627D01*
X133802Y20692D01*
X133084Y18482D01*
X132029Y16411D01*
X130663Y14531D01*
X129019Y12887D01*
X127162Y11538D01*
X127156Y11532D01*
X127149Y11528D01*
X127070Y11445D01*
X126989Y11363D01*
X126985Y11356D01*
X126980Y11350D01*
X126931Y11246D01*
X126881Y11142D01*
X126879Y11134D01*
X126876Y11127D01*
X126863Y11013D01*
X126848Y10898D01*
X126850Y10890D01*
X126849Y10883D01*
X126873Y10770D01*
X126896Y10657D01*
X126900Y10650D01*
X126901Y10642D01*
X126960Y10544D01*
X127017Y10443D01*
X127023Y10438D01*
X127027Y10431D01*
X127115Y10356D01*
X127201Y10279D01*
X127208Y10276D01*
X127214Y10271D01*
X127321Y10228D01*
X127427Y10183D01*
X127435Y10182D01*
X127443Y10179D01*
X127609Y10161D01*
X395278Y10161D01*
X395298Y10164D01*
X395317Y10162D01*
X395419Y10184D01*
X395521Y10200D01*
X395538Y10210D01*
X395558Y10214D01*
X395647Y10267D01*
X395738Y10316D01*
X395752Y10330D01*
X395769Y10340D01*
X395836Y10419D01*
X395908Y10494D01*
X395916Y10512D01*
X395929Y10527D01*
X395968Y10623D01*
X396011Y10717D01*
X396013Y10737D01*
X396021Y10755D01*
X396039Y10922D01*
X396039Y192278D01*
X396036Y192298D01*
X396038Y192317D01*
X396016Y192419D01*
X396000Y192521D01*
X395990Y192538D01*
X395986Y192558D01*
X395933Y192647D01*
X395884Y192738D01*
X395870Y192752D01*
X395860Y192769D01*
X395781Y192836D01*
X395706Y192908D01*
X395688Y192916D01*
X395673Y192929D01*
X395577Y192968D01*
X395483Y193011D01*
X395463Y193013D01*
X395445Y193021D01*
X395278Y193039D01*
X127609Y193039D01*
X127601Y193038D01*
X127593Y193039D01*
X127480Y193018D01*
X127366Y193000D01*
X127359Y192996D01*
X127352Y192994D01*
X127251Y192938D01*
X127149Y192884D01*
X127144Y192879D01*
X127137Y192875D01*
X127059Y192790D01*
X126980Y192706D01*
X126976Y192699D01*
X126971Y192693D01*
X126925Y192587D01*
X126876Y192483D01*
X126875Y192475D01*
X126872Y192468D01*
X126862Y192353D01*
X126849Y192239D01*
X126851Y192231D01*
X126850Y192223D01*
X126877Y192110D01*
X126901Y191998D01*
X126905Y191991D01*
X126907Y191984D01*
X126969Y191885D01*
X127027Y191787D01*
X127033Y191782D01*
X127038Y191775D01*
X127162Y191662D01*
X129019Y190313D01*
X130663Y188669D01*
X132029Y186789D01*
X133084Y184718D01*
X133802Y182508D01*
X134109Y180573D01*
X120162Y180573D01*
X120142Y180570D01*
X120123Y180572D01*
X120021Y180550D01*
X119919Y180533D01*
X119902Y180524D01*
X119882Y180520D01*
X119793Y180467D01*
X119702Y180418D01*
X119688Y180404D01*
X119671Y180394D01*
X119604Y180315D01*
X119533Y180240D01*
X119524Y180222D01*
X119511Y180207D01*
X119473Y180111D01*
X119429Y180017D01*
X119427Y179997D01*
X119419Y179979D01*
X119401Y179812D01*
X119401Y179049D01*
X118638Y179049D01*
X118618Y179046D01*
X118599Y179048D01*
X118497Y179026D01*
X118395Y179009D01*
X118378Y179000D01*
X118358Y178996D01*
X118269Y178943D01*
X118178Y178894D01*
X118164Y178880D01*
X118147Y178870D01*
X118080Y178791D01*
X118009Y178716D01*
X118000Y178698D01*
X117987Y178683D01*
X117948Y178587D01*
X117905Y178493D01*
X117903Y178473D01*
X117895Y178455D01*
X117877Y178288D01*
X117877Y164341D01*
X116304Y164591D01*
X116248Y164590D01*
X116193Y164600D01*
X116126Y164590D01*
X116058Y164589D01*
X116005Y164571D01*
X115950Y164563D01*
X115889Y164532D01*
X115825Y164510D01*
X115781Y164476D01*
X115731Y164450D01*
X115684Y164401D01*
X115630Y164360D01*
X115599Y164314D01*
X115560Y164274D01*
X115531Y164212D01*
X115493Y164156D01*
X115478Y164102D01*
X115454Y164052D01*
X115446Y163984D01*
X115428Y163919D01*
X115431Y163863D01*
X115424Y163808D01*
X115440Y163703D01*
X115442Y163673D01*
X115446Y163661D01*
X115449Y163642D01*
X115811Y162293D01*
X115811Y155207D01*
X113977Y148363D01*
X110434Y142226D01*
X105424Y137216D01*
X101213Y134785D01*
X101176Y134755D01*
X101134Y134732D01*
X101082Y134677D01*
X101023Y134629D01*
X100997Y134589D01*
X100964Y134554D01*
X100932Y134485D01*
X100892Y134421D01*
X100881Y134374D01*
X100861Y134331D01*
X100852Y134256D01*
X100835Y134182D01*
X100839Y134134D01*
X100834Y134087D01*
X100850Y134012D01*
X100856Y133937D01*
X100876Y133893D01*
X100886Y133846D01*
X100925Y133781D01*
X100955Y133712D01*
X100988Y133676D01*
X101012Y133635D01*
X101070Y133586D01*
X101121Y133530D01*
X101163Y133506D01*
X101199Y133475D01*
X101269Y133447D01*
X101336Y133410D01*
X101383Y133401D01*
X101427Y133383D01*
X101555Y133369D01*
X101577Y133365D01*
X101584Y133366D01*
X101594Y133365D01*
X104816Y133365D01*
X104906Y133379D01*
X104997Y133387D01*
X105026Y133399D01*
X105058Y133404D01*
X105139Y133447D01*
X105223Y133483D01*
X105255Y133509D01*
X105276Y133520D01*
X105298Y133543D01*
X105354Y133588D01*
X142490Y170724D01*
X144053Y172287D01*
X185947Y172287D01*
X187510Y170724D01*
X230724Y127510D01*
X230798Y127457D01*
X230868Y127397D01*
X230898Y127385D01*
X230924Y127366D01*
X231011Y127339D01*
X231096Y127305D01*
X231137Y127301D01*
X231159Y127294D01*
X231191Y127295D01*
X231262Y127287D01*
X300847Y127287D01*
X306524Y121610D01*
X306598Y121557D01*
X306668Y121497D01*
X306698Y121485D01*
X306724Y121466D01*
X306811Y121439D01*
X306896Y121405D01*
X306937Y121401D01*
X306959Y121394D01*
X306991Y121395D01*
X307063Y121387D01*
X313542Y121387D01*
X313612Y121398D01*
X313684Y121400D01*
X313733Y121418D01*
X313784Y121426D01*
X313848Y121460D01*
X313915Y121485D01*
X313956Y121517D01*
X314002Y121542D01*
X314051Y121594D01*
X314107Y121638D01*
X314135Y121682D01*
X314171Y121720D01*
X314201Y121785D01*
X314240Y121845D01*
X314253Y121896D01*
X314275Y121943D01*
X314283Y122014D01*
X314300Y122084D01*
X314296Y122136D01*
X314302Y122187D01*
X314287Y122258D01*
X314281Y122329D01*
X314261Y122377D01*
X314250Y122428D01*
X314213Y122489D01*
X314185Y122555D01*
X314140Y122611D01*
X314123Y122639D01*
X314106Y122654D01*
X314080Y122686D01*
X304276Y132490D01*
X304202Y132543D01*
X304132Y132603D01*
X304102Y132615D01*
X304076Y132634D01*
X303989Y132661D01*
X303904Y132695D01*
X303863Y132699D01*
X303841Y132706D01*
X303809Y132705D01*
X303737Y132713D01*
X245180Y132713D01*
X245090Y132699D01*
X244999Y132691D01*
X244969Y132679D01*
X244937Y132674D01*
X244856Y132631D01*
X244773Y132595D01*
X244740Y132569D01*
X244720Y132558D01*
X244698Y132535D01*
X244642Y132490D01*
X242095Y129943D01*
X237905Y129943D01*
X234943Y132905D01*
X234943Y137095D01*
X237905Y140057D01*
X242095Y140057D01*
X244642Y137510D01*
X244716Y137457D01*
X244785Y137397D01*
X244815Y137385D01*
X244841Y137366D01*
X244928Y137339D01*
X245013Y137305D01*
X245054Y137301D01*
X245076Y137294D01*
X245109Y137295D01*
X245180Y137287D01*
X305947Y137287D01*
X316624Y126610D01*
X316698Y126557D01*
X316768Y126497D01*
X316798Y126485D01*
X316824Y126466D01*
X316911Y126439D01*
X316996Y126405D01*
X317037Y126401D01*
X317059Y126394D01*
X317091Y126395D01*
X317163Y126387D01*
X323542Y126387D01*
X323612Y126398D01*
X323684Y126400D01*
X323733Y126418D01*
X323784Y126426D01*
X323848Y126460D01*
X323915Y126485D01*
X323956Y126517D01*
X324002Y126542D01*
X324051Y126594D01*
X324107Y126638D01*
X324135Y126682D01*
X324171Y126720D01*
X324201Y126785D01*
X324240Y126845D01*
X324253Y126896D01*
X324275Y126943D01*
X324283Y127014D01*
X324300Y127084D01*
X324296Y127136D01*
X324302Y127187D01*
X324287Y127258D01*
X324281Y127329D01*
X324261Y127377D01*
X324250Y127428D01*
X324213Y127489D01*
X324185Y127555D01*
X324140Y127611D01*
X324123Y127639D01*
X324106Y127654D01*
X324080Y127686D01*
X284276Y167490D01*
X284202Y167543D01*
X284132Y167603D01*
X284102Y167615D01*
X284076Y167634D01*
X283989Y167661D01*
X283904Y167695D01*
X283863Y167699D01*
X283841Y167706D01*
X283809Y167705D01*
X283737Y167713D01*
X249053Y167713D01*
X239276Y177490D01*
X239202Y177543D01*
X239132Y177603D01*
X239102Y177615D01*
X239076Y177634D01*
X238989Y177661D01*
X238904Y177695D01*
X238863Y177699D01*
X238841Y177706D01*
X238809Y177705D01*
X238737Y177713D01*
X215180Y177713D01*
X215090Y177699D01*
X214999Y177691D01*
X214969Y177679D01*
X214937Y177674D01*
X214856Y177631D01*
X214773Y177595D01*
X214740Y177569D01*
X214720Y177558D01*
X214698Y177535D01*
X214642Y177490D01*
X212095Y174943D01*
X207905Y174943D01*
X204943Y177905D01*
X204943Y182095D01*
X207905Y185057D01*
X212095Y185057D01*
X214642Y182510D01*
X214716Y182457D01*
X214785Y182397D01*
X214815Y182385D01*
X214841Y182366D01*
X214928Y182339D01*
X215013Y182305D01*
X215054Y182301D01*
X215076Y182294D01*
X215109Y182295D01*
X215180Y182287D01*
X240947Y182287D01*
X250724Y172510D01*
X250798Y172457D01*
X250868Y172397D01*
X250898Y172385D01*
X250924Y172366D01*
X251011Y172339D01*
X251096Y172305D01*
X251137Y172301D01*
X251159Y172294D01*
X251191Y172295D01*
X251263Y172287D01*
X285947Y172287D01*
X326624Y131610D01*
X326698Y131557D01*
X326768Y131497D01*
X326798Y131485D01*
X326824Y131466D01*
X326911Y131439D01*
X326996Y131405D01*
X327037Y131401D01*
X327059Y131394D01*
X327091Y131395D01*
X327163Y131387D01*
X332014Y131387D01*
X332034Y131390D01*
X332053Y131388D01*
X332155Y131410D01*
X332257Y131426D01*
X332274Y131436D01*
X332294Y131440D01*
X332383Y131493D01*
X332474Y131542D01*
X332488Y131556D01*
X332505Y131566D01*
X332572Y131645D01*
X332644Y131720D01*
X332652Y131738D01*
X332665Y131753D01*
X332704Y131849D01*
X332747Y131943D01*
X332749Y131963D01*
X332757Y131981D01*
X332775Y132148D01*
X332775Y136336D01*
X332791Y136398D01*
X332821Y136496D01*
X332821Y136516D01*
X332826Y136536D01*
X332818Y136639D01*
X332815Y136742D01*
X332808Y136761D01*
X332807Y136781D01*
X332775Y136854D01*
X332775Y141336D01*
X332791Y141398D01*
X332821Y141496D01*
X332821Y141516D01*
X332826Y141536D01*
X332818Y141639D01*
X332815Y141742D01*
X332808Y141761D01*
X332807Y141781D01*
X332775Y141854D01*
X332775Y145216D01*
X332761Y145306D01*
X332753Y145397D01*
X332741Y145427D01*
X332736Y145459D01*
X332693Y145540D01*
X332657Y145624D01*
X332631Y145656D01*
X332620Y145676D01*
X332597Y145699D01*
X332552Y145755D01*
X332267Y146040D01*
X331932Y146619D01*
X331759Y147266D01*
X331759Y148339D01*
X340800Y148339D01*
X349841Y148339D01*
X349841Y147265D01*
X349668Y146619D01*
X349333Y146040D01*
X349048Y145755D01*
X348995Y145681D01*
X348935Y145611D01*
X348923Y145581D01*
X348904Y145555D01*
X348877Y145468D01*
X348843Y145383D01*
X348839Y145342D01*
X348832Y145320D01*
X348833Y145288D01*
X348825Y145216D01*
X348825Y141864D01*
X348809Y141802D01*
X348779Y141703D01*
X348779Y141683D01*
X348774Y141664D01*
X348782Y141561D01*
X348785Y141458D01*
X348792Y141439D01*
X348793Y141419D01*
X348825Y141345D01*
X348825Y136864D01*
X348809Y136802D01*
X348779Y136703D01*
X348779Y136683D01*
X348774Y136664D01*
X348782Y136561D01*
X348785Y136458D01*
X348792Y136439D01*
X348793Y136419D01*
X348825Y136345D01*
X348825Y131864D01*
X348809Y131802D01*
X348779Y131703D01*
X348779Y131683D01*
X348774Y131664D01*
X348782Y131561D01*
X348785Y131458D01*
X348792Y131439D01*
X348793Y131419D01*
X348825Y131345D01*
X348825Y126864D01*
X348809Y126802D01*
X348779Y126703D01*
X348779Y126683D01*
X348774Y126664D01*
X348782Y126561D01*
X348785Y126458D01*
X348792Y126439D01*
X348793Y126419D01*
X348825Y126345D01*
X348825Y121864D01*
X348809Y121802D01*
X348779Y121703D01*
X348779Y121683D01*
X348774Y121664D01*
X348782Y121561D01*
X348785Y121458D01*
X348792Y121439D01*
X348793Y121419D01*
X348825Y121345D01*
X348825Y117984D01*
X348839Y117894D01*
X348847Y117803D01*
X348859Y117773D01*
X348864Y117741D01*
X348907Y117660D01*
X348943Y117576D01*
X348969Y117544D01*
X348980Y117524D01*
X349003Y117501D01*
X349048Y117445D01*
X349333Y117160D01*
X349668Y116581D01*
X349841Y115934D01*
X349841Y114861D01*
X340800Y114861D01*
X331759Y114861D01*
X331759Y116035D01*
X331758Y116044D01*
X331763Y116091D01*
X331762Y116095D01*
X331762Y116099D01*
X331736Y116215D01*
X331711Y116332D01*
X331709Y116335D01*
X331708Y116339D01*
X331646Y116440D01*
X331584Y116543D01*
X331582Y116545D01*
X331580Y116548D01*
X331489Y116625D01*
X331398Y116703D01*
X331394Y116704D01*
X331391Y116707D01*
X331282Y116749D01*
X331169Y116795D01*
X331165Y116795D01*
X331162Y116796D01*
X331150Y116797D01*
X331003Y116813D01*
X304853Y116813D01*
X299176Y122490D01*
X299102Y122543D01*
X299032Y122603D01*
X299002Y122615D01*
X298976Y122634D01*
X298889Y122661D01*
X298804Y122695D01*
X298763Y122699D01*
X298741Y122706D01*
X298709Y122705D01*
X298637Y122713D01*
X229053Y122713D01*
X227490Y124276D01*
X184276Y167490D01*
X184202Y167543D01*
X184132Y167603D01*
X184102Y167615D01*
X184076Y167634D01*
X183989Y167661D01*
X183904Y167695D01*
X183863Y167699D01*
X183841Y167706D01*
X183809Y167705D01*
X183738Y167713D01*
X182359Y167713D01*
X182263Y167698D01*
X182165Y167688D01*
X182142Y167678D01*
X182116Y167674D01*
X182030Y167628D01*
X181941Y167588D01*
X181921Y167571D01*
X181898Y167558D01*
X181831Y167488D01*
X181760Y167422D01*
X181747Y167399D01*
X181729Y167380D01*
X181688Y167292D01*
X181641Y167206D01*
X181636Y167181D01*
X181625Y167157D01*
X181615Y167060D01*
X181597Y166964D01*
X181601Y166938D01*
X181598Y166913D01*
X181619Y166818D01*
X181633Y166721D01*
X181645Y166698D01*
X181651Y166672D01*
X181701Y166588D01*
X181745Y166502D01*
X181763Y166484D01*
X181777Y166461D01*
X181851Y166398D01*
X181920Y166330D01*
X181949Y166314D01*
X181964Y166301D01*
X181994Y166289D01*
X182067Y166249D01*
X182623Y166018D01*
X185018Y163623D01*
X186315Y160494D01*
X186315Y157106D01*
X185018Y153977D01*
X182623Y151582D01*
X179494Y150285D01*
X176106Y150285D01*
X172977Y151582D01*
X170582Y153977D01*
X169285Y157106D01*
X169285Y160494D01*
X170582Y163623D01*
X172977Y166018D01*
X173533Y166249D01*
X173616Y166300D01*
X173702Y166346D01*
X173720Y166365D01*
X173742Y166378D01*
X173804Y166453D01*
X173871Y166524D01*
X173882Y166548D01*
X173899Y166568D01*
X173934Y166659D01*
X173975Y166747D01*
X173977Y166773D01*
X173987Y166797D01*
X173991Y166895D01*
X174002Y166991D01*
X173996Y167017D01*
X173997Y167043D01*
X173970Y167137D01*
X173949Y167232D01*
X173936Y167254D01*
X173929Y167279D01*
X173873Y167359D01*
X173823Y167443D01*
X173803Y167460D01*
X173788Y167481D01*
X173710Y167540D01*
X173636Y167603D01*
X173612Y167613D01*
X173591Y167628D01*
X173499Y167658D01*
X173408Y167695D01*
X173376Y167698D01*
X173357Y167704D01*
X173324Y167704D01*
X173241Y167713D01*
X146262Y167713D01*
X146172Y167699D01*
X146081Y167691D01*
X146052Y167679D01*
X146020Y167674D01*
X145939Y167631D01*
X145855Y167595D01*
X145823Y167569D01*
X145802Y167558D01*
X145780Y167535D01*
X145724Y167490D01*
X108588Y130354D01*
X107025Y128791D01*
X67975Y128791D01*
X66412Y130354D01*
X56826Y139940D01*
X56752Y139993D01*
X56682Y140053D01*
X56652Y140065D01*
X56626Y140084D01*
X56539Y140111D01*
X56454Y140145D01*
X56413Y140149D01*
X56391Y140156D01*
X56359Y140155D01*
X56288Y140163D01*
X49592Y140163D01*
X49477Y140144D01*
X49361Y140127D01*
X49356Y140125D01*
X49349Y140124D01*
X49247Y140069D01*
X49142Y140016D01*
X49137Y140011D01*
X49132Y140008D01*
X49052Y139924D01*
X48970Y139840D01*
X48966Y139834D01*
X48963Y139830D01*
X48955Y139813D01*
X48889Y139693D01*
X47878Y137253D01*
X45297Y134672D01*
X41925Y133275D01*
X38275Y133275D01*
X34903Y134672D01*
X32322Y137253D01*
X30925Y140625D01*
X30925Y144275D01*
X32322Y147647D01*
X34903Y150228D01*
X38275Y151625D01*
X41925Y151625D01*
X45297Y150228D01*
X47878Y147647D01*
X48889Y145207D01*
X48951Y145107D01*
X49010Y145007D01*
X49015Y145003D01*
X49018Y144998D01*
X49108Y144923D01*
X49197Y144847D01*
X49203Y144845D01*
X49208Y144841D01*
X49316Y144799D01*
X49425Y144755D01*
X49433Y144754D01*
X49438Y144753D01*
X49456Y144752D01*
X49592Y144737D01*
X58497Y144737D01*
X60060Y143174D01*
X69646Y133588D01*
X69720Y133535D01*
X69790Y133475D01*
X69820Y133463D01*
X69846Y133444D01*
X69933Y133417D01*
X70018Y133383D01*
X70059Y133379D01*
X70081Y133372D01*
X70113Y133373D01*
X70184Y133365D01*
X76206Y133365D01*
X76253Y133372D01*
X76301Y133371D01*
X76374Y133392D01*
X76449Y133404D01*
X76491Y133427D01*
X76537Y133441D01*
X76599Y133484D01*
X76666Y133520D01*
X76699Y133554D01*
X76739Y133582D01*
X76783Y133643D01*
X76836Y133698D01*
X76856Y133741D01*
X76884Y133780D01*
X76907Y133852D01*
X76939Y133921D01*
X76945Y133969D01*
X76959Y134014D01*
X76958Y134090D01*
X76966Y134165D01*
X76956Y134212D01*
X76955Y134260D01*
X76930Y134332D01*
X76914Y134406D01*
X76889Y134447D01*
X76873Y134492D01*
X76827Y134552D01*
X76788Y134617D01*
X76752Y134648D01*
X76722Y134686D01*
X76618Y134762D01*
X76601Y134777D01*
X76595Y134779D01*
X76587Y134785D01*
X72376Y137216D01*
X67366Y142226D01*
X63823Y148363D01*
X61989Y155207D01*
X61989Y162293D01*
X63823Y169137D01*
X67366Y175274D01*
X72376Y180284D01*
X78513Y183827D01*
X85357Y185661D01*
X92443Y185661D01*
X99287Y183827D01*
X103752Y181249D01*
X103785Y181237D01*
X103815Y181216D01*
X103900Y181193D01*
X103982Y181162D01*
X104018Y181161D01*
X104052Y181151D01*
X104140Y181156D01*
X104227Y181153D01*
X104262Y181163D01*
X104298Y181166D01*
X104379Y181198D01*
X104463Y181223D01*
X104493Y181244D01*
X104526Y181257D01*
X104593Y181314D01*
X104665Y181364D01*
X104686Y181393D01*
X104713Y181417D01*
X104758Y181492D01*
X104810Y181563D01*
X104821Y181597D01*
X104840Y181628D01*
X104884Y181789D01*
X104998Y182508D01*
X105716Y184718D01*
X106771Y186789D01*
X108137Y188669D01*
X109781Y190313D01*
X111638Y191662D01*
X111644Y191668D01*
X111651Y191672D01*
X111730Y191755D01*
X111811Y191837D01*
X111815Y191844D01*
X111820Y191850D01*
X111869Y191954D01*
X111919Y192058D01*
X111921Y192066D01*
X111924Y192073D01*
X111937Y192187D01*
X111952Y192302D01*
X111950Y192310D01*
X111951Y192317D01*
X111927Y192430D01*
X111904Y192543D01*
X111900Y192550D01*
X111899Y192558D01*
X111840Y192656D01*
X111783Y192757D01*
X111777Y192762D01*
X111773Y192769D01*
X111685Y192844D01*
X111599Y192921D01*
X111592Y192924D01*
X111586Y192929D01*
X111479Y192972D01*
X111373Y193017D01*
X111365Y193018D01*
X111357Y193021D01*
X111191Y193039D01*
X10922Y193039D01*
X10902Y193036D01*
X10883Y193038D01*
X10781Y193016D01*
X10679Y193000D01*
X10662Y192990D01*
X10642Y192986D01*
X10553Y192933D01*
X10462Y192884D01*
X10448Y192870D01*
X10431Y192860D01*
X10364Y192781D01*
X10292Y192706D01*
X10284Y192688D01*
X10271Y192673D01*
X10232Y192577D01*
X10189Y192483D01*
X10187Y192463D01*
X10179Y192445D01*
X10161Y192278D01*
X10161Y10922D01*
X10164Y10902D01*
X10162Y10883D01*
X10184Y10781D01*
X10200Y10679D01*
X10210Y10662D01*
X10214Y10642D01*
X10267Y10553D01*
X10316Y10462D01*
X10330Y10448D01*
X10340Y10431D01*
X10419Y10364D01*
X10494Y10292D01*
X10512Y10284D01*
X10527Y10271D01*
X10623Y10232D01*
X10717Y10189D01*
X10737Y10187D01*
X10755Y10179D01*
X10922Y10161D01*
X111191Y10161D01*
X111199Y10162D01*
G37*
%LPC*%
G36*
X219953Y56813D02*
X219953Y56813D01*
X183976Y92790D01*
X183902Y92843D01*
X183832Y92903D01*
X183802Y92915D01*
X183776Y92934D01*
X183689Y92961D01*
X183604Y92995D01*
X183563Y92999D01*
X183541Y93006D01*
X183509Y93005D01*
X183437Y93013D01*
X161178Y93013D01*
X161063Y92994D01*
X160947Y92977D01*
X160941Y92975D01*
X160935Y92974D01*
X160832Y92919D01*
X160728Y92866D01*
X160723Y92861D01*
X160718Y92858D01*
X160638Y92774D01*
X160555Y92690D01*
X160552Y92684D01*
X160548Y92680D01*
X160540Y92663D01*
X160474Y92543D01*
X159618Y90477D01*
X157223Y88082D01*
X154094Y86785D01*
X150706Y86785D01*
X147577Y88082D01*
X145182Y90477D01*
X143885Y93606D01*
X143885Y96994D01*
X145182Y100123D01*
X147577Y102518D01*
X150706Y103815D01*
X154094Y103815D01*
X157223Y102518D01*
X159618Y100123D01*
X160474Y98057D01*
X160536Y97957D01*
X160596Y97857D01*
X160601Y97853D01*
X160604Y97848D01*
X160694Y97773D01*
X160783Y97697D01*
X160789Y97695D01*
X160794Y97691D01*
X160902Y97649D01*
X161011Y97605D01*
X161019Y97604D01*
X161023Y97603D01*
X161041Y97602D01*
X161178Y97587D01*
X185647Y97587D01*
X221624Y61610D01*
X221698Y61557D01*
X221768Y61497D01*
X221798Y61485D01*
X221824Y61466D01*
X221911Y61439D01*
X221996Y61405D01*
X222037Y61401D01*
X222059Y61394D01*
X222091Y61395D01*
X222163Y61387D01*
X294537Y61387D01*
X294628Y61401D01*
X294718Y61409D01*
X294748Y61421D01*
X294780Y61426D01*
X294861Y61469D01*
X294945Y61505D01*
X294977Y61531D01*
X294998Y61542D01*
X295020Y61565D01*
X295076Y61610D01*
X308980Y75514D01*
X309022Y75572D01*
X309071Y75624D01*
X309093Y75671D01*
X309123Y75713D01*
X309144Y75782D01*
X309175Y75847D01*
X309180Y75899D01*
X309196Y75949D01*
X309194Y76020D01*
X309202Y76091D01*
X309191Y76142D01*
X309189Y76194D01*
X309165Y76262D01*
X309150Y76332D01*
X309123Y76377D01*
X309105Y76425D01*
X309060Y76481D01*
X309023Y76543D01*
X308984Y76577D01*
X308951Y76617D01*
X308891Y76656D01*
X308836Y76703D01*
X308788Y76722D01*
X308744Y76750D01*
X308675Y76768D01*
X308608Y76795D01*
X308537Y76803D01*
X308506Y76811D01*
X308482Y76809D01*
X308442Y76813D01*
X300363Y76813D01*
X300272Y76799D01*
X300182Y76791D01*
X300152Y76779D01*
X300120Y76774D01*
X300039Y76731D01*
X299955Y76695D01*
X299923Y76669D01*
X299902Y76658D01*
X299880Y76635D01*
X299824Y76590D01*
X290947Y67713D01*
X229053Y67713D01*
X191276Y105490D01*
X191202Y105543D01*
X191132Y105603D01*
X191102Y105615D01*
X191076Y105634D01*
X190989Y105661D01*
X190904Y105695D01*
X190863Y105699D01*
X190841Y105706D01*
X190809Y105705D01*
X190737Y105713D01*
X186578Y105713D01*
X186463Y105694D01*
X186347Y105677D01*
X186341Y105675D01*
X186335Y105674D01*
X186232Y105619D01*
X186128Y105566D01*
X186123Y105561D01*
X186118Y105558D01*
X186038Y105474D01*
X185955Y105390D01*
X185952Y105384D01*
X185948Y105380D01*
X185940Y105363D01*
X185874Y105243D01*
X185018Y103177D01*
X182623Y100782D01*
X179494Y99485D01*
X176106Y99485D01*
X172977Y100782D01*
X170582Y103177D01*
X169285Y106306D01*
X169285Y109694D01*
X170582Y112823D01*
X172977Y115218D01*
X176106Y116515D01*
X179494Y116515D01*
X182623Y115218D01*
X185018Y112823D01*
X185874Y110757D01*
X185936Y110657D01*
X185996Y110557D01*
X186001Y110553D01*
X186004Y110548D01*
X186094Y110473D01*
X186183Y110397D01*
X186189Y110395D01*
X186194Y110391D01*
X186302Y110349D01*
X186411Y110305D01*
X186419Y110304D01*
X186423Y110303D01*
X186441Y110302D01*
X186578Y110287D01*
X192947Y110287D01*
X230724Y72510D01*
X230798Y72457D01*
X230868Y72397D01*
X230898Y72385D01*
X230924Y72366D01*
X231011Y72339D01*
X231096Y72305D01*
X231137Y72301D01*
X231159Y72294D01*
X231191Y72295D01*
X231263Y72287D01*
X288737Y72287D01*
X288828Y72301D01*
X288918Y72309D01*
X288948Y72321D01*
X288980Y72326D01*
X289061Y72369D01*
X289145Y72405D01*
X289177Y72431D01*
X289198Y72442D01*
X289220Y72465D01*
X289276Y72510D01*
X298153Y81387D01*
X331003Y81387D01*
X331120Y81406D01*
X331239Y81424D01*
X331242Y81426D01*
X331245Y81426D01*
X331350Y81482D01*
X331457Y81537D01*
X331460Y81540D01*
X331463Y81542D01*
X331544Y81627D01*
X331628Y81714D01*
X331630Y81717D01*
X331632Y81720D01*
X331682Y81828D01*
X331734Y81936D01*
X331734Y81940D01*
X331736Y81943D01*
X331749Y82061D01*
X331763Y82180D01*
X331763Y82185D01*
X331763Y82187D01*
X331760Y82200D01*
X331759Y82206D01*
X331759Y83339D01*
X340800Y83339D01*
X349841Y83339D01*
X349841Y82265D01*
X349668Y81619D01*
X349333Y81040D01*
X349048Y80755D01*
X348995Y80681D01*
X348935Y80611D01*
X348923Y80581D01*
X348904Y80555D01*
X348877Y80468D01*
X348843Y80383D01*
X348839Y80342D01*
X348832Y80320D01*
X348833Y80288D01*
X348825Y80216D01*
X348825Y76864D01*
X348809Y76802D01*
X348779Y76703D01*
X348779Y76683D01*
X348774Y76664D01*
X348782Y76561D01*
X348785Y76458D01*
X348792Y76439D01*
X348793Y76419D01*
X348825Y76345D01*
X348825Y72984D01*
X348839Y72894D01*
X348847Y72803D01*
X348859Y72773D01*
X348864Y72741D01*
X348907Y72660D01*
X348943Y72576D01*
X348969Y72544D01*
X348980Y72524D01*
X349003Y72501D01*
X349048Y72445D01*
X349333Y72160D01*
X349668Y71581D01*
X349841Y70934D01*
X349841Y69861D01*
X340800Y69861D01*
X331759Y69861D01*
X331759Y71035D01*
X331758Y71044D01*
X331763Y71091D01*
X331762Y71095D01*
X331762Y71099D01*
X331736Y71215D01*
X331711Y71332D01*
X331709Y71335D01*
X331708Y71339D01*
X331646Y71440D01*
X331584Y71543D01*
X331582Y71545D01*
X331580Y71548D01*
X331489Y71625D01*
X331398Y71703D01*
X331394Y71704D01*
X331391Y71707D01*
X331282Y71749D01*
X331169Y71795D01*
X331165Y71795D01*
X331162Y71796D01*
X331150Y71797D01*
X331003Y71813D01*
X312063Y71813D01*
X311972Y71799D01*
X311882Y71791D01*
X311852Y71779D01*
X311820Y71774D01*
X311739Y71731D01*
X311655Y71695D01*
X311623Y71669D01*
X311602Y71658D01*
X311580Y71635D01*
X311524Y71590D01*
X296747Y56813D01*
X219953Y56813D01*
G37*
%LPD*%
%LPC*%
G36*
X194953Y36813D02*
X194953Y36813D01*
X182390Y49376D01*
X182295Y49444D01*
X182201Y49514D01*
X182195Y49516D01*
X182190Y49520D01*
X182079Y49554D01*
X181967Y49590D01*
X181961Y49590D01*
X181955Y49592D01*
X181838Y49589D01*
X181721Y49588D01*
X181714Y49586D01*
X181709Y49586D01*
X181692Y49579D01*
X181560Y49541D01*
X179494Y48685D01*
X176106Y48685D01*
X172977Y49982D01*
X170582Y52377D01*
X169285Y55506D01*
X169285Y58894D01*
X170582Y62023D01*
X172977Y64418D01*
X176106Y65715D01*
X179494Y65715D01*
X182623Y64418D01*
X185018Y62023D01*
X186315Y58894D01*
X186315Y55506D01*
X185459Y53440D01*
X185432Y53326D01*
X185403Y53213D01*
X185404Y53206D01*
X185403Y53200D01*
X185414Y53084D01*
X185423Y52967D01*
X185425Y52962D01*
X185426Y52955D01*
X185473Y52848D01*
X185519Y52741D01*
X185524Y52735D01*
X185526Y52731D01*
X185538Y52717D01*
X185624Y52610D01*
X196624Y41610D01*
X196698Y41557D01*
X196768Y41497D01*
X196798Y41485D01*
X196824Y41466D01*
X196911Y41439D01*
X196996Y41405D01*
X197037Y41401D01*
X197059Y41394D01*
X197091Y41395D01*
X197163Y41387D01*
X304537Y41387D01*
X304628Y41401D01*
X304718Y41409D01*
X304748Y41421D01*
X304780Y41426D01*
X304861Y41469D01*
X304945Y41505D01*
X304977Y41531D01*
X304998Y41542D01*
X305020Y41565D01*
X305076Y41610D01*
X323980Y60514D01*
X324022Y60572D01*
X324071Y60624D01*
X324093Y60671D01*
X324123Y60713D01*
X324144Y60782D01*
X324175Y60847D01*
X324180Y60899D01*
X324196Y60949D01*
X324194Y61020D01*
X324202Y61091D01*
X324191Y61142D01*
X324189Y61194D01*
X324165Y61262D01*
X324150Y61332D01*
X324123Y61377D01*
X324105Y61425D01*
X324060Y61481D01*
X324023Y61543D01*
X323984Y61577D01*
X323951Y61617D01*
X323891Y61656D01*
X323836Y61703D01*
X323788Y61722D01*
X323744Y61750D01*
X323675Y61768D01*
X323608Y61795D01*
X323537Y61803D01*
X323506Y61811D01*
X323482Y61809D01*
X323442Y61813D01*
X317062Y61813D01*
X316972Y61799D01*
X316881Y61791D01*
X316852Y61779D01*
X316820Y61774D01*
X316739Y61731D01*
X316655Y61695D01*
X316623Y61669D01*
X316602Y61658D01*
X316580Y61635D01*
X316524Y61590D01*
X303310Y48376D01*
X301747Y46813D01*
X209953Y46813D01*
X208390Y48376D01*
X189376Y67390D01*
X189302Y67443D01*
X189232Y67503D01*
X189202Y67515D01*
X189176Y67534D01*
X189089Y67561D01*
X189004Y67595D01*
X188963Y67599D01*
X188941Y67606D01*
X188909Y67605D01*
X188838Y67613D01*
X161178Y67613D01*
X161063Y67594D01*
X160947Y67577D01*
X160941Y67575D01*
X160935Y67574D01*
X160832Y67519D01*
X160728Y67466D01*
X160723Y67461D01*
X160718Y67458D01*
X160638Y67374D01*
X160555Y67290D01*
X160552Y67284D01*
X160548Y67280D01*
X160540Y67263D01*
X160474Y67143D01*
X159618Y65077D01*
X157223Y62682D01*
X154094Y61385D01*
X150706Y61385D01*
X147577Y62682D01*
X145182Y65077D01*
X143885Y68206D01*
X143885Y71594D01*
X145182Y74723D01*
X147577Y77118D01*
X150706Y78415D01*
X154094Y78415D01*
X157223Y77118D01*
X159618Y74723D01*
X160474Y72657D01*
X160536Y72557D01*
X160596Y72457D01*
X160601Y72453D01*
X160604Y72448D01*
X160694Y72373D01*
X160783Y72297D01*
X160789Y72295D01*
X160794Y72291D01*
X160902Y72249D01*
X161011Y72205D01*
X161019Y72204D01*
X161023Y72203D01*
X161041Y72202D01*
X161178Y72187D01*
X191047Y72187D01*
X192610Y70624D01*
X211624Y51610D01*
X211698Y51556D01*
X211768Y51497D01*
X211798Y51485D01*
X211824Y51466D01*
X211911Y51439D01*
X211996Y51405D01*
X212037Y51401D01*
X212059Y51394D01*
X212091Y51395D01*
X212162Y51387D01*
X299538Y51387D01*
X299628Y51401D01*
X299719Y51409D01*
X299748Y51421D01*
X299780Y51426D01*
X299861Y51469D01*
X299945Y51505D01*
X299977Y51531D01*
X299998Y51542D01*
X300020Y51565D01*
X300076Y51610D01*
X313290Y64824D01*
X314853Y66387D01*
X331003Y66387D01*
X331120Y66406D01*
X331239Y66424D01*
X331242Y66426D01*
X331245Y66426D01*
X331350Y66482D01*
X331457Y66537D01*
X331460Y66540D01*
X331463Y66542D01*
X331544Y66627D01*
X331628Y66714D01*
X331630Y66717D01*
X331632Y66720D01*
X331682Y66826D01*
X331734Y66936D01*
X331734Y66940D01*
X331736Y66943D01*
X331749Y67061D01*
X331763Y67180D01*
X331763Y67185D01*
X331763Y67187D01*
X331760Y67200D01*
X331759Y67206D01*
X331759Y68339D01*
X340800Y68339D01*
X349841Y68339D01*
X349841Y67265D01*
X349668Y66619D01*
X349333Y66040D01*
X349048Y65755D01*
X348995Y65681D01*
X348935Y65611D01*
X348923Y65581D01*
X348904Y65555D01*
X348877Y65468D01*
X348843Y65383D01*
X348839Y65342D01*
X348832Y65320D01*
X348833Y65288D01*
X348825Y65216D01*
X348825Y61864D01*
X348809Y61802D01*
X348779Y61703D01*
X348779Y61683D01*
X348774Y61664D01*
X348782Y61561D01*
X348785Y61458D01*
X348792Y61439D01*
X348793Y61419D01*
X348825Y61345D01*
X348825Y57984D01*
X348839Y57894D01*
X348847Y57803D01*
X348859Y57773D01*
X348864Y57741D01*
X348907Y57660D01*
X348943Y57576D01*
X348969Y57544D01*
X348980Y57524D01*
X349003Y57501D01*
X349048Y57445D01*
X349333Y57160D01*
X349668Y56581D01*
X349841Y55934D01*
X349841Y54861D01*
X340800Y54861D01*
X331759Y54861D01*
X331759Y56035D01*
X331758Y56044D01*
X331763Y56091D01*
X331762Y56095D01*
X331762Y56099D01*
X331736Y56215D01*
X331711Y56332D01*
X331709Y56335D01*
X331708Y56339D01*
X331646Y56440D01*
X331584Y56543D01*
X331582Y56545D01*
X331580Y56548D01*
X331489Y56625D01*
X331398Y56703D01*
X331394Y56704D01*
X331391Y56707D01*
X331282Y56749D01*
X331169Y56795D01*
X331165Y56795D01*
X331162Y56796D01*
X331150Y56797D01*
X331003Y56813D01*
X327063Y56813D01*
X326972Y56799D01*
X326882Y56791D01*
X326852Y56779D01*
X326820Y56774D01*
X326739Y56731D01*
X326655Y56695D01*
X326623Y56669D01*
X326602Y56658D01*
X326580Y56635D01*
X326524Y56590D01*
X306747Y36813D01*
X194953Y36813D01*
G37*
%LPD*%
%LPC*%
G36*
X239053Y77713D02*
X239053Y77713D01*
X227046Y89720D01*
X226972Y89773D01*
X226902Y89833D01*
X226872Y89845D01*
X226846Y89864D01*
X226759Y89891D01*
X226674Y89925D01*
X226633Y89929D01*
X226611Y89936D01*
X226579Y89935D01*
X226507Y89943D01*
X222905Y89943D01*
X219943Y92905D01*
X219943Y97095D01*
X222905Y100057D01*
X227095Y100057D01*
X230057Y97095D01*
X230057Y93493D01*
X230071Y93402D01*
X230079Y93312D01*
X230091Y93282D01*
X230096Y93250D01*
X230139Y93169D01*
X230175Y93085D01*
X230201Y93053D01*
X230212Y93032D01*
X230235Y93010D01*
X230280Y92954D01*
X240724Y82510D01*
X240798Y82457D01*
X240868Y82397D01*
X240898Y82385D01*
X240924Y82366D01*
X241011Y82339D01*
X241096Y82305D01*
X241137Y82301D01*
X241159Y82294D01*
X241191Y82295D01*
X241263Y82287D01*
X283737Y82287D01*
X283828Y82301D01*
X283918Y82309D01*
X283948Y82321D01*
X283980Y82326D01*
X284061Y82369D01*
X284145Y82405D01*
X284177Y82431D01*
X284198Y82442D01*
X284220Y82465D01*
X284276Y82510D01*
X292280Y90514D01*
X292322Y90572D01*
X292371Y90624D01*
X292393Y90671D01*
X292423Y90713D01*
X292444Y90782D01*
X292475Y90847D01*
X292480Y90899D01*
X292496Y90949D01*
X292494Y91020D01*
X292502Y91091D01*
X292491Y91142D01*
X292489Y91194D01*
X292465Y91262D01*
X292450Y91332D01*
X292423Y91377D01*
X292405Y91425D01*
X292360Y91481D01*
X292323Y91543D01*
X292284Y91577D01*
X292251Y91617D01*
X292191Y91656D01*
X292136Y91703D01*
X292088Y91722D01*
X292044Y91750D01*
X291975Y91768D01*
X291908Y91795D01*
X291837Y91803D01*
X291806Y91811D01*
X291782Y91809D01*
X291742Y91813D01*
X244953Y91813D01*
X233576Y103190D01*
X233502Y103243D01*
X233432Y103303D01*
X233402Y103315D01*
X233376Y103334D01*
X233289Y103361D01*
X233204Y103395D01*
X233163Y103399D01*
X233141Y103406D01*
X233109Y103405D01*
X233037Y103413D01*
X211453Y103413D01*
X196676Y118190D01*
X196602Y118243D01*
X196532Y118303D01*
X196502Y118315D01*
X196476Y118334D01*
X196389Y118361D01*
X196304Y118395D01*
X196263Y118399D01*
X196241Y118406D01*
X196209Y118405D01*
X196137Y118413D01*
X161178Y118413D01*
X161063Y118394D01*
X160947Y118377D01*
X160941Y118375D01*
X160935Y118374D01*
X160832Y118319D01*
X160728Y118266D01*
X160723Y118261D01*
X160718Y118258D01*
X160638Y118174D01*
X160555Y118090D01*
X160552Y118084D01*
X160548Y118080D01*
X160540Y118063D01*
X160474Y117943D01*
X159618Y115877D01*
X157223Y113482D01*
X154094Y112185D01*
X150706Y112185D01*
X147577Y113482D01*
X145182Y115877D01*
X143885Y119006D01*
X143885Y122394D01*
X145182Y125523D01*
X147577Y127918D01*
X150706Y129215D01*
X154094Y129215D01*
X157223Y127918D01*
X159618Y125523D01*
X160474Y123457D01*
X160536Y123357D01*
X160596Y123257D01*
X160601Y123253D01*
X160604Y123248D01*
X160694Y123173D01*
X160783Y123097D01*
X160789Y123095D01*
X160794Y123091D01*
X160902Y123049D01*
X161011Y123005D01*
X161019Y123004D01*
X161023Y123003D01*
X161041Y123002D01*
X161178Y122987D01*
X198347Y122987D01*
X213124Y108210D01*
X213198Y108157D01*
X213268Y108097D01*
X213298Y108085D01*
X213324Y108066D01*
X213411Y108039D01*
X213496Y108005D01*
X213537Y108001D01*
X213559Y107994D01*
X213591Y107995D01*
X213663Y107987D01*
X235247Y107987D01*
X246624Y96610D01*
X246698Y96557D01*
X246768Y96497D01*
X246798Y96485D01*
X246824Y96466D01*
X246911Y96439D01*
X246996Y96405D01*
X247037Y96401D01*
X247059Y96394D01*
X247091Y96395D01*
X247163Y96387D01*
X331003Y96387D01*
X331120Y96406D01*
X331239Y96424D01*
X331242Y96426D01*
X331245Y96426D01*
X331350Y96482D01*
X331457Y96537D01*
X331460Y96540D01*
X331463Y96542D01*
X331544Y96627D01*
X331628Y96714D01*
X331630Y96717D01*
X331632Y96720D01*
X331682Y96828D01*
X331734Y96936D01*
X331734Y96940D01*
X331736Y96943D01*
X331749Y97061D01*
X331763Y97180D01*
X331763Y97185D01*
X331763Y97187D01*
X331760Y97200D01*
X331759Y97206D01*
X331759Y98339D01*
X340800Y98339D01*
X349841Y98339D01*
X349841Y97265D01*
X349668Y96619D01*
X349333Y96040D01*
X349048Y95755D01*
X348995Y95681D01*
X348935Y95611D01*
X348923Y95581D01*
X348904Y95555D01*
X348877Y95468D01*
X348843Y95383D01*
X348839Y95342D01*
X348832Y95320D01*
X348833Y95288D01*
X348825Y95216D01*
X348825Y91864D01*
X348809Y91802D01*
X348779Y91703D01*
X348779Y91683D01*
X348774Y91664D01*
X348782Y91561D01*
X348785Y91458D01*
X348792Y91439D01*
X348793Y91419D01*
X348825Y91345D01*
X348825Y87984D01*
X348839Y87894D01*
X348847Y87803D01*
X348859Y87773D01*
X348864Y87741D01*
X348907Y87660D01*
X348943Y87576D01*
X348969Y87544D01*
X348980Y87524D01*
X349003Y87501D01*
X349048Y87445D01*
X349333Y87160D01*
X349668Y86581D01*
X349841Y85934D01*
X349841Y84861D01*
X340800Y84861D01*
X331759Y84861D01*
X331759Y86035D01*
X331758Y86044D01*
X331763Y86091D01*
X331762Y86095D01*
X331762Y86099D01*
X331736Y86215D01*
X331711Y86332D01*
X331709Y86335D01*
X331708Y86339D01*
X331646Y86440D01*
X331584Y86543D01*
X331582Y86545D01*
X331580Y86548D01*
X331489Y86625D01*
X331398Y86703D01*
X331394Y86704D01*
X331391Y86707D01*
X331282Y86749D01*
X331169Y86795D01*
X331165Y86795D01*
X331162Y86796D01*
X331150Y86797D01*
X331003Y86813D01*
X295363Y86813D01*
X295272Y86799D01*
X295182Y86791D01*
X295152Y86779D01*
X295120Y86774D01*
X295039Y86731D01*
X294955Y86695D01*
X294923Y86669D01*
X294902Y86658D01*
X294880Y86635D01*
X294824Y86590D01*
X285947Y77713D01*
X239053Y77713D01*
G37*
%LPD*%
%LPC*%
G36*
X340800Y99861D02*
X340800Y99861D01*
X331759Y99861D01*
X331759Y101035D01*
X331758Y101045D01*
X331763Y101091D01*
X331762Y101096D01*
X331762Y101100D01*
X331736Y101215D01*
X331711Y101332D01*
X331708Y101336D01*
X331707Y101340D01*
X331646Y101440D01*
X331584Y101543D01*
X331581Y101546D01*
X331579Y101549D01*
X331489Y101625D01*
X331398Y101703D01*
X331393Y101705D01*
X331390Y101707D01*
X331281Y101750D01*
X331169Y101795D01*
X331164Y101795D01*
X331161Y101797D01*
X331147Y101797D01*
X331003Y101813D01*
X254953Y101813D01*
X245876Y110890D01*
X245802Y110943D01*
X245732Y111003D01*
X245702Y111015D01*
X245676Y111034D01*
X245589Y111061D01*
X245504Y111095D01*
X245463Y111099D01*
X245441Y111106D01*
X245409Y111105D01*
X245337Y111113D01*
X221853Y111113D01*
X202076Y130890D01*
X202002Y130943D01*
X201932Y131003D01*
X201902Y131015D01*
X201876Y131034D01*
X201789Y131061D01*
X201704Y131095D01*
X201663Y131099D01*
X201641Y131106D01*
X201609Y131105D01*
X201537Y131113D01*
X186578Y131113D01*
X186463Y131094D01*
X186347Y131077D01*
X186341Y131075D01*
X186335Y131074D01*
X186232Y131019D01*
X186128Y130966D01*
X186123Y130961D01*
X186118Y130958D01*
X186038Y130874D01*
X185955Y130790D01*
X185952Y130784D01*
X185948Y130780D01*
X185940Y130763D01*
X185874Y130643D01*
X185018Y128577D01*
X182623Y126182D01*
X179494Y124885D01*
X176106Y124885D01*
X172977Y126182D01*
X170582Y128577D01*
X169285Y131706D01*
X169285Y135094D01*
X170582Y138223D01*
X172977Y140618D01*
X176106Y141915D01*
X179494Y141915D01*
X182623Y140618D01*
X185018Y138223D01*
X185874Y136157D01*
X185936Y136057D01*
X185996Y135957D01*
X186001Y135953D01*
X186004Y135948D01*
X186095Y135873D01*
X186183Y135797D01*
X186189Y135795D01*
X186193Y135791D01*
X186302Y135749D01*
X186411Y135705D01*
X186419Y135704D01*
X186423Y135703D01*
X186441Y135702D01*
X186578Y135687D01*
X203747Y135687D01*
X223524Y115910D01*
X223598Y115857D01*
X223668Y115797D01*
X223698Y115785D01*
X223724Y115766D01*
X223811Y115739D01*
X223896Y115705D01*
X223937Y115701D01*
X223959Y115694D01*
X223991Y115695D01*
X224063Y115687D01*
X247547Y115687D01*
X256624Y106610D01*
X256698Y106557D01*
X256768Y106497D01*
X256798Y106485D01*
X256824Y106466D01*
X256911Y106439D01*
X256996Y106405D01*
X257037Y106401D01*
X257059Y106394D01*
X257091Y106395D01*
X257163Y106387D01*
X298542Y106387D01*
X298612Y106398D01*
X298684Y106400D01*
X298733Y106418D01*
X298784Y106426D01*
X298848Y106460D01*
X298915Y106485D01*
X298956Y106517D01*
X299002Y106542D01*
X299051Y106594D01*
X299107Y106638D01*
X299135Y106682D01*
X299171Y106720D01*
X299201Y106785D01*
X299240Y106845D01*
X299253Y106896D01*
X299275Y106943D01*
X299283Y107014D01*
X299300Y107084D01*
X299296Y107136D01*
X299302Y107187D01*
X299287Y107258D01*
X299281Y107329D01*
X299261Y107377D01*
X299250Y107428D01*
X299213Y107489D01*
X299185Y107555D01*
X299140Y107611D01*
X299123Y107639D01*
X299106Y107654D01*
X299080Y107686D01*
X294276Y112490D01*
X294202Y112543D01*
X294132Y112603D01*
X294102Y112615D01*
X294076Y112634D01*
X293989Y112661D01*
X293904Y112695D01*
X293863Y112699D01*
X293841Y112706D01*
X293809Y112705D01*
X293737Y112713D01*
X290533Y112713D01*
X290443Y112699D01*
X290352Y112691D01*
X290323Y112679D01*
X290291Y112674D01*
X290210Y112631D01*
X290126Y112595D01*
X290094Y112569D01*
X290073Y112558D01*
X290051Y112535D01*
X289995Y112490D01*
X287198Y109693D01*
X282802Y109693D01*
X279693Y112802D01*
X279693Y117198D01*
X282802Y120307D01*
X287198Y120307D01*
X289995Y117510D01*
X290069Y117457D01*
X290139Y117397D01*
X290169Y117385D01*
X290195Y117366D01*
X290282Y117339D01*
X290367Y117305D01*
X290408Y117301D01*
X290430Y117294D01*
X290462Y117295D01*
X290533Y117287D01*
X295947Y117287D01*
X301624Y111610D01*
X301698Y111557D01*
X301768Y111497D01*
X301798Y111485D01*
X301824Y111466D01*
X301911Y111439D01*
X301996Y111405D01*
X302037Y111401D01*
X302059Y111394D01*
X302091Y111395D01*
X302163Y111387D01*
X331003Y111387D01*
X331120Y111406D01*
X331239Y111424D01*
X331242Y111426D01*
X331245Y111426D01*
X331350Y111482D01*
X331457Y111537D01*
X331460Y111540D01*
X331463Y111542D01*
X331544Y111627D01*
X331628Y111714D01*
X331630Y111717D01*
X331632Y111720D01*
X331682Y111828D01*
X331734Y111936D01*
X331734Y111940D01*
X331736Y111943D01*
X331749Y112061D01*
X331763Y112180D01*
X331763Y112185D01*
X331763Y112187D01*
X331760Y112200D01*
X331759Y112206D01*
X331759Y113339D01*
X340800Y113339D01*
X349841Y113339D01*
X349841Y112265D01*
X349668Y111619D01*
X349333Y111040D01*
X349048Y110755D01*
X348995Y110681D01*
X348935Y110611D01*
X348923Y110581D01*
X348904Y110555D01*
X348877Y110468D01*
X348843Y110383D01*
X348839Y110342D01*
X348832Y110320D01*
X348833Y110288D01*
X348825Y110216D01*
X348825Y106864D01*
X348809Y106802D01*
X348779Y106703D01*
X348779Y106683D01*
X348774Y106664D01*
X348782Y106561D01*
X348785Y106458D01*
X348792Y106439D01*
X348793Y106419D01*
X348825Y106345D01*
X348825Y102984D01*
X348839Y102894D01*
X348847Y102803D01*
X348859Y102773D01*
X348864Y102741D01*
X348907Y102660D01*
X348943Y102576D01*
X348969Y102544D01*
X348980Y102524D01*
X349003Y102501D01*
X349048Y102445D01*
X349333Y102160D01*
X349668Y101581D01*
X349841Y100934D01*
X349841Y99861D01*
X340800Y99861D01*
X340800Y99861D01*
G37*
%LPD*%
%LPC*%
G36*
X361668Y24575D02*
X361668Y24575D01*
X360775Y25468D01*
X360775Y44732D01*
X361668Y45625D01*
X384932Y45625D01*
X385825Y44732D01*
X385825Y25468D01*
X384932Y24575D01*
X361668Y24575D01*
G37*
%LPD*%
%LPC*%
G36*
X361668Y157575D02*
X361668Y157575D01*
X360775Y158468D01*
X360775Y177732D01*
X361668Y178625D01*
X384932Y178625D01*
X385825Y177732D01*
X385825Y158468D01*
X384932Y157575D01*
X361668Y157575D01*
G37*
%LPD*%
%LPC*%
G36*
X252668Y145275D02*
X252668Y145275D01*
X251775Y146168D01*
X251775Y149752D01*
X251772Y149772D01*
X251774Y149791D01*
X251752Y149893D01*
X251736Y149995D01*
X251726Y150012D01*
X251722Y150032D01*
X251669Y150121D01*
X251620Y150212D01*
X251606Y150226D01*
X251596Y150243D01*
X251517Y150310D01*
X251442Y150382D01*
X251424Y150390D01*
X251409Y150403D01*
X251332Y150434D01*
X244997Y156769D01*
X244981Y156781D01*
X244968Y156796D01*
X244881Y156852D01*
X244797Y156913D01*
X244778Y156918D01*
X244761Y156929D01*
X244661Y156955D01*
X244562Y156985D01*
X244542Y156984D01*
X244523Y156989D01*
X244420Y156981D01*
X244316Y156979D01*
X244297Y156972D01*
X244278Y156970D01*
X244183Y156930D01*
X244085Y156894D01*
X244070Y156882D01*
X244051Y156874D01*
X243920Y156769D01*
X242095Y154943D01*
X237905Y154943D01*
X234943Y157905D01*
X234943Y162095D01*
X237905Y165057D01*
X242095Y165057D01*
X244642Y162510D01*
X244716Y162457D01*
X244785Y162397D01*
X244815Y162385D01*
X244841Y162366D01*
X244928Y162339D01*
X245013Y162305D01*
X245054Y162301D01*
X245076Y162294D01*
X245109Y162295D01*
X245180Y162287D01*
X245947Y162287D01*
X247510Y160724D01*
X250476Y157758D01*
X250534Y157716D01*
X250586Y157667D01*
X250633Y157645D01*
X250675Y157615D01*
X250744Y157594D01*
X250809Y157563D01*
X250861Y157558D01*
X250911Y157542D01*
X250982Y157544D01*
X251053Y157536D01*
X251104Y157547D01*
X251156Y157549D01*
X251224Y157573D01*
X251294Y157588D01*
X251339Y157615D01*
X251387Y157633D01*
X251443Y157678D01*
X251505Y157715D01*
X251539Y157754D01*
X251579Y157787D01*
X251618Y157847D01*
X251665Y157902D01*
X251684Y157950D01*
X251712Y157994D01*
X251730Y158063D01*
X251757Y158130D01*
X251765Y158201D01*
X251773Y158232D01*
X251771Y158256D01*
X251775Y158296D01*
X251775Y159432D01*
X252668Y160325D01*
X261932Y160325D01*
X262825Y159432D01*
X262825Y146168D01*
X261932Y145275D01*
X252668Y145275D01*
G37*
%LPD*%
%LPC*%
G36*
X38275Y51575D02*
X38275Y51575D01*
X34903Y52972D01*
X32322Y55553D01*
X30925Y58925D01*
X30925Y62575D01*
X32322Y65947D01*
X34903Y68528D01*
X38275Y69925D01*
X41925Y69925D01*
X45297Y68528D01*
X47878Y65947D01*
X49275Y62575D01*
X49275Y58925D01*
X47878Y55553D01*
X45297Y52972D01*
X41925Y51575D01*
X38275Y51575D01*
G37*
%LPD*%
%LPC*%
G36*
X38275Y158675D02*
X38275Y158675D01*
X34903Y160072D01*
X32322Y162653D01*
X30925Y166025D01*
X30925Y169675D01*
X32322Y173047D01*
X34903Y175628D01*
X38275Y177025D01*
X41925Y177025D01*
X45297Y175628D01*
X47878Y173047D01*
X49275Y169675D01*
X49275Y166025D01*
X47878Y162653D01*
X45297Y160072D01*
X41925Y158675D01*
X38275Y158675D01*
G37*
%LPD*%
%LPC*%
G36*
X176106Y74085D02*
X176106Y74085D01*
X172977Y75382D01*
X170582Y77777D01*
X169285Y80906D01*
X169285Y84294D01*
X170582Y87423D01*
X172977Y89818D01*
X176106Y91115D01*
X179494Y91115D01*
X182623Y89818D01*
X185018Y87423D01*
X186315Y84294D01*
X186315Y80906D01*
X185018Y77777D01*
X182623Y75382D01*
X179494Y74085D01*
X176106Y74085D01*
G37*
%LPD*%
%LPC*%
G36*
X150706Y137585D02*
X150706Y137585D01*
X147577Y138882D01*
X145182Y141277D01*
X143885Y144406D01*
X143885Y147794D01*
X145182Y150923D01*
X147577Y153318D01*
X150706Y154615D01*
X154094Y154615D01*
X157223Y153318D01*
X159618Y150923D01*
X160915Y147794D01*
X160915Y144406D01*
X159618Y141277D01*
X157223Y138882D01*
X154094Y137585D01*
X150706Y137585D01*
G37*
%LPD*%
%LPC*%
G36*
X120923Y25673D02*
X120923Y25673D01*
X120923Y38859D01*
X122858Y38552D01*
X125068Y37834D01*
X127139Y36779D01*
X129019Y35413D01*
X130663Y33769D01*
X132029Y31889D01*
X133084Y29818D01*
X133802Y27608D01*
X134109Y25673D01*
X120923Y25673D01*
G37*
%LPD*%
%LPC*%
G36*
X120923Y177527D02*
X120923Y177527D01*
X134109Y177527D01*
X133802Y175592D01*
X133084Y173382D01*
X132029Y171311D01*
X130663Y169431D01*
X129019Y167787D01*
X127139Y166421D01*
X125068Y165366D01*
X122858Y164648D01*
X120923Y164341D01*
X120923Y177527D01*
G37*
%LPD*%
%LPC*%
G36*
X153923Y46023D02*
X153923Y46023D01*
X153923Y53914D01*
X155180Y53664D01*
X156914Y52946D01*
X158476Y51903D01*
X159803Y50576D01*
X160846Y49014D01*
X161564Y47280D01*
X161814Y46023D01*
X153923Y46023D01*
G37*
%LPD*%
%LPC*%
G36*
X142986Y46023D02*
X142986Y46023D01*
X143236Y47280D01*
X143954Y49014D01*
X144997Y50576D01*
X146324Y51903D01*
X147886Y52946D01*
X149620Y53664D01*
X150877Y53914D01*
X150877Y46023D01*
X142986Y46023D01*
G37*
%LPD*%
%LPC*%
G36*
X153923Y42977D02*
X153923Y42977D01*
X161814Y42977D01*
X161564Y41720D01*
X160846Y39986D01*
X159803Y38424D01*
X158476Y37097D01*
X156914Y36054D01*
X155180Y35336D01*
X153923Y35086D01*
X153923Y42977D01*
G37*
%LPD*%
%LPC*%
G36*
X149620Y35336D02*
X149620Y35336D01*
X147886Y36054D01*
X146324Y37097D01*
X144997Y38424D01*
X143954Y39986D01*
X143236Y41720D01*
X142986Y42977D01*
X150877Y42977D01*
X150877Y35086D01*
X149620Y35336D01*
G37*
%LPD*%
%LPC*%
G36*
X276823Y154323D02*
X276823Y154323D01*
X276823Y161341D01*
X279634Y161341D01*
X280281Y161168D01*
X280860Y160833D01*
X281333Y160360D01*
X281668Y159781D01*
X281841Y159134D01*
X281841Y154323D01*
X276823Y154323D01*
G37*
%LPD*%
%LPC*%
G36*
X276823Y144259D02*
X276823Y144259D01*
X276823Y151277D01*
X281841Y151277D01*
X281841Y146466D01*
X281668Y145819D01*
X281333Y145240D01*
X280860Y144767D01*
X280281Y144432D01*
X279634Y144259D01*
X276823Y144259D01*
G37*
%LPD*%
%LPC*%
G36*
X268759Y154323D02*
X268759Y154323D01*
X268759Y159134D01*
X268932Y159781D01*
X269267Y160360D01*
X269740Y160833D01*
X270319Y161168D01*
X270966Y161341D01*
X273777Y161341D01*
X273777Y154323D01*
X268759Y154323D01*
G37*
%LPD*%
%LPC*%
G36*
X270966Y144259D02*
X270966Y144259D01*
X270319Y144432D01*
X269740Y144767D01*
X269267Y145240D01*
X268932Y145819D01*
X268759Y146466D01*
X268759Y151277D01*
X273777Y151277D01*
X273777Y144259D01*
X270966Y144259D01*
G37*
%LPD*%
%LPC*%
G36*
X341561Y149861D02*
X341561Y149861D01*
X341561Y153141D01*
X347634Y153141D01*
X348281Y152968D01*
X348860Y152633D01*
X349333Y152160D01*
X349668Y151581D01*
X349841Y150934D01*
X349841Y149861D01*
X341561Y149861D01*
G37*
%LPD*%
%LPC*%
G36*
X331759Y149861D02*
X331759Y149861D01*
X331759Y150934D01*
X331932Y151581D01*
X332267Y152160D01*
X332740Y152633D01*
X333319Y152968D01*
X333966Y153141D01*
X340039Y153141D01*
X340039Y149861D01*
X331759Y149861D01*
G37*
%LPD*%
%LPC*%
G36*
X341561Y50059D02*
X341561Y50059D01*
X341561Y53339D01*
X349841Y53339D01*
X349841Y52265D01*
X349668Y51619D01*
X349333Y51040D01*
X348860Y50567D01*
X348281Y50232D01*
X347634Y50059D01*
X341561Y50059D01*
G37*
%LPD*%
%LPC*%
G36*
X333966Y50059D02*
X333966Y50059D01*
X333319Y50232D01*
X332740Y50567D01*
X332267Y51040D01*
X331932Y51619D01*
X331759Y52266D01*
X331759Y53339D01*
X340039Y53339D01*
X340039Y50059D01*
X333966Y50059D01*
G37*
%LPD*%
%LPC*%
G36*
X152399Y44499D02*
X152399Y44499D01*
X152399Y44501D01*
X152401Y44501D01*
X152401Y44499D01*
X152399Y44499D01*
G37*
%LPD*%
%LPC*%
G36*
X275299Y152799D02*
X275299Y152799D01*
X275299Y152801D01*
X275301Y152801D01*
X275301Y152799D01*
X275299Y152799D01*
G37*
%LPD*%
D10*
X275300Y152800D03*
X257300Y152800D03*
D11*
X373300Y168100D03*
X373300Y35100D03*
D12*
X340800Y54100D03*
X340800Y59100D03*
X340800Y64100D03*
X340800Y69100D03*
X340800Y74100D03*
X340800Y79100D03*
X340800Y84100D03*
X340800Y89100D03*
X340800Y94100D03*
X340800Y99100D03*
X340800Y104100D03*
X340800Y109100D03*
X340800Y114100D03*
X340800Y119100D03*
X340800Y124100D03*
X340800Y129100D03*
X340800Y134100D03*
X340800Y139100D03*
X340800Y144100D03*
X340800Y149100D03*
D13*
X119400Y24150D03*
X119400Y179050D03*
D14*
X177800Y108000D03*
X152400Y120700D03*
X152400Y146100D03*
X152400Y95300D03*
X152400Y69900D03*
X152400Y44500D03*
X177800Y133400D03*
X177800Y158800D03*
X177800Y82600D03*
X177800Y57200D03*
D15*
X40100Y35350D03*
X40100Y167850D03*
X40100Y142450D03*
X40100Y60750D03*
D16*
X240000Y160000D03*
D17*
X252200Y152800D02*
X257300Y152800D01*
X252200Y152800D02*
X245000Y160000D01*
X240000Y160000D01*
X325900Y129100D02*
X340800Y129100D01*
D16*
X210000Y180000D03*
D17*
X285000Y170000D02*
X325900Y129100D01*
X285000Y170000D02*
X250000Y170000D01*
X240000Y180000D01*
X210000Y180000D01*
X40350Y35350D02*
X40100Y35350D01*
X40350Y35350D02*
X60000Y55000D01*
X60000Y70000D01*
X75000Y85000D01*
X75000Y110000D01*
D16*
X75000Y110000D03*
D17*
X325800Y59100D02*
X340800Y59100D01*
X325800Y59100D02*
X305800Y39100D01*
X195900Y39100D01*
X177800Y57200D01*
X190100Y69900D02*
X152400Y69900D01*
X210900Y49100D02*
X300800Y49100D01*
X315800Y64100D02*
X340800Y64100D01*
X315800Y64100D02*
X300800Y49100D01*
X210900Y49100D02*
X190100Y69900D01*
X310800Y74100D02*
X340800Y74100D01*
X310800Y74100D02*
X295800Y59100D01*
X220900Y59100D01*
X184700Y95300D02*
X152400Y95300D01*
X184700Y95300D02*
X220900Y59100D01*
X299100Y79100D02*
X340800Y79100D01*
X299100Y79100D02*
X290000Y70000D01*
X230000Y70000D01*
X192000Y108000D02*
X177800Y108000D01*
X192000Y108000D02*
X230000Y70000D01*
D16*
X225000Y95000D03*
D17*
X240000Y80000D01*
X285000Y80000D01*
X294100Y89100D02*
X340800Y89100D01*
X294100Y89100D02*
X285000Y80000D01*
X245900Y94100D02*
X340800Y94100D01*
X234300Y105700D02*
X212400Y105700D01*
X197400Y120700D01*
X152400Y120700D01*
X234300Y105700D02*
X245900Y94100D01*
X202800Y133400D02*
X177800Y133400D01*
X202800Y133400D02*
X222800Y113400D01*
X246600Y113400D01*
X255900Y104100D02*
X340800Y104100D01*
X255900Y104100D02*
X246600Y113400D01*
X300900Y109100D02*
X340800Y109100D01*
X300900Y109100D02*
X295000Y115000D01*
X285000Y115000D01*
D18*
X285000Y115000D03*
D17*
X57550Y142450D02*
X40100Y142450D01*
X68922Y131078D02*
X106078Y131078D01*
X145000Y170000D02*
X185000Y170000D01*
X230000Y125000D02*
X299900Y125000D01*
X305800Y119100D01*
X340800Y119100D01*
X68922Y131078D02*
X57550Y142450D01*
X106078Y131078D02*
X145000Y170000D01*
X185000Y170000D02*
X230000Y125000D01*
D16*
X240000Y135000D03*
D17*
X305000Y135000D01*
X315900Y124100D02*
X340800Y124100D01*
X315900Y124100D02*
X305000Y135000D01*
M02*
