M48
;GenerationSoftware,Autodesk,EAGLE,9.6.2*%
;CreationDate,2021-02-06T20:29:13Z*%
FMAT,2
ICI,OFF
METRIC,TZ,000.000
T6C0.300
T5C0.350
T4C0.890
T3C1.020
T2C1.630
T1C3.350
%
G90
M71
T1
X8890Y4445
X8890Y15875
T2
X11940Y2415
X11940Y17905
T3
X4010Y3535
X4010Y16785
X4010Y14245
X4010Y6075
T4
X17780Y10800
X15240Y12070
X15240Y14610
X15240Y9530
X15240Y6990
X15240Y4450
X17780Y13340
X17780Y15880
X17780Y8260
X17780Y5720
T5
X28500Y11500
T6
X24000Y16000
X21000Y18000
X7500Y11000
X22500Y9500
X24000Y13500
M30