G04 EAGLE Gerber RS-274X export*
G75*
%MOMM*%
%FSLAX34Y34*%
%LPD*%
%INMechanical*%
%IPPOS*%
%AMOC8*
5,1,8,0,0,1.08239X$1,22.5*%
G01*
%ADD10C,0.000000*%
%ADD11C,0.254000*%


D10*
X0Y0D02*
X406200Y0D01*
X406200Y203200D01*
X0Y203200D01*
X0Y0D01*
X72150Y44450D02*
X72155Y44861D01*
X72170Y45272D01*
X72195Y45682D01*
X72231Y46092D01*
X72276Y46500D01*
X72331Y46908D01*
X72397Y47314D01*
X72472Y47718D01*
X72557Y48120D01*
X72652Y48520D01*
X72757Y48917D01*
X72871Y49312D01*
X72995Y49704D01*
X73129Y50093D01*
X73272Y50478D01*
X73425Y50860D01*
X73587Y51238D01*
X73758Y51612D01*
X73938Y51981D01*
X74128Y52346D01*
X74326Y52706D01*
X74533Y53061D01*
X74749Y53411D01*
X74973Y53756D01*
X75205Y54095D01*
X75446Y54428D01*
X75695Y54755D01*
X75952Y55076D01*
X76217Y55391D01*
X76489Y55699D01*
X76769Y56000D01*
X77056Y56294D01*
X77350Y56581D01*
X77651Y56861D01*
X77959Y57133D01*
X78274Y57398D01*
X78595Y57655D01*
X78922Y57904D01*
X79255Y58145D01*
X79594Y58377D01*
X79939Y58601D01*
X80289Y58817D01*
X80644Y59024D01*
X81004Y59222D01*
X81369Y59412D01*
X81738Y59592D01*
X82112Y59763D01*
X82490Y59925D01*
X82872Y60078D01*
X83257Y60221D01*
X83646Y60355D01*
X84038Y60479D01*
X84433Y60593D01*
X84830Y60698D01*
X85230Y60793D01*
X85632Y60878D01*
X86036Y60953D01*
X86442Y61019D01*
X86850Y61074D01*
X87258Y61119D01*
X87668Y61155D01*
X88078Y61180D01*
X88489Y61195D01*
X88900Y61200D01*
X89311Y61195D01*
X89722Y61180D01*
X90132Y61155D01*
X90542Y61119D01*
X90950Y61074D01*
X91358Y61019D01*
X91764Y60953D01*
X92168Y60878D01*
X92570Y60793D01*
X92970Y60698D01*
X93367Y60593D01*
X93762Y60479D01*
X94154Y60355D01*
X94543Y60221D01*
X94928Y60078D01*
X95310Y59925D01*
X95688Y59763D01*
X96062Y59592D01*
X96431Y59412D01*
X96796Y59222D01*
X97156Y59024D01*
X97511Y58817D01*
X97861Y58601D01*
X98206Y58377D01*
X98545Y58145D01*
X98878Y57904D01*
X99205Y57655D01*
X99526Y57398D01*
X99841Y57133D01*
X100149Y56861D01*
X100450Y56581D01*
X100744Y56294D01*
X101031Y56000D01*
X101311Y55699D01*
X101583Y55391D01*
X101848Y55076D01*
X102105Y54755D01*
X102354Y54428D01*
X102595Y54095D01*
X102827Y53756D01*
X103051Y53411D01*
X103267Y53061D01*
X103474Y52706D01*
X103672Y52346D01*
X103862Y51981D01*
X104042Y51612D01*
X104213Y51238D01*
X104375Y50860D01*
X104528Y50478D01*
X104671Y50093D01*
X104805Y49704D01*
X104929Y49312D01*
X105043Y48917D01*
X105148Y48520D01*
X105243Y48120D01*
X105328Y47718D01*
X105403Y47314D01*
X105469Y46908D01*
X105524Y46500D01*
X105569Y46092D01*
X105605Y45682D01*
X105630Y45272D01*
X105645Y44861D01*
X105650Y44450D01*
X105645Y44039D01*
X105630Y43628D01*
X105605Y43218D01*
X105569Y42808D01*
X105524Y42400D01*
X105469Y41992D01*
X105403Y41586D01*
X105328Y41182D01*
X105243Y40780D01*
X105148Y40380D01*
X105043Y39983D01*
X104929Y39588D01*
X104805Y39196D01*
X104671Y38807D01*
X104528Y38422D01*
X104375Y38040D01*
X104213Y37662D01*
X104042Y37288D01*
X103862Y36919D01*
X103672Y36554D01*
X103474Y36194D01*
X103267Y35839D01*
X103051Y35489D01*
X102827Y35144D01*
X102595Y34805D01*
X102354Y34472D01*
X102105Y34145D01*
X101848Y33824D01*
X101583Y33509D01*
X101311Y33201D01*
X101031Y32900D01*
X100744Y32606D01*
X100450Y32319D01*
X100149Y32039D01*
X99841Y31767D01*
X99526Y31502D01*
X99205Y31245D01*
X98878Y30996D01*
X98545Y30755D01*
X98206Y30523D01*
X97861Y30299D01*
X97511Y30083D01*
X97156Y29876D01*
X96796Y29678D01*
X96431Y29488D01*
X96062Y29308D01*
X95688Y29137D01*
X95310Y28975D01*
X94928Y28822D01*
X94543Y28679D01*
X94154Y28545D01*
X93762Y28421D01*
X93367Y28307D01*
X92970Y28202D01*
X92570Y28107D01*
X92168Y28022D01*
X91764Y27947D01*
X91358Y27881D01*
X90950Y27826D01*
X90542Y27781D01*
X90132Y27745D01*
X89722Y27720D01*
X89311Y27705D01*
X88900Y27700D01*
X88489Y27705D01*
X88078Y27720D01*
X87668Y27745D01*
X87258Y27781D01*
X86850Y27826D01*
X86442Y27881D01*
X86036Y27947D01*
X85632Y28022D01*
X85230Y28107D01*
X84830Y28202D01*
X84433Y28307D01*
X84038Y28421D01*
X83646Y28545D01*
X83257Y28679D01*
X82872Y28822D01*
X82490Y28975D01*
X82112Y29137D01*
X81738Y29308D01*
X81369Y29488D01*
X81004Y29678D01*
X80644Y29876D01*
X80289Y30083D01*
X79939Y30299D01*
X79594Y30523D01*
X79255Y30755D01*
X78922Y30996D01*
X78595Y31245D01*
X78274Y31502D01*
X77959Y31767D01*
X77651Y32039D01*
X77350Y32319D01*
X77056Y32606D01*
X76769Y32900D01*
X76489Y33201D01*
X76217Y33509D01*
X75952Y33824D01*
X75695Y34145D01*
X75446Y34472D01*
X75205Y34805D01*
X74973Y35144D01*
X74749Y35489D01*
X74533Y35839D01*
X74326Y36194D01*
X74128Y36554D01*
X73938Y36919D01*
X73758Y37288D01*
X73587Y37662D01*
X73425Y38040D01*
X73272Y38422D01*
X73129Y38807D01*
X72995Y39196D01*
X72871Y39588D01*
X72757Y39983D01*
X72652Y40380D01*
X72557Y40780D01*
X72472Y41182D01*
X72397Y41586D01*
X72331Y41992D01*
X72276Y42400D01*
X72231Y42808D01*
X72195Y43218D01*
X72170Y43628D01*
X72155Y44039D01*
X72150Y44450D01*
X72150Y158750D02*
X72155Y159161D01*
X72170Y159572D01*
X72195Y159982D01*
X72231Y160392D01*
X72276Y160800D01*
X72331Y161208D01*
X72397Y161614D01*
X72472Y162018D01*
X72557Y162420D01*
X72652Y162820D01*
X72757Y163217D01*
X72871Y163612D01*
X72995Y164004D01*
X73129Y164393D01*
X73272Y164778D01*
X73425Y165160D01*
X73587Y165538D01*
X73758Y165912D01*
X73938Y166281D01*
X74128Y166646D01*
X74326Y167006D01*
X74533Y167361D01*
X74749Y167711D01*
X74973Y168056D01*
X75205Y168395D01*
X75446Y168728D01*
X75695Y169055D01*
X75952Y169376D01*
X76217Y169691D01*
X76489Y169999D01*
X76769Y170300D01*
X77056Y170594D01*
X77350Y170881D01*
X77651Y171161D01*
X77959Y171433D01*
X78274Y171698D01*
X78595Y171955D01*
X78922Y172204D01*
X79255Y172445D01*
X79594Y172677D01*
X79939Y172901D01*
X80289Y173117D01*
X80644Y173324D01*
X81004Y173522D01*
X81369Y173712D01*
X81738Y173892D01*
X82112Y174063D01*
X82490Y174225D01*
X82872Y174378D01*
X83257Y174521D01*
X83646Y174655D01*
X84038Y174779D01*
X84433Y174893D01*
X84830Y174998D01*
X85230Y175093D01*
X85632Y175178D01*
X86036Y175253D01*
X86442Y175319D01*
X86850Y175374D01*
X87258Y175419D01*
X87668Y175455D01*
X88078Y175480D01*
X88489Y175495D01*
X88900Y175500D01*
X89311Y175495D01*
X89722Y175480D01*
X90132Y175455D01*
X90542Y175419D01*
X90950Y175374D01*
X91358Y175319D01*
X91764Y175253D01*
X92168Y175178D01*
X92570Y175093D01*
X92970Y174998D01*
X93367Y174893D01*
X93762Y174779D01*
X94154Y174655D01*
X94543Y174521D01*
X94928Y174378D01*
X95310Y174225D01*
X95688Y174063D01*
X96062Y173892D01*
X96431Y173712D01*
X96796Y173522D01*
X97156Y173324D01*
X97511Y173117D01*
X97861Y172901D01*
X98206Y172677D01*
X98545Y172445D01*
X98878Y172204D01*
X99205Y171955D01*
X99526Y171698D01*
X99841Y171433D01*
X100149Y171161D01*
X100450Y170881D01*
X100744Y170594D01*
X101031Y170300D01*
X101311Y169999D01*
X101583Y169691D01*
X101848Y169376D01*
X102105Y169055D01*
X102354Y168728D01*
X102595Y168395D01*
X102827Y168056D01*
X103051Y167711D01*
X103267Y167361D01*
X103474Y167006D01*
X103672Y166646D01*
X103862Y166281D01*
X104042Y165912D01*
X104213Y165538D01*
X104375Y165160D01*
X104528Y164778D01*
X104671Y164393D01*
X104805Y164004D01*
X104929Y163612D01*
X105043Y163217D01*
X105148Y162820D01*
X105243Y162420D01*
X105328Y162018D01*
X105403Y161614D01*
X105469Y161208D01*
X105524Y160800D01*
X105569Y160392D01*
X105605Y159982D01*
X105630Y159572D01*
X105645Y159161D01*
X105650Y158750D01*
X105645Y158339D01*
X105630Y157928D01*
X105605Y157518D01*
X105569Y157108D01*
X105524Y156700D01*
X105469Y156292D01*
X105403Y155886D01*
X105328Y155482D01*
X105243Y155080D01*
X105148Y154680D01*
X105043Y154283D01*
X104929Y153888D01*
X104805Y153496D01*
X104671Y153107D01*
X104528Y152722D01*
X104375Y152340D01*
X104213Y151962D01*
X104042Y151588D01*
X103862Y151219D01*
X103672Y150854D01*
X103474Y150494D01*
X103267Y150139D01*
X103051Y149789D01*
X102827Y149444D01*
X102595Y149105D01*
X102354Y148772D01*
X102105Y148445D01*
X101848Y148124D01*
X101583Y147809D01*
X101311Y147501D01*
X101031Y147200D01*
X100744Y146906D01*
X100450Y146619D01*
X100149Y146339D01*
X99841Y146067D01*
X99526Y145802D01*
X99205Y145545D01*
X98878Y145296D01*
X98545Y145055D01*
X98206Y144823D01*
X97861Y144599D01*
X97511Y144383D01*
X97156Y144176D01*
X96796Y143978D01*
X96431Y143788D01*
X96062Y143608D01*
X95688Y143437D01*
X95310Y143275D01*
X94928Y143122D01*
X94543Y142979D01*
X94154Y142845D01*
X93762Y142721D01*
X93367Y142607D01*
X92970Y142502D01*
X92570Y142407D01*
X92168Y142322D01*
X91764Y142247D01*
X91358Y142181D01*
X90950Y142126D01*
X90542Y142081D01*
X90132Y142045D01*
X89722Y142020D01*
X89311Y142005D01*
X88900Y142000D01*
X88489Y142005D01*
X88078Y142020D01*
X87668Y142045D01*
X87258Y142081D01*
X86850Y142126D01*
X86442Y142181D01*
X86036Y142247D01*
X85632Y142322D01*
X85230Y142407D01*
X84830Y142502D01*
X84433Y142607D01*
X84038Y142721D01*
X83646Y142845D01*
X83257Y142979D01*
X82872Y143122D01*
X82490Y143275D01*
X82112Y143437D01*
X81738Y143608D01*
X81369Y143788D01*
X81004Y143978D01*
X80644Y144176D01*
X80289Y144383D01*
X79939Y144599D01*
X79594Y144823D01*
X79255Y145055D01*
X78922Y145296D01*
X78595Y145545D01*
X78274Y145802D01*
X77959Y146067D01*
X77651Y146339D01*
X77350Y146619D01*
X77056Y146906D01*
X76769Y147200D01*
X76489Y147501D01*
X76217Y147809D01*
X75952Y148124D01*
X75695Y148445D01*
X75446Y148772D01*
X75205Y149105D01*
X74973Y149444D01*
X74749Y149789D01*
X74533Y150139D01*
X74326Y150494D01*
X74128Y150854D01*
X73938Y151219D01*
X73758Y151588D01*
X73587Y151962D01*
X73425Y152340D01*
X73272Y152722D01*
X73129Y153107D01*
X72995Y153496D01*
X72871Y153888D01*
X72757Y154283D01*
X72652Y154680D01*
X72557Y155080D01*
X72472Y155482D01*
X72397Y155886D01*
X72331Y156292D01*
X72276Y156700D01*
X72231Y157108D01*
X72195Y157518D01*
X72170Y157928D01*
X72155Y158339D01*
X72150Y158750D01*
D11*
X0Y0D02*
X406200Y0D01*
X406200Y203200D01*
X0Y203200D01*
X0Y0D01*
X89448Y61200D02*
X90543Y61128D01*
X91630Y60985D01*
X92706Y60771D01*
X93765Y60487D01*
X94803Y60135D01*
X95817Y59715D01*
X96800Y59230D01*
X97750Y58682D01*
X98662Y58072D01*
X99532Y57405D01*
X100356Y56682D01*
X101132Y55906D01*
X101855Y55082D01*
X102522Y54212D01*
X103132Y53300D01*
X103680Y52350D01*
X104165Y51367D01*
X104585Y50353D01*
X104937Y49315D01*
X105221Y48256D01*
X105435Y47180D01*
X105578Y46093D01*
X105650Y44998D01*
X105650Y43902D01*
X105578Y42807D01*
X105435Y41720D01*
X105221Y40644D01*
X104937Y39585D01*
X104585Y38547D01*
X104165Y37533D01*
X103680Y36550D01*
X103132Y35600D01*
X102522Y34688D01*
X101855Y33818D01*
X101132Y32994D01*
X100356Y32218D01*
X99532Y31495D01*
X98662Y30828D01*
X97750Y30218D01*
X96800Y29670D01*
X95817Y29185D01*
X94803Y28765D01*
X93765Y28413D01*
X92706Y28129D01*
X91630Y27915D01*
X90543Y27772D01*
X89448Y27700D01*
X88352Y27700D01*
X87257Y27772D01*
X86170Y27915D01*
X85094Y28129D01*
X84035Y28413D01*
X82997Y28765D01*
X81983Y29185D01*
X81000Y29670D01*
X80050Y30218D01*
X79138Y30828D01*
X78268Y31495D01*
X77444Y32218D01*
X76668Y32994D01*
X75945Y33818D01*
X75278Y34688D01*
X74668Y35600D01*
X74120Y36550D01*
X73635Y37533D01*
X73215Y38547D01*
X72863Y39585D01*
X72579Y40644D01*
X72365Y41720D01*
X72222Y42807D01*
X72150Y43902D01*
X72150Y44998D01*
X72222Y46093D01*
X72365Y47180D01*
X72579Y48256D01*
X72863Y49315D01*
X73215Y50353D01*
X73635Y51367D01*
X74120Y52350D01*
X74668Y53300D01*
X75278Y54212D01*
X75945Y55082D01*
X76668Y55906D01*
X77444Y56682D01*
X78268Y57405D01*
X79138Y58072D01*
X80050Y58682D01*
X81000Y59230D01*
X81983Y59715D01*
X82997Y60135D01*
X84035Y60487D01*
X85094Y60771D01*
X86170Y60985D01*
X87257Y61128D01*
X88352Y61200D01*
X89448Y61200D01*
X89448Y175500D02*
X90543Y175428D01*
X91630Y175285D01*
X92706Y175071D01*
X93765Y174787D01*
X94803Y174435D01*
X95817Y174015D01*
X96800Y173530D01*
X97750Y172982D01*
X98662Y172372D01*
X99532Y171705D01*
X100356Y170982D01*
X101132Y170206D01*
X101855Y169382D01*
X102522Y168512D01*
X103132Y167600D01*
X103680Y166650D01*
X104165Y165667D01*
X104585Y164653D01*
X104937Y163615D01*
X105221Y162556D01*
X105435Y161480D01*
X105578Y160393D01*
X105650Y159298D01*
X105650Y158202D01*
X105578Y157107D01*
X105435Y156020D01*
X105221Y154944D01*
X104937Y153885D01*
X104585Y152847D01*
X104165Y151833D01*
X103680Y150850D01*
X103132Y149900D01*
X102522Y148988D01*
X101855Y148118D01*
X101132Y147294D01*
X100356Y146518D01*
X99532Y145795D01*
X98662Y145128D01*
X97750Y144518D01*
X96800Y143970D01*
X95817Y143485D01*
X94803Y143065D01*
X93765Y142713D01*
X92706Y142429D01*
X91630Y142215D01*
X90543Y142072D01*
X89448Y142000D01*
X88352Y142000D01*
X87257Y142072D01*
X86170Y142215D01*
X85094Y142429D01*
X84035Y142713D01*
X82997Y143065D01*
X81983Y143485D01*
X81000Y143970D01*
X80050Y144518D01*
X79138Y145128D01*
X78268Y145795D01*
X77444Y146518D01*
X76668Y147294D01*
X75945Y148118D01*
X75278Y148988D01*
X74668Y149900D01*
X74120Y150850D01*
X73635Y151833D01*
X73215Y152847D01*
X72863Y153885D01*
X72579Y154944D01*
X72365Y156020D01*
X72222Y157107D01*
X72150Y158202D01*
X72150Y159298D01*
X72222Y160393D01*
X72365Y161480D01*
X72579Y162556D01*
X72863Y163615D01*
X73215Y164653D01*
X73635Y165667D01*
X74120Y166650D01*
X74668Y167600D01*
X75278Y168512D01*
X75945Y169382D01*
X76668Y170206D01*
X77444Y170982D01*
X78268Y171705D01*
X79138Y172372D01*
X80050Y172982D01*
X81000Y173530D01*
X81983Y174015D01*
X82997Y174435D01*
X84035Y174787D01*
X85094Y175071D01*
X86170Y175285D01*
X87257Y175428D01*
X88352Y175500D01*
X89448Y175500D01*
M02*
