G04 EAGLE Gerber RS-274X export*
G75*
%MOMM*%
%FSLAX34Y34*%
%LPD*%
%INTop Silkscreen*%
%IPPOS*%
%AMOC8*
5,1,8,0,0,1.08239X$1,22.5*%
G01*
%ADD10C,0.177800*%
%ADD11C,0.127000*%
%ADD12C,0.203200*%
%ADD13R,0.850000X0.200000*%
%ADD14C,0.101600*%
%ADD15R,4.679694X0.007113*%
%ADD16R,4.829047X0.007109*%
%ADD17R,4.935728X0.007113*%
%ADD18R,5.028184X0.007113*%
%ADD19R,5.106416X0.007113*%
%ADD20R,5.177538X0.007113*%
%ADD21R,5.248656X0.007113*%
%ADD22R,5.305550X0.007109*%
%ADD23R,5.362450X0.007113*%
%ADD24R,5.412231X0.007113*%
%ADD25R,5.462016X0.007113*%
%ADD26R,5.511800X0.007113*%
%ADD27R,5.561584X0.007113*%
%ADD28R,5.604256X0.007109*%
%ADD29R,5.646928X0.007113*%
%ADD30R,5.682488X0.007113*%
%ADD31R,5.718050X0.007113*%
%ADD32R,5.760719X0.007113*%
%ADD33R,5.803394X0.007113*%
%ADD34R,5.831841X0.007109*%
%ADD35R,5.874513X0.007113*%
%ADD36R,5.902959X0.007113*%
%ADD37R,5.931406X0.007113*%
%ADD38R,5.974081X0.007113*%
%ADD39R,6.002528X0.007113*%
%ADD40R,6.030975X0.007113*%
%ADD41R,6.059425X0.007109*%
%ADD42R,6.087872X0.007113*%
%ADD43R,6.116319X0.007113*%
%ADD44R,6.144769X0.007113*%
%ADD45R,6.173216X0.007113*%
%ADD46R,6.201663X0.007113*%
%ADD47R,6.230113X0.007109*%
%ADD48R,6.258559X0.007113*%
%ADD49R,6.279897X0.007113*%
%ADD50R,6.301231X0.007113*%
%ADD51R,6.329681X0.007113*%
%ADD52R,6.358128X0.007113*%
%ADD53R,6.379463X0.007109*%
%ADD54R,6.400800X0.007113*%
%ADD55R,6.429250X0.007113*%
%ADD56R,6.443472X0.007113*%
%ADD57R,6.471919X0.007113*%
%ADD58R,6.493256X0.007113*%
%ADD59R,6.514594X0.007109*%
%ADD60R,6.535928X0.007113*%
%ADD61R,6.557263X0.007113*%
%ADD62R,6.578600X0.007113*%
%ADD63R,6.599938X0.007113*%
%ADD64R,6.614159X0.007113*%
%ADD65R,6.642606X0.007113*%
%ADD66R,6.656831X0.007109*%
%ADD67R,6.678169X0.007113*%
%ADD68R,6.699506X0.007113*%
%ADD69R,6.713728X0.007113*%
%ADD70R,6.735063X0.007113*%
%ADD71R,6.756400X0.007113*%
%ADD72R,6.770625X0.007109*%
%ADD73R,6.784850X0.007113*%
%ADD74R,6.806184X0.007113*%
%ADD75R,6.827519X0.007113*%
%ADD76R,6.841744X0.007113*%
%ADD77R,6.855969X0.007113*%
%ADD78R,6.877303X0.007109*%
%ADD79R,6.898641X0.007113*%
%ADD80R,6.912863X0.007113*%
%ADD81R,6.927088X0.007113*%
%ADD82R,6.941313X0.007113*%
%ADD83R,6.955538X0.007113*%
%ADD84R,6.969759X0.007109*%
%ADD85R,6.991097X0.007113*%
%ADD86R,7.012431X0.007113*%
%ADD87R,7.026656X0.007113*%
%ADD88R,7.040881X0.007113*%
%ADD89R,7.055106X0.007113*%
%ADD90R,7.069328X0.007113*%
%ADD91R,7.083550X0.007109*%
%ADD92R,7.097775X0.007113*%
%ADD93R,7.112000X0.007113*%
%ADD94R,7.126225X0.007113*%
%ADD95R,7.140450X0.007113*%
%ADD96R,7.154672X0.007113*%
%ADD97R,7.168894X0.007109*%
%ADD98R,7.183119X0.007113*%
%ADD99R,7.197344X0.007113*%
%ADD100R,7.211569X0.007113*%
%ADD101R,7.225794X0.007113*%
%ADD102R,7.240016X0.007113*%
%ADD103R,7.254241X0.007109*%
%ADD104R,7.261353X0.007113*%
%ADD105R,7.275575X0.007113*%
%ADD106R,7.282688X0.007113*%
%ADD107R,7.296913X0.007113*%
%ADD108R,7.311138X0.007113*%
%ADD109R,7.325359X0.007109*%
%ADD110R,7.339584X0.007113*%
%ADD111R,7.353806X0.007113*%
%ADD112R,7.360919X0.007113*%
%ADD113R,7.368031X0.007113*%
%ADD114R,7.382256X0.007113*%
%ADD115R,7.396481X0.007113*%
%ADD116R,7.410706X0.007109*%
%ADD117R,7.424928X0.007113*%
%ADD118R,7.432041X0.007113*%
%ADD119R,7.439150X0.007113*%
%ADD120R,7.453375X0.007113*%
%ADD121R,7.467600X0.007113*%
%ADD122R,7.474713X0.007109*%
%ADD123R,7.481825X0.007113*%
%ADD124R,7.496050X0.007113*%
%ADD125R,7.510272X0.007113*%
%ADD126R,7.517384X0.007113*%
%ADD127R,7.524494X0.007113*%
%ADD128R,7.538719X0.007109*%
%ADD129R,7.552944X0.007113*%
%ADD130R,7.560056X0.007113*%
%ADD131R,7.567169X0.007113*%
%ADD132R,7.581394X0.007113*%
%ADD133R,7.588503X0.007113*%
%ADD134R,7.595616X0.007109*%
%ADD135R,7.609841X0.007113*%
%ADD136R,7.616953X0.007113*%
%ADD137R,7.624062X0.007113*%
%ADD138R,7.638288X0.007113*%
%ADD139R,7.645400X0.007113*%
%ADD140R,7.652513X0.007113*%
%ADD141R,7.666737X0.007109*%
%ADD142R,7.673847X0.007113*%
%ADD143R,7.680959X0.007113*%
%ADD144R,7.695184X0.007113*%
%ADD145R,7.709406X0.007113*%
%ADD146R,7.716519X0.007109*%
%ADD147R,7.723631X0.007113*%
%ADD148R,7.737856X0.007113*%
%ADD149R,0.640081X0.007113*%
%ADD150R,0.945894X0.007113*%
%ADD151R,0.817878X0.007113*%
%ADD152R,1.038353X0.007113*%
%ADD153R,0.953006X0.007113*%
%ADD154R,0.412497X0.007113*%
%ADD155R,0.647194X0.007113*%
%ADD156R,0.938784X0.007113*%
%ADD157R,0.768097X0.007113*%
%ADD158R,0.981456X0.007113*%
%ADD159R,0.945897X0.007113*%
%ADD160R,0.426722X0.007113*%
%ADD161R,0.931672X0.007113*%
%ADD162R,0.746759X0.007113*%
%ADD163R,0.953009X0.007113*%
%ADD164R,0.440947X0.007113*%
%ADD165R,0.654306X0.007109*%
%ADD166R,0.924559X0.007109*%
%ADD167R,0.732534X0.007109*%
%ADD168R,0.931672X0.007109*%
%ADD169R,0.448056X0.007109*%
%ADD170R,0.661419X0.007113*%
%ADD171R,0.917447X0.007113*%
%ADD172R,0.718313X0.007113*%
%ADD173R,0.903225X0.007113*%
%ADD174R,0.924559X0.007113*%
%ADD175R,0.462278X0.007113*%
%ADD176R,0.910334X0.007113*%
%ADD177R,0.711200X0.007113*%
%ADD178R,0.889000X0.007113*%
%ADD179R,0.469391X0.007113*%
%ADD180R,0.668528X0.007113*%
%ADD181R,0.903222X0.007113*%
%ADD182R,0.704088X0.007113*%
%ADD183R,0.874778X0.007113*%
%ADD184R,0.483616X0.007113*%
%ADD185R,0.696975X0.007113*%
%ADD186R,0.860553X0.007113*%
%ADD187R,0.490728X0.007113*%
%ADD188R,0.675641X0.007113*%
%ADD189R,0.896113X0.007113*%
%ADD190R,0.689866X0.007113*%
%ADD191R,0.846328X0.007113*%
%ADD192R,0.504953X0.007113*%
%ADD193R,0.675641X0.007109*%
%ADD194R,0.889000X0.007109*%
%ADD195R,0.689866X0.007109*%
%ADD196R,0.839216X0.007109*%
%ADD197R,0.512062X0.007109*%
%ADD198R,0.682753X0.007113*%
%ADD199R,0.881888X0.007113*%
%ADD200R,0.689863X0.007113*%
%ADD201R,0.832106X0.007113*%
%ADD202R,0.526288X0.007113*%
%ADD203R,0.874775X0.007113*%
%ADD204R,0.824994X0.007113*%
%ADD205R,0.547625X0.007113*%
%ADD206R,0.867663X0.007113*%
%ADD207R,0.817881X0.007113*%
%ADD208R,0.554737X0.007113*%
%ADD209R,0.860550X0.007113*%
%ADD210R,0.810769X0.007113*%
%ADD211R,0.568963X0.007113*%
%ADD212R,0.696978X0.007113*%
%ADD213R,0.853438X0.007113*%
%ADD214R,0.803656X0.007113*%
%ADD215R,0.576072X0.007113*%
%ADD216R,0.853441X0.007113*%
%ADD217R,0.590294X0.007113*%
%ADD218R,0.704091X0.007109*%
%ADD219R,0.696975X0.007109*%
%ADD220R,0.796544X0.007109*%
%ADD221R,0.846328X0.007109*%
%ADD222R,0.597406X0.007109*%
%ADD223R,0.704091X0.007113*%
%ADD224R,0.832103X0.007113*%
%ADD225R,0.789431X0.007113*%
%ADD226R,0.839216X0.007113*%
%ADD227R,0.611631X0.007113*%
%ADD228R,0.824991X0.007113*%
%ADD229R,0.618744X0.007113*%
%ADD230R,0.782322X0.007113*%
%ADD231R,0.632969X0.007113*%
%ADD232R,0.810766X0.007113*%
%ADD233R,0.725422X0.007113*%
%ADD234R,0.654303X0.007113*%
%ADD235R,0.725425X0.007109*%
%ADD236R,0.725422X0.007109*%
%ADD237R,0.775209X0.007109*%
%ADD238R,0.803656X0.007109*%
%ADD239R,0.661416X0.007109*%
%ADD240R,0.725425X0.007113*%
%ADD241R,0.796544X0.007113*%
%ADD242R,0.732534X0.007113*%
%ADD243R,0.775209X0.007113*%
%ADD244R,0.732538X0.007113*%
%ADD245R,0.739647X0.007113*%
%ADD246R,0.782319X0.007113*%
%ADD247R,0.739650X0.007113*%
%ADD248R,0.775206X0.007113*%
%ADD249R,0.746762X0.007113*%
%ADD250R,0.768094X0.007113*%
%ADD251R,0.753872X0.007113*%
%ADD252R,0.739650X0.007109*%
%ADD253R,0.760984X0.007109*%
%ADD254R,0.753872X0.007109*%
%ADD255R,0.760984X0.007113*%
%ADD256R,0.753875X0.007113*%
%ADD257R,0.718313X0.007109*%
%ADD258R,0.789431X0.007109*%
%ADD259R,0.682750X0.007113*%
%ADD260R,0.782322X0.007109*%
%ADD261R,0.675638X0.007109*%
%ADD262R,0.746759X0.007109*%
%ADD263R,0.867666X0.007109*%
%ADD264R,0.789434X0.007113*%
%ADD265R,0.661416X0.007113*%
%ADD266R,0.896109X0.007113*%
%ADD267R,0.647191X0.007113*%
%ADD268R,0.796547X0.007113*%
%ADD269R,0.640078X0.007113*%
%ADD270R,1.109472X0.007113*%
%ADD271R,0.796547X0.007109*%
%ADD272R,0.632966X0.007109*%
%ADD273R,1.109472X0.007109*%
%ADD274R,0.640081X0.007109*%
%ADD275R,0.625856X0.007113*%
%ADD276R,0.604519X0.007113*%
%ADD277R,0.967231X0.007113*%
%ADD278R,0.597406X0.007113*%
%ADD279R,0.974344X0.007113*%
%ADD280R,0.810769X0.007109*%
%ADD281R,0.590294X0.007109*%
%ADD282R,0.988569X0.007109*%
%ADD283R,0.590297X0.007113*%
%ADD284R,1.002794X0.007113*%
%ADD285R,0.583184X0.007113*%
%ADD286R,1.009903X0.007113*%
%ADD287R,1.017016X0.007113*%
%ADD288R,0.568959X0.007113*%
%ADD289R,1.024128X0.007113*%
%ADD290R,0.561847X0.007113*%
%ADD291R,0.960119X0.007113*%
%ADD292R,0.824994X0.007109*%
%ADD293R,0.554734X0.007109*%
%ADD294R,0.974344X0.007109*%
%ADD295R,1.045466X0.007109*%
%ADD296R,0.547622X0.007113*%
%ADD297R,0.554734X0.007113*%
%ADD298R,1.052578X0.007113*%
%ADD299R,0.540513X0.007113*%
%ADD300R,0.988569X0.007113*%
%ADD301R,1.066800X0.007113*%
%ADD302R,0.533400X0.007113*%
%ADD303R,0.995678X0.007113*%
%ADD304R,1.073913X0.007113*%
%ADD305R,1.002791X0.007113*%
%ADD306R,1.081025X0.007113*%
%ADD307R,0.519175X0.007113*%
%ADD308R,1.095247X0.007113*%
%ADD309R,0.839219X0.007113*%
%ADD310R,0.512062X0.007113*%
%ADD311R,1.102359X0.007113*%
%ADD312R,0.839219X0.007109*%
%ADD313R,0.504950X0.007109*%
%ADD314R,1.024128X0.007109*%
%ADD315R,0.497838X0.007113*%
%ADD316R,1.031241X0.007113*%
%ADD317R,1.123694X0.007113*%
%ADD318R,1.038350X0.007113*%
%ADD319R,0.497841X0.007113*%
%ADD320R,1.137919X0.007113*%
%ADD321R,1.045462X0.007113*%
%ADD322R,1.145031X0.007113*%
%ADD323R,1.052575X0.007113*%
%ADD324R,1.152144X0.007113*%
%ADD325R,0.476503X0.007113*%
%ADD326R,1.059688X0.007113*%
%ADD327R,1.159256X0.007113*%
%ADD328R,0.469391X0.007109*%
%ADD329R,1.066800X0.007109*%
%ADD330R,1.173481X0.007109*%
%ADD331R,1.081022X0.007113*%
%ADD332R,0.462281X0.007113*%
%ADD333R,1.180591X0.007113*%
%ADD334R,0.455166X0.007113*%
%ADD335R,1.088134X0.007113*%
%ADD336R,0.455169X0.007113*%
%ADD337R,1.187703X0.007113*%
%ADD338R,0.448056X0.007113*%
%ADD339R,1.194816X0.007113*%
%ADD340R,0.440944X0.007113*%
%ADD341R,1.209041X0.007113*%
%ADD342R,0.433831X0.007113*%
%ADD343R,1.216153X0.007113*%
%ADD344R,0.860553X0.007109*%
%ADD345R,0.426719X0.007109*%
%ADD346R,1.116584X0.007109*%
%ADD347R,0.433831X0.007109*%
%ADD348R,1.223266X0.007109*%
%ADD349R,0.419606X0.007113*%
%ADD350R,1.123697X0.007113*%
%ADD351R,0.426719X0.007113*%
%ADD352R,1.230375X0.007113*%
%ADD353R,0.412494X0.007113*%
%ADD354R,1.130806X0.007113*%
%ADD355R,1.244600X0.007113*%
%ADD356R,0.867666X0.007113*%
%ADD357R,0.405384X0.007113*%
%ADD358R,1.258825X0.007113*%
%ADD359R,0.398272X0.007113*%
%ADD360R,1.265938X0.007113*%
%ADD361R,0.391159X0.007113*%
%ADD362R,1.273050X0.007113*%
%ADD363R,0.384047X0.007109*%
%ADD364R,1.159256X0.007109*%
%ADD365R,0.391159X0.007109*%
%ADD366R,1.280159X0.007109*%
%ADD367R,0.384047X0.007113*%
%ADD368R,1.166369X0.007113*%
%ADD369R,1.294384X0.007113*%
%ADD370R,0.376934X0.007113*%
%ADD371R,1.173478X0.007113*%
%ADD372R,1.301497X0.007113*%
%ADD373R,0.369822X0.007113*%
%ADD374R,0.369825X0.007113*%
%ADD375R,1.308609X0.007113*%
%ADD376R,0.362712X0.007113*%
%ADD377R,1.315722X0.007113*%
%ADD378R,0.355600X0.007113*%
%ADD379R,1.201928X0.007113*%
%ADD380R,1.322834X0.007113*%
%ADD381R,0.348488X0.007113*%
%ADD382R,1.329947X0.007113*%
%ADD383R,0.874778X0.007109*%
%ADD384R,0.341375X0.007109*%
%ADD385R,1.216150X0.007109*%
%ADD386R,0.348488X0.007109*%
%ADD387R,1.344166X0.007109*%
%ADD388R,0.881891X0.007113*%
%ADD389R,0.334263X0.007113*%
%ADD390R,1.216150X0.007113*%
%ADD391R,1.351278X0.007113*%
%ADD392R,0.881891X0.007109*%
%ADD393R,0.824991X0.007109*%
%ADD394R,0.967231X0.007109*%
%ADD395R,0.533400X0.007109*%
%ADD396R,0.903222X0.007109*%
%ADD397R,0.896113X0.007109*%
%ADD398R,0.874775X0.007109*%
%ADD399R,0.903225X0.007109*%
%ADD400R,0.704088X0.007109*%
%ADD401R,0.853441X0.007109*%
%ADD402R,0.689863X0.007109*%
%ADD403R,0.682750X0.007109*%
%ADD404R,0.810766X0.007109*%
%ADD405R,0.910338X0.007113*%
%ADD406R,0.910338X0.007109*%
%ADD407R,0.938784X0.007109*%
%ADD408R,0.945897X0.007109*%
%ADD409R,2.197609X0.007113*%
%ADD410R,0.953006X0.007109*%
%ADD411R,2.197609X0.007109*%
%ADD412R,0.960119X0.007109*%
%ADD413R,0.995681X0.007113*%
%ADD414R,0.960122X0.007113*%
%ADD415R,0.682753X0.007109*%
%ADD416R,0.739647X0.007109*%
%ADD417R,0.917450X0.007113*%
%ADD418R,0.832106X0.007109*%
%ADD419R,1.038353X0.007109*%
%ADD420R,1.009906X0.007109*%
%ADD421R,1.237491X0.007113*%
%ADD422R,8.278369X0.007113*%
%ADD423R,8.278369X0.007109*%
%ADD424R,8.264144X0.007113*%
%ADD425R,0.056897X0.007113*%
%ADD426R,0.085344X0.007113*%
%ADD427R,0.099566X0.007113*%
%ADD428R,0.099569X0.007113*%
%ADD429R,0.113791X0.007113*%
%ADD430R,0.113794X0.007113*%
%ADD431R,0.135128X0.007113*%
%ADD432R,0.128016X0.007113*%
%ADD433R,0.149353X0.007109*%
%ADD434R,0.142241X0.007109*%
%ADD435R,0.156463X0.007113*%
%ADD436R,0.170688X0.007113*%
%ADD437R,0.184913X0.007113*%
%ADD438R,0.177800X0.007113*%
%ADD439R,0.192025X0.007113*%
%ADD440R,0.199138X0.007113*%
%ADD441R,0.206250X0.007113*%
%ADD442R,0.206250X0.007109*%
%ADD443R,0.213359X0.007109*%
%ADD444R,0.213363X0.007113*%
%ADD445R,0.220472X0.007113*%
%ADD446R,0.227584X0.007113*%
%ADD447R,0.234697X0.007113*%
%ADD448R,0.241809X0.007113*%
%ADD449R,0.248922X0.007113*%
%ADD450R,0.270256X0.007113*%
%ADD451R,0.298703X0.007113*%
%ADD452R,0.256031X0.007109*%
%ADD453R,0.248919X0.007109*%
%ADD454R,0.327153X0.007109*%
%ADD455R,0.256031X0.007113*%
%ADD456R,0.256034X0.007113*%
%ADD457R,0.462278X0.007109*%
%ADD458R,0.512066X0.007113*%
%ADD459R,0.547622X0.007109*%
%ADD460R,0.597409X0.007113*%
%ADD461R,0.604522X0.007113*%
%ADD462R,0.611631X0.007109*%
%ADD463R,0.668528X0.007109*%
%ADD464R,0.248919X0.007113*%
%ADD465R,0.213359X0.007113*%
%ADD466R,0.206247X0.007113*%
%ADD467R,0.199134X0.007109*%
%ADD468R,0.199138X0.007109*%
%ADD469R,0.163575X0.007113*%
%ADD470R,2.019809X0.007113*%
%ADD471R,0.142238X0.007113*%
%ADD472R,2.019809X0.007109*%
%ADD473R,0.120906X0.007109*%
%ADD474R,0.128016X0.007109*%
%ADD475R,0.711200X0.007109*%
%ADD476R,0.106681X0.007113*%
%ADD477R,0.092456X0.007113*%
%ADD478R,0.078231X0.007113*%
%ADD479R,0.049781X0.007113*%
%ADD480R,0.049784X0.007113*%
%ADD481R,0.654303X0.007109*%
%ADD482R,0.597409X0.007109*%
%ADD483R,0.519178X0.007113*%
%ADD484R,0.284481X0.007113*%
%ADD485R,0.341375X0.007113*%
%ADD486R,0.312928X0.007113*%
%ADD487R,0.320041X0.007113*%
%ADD488R,0.284481X0.007109*%
%ADD489R,0.369825X0.007109*%
%ADD490R,0.391163X0.007113*%
%ADD491R,0.149353X0.007113*%
%ADD492R,0.469394X0.007113*%
%ADD493R,0.497841X0.007109*%
%ADD494R,0.576072X0.007109*%
%ADD495R,0.632969X0.007109*%
%ADD496R,0.654306X0.007113*%
%ADD497R,0.817881X0.007109*%
%ADD498R,0.817878X0.007109*%
%ADD499R,0.675638X0.007113*%
%ADD500R,0.583184X0.007109*%
%ADD501R,0.832103X0.007109*%
%ADD502R,0.561850X0.007113*%
%ADD503R,0.846325X0.007109*%
%ADD504R,0.846325X0.007113*%
%ADD505R,0.476506X0.007113*%
%ADD506R,0.405381X0.007113*%
%ADD507R,0.384050X0.007109*%
%ADD508R,0.298706X0.007113*%
%ADD509R,0.234694X0.007113*%
%ADD510R,0.184913X0.007109*%
%ADD511R,0.910334X0.007109*%
%ADD512R,0.924563X0.007113*%
%ADD513R,0.938781X0.007109*%
%ADD514R,0.953009X0.007109*%
%ADD515R,0.967234X0.007113*%
%ADD516R,0.974347X0.007109*%
%ADD517R,0.981453X0.007113*%
%ADD518R,0.995681X0.007109*%
%ADD519R,1.017016X0.007109*%
%ADD520R,1.045466X0.007113*%
%ADD521R,1.073913X0.007109*%
%ADD522R,1.073909X0.007113*%
%ADD523R,1.088137X0.007113*%
%ADD524R,1.102363X0.007113*%
%ADD525R,1.116584X0.007113*%
%ADD526R,1.137922X0.007113*%
%ADD527R,1.152144X0.007109*%
%ADD528R,1.173481X0.007113*%
%ADD529R,1.201928X0.007109*%
%ADD530R,1.194816X0.007109*%
%ADD531R,1.223266X0.007113*%
%ADD532R,1.230378X0.007113*%
%ADD533R,1.223263X0.007113*%
%ADD534R,1.237488X0.007113*%
%ADD535R,1.251713X0.007113*%
%ADD536R,1.258825X0.007109*%
%ADD537R,1.273047X0.007113*%
%ADD538R,1.280159X0.007113*%
%ADD539R,1.287272X0.007113*%
%ADD540R,1.301494X0.007113*%
%ADD541R,1.315719X0.007113*%
%ADD542R,1.308606X0.007113*%
%ADD543R,1.329944X0.007113*%
%ADD544R,1.322831X0.007113*%
%ADD545R,1.344169X0.007113*%
%ADD546R,1.344166X0.007113*%
%ADD547R,1.365503X0.007109*%
%ADD548R,1.365506X0.007109*%
%ADD549R,1.379728X0.007113*%
%ADD550R,1.401063X0.007113*%
%ADD551R,1.401066X0.007113*%
%ADD552R,1.422400X0.007113*%
%ADD553R,1.429512X0.007113*%
%ADD554R,1.450847X0.007113*%
%ADD555R,1.486406X0.007113*%
%ADD556R,1.479297X0.007113*%
%ADD557R,1.521969X0.007109*%
%ADD558R,1.514856X0.007109*%
%ADD559R,1.571753X0.007113*%
%ADD560R,1.564641X0.007113*%
%ADD561R,7.403594X0.007113*%
%ADD562R,7.353806X0.007109*%
%ADD563R,7.332472X0.007113*%
%ADD564R,7.325359X0.007113*%
%ADD565R,7.282688X0.007109*%
%ADD566R,7.268463X0.007113*%
%ADD567R,7.254241X0.007113*%
%ADD568R,7.218681X0.007113*%
%ADD569R,7.204456X0.007113*%
%ADD570R,7.190231X0.007109*%
%ADD571R,7.176006X0.007113*%
%ADD572R,7.161784X0.007113*%
%ADD573R,7.112000X0.007109*%
%ADD574R,7.090663X0.007113*%
%ADD575R,7.076441X0.007113*%
%ADD576R,7.062216X0.007113*%
%ADD577R,7.047994X0.007113*%
%ADD578R,7.012431X0.007109*%
%ADD579R,6.998206X0.007113*%
%ADD580R,6.983984X0.007113*%
%ADD581R,6.969759X0.007113*%
%ADD582R,6.919975X0.007109*%
%ADD583R,6.905753X0.007113*%
%ADD584R,6.884416X0.007113*%
%ADD585R,6.870194X0.007113*%
%ADD586R,6.820406X0.007113*%
%ADD587R,6.799072X0.007109*%
%ADD588R,6.770625X0.007113*%
%ADD589R,6.742175X0.007113*%
%ADD590R,6.727950X0.007113*%
%ADD591R,6.685281X0.007109*%
%ADD592R,6.671056X0.007113*%
%ADD593R,6.656831X0.007113*%
%ADD594R,6.628384X0.007113*%
%ADD595R,6.585713X0.007113*%
%ADD596R,6.571487X0.007109*%
%ADD597R,6.550153X0.007113*%
%ADD598R,6.528816X0.007113*%
%ADD599R,6.507481X0.007113*%
%ADD600R,6.486144X0.007113*%
%ADD601R,6.457694X0.007113*%
%ADD602R,6.443472X0.007109*%
%ADD603R,6.415025X0.007113*%
%ADD604R,6.393688X0.007113*%
%ADD605R,6.372350X0.007113*%
%ADD606R,6.343906X0.007113*%
%ADD607R,6.322569X0.007113*%
%ADD608R,6.272784X0.007109*%
%ADD609R,6.244338X0.007113*%
%ADD610R,6.215888X0.007113*%
%ADD611R,6.187441X0.007113*%
%ADD612R,6.166103X0.007113*%
%ADD613R,6.137656X0.007113*%
%ADD614R,6.109206X0.007109*%
%ADD615R,6.080759X0.007113*%
%ADD616R,6.045200X0.007113*%
%ADD617R,6.016750X0.007113*%
%ADD618R,5.988306X0.007113*%
%ADD619R,5.959856X0.007113*%
%ADD620R,5.924297X0.007109*%
%ADD621R,5.888738X0.007113*%
%ADD622R,5.860288X0.007113*%
%ADD623R,5.817616X0.007113*%
%ADD624R,5.789169X0.007113*%
%ADD625R,5.746494X0.007113*%
%ADD626R,5.710938X0.007109*%
%ADD627R,5.675375X0.007113*%
%ADD628R,5.632706X0.007113*%
%ADD629R,5.590031X0.007113*%
%ADD630R,5.540247X0.007113*%
%ADD631R,5.490463X0.007113*%
%ADD632R,5.447794X0.007113*%
%ADD633R,5.390894X0.007109*%
%ADD634R,5.341113X0.007113*%
%ADD635R,5.284216X0.007113*%
%ADD636R,5.220206X0.007113*%
%ADD637R,5.156200X0.007113*%
%ADD638R,5.077969X0.007113*%
%ADD639R,4.999738X0.007109*%
%ADD640R,4.907281X0.007113*%
%ADD641R,4.786375X0.007113*%
%ADD642R,4.608575X0.007113*%

G36*
X395425Y51094D02*
X395425Y51094D01*
X395433Y51094D01*
X395484Y51109D01*
X395691Y51163D01*
X395724Y51183D01*
X395754Y51192D01*
X399754Y53192D01*
X399836Y53249D01*
X399923Y53298D01*
X399953Y53329D01*
X399988Y53353D01*
X400051Y53431D01*
X400121Y53502D01*
X400141Y53540D01*
X400168Y53573D01*
X400207Y53665D01*
X400254Y53753D01*
X400263Y53795D01*
X400280Y53835D01*
X400292Y53934D01*
X400313Y54031D01*
X400310Y54074D01*
X400315Y54117D01*
X400300Y54215D01*
X400292Y54315D01*
X400277Y54355D01*
X400271Y54398D01*
X400228Y54488D01*
X400194Y54581D01*
X400168Y54616D01*
X400150Y54655D01*
X400084Y54730D01*
X400025Y54810D01*
X399994Y54833D01*
X399963Y54869D01*
X399830Y54954D01*
X399823Y54961D01*
X399809Y54968D01*
X399754Y55008D01*
X395754Y57008D01*
X395746Y57011D01*
X395739Y57016D01*
X395611Y57056D01*
X395484Y57098D01*
X395476Y57099D01*
X395468Y57101D01*
X395333Y57105D01*
X395200Y57110D01*
X395192Y57108D01*
X395184Y57109D01*
X395054Y57075D01*
X394924Y57043D01*
X394917Y57039D01*
X394909Y57037D01*
X394794Y56969D01*
X394677Y56902D01*
X394672Y56896D01*
X394664Y56892D01*
X394572Y56794D01*
X394480Y56698D01*
X394476Y56690D01*
X394470Y56684D01*
X394409Y56565D01*
X394346Y56447D01*
X394344Y56439D01*
X394340Y56431D01*
X394332Y56379D01*
X394287Y56169D01*
X394290Y56131D01*
X394285Y56100D01*
X394285Y52100D01*
X394286Y52092D01*
X394285Y52083D01*
X394306Y51951D01*
X394325Y51819D01*
X394328Y51811D01*
X394329Y51802D01*
X394386Y51681D01*
X394441Y51559D01*
X394446Y51553D01*
X394450Y51545D01*
X394538Y51444D01*
X394625Y51342D01*
X394632Y51337D01*
X394637Y51331D01*
X394750Y51259D01*
X394861Y51185D01*
X394869Y51182D01*
X394876Y51177D01*
X395005Y51139D01*
X395132Y51099D01*
X395141Y51099D01*
X395149Y51096D01*
X395283Y51095D01*
X395416Y51091D01*
X395425Y51094D01*
G37*
D10*
X218889Y186129D02*
X218889Y194511D01*
X221217Y194511D01*
X221312Y194509D01*
X221407Y194503D01*
X221501Y194494D01*
X221595Y194480D01*
X221689Y194463D01*
X221781Y194442D01*
X221873Y194417D01*
X221963Y194388D01*
X222053Y194356D01*
X222141Y194320D01*
X222227Y194280D01*
X222312Y194238D01*
X222395Y194191D01*
X222476Y194141D01*
X222554Y194088D01*
X222631Y194032D01*
X222705Y193973D01*
X222777Y193911D01*
X222846Y193846D01*
X222913Y193778D01*
X222976Y193708D01*
X223037Y193634D01*
X223095Y193559D01*
X223149Y193481D01*
X223201Y193401D01*
X223249Y193319D01*
X223293Y193236D01*
X223335Y193150D01*
X223372Y193063D01*
X223406Y192974D01*
X223437Y192884D01*
X223464Y192793D01*
X223487Y192701D01*
X223506Y192608D01*
X223521Y192514D01*
X223533Y192420D01*
X223541Y192325D01*
X223545Y192230D01*
X223545Y192136D01*
X223541Y192041D01*
X223533Y191946D01*
X223521Y191852D01*
X223506Y191758D01*
X223487Y191665D01*
X223464Y191573D01*
X223437Y191482D01*
X223406Y191392D01*
X223372Y191303D01*
X223335Y191216D01*
X223293Y191130D01*
X223249Y191047D01*
X223201Y190965D01*
X223149Y190885D01*
X223095Y190807D01*
X223037Y190732D01*
X222976Y190658D01*
X222913Y190588D01*
X222846Y190520D01*
X222777Y190455D01*
X222705Y190393D01*
X222631Y190334D01*
X222554Y190278D01*
X222476Y190225D01*
X222395Y190175D01*
X222312Y190128D01*
X222227Y190086D01*
X222141Y190046D01*
X222053Y190010D01*
X221963Y189978D01*
X221873Y189949D01*
X221781Y189924D01*
X221689Y189903D01*
X221595Y189886D01*
X221501Y189872D01*
X221407Y189863D01*
X221312Y189857D01*
X221217Y189855D01*
X221217Y189854D02*
X218889Y189854D01*
X221683Y189854D02*
X223546Y186129D01*
X229117Y186129D02*
X231445Y186129D01*
X229117Y186129D02*
X229044Y186131D01*
X228971Y186137D01*
X228898Y186146D01*
X228827Y186160D01*
X228755Y186177D01*
X228685Y186197D01*
X228616Y186222D01*
X228549Y186250D01*
X228483Y186281D01*
X228419Y186316D01*
X228356Y186354D01*
X228296Y186396D01*
X228238Y186440D01*
X228182Y186488D01*
X228129Y186538D01*
X228079Y186591D01*
X228031Y186647D01*
X227987Y186705D01*
X227945Y186765D01*
X227907Y186828D01*
X227872Y186892D01*
X227841Y186958D01*
X227813Y187025D01*
X227788Y187094D01*
X227768Y187164D01*
X227751Y187236D01*
X227737Y187307D01*
X227728Y187380D01*
X227722Y187453D01*
X227720Y187526D01*
X227720Y190320D01*
X227722Y190393D01*
X227728Y190466D01*
X227737Y190539D01*
X227751Y190610D01*
X227768Y190682D01*
X227788Y190752D01*
X227813Y190821D01*
X227841Y190888D01*
X227872Y190954D01*
X227907Y191019D01*
X227945Y191081D01*
X227987Y191141D01*
X228031Y191199D01*
X228079Y191255D01*
X228129Y191308D01*
X228182Y191358D01*
X228238Y191406D01*
X228296Y191450D01*
X228356Y191492D01*
X228419Y191530D01*
X228483Y191565D01*
X228549Y191596D01*
X228616Y191624D01*
X228685Y191649D01*
X228755Y191669D01*
X228827Y191686D01*
X228898Y191700D01*
X228971Y191709D01*
X229044Y191715D01*
X229117Y191717D01*
X231445Y191717D01*
X231445Y184732D01*
X231443Y184659D01*
X231437Y184586D01*
X231428Y184513D01*
X231414Y184442D01*
X231397Y184370D01*
X231377Y184300D01*
X231352Y184231D01*
X231324Y184164D01*
X231293Y184098D01*
X231258Y184034D01*
X231220Y183971D01*
X231178Y183911D01*
X231134Y183853D01*
X231086Y183797D01*
X231036Y183744D01*
X230983Y183694D01*
X230927Y183646D01*
X230869Y183602D01*
X230809Y183560D01*
X230747Y183522D01*
X230682Y183487D01*
X230616Y183456D01*
X230549Y183428D01*
X230480Y183403D01*
X230410Y183383D01*
X230338Y183366D01*
X230267Y183352D01*
X230194Y183343D01*
X230121Y183337D01*
X230048Y183335D01*
X228186Y183335D01*
X236567Y186129D02*
X236567Y194511D01*
X238896Y194511D01*
X238991Y194509D01*
X239086Y194503D01*
X239180Y194494D01*
X239274Y194480D01*
X239368Y194463D01*
X239460Y194442D01*
X239552Y194417D01*
X239642Y194388D01*
X239732Y194356D01*
X239820Y194320D01*
X239906Y194280D01*
X239991Y194238D01*
X240074Y194191D01*
X240155Y194141D01*
X240233Y194088D01*
X240310Y194032D01*
X240384Y193973D01*
X240456Y193911D01*
X240525Y193846D01*
X240592Y193778D01*
X240655Y193708D01*
X240716Y193634D01*
X240774Y193559D01*
X240828Y193481D01*
X240880Y193401D01*
X240928Y193319D01*
X240972Y193236D01*
X241014Y193150D01*
X241051Y193063D01*
X241085Y192974D01*
X241116Y192884D01*
X241143Y192793D01*
X241166Y192701D01*
X241185Y192608D01*
X241200Y192514D01*
X241212Y192420D01*
X241220Y192325D01*
X241224Y192230D01*
X241224Y192136D01*
X241220Y192041D01*
X241212Y191946D01*
X241200Y191852D01*
X241185Y191758D01*
X241166Y191665D01*
X241143Y191573D01*
X241116Y191482D01*
X241085Y191392D01*
X241051Y191303D01*
X241014Y191216D01*
X240972Y191130D01*
X240928Y191047D01*
X240880Y190965D01*
X240828Y190885D01*
X240774Y190807D01*
X240716Y190732D01*
X240655Y190658D01*
X240592Y190588D01*
X240525Y190520D01*
X240456Y190455D01*
X240384Y190393D01*
X240310Y190334D01*
X240233Y190278D01*
X240155Y190225D01*
X240074Y190175D01*
X239991Y190128D01*
X239906Y190086D01*
X239820Y190046D01*
X239732Y190010D01*
X239642Y189978D01*
X239552Y189949D01*
X239460Y189924D01*
X239368Y189903D01*
X239274Y189886D01*
X239180Y189872D01*
X239086Y189863D01*
X238991Y189857D01*
X238896Y189855D01*
X238896Y189854D02*
X236567Y189854D01*
X239361Y189854D02*
X241224Y186129D01*
X254059Y190786D02*
X255456Y190786D01*
X255456Y186129D01*
X252662Y186129D01*
X252578Y186131D01*
X252495Y186136D01*
X252412Y186146D01*
X252329Y186159D01*
X252247Y186176D01*
X252166Y186196D01*
X252086Y186220D01*
X252007Y186248D01*
X251930Y186279D01*
X251854Y186313D01*
X251779Y186351D01*
X251706Y186393D01*
X251636Y186437D01*
X251567Y186485D01*
X251500Y186535D01*
X251436Y186589D01*
X251375Y186645D01*
X251315Y186705D01*
X251259Y186766D01*
X251205Y186830D01*
X251155Y186897D01*
X251107Y186966D01*
X251063Y187036D01*
X251021Y187109D01*
X250983Y187184D01*
X250949Y187260D01*
X250918Y187337D01*
X250890Y187416D01*
X250866Y187496D01*
X250846Y187577D01*
X250829Y187659D01*
X250816Y187742D01*
X250806Y187825D01*
X250801Y187908D01*
X250799Y187992D01*
X250799Y192648D01*
X250801Y192734D01*
X250807Y192820D01*
X250817Y192905D01*
X250831Y192990D01*
X250848Y193075D01*
X250870Y193158D01*
X250896Y193240D01*
X250925Y193321D01*
X250958Y193400D01*
X250994Y193478D01*
X251034Y193555D01*
X251078Y193629D01*
X251125Y193701D01*
X251175Y193771D01*
X251229Y193838D01*
X251285Y193903D01*
X251345Y193965D01*
X251407Y194025D01*
X251472Y194081D01*
X251539Y194135D01*
X251609Y194185D01*
X251681Y194232D01*
X251755Y194276D01*
X251832Y194316D01*
X251909Y194352D01*
X251989Y194385D01*
X252070Y194414D01*
X252152Y194440D01*
X252235Y194462D01*
X252320Y194479D01*
X252405Y194493D01*
X252490Y194503D01*
X252576Y194509D01*
X252662Y194511D01*
X255456Y194511D01*
X260768Y194511D02*
X260768Y186129D01*
X260768Y194511D02*
X263097Y194511D01*
X263192Y194509D01*
X263287Y194503D01*
X263381Y194494D01*
X263475Y194480D01*
X263569Y194463D01*
X263661Y194442D01*
X263753Y194417D01*
X263843Y194388D01*
X263933Y194356D01*
X264021Y194320D01*
X264107Y194280D01*
X264192Y194238D01*
X264275Y194191D01*
X264356Y194141D01*
X264434Y194088D01*
X264511Y194032D01*
X264585Y193973D01*
X264657Y193911D01*
X264726Y193846D01*
X264793Y193778D01*
X264856Y193708D01*
X264917Y193634D01*
X264975Y193559D01*
X265029Y193481D01*
X265081Y193401D01*
X265129Y193319D01*
X265173Y193236D01*
X265215Y193150D01*
X265252Y193063D01*
X265286Y192974D01*
X265317Y192884D01*
X265344Y192793D01*
X265367Y192701D01*
X265386Y192608D01*
X265401Y192514D01*
X265413Y192420D01*
X265421Y192325D01*
X265425Y192230D01*
X265425Y192136D01*
X265421Y192041D01*
X265413Y191946D01*
X265401Y191852D01*
X265386Y191758D01*
X265367Y191665D01*
X265344Y191573D01*
X265317Y191482D01*
X265286Y191392D01*
X265252Y191303D01*
X265215Y191216D01*
X265173Y191130D01*
X265129Y191047D01*
X265081Y190965D01*
X265029Y190885D01*
X264975Y190807D01*
X264917Y190732D01*
X264856Y190658D01*
X264793Y190588D01*
X264726Y190520D01*
X264657Y190455D01*
X264585Y190393D01*
X264511Y190334D01*
X264434Y190278D01*
X264356Y190225D01*
X264275Y190175D01*
X264192Y190128D01*
X264107Y190086D01*
X264021Y190046D01*
X263933Y190010D01*
X263843Y189978D01*
X263753Y189949D01*
X263661Y189924D01*
X263569Y189903D01*
X263475Y189886D01*
X263381Y189872D01*
X263287Y189863D01*
X263192Y189857D01*
X263097Y189855D01*
X263097Y189854D02*
X260768Y189854D01*
X268977Y191717D02*
X268977Y186129D01*
X268744Y194045D02*
X268744Y194511D01*
X269210Y194511D01*
X269210Y194045D01*
X268744Y194045D01*
X273498Y194511D02*
X273498Y186129D01*
X276292Y189854D02*
X273498Y194511D01*
X276292Y189854D02*
X279086Y194511D01*
X279086Y186129D01*
X285433Y189389D02*
X287528Y189389D01*
X285433Y189389D02*
X285353Y189387D01*
X285273Y189381D01*
X285194Y189371D01*
X285115Y189358D01*
X285037Y189340D01*
X284960Y189319D01*
X284884Y189294D01*
X284809Y189265D01*
X284736Y189233D01*
X284665Y189197D01*
X284595Y189157D01*
X284527Y189114D01*
X284462Y189068D01*
X284399Y189019D01*
X284338Y188967D01*
X284280Y188912D01*
X284225Y188854D01*
X284173Y188793D01*
X284124Y188730D01*
X284078Y188665D01*
X284035Y188597D01*
X283995Y188527D01*
X283959Y188456D01*
X283927Y188383D01*
X283898Y188308D01*
X283873Y188232D01*
X283852Y188155D01*
X283834Y188077D01*
X283821Y187998D01*
X283811Y187919D01*
X283805Y187839D01*
X283803Y187759D01*
X283805Y187679D01*
X283811Y187599D01*
X283821Y187520D01*
X283834Y187441D01*
X283852Y187363D01*
X283873Y187286D01*
X283898Y187210D01*
X283927Y187135D01*
X283959Y187062D01*
X283995Y186991D01*
X284035Y186921D01*
X284078Y186853D01*
X284124Y186788D01*
X284173Y186725D01*
X284225Y186664D01*
X284280Y186606D01*
X284338Y186551D01*
X284399Y186499D01*
X284462Y186450D01*
X284527Y186404D01*
X284595Y186361D01*
X284665Y186321D01*
X284736Y186285D01*
X284809Y186253D01*
X284884Y186224D01*
X284960Y186199D01*
X285037Y186178D01*
X285115Y186160D01*
X285194Y186147D01*
X285273Y186137D01*
X285353Y186131D01*
X285433Y186129D01*
X287528Y186129D01*
X287528Y190320D01*
X287526Y190393D01*
X287520Y190466D01*
X287511Y190539D01*
X287497Y190610D01*
X287480Y190682D01*
X287460Y190752D01*
X287435Y190821D01*
X287407Y190888D01*
X287376Y190954D01*
X287341Y191019D01*
X287303Y191081D01*
X287261Y191141D01*
X287217Y191199D01*
X287169Y191255D01*
X287119Y191308D01*
X287066Y191358D01*
X287010Y191406D01*
X286952Y191450D01*
X286892Y191492D01*
X286830Y191530D01*
X286765Y191565D01*
X286699Y191596D01*
X286632Y191624D01*
X286563Y191649D01*
X286493Y191669D01*
X286421Y191686D01*
X286350Y191700D01*
X286277Y191709D01*
X286204Y191715D01*
X286131Y191717D01*
X284269Y191717D01*
X291236Y191717D02*
X294030Y191717D01*
X292168Y194511D02*
X292168Y187526D01*
X292170Y187453D01*
X292176Y187380D01*
X292185Y187307D01*
X292199Y187236D01*
X292216Y187164D01*
X292236Y187094D01*
X292261Y187025D01*
X292289Y186958D01*
X292320Y186892D01*
X292355Y186828D01*
X292393Y186765D01*
X292435Y186705D01*
X292479Y186647D01*
X292527Y186591D01*
X292577Y186538D01*
X292630Y186488D01*
X292686Y186440D01*
X292744Y186396D01*
X292804Y186354D01*
X292867Y186316D01*
X292931Y186281D01*
X292997Y186250D01*
X293064Y186222D01*
X293133Y186197D01*
X293203Y186177D01*
X293275Y186160D01*
X293346Y186146D01*
X293419Y186137D01*
X293492Y186131D01*
X293565Y186129D01*
X294030Y186129D01*
X299296Y186129D02*
X301624Y186129D01*
X299296Y186129D02*
X299223Y186131D01*
X299150Y186137D01*
X299077Y186146D01*
X299006Y186160D01*
X298934Y186177D01*
X298864Y186197D01*
X298795Y186222D01*
X298728Y186250D01*
X298662Y186281D01*
X298598Y186316D01*
X298535Y186354D01*
X298475Y186396D01*
X298417Y186440D01*
X298361Y186488D01*
X298308Y186538D01*
X298258Y186591D01*
X298210Y186647D01*
X298166Y186705D01*
X298124Y186765D01*
X298086Y186828D01*
X298051Y186892D01*
X298020Y186958D01*
X297992Y187025D01*
X297967Y187094D01*
X297947Y187164D01*
X297930Y187236D01*
X297916Y187307D01*
X297907Y187380D01*
X297901Y187453D01*
X297899Y187526D01*
X297899Y189854D01*
X297901Y189939D01*
X297907Y190023D01*
X297916Y190108D01*
X297930Y190191D01*
X297947Y190274D01*
X297968Y190357D01*
X297993Y190438D01*
X298021Y190518D01*
X298053Y190596D01*
X298089Y190673D01*
X298128Y190749D01*
X298170Y190822D01*
X298216Y190893D01*
X298265Y190963D01*
X298317Y191030D01*
X298372Y191094D01*
X298430Y191156D01*
X298490Y191216D01*
X298554Y191272D01*
X298619Y191326D01*
X298688Y191376D01*
X298758Y191423D01*
X298831Y191467D01*
X298905Y191508D01*
X298981Y191545D01*
X299059Y191579D01*
X299138Y191609D01*
X299219Y191636D01*
X299300Y191659D01*
X299383Y191678D01*
X299466Y191693D01*
X299550Y191705D01*
X299635Y191713D01*
X299720Y191717D01*
X299804Y191717D01*
X299889Y191713D01*
X299974Y191705D01*
X300058Y191693D01*
X300141Y191678D01*
X300224Y191659D01*
X300305Y191636D01*
X300386Y191609D01*
X300465Y191579D01*
X300543Y191545D01*
X300619Y191508D01*
X300694Y191467D01*
X300766Y191423D01*
X300836Y191376D01*
X300905Y191326D01*
X300970Y191272D01*
X301034Y191216D01*
X301094Y191156D01*
X301152Y191094D01*
X301207Y191030D01*
X301259Y190963D01*
X301308Y190893D01*
X301354Y190822D01*
X301396Y190749D01*
X301435Y190673D01*
X301471Y190596D01*
X301503Y190518D01*
X301531Y190438D01*
X301556Y190357D01*
X301577Y190274D01*
X301594Y190191D01*
X301608Y190108D01*
X301617Y190023D01*
X301623Y189939D01*
X301625Y189854D01*
X301624Y189854D02*
X301624Y188923D01*
X297899Y188923D01*
X306111Y189389D02*
X311699Y189389D01*
X308905Y186595D02*
X308905Y192183D01*
X222614Y170889D02*
X218889Y170889D01*
X218889Y179271D01*
X222614Y179271D01*
X221683Y175546D02*
X218889Y175546D01*
X225465Y176477D02*
X228259Y176477D01*
X226396Y179271D02*
X226396Y172286D01*
X226398Y172213D01*
X226404Y172140D01*
X226413Y172067D01*
X226427Y171996D01*
X226444Y171924D01*
X226464Y171854D01*
X226489Y171785D01*
X226517Y171718D01*
X226548Y171652D01*
X226583Y171588D01*
X226621Y171525D01*
X226663Y171465D01*
X226707Y171407D01*
X226755Y171351D01*
X226805Y171298D01*
X226858Y171248D01*
X226914Y171200D01*
X226972Y171156D01*
X227032Y171114D01*
X227095Y171076D01*
X227159Y171041D01*
X227225Y171010D01*
X227292Y170982D01*
X227361Y170957D01*
X227431Y170937D01*
X227503Y170920D01*
X227574Y170906D01*
X227647Y170897D01*
X227720Y170891D01*
X227793Y170889D01*
X228259Y170889D01*
X232432Y170889D02*
X232432Y179271D01*
X232432Y176477D02*
X234761Y176477D01*
X234834Y176475D01*
X234907Y176469D01*
X234980Y176460D01*
X235051Y176446D01*
X235123Y176429D01*
X235193Y176409D01*
X235262Y176384D01*
X235329Y176356D01*
X235395Y176325D01*
X235460Y176290D01*
X235522Y176252D01*
X235582Y176210D01*
X235640Y176166D01*
X235696Y176118D01*
X235749Y176068D01*
X235799Y176015D01*
X235847Y175959D01*
X235891Y175901D01*
X235933Y175841D01*
X235971Y175779D01*
X236006Y175714D01*
X236037Y175648D01*
X236065Y175581D01*
X236090Y175512D01*
X236110Y175442D01*
X236127Y175370D01*
X236141Y175299D01*
X236150Y175226D01*
X236156Y175153D01*
X236158Y175080D01*
X236158Y170889D01*
X242059Y170889D02*
X244387Y170889D01*
X242059Y170889D02*
X241986Y170891D01*
X241913Y170897D01*
X241840Y170906D01*
X241769Y170920D01*
X241697Y170937D01*
X241627Y170957D01*
X241558Y170982D01*
X241491Y171010D01*
X241425Y171041D01*
X241361Y171076D01*
X241298Y171114D01*
X241238Y171156D01*
X241180Y171200D01*
X241124Y171248D01*
X241071Y171298D01*
X241021Y171351D01*
X240973Y171407D01*
X240929Y171465D01*
X240887Y171525D01*
X240849Y171588D01*
X240814Y171652D01*
X240783Y171718D01*
X240755Y171785D01*
X240730Y171854D01*
X240710Y171924D01*
X240693Y171996D01*
X240679Y172067D01*
X240670Y172140D01*
X240664Y172213D01*
X240662Y172286D01*
X240662Y174614D01*
X240661Y174614D02*
X240663Y174699D01*
X240669Y174783D01*
X240678Y174868D01*
X240692Y174951D01*
X240709Y175034D01*
X240730Y175117D01*
X240755Y175198D01*
X240783Y175278D01*
X240815Y175356D01*
X240851Y175433D01*
X240890Y175509D01*
X240932Y175582D01*
X240978Y175653D01*
X241027Y175723D01*
X241079Y175790D01*
X241134Y175854D01*
X241192Y175916D01*
X241252Y175976D01*
X241316Y176032D01*
X241381Y176086D01*
X241450Y176136D01*
X241520Y176183D01*
X241593Y176227D01*
X241667Y176268D01*
X241743Y176305D01*
X241821Y176339D01*
X241900Y176369D01*
X241981Y176396D01*
X242062Y176419D01*
X242145Y176438D01*
X242228Y176453D01*
X242312Y176465D01*
X242397Y176473D01*
X242482Y176477D01*
X242566Y176477D01*
X242651Y176473D01*
X242736Y176465D01*
X242820Y176453D01*
X242903Y176438D01*
X242986Y176419D01*
X243067Y176396D01*
X243148Y176369D01*
X243227Y176339D01*
X243305Y176305D01*
X243381Y176268D01*
X243456Y176227D01*
X243528Y176183D01*
X243598Y176136D01*
X243667Y176086D01*
X243732Y176032D01*
X243796Y175976D01*
X243856Y175916D01*
X243914Y175854D01*
X243969Y175790D01*
X244021Y175723D01*
X244070Y175653D01*
X244116Y175582D01*
X244158Y175509D01*
X244197Y175433D01*
X244233Y175356D01*
X244265Y175278D01*
X244293Y175198D01*
X244318Y175117D01*
X244339Y175034D01*
X244356Y174951D01*
X244370Y174868D01*
X244379Y174783D01*
X244385Y174699D01*
X244387Y174614D01*
X244387Y173683D01*
X240662Y173683D01*
X248976Y170889D02*
X248976Y176477D01*
X251770Y176477D01*
X251770Y175546D01*
X255292Y176477D02*
X255292Y170889D01*
X255292Y176477D02*
X257620Y176477D01*
X257693Y176475D01*
X257766Y176469D01*
X257839Y176460D01*
X257910Y176446D01*
X257982Y176429D01*
X258052Y176409D01*
X258121Y176384D01*
X258188Y176356D01*
X258254Y176325D01*
X258319Y176290D01*
X258381Y176252D01*
X258441Y176210D01*
X258499Y176166D01*
X258555Y176118D01*
X258608Y176068D01*
X258658Y176015D01*
X258706Y175959D01*
X258750Y175901D01*
X258792Y175841D01*
X258830Y175779D01*
X258865Y175714D01*
X258896Y175648D01*
X258924Y175581D01*
X258949Y175512D01*
X258969Y175442D01*
X258986Y175370D01*
X259000Y175299D01*
X259009Y175226D01*
X259015Y175153D01*
X259017Y175080D01*
X259017Y170889D01*
X264919Y170889D02*
X267247Y170889D01*
X264919Y170889D02*
X264846Y170891D01*
X264773Y170897D01*
X264700Y170906D01*
X264629Y170920D01*
X264557Y170937D01*
X264487Y170957D01*
X264418Y170982D01*
X264351Y171010D01*
X264285Y171041D01*
X264221Y171076D01*
X264158Y171114D01*
X264098Y171156D01*
X264040Y171200D01*
X263984Y171248D01*
X263931Y171298D01*
X263881Y171351D01*
X263833Y171407D01*
X263789Y171465D01*
X263747Y171525D01*
X263709Y171588D01*
X263674Y171652D01*
X263643Y171718D01*
X263615Y171785D01*
X263590Y171854D01*
X263570Y171924D01*
X263553Y171996D01*
X263539Y172067D01*
X263530Y172140D01*
X263524Y172213D01*
X263522Y172286D01*
X263522Y174614D01*
X263521Y174614D02*
X263523Y174699D01*
X263529Y174783D01*
X263538Y174868D01*
X263552Y174951D01*
X263569Y175034D01*
X263590Y175117D01*
X263615Y175198D01*
X263643Y175278D01*
X263675Y175356D01*
X263711Y175433D01*
X263750Y175509D01*
X263792Y175582D01*
X263838Y175653D01*
X263887Y175723D01*
X263939Y175790D01*
X263994Y175854D01*
X264052Y175916D01*
X264112Y175976D01*
X264176Y176032D01*
X264241Y176086D01*
X264310Y176136D01*
X264380Y176183D01*
X264453Y176227D01*
X264527Y176268D01*
X264603Y176305D01*
X264681Y176339D01*
X264760Y176369D01*
X264841Y176396D01*
X264922Y176419D01*
X265005Y176438D01*
X265088Y176453D01*
X265172Y176465D01*
X265257Y176473D01*
X265342Y176477D01*
X265426Y176477D01*
X265511Y176473D01*
X265596Y176465D01*
X265680Y176453D01*
X265763Y176438D01*
X265846Y176419D01*
X265927Y176396D01*
X266008Y176369D01*
X266087Y176339D01*
X266165Y176305D01*
X266241Y176268D01*
X266316Y176227D01*
X266388Y176183D01*
X266458Y176136D01*
X266527Y176086D01*
X266592Y176032D01*
X266656Y175976D01*
X266716Y175916D01*
X266774Y175854D01*
X266829Y175790D01*
X266881Y175723D01*
X266930Y175653D01*
X266976Y175582D01*
X267018Y175509D01*
X267057Y175433D01*
X267093Y175356D01*
X267125Y175278D01*
X267153Y175198D01*
X267178Y175117D01*
X267199Y175034D01*
X267216Y174951D01*
X267230Y174868D01*
X267239Y174783D01*
X267245Y174699D01*
X267247Y174614D01*
X267247Y173683D01*
X263522Y173683D01*
X270575Y176477D02*
X273369Y176477D01*
X271506Y179271D02*
X271506Y172286D01*
X271508Y172213D01*
X271514Y172140D01*
X271523Y172067D01*
X271537Y171996D01*
X271554Y171924D01*
X271574Y171854D01*
X271599Y171785D01*
X271627Y171718D01*
X271658Y171652D01*
X271693Y171588D01*
X271731Y171525D01*
X271773Y171465D01*
X271817Y171407D01*
X271865Y171351D01*
X271915Y171298D01*
X271968Y171248D01*
X272024Y171200D01*
X272082Y171156D01*
X272142Y171114D01*
X272205Y171076D01*
X272269Y171041D01*
X272335Y171010D01*
X272402Y170982D01*
X272471Y170957D01*
X272541Y170937D01*
X272613Y170920D01*
X272684Y170906D01*
X272757Y170897D01*
X272830Y170891D01*
X272903Y170889D01*
X273369Y170889D01*
X281793Y170889D02*
X284587Y179271D01*
X287381Y170889D01*
X286682Y172985D02*
X282491Y172985D01*
X294908Y170889D02*
X294908Y179271D01*
X294908Y170889D02*
X292580Y170889D01*
X292507Y170891D01*
X292434Y170897D01*
X292361Y170906D01*
X292290Y170920D01*
X292218Y170937D01*
X292148Y170957D01*
X292079Y170982D01*
X292012Y171010D01*
X291946Y171041D01*
X291882Y171076D01*
X291819Y171114D01*
X291759Y171156D01*
X291701Y171200D01*
X291645Y171248D01*
X291592Y171298D01*
X291542Y171351D01*
X291494Y171407D01*
X291450Y171465D01*
X291408Y171525D01*
X291370Y171588D01*
X291335Y171652D01*
X291304Y171718D01*
X291276Y171785D01*
X291251Y171854D01*
X291231Y171924D01*
X291214Y171996D01*
X291200Y172067D01*
X291191Y172140D01*
X291185Y172213D01*
X291183Y172286D01*
X291183Y175080D01*
X291185Y175153D01*
X291191Y175226D01*
X291200Y175299D01*
X291214Y175370D01*
X291231Y175442D01*
X291251Y175512D01*
X291276Y175581D01*
X291304Y175648D01*
X291335Y175714D01*
X291370Y175779D01*
X291408Y175841D01*
X291450Y175901D01*
X291494Y175959D01*
X291542Y176015D01*
X291592Y176068D01*
X291645Y176118D01*
X291701Y176166D01*
X291759Y176210D01*
X291819Y176252D01*
X291882Y176290D01*
X291946Y176325D01*
X292012Y176356D01*
X292079Y176384D01*
X292148Y176409D01*
X292218Y176429D01*
X292290Y176446D01*
X292361Y176460D01*
X292434Y176469D01*
X292507Y176475D01*
X292580Y176477D01*
X294908Y176477D01*
X301043Y174149D02*
X303138Y174149D01*
X301043Y174149D02*
X300963Y174147D01*
X300883Y174141D01*
X300804Y174131D01*
X300725Y174118D01*
X300647Y174100D01*
X300570Y174079D01*
X300494Y174054D01*
X300419Y174025D01*
X300346Y173993D01*
X300275Y173957D01*
X300205Y173917D01*
X300137Y173874D01*
X300072Y173828D01*
X300009Y173779D01*
X299948Y173727D01*
X299890Y173672D01*
X299835Y173614D01*
X299783Y173553D01*
X299734Y173490D01*
X299688Y173425D01*
X299645Y173357D01*
X299605Y173287D01*
X299569Y173216D01*
X299537Y173143D01*
X299508Y173068D01*
X299483Y172992D01*
X299462Y172915D01*
X299444Y172837D01*
X299431Y172758D01*
X299421Y172679D01*
X299415Y172599D01*
X299413Y172519D01*
X299415Y172439D01*
X299421Y172359D01*
X299431Y172280D01*
X299444Y172201D01*
X299462Y172123D01*
X299483Y172046D01*
X299508Y171970D01*
X299537Y171895D01*
X299569Y171822D01*
X299605Y171751D01*
X299645Y171681D01*
X299688Y171613D01*
X299734Y171548D01*
X299783Y171485D01*
X299835Y171424D01*
X299890Y171366D01*
X299948Y171311D01*
X300009Y171259D01*
X300072Y171210D01*
X300137Y171164D01*
X300205Y171121D01*
X300275Y171081D01*
X300346Y171045D01*
X300419Y171013D01*
X300494Y170984D01*
X300570Y170959D01*
X300647Y170938D01*
X300725Y170920D01*
X300804Y170907D01*
X300883Y170897D01*
X300963Y170891D01*
X301043Y170889D01*
X303138Y170889D01*
X303138Y175080D01*
X303136Y175153D01*
X303130Y175226D01*
X303121Y175299D01*
X303107Y175370D01*
X303090Y175442D01*
X303070Y175512D01*
X303045Y175581D01*
X303017Y175648D01*
X302986Y175714D01*
X302951Y175779D01*
X302913Y175841D01*
X302871Y175901D01*
X302827Y175959D01*
X302779Y176015D01*
X302729Y176068D01*
X302676Y176118D01*
X302620Y176166D01*
X302562Y176210D01*
X302502Y176252D01*
X302440Y176290D01*
X302375Y176325D01*
X302309Y176356D01*
X302242Y176384D01*
X302173Y176409D01*
X302103Y176429D01*
X302031Y176446D01*
X301960Y176460D01*
X301887Y176469D01*
X301814Y176475D01*
X301741Y176477D01*
X299878Y176477D01*
X308097Y176477D02*
X308097Y168095D01*
X308097Y176477D02*
X310426Y176477D01*
X310499Y176475D01*
X310572Y176469D01*
X310645Y176460D01*
X310716Y176446D01*
X310788Y176429D01*
X310858Y176409D01*
X310927Y176384D01*
X310994Y176356D01*
X311060Y176325D01*
X311125Y176290D01*
X311187Y176252D01*
X311247Y176210D01*
X311305Y176166D01*
X311361Y176118D01*
X311414Y176068D01*
X311464Y176015D01*
X311512Y175959D01*
X311556Y175901D01*
X311598Y175841D01*
X311636Y175779D01*
X311671Y175714D01*
X311702Y175648D01*
X311730Y175581D01*
X311755Y175512D01*
X311775Y175442D01*
X311792Y175370D01*
X311806Y175299D01*
X311815Y175226D01*
X311821Y175153D01*
X311823Y175080D01*
X311823Y172286D01*
X311821Y172213D01*
X311815Y172140D01*
X311806Y172067D01*
X311792Y171996D01*
X311775Y171924D01*
X311755Y171854D01*
X311730Y171785D01*
X311702Y171718D01*
X311671Y171652D01*
X311636Y171588D01*
X311598Y171525D01*
X311556Y171465D01*
X311512Y171407D01*
X311464Y171351D01*
X311414Y171298D01*
X311361Y171248D01*
X311305Y171200D01*
X311247Y171156D01*
X311187Y171114D01*
X311125Y171076D01*
X311060Y171041D01*
X310994Y171010D01*
X310927Y170982D01*
X310858Y170957D01*
X310788Y170937D01*
X310716Y170920D01*
X310645Y170906D01*
X310572Y170897D01*
X310499Y170891D01*
X310426Y170889D01*
X308097Y170889D01*
X315076Y176477D02*
X317870Y176477D01*
X316007Y179271D02*
X316007Y172286D01*
X316009Y172213D01*
X316015Y172140D01*
X316024Y172067D01*
X316038Y171996D01*
X316055Y171924D01*
X316075Y171854D01*
X316100Y171785D01*
X316128Y171718D01*
X316159Y171652D01*
X316194Y171588D01*
X316232Y171525D01*
X316274Y171465D01*
X316318Y171407D01*
X316366Y171351D01*
X316416Y171298D01*
X316469Y171248D01*
X316525Y171200D01*
X316583Y171156D01*
X316643Y171114D01*
X316706Y171076D01*
X316770Y171041D01*
X316836Y171010D01*
X316903Y170982D01*
X316972Y170957D01*
X317042Y170937D01*
X317114Y170920D01*
X317185Y170906D01*
X317258Y170897D01*
X317331Y170891D01*
X317404Y170889D01*
X317870Y170889D01*
X323135Y170889D02*
X325463Y170889D01*
X323135Y170889D02*
X323062Y170891D01*
X322989Y170897D01*
X322916Y170906D01*
X322845Y170920D01*
X322773Y170937D01*
X322703Y170957D01*
X322634Y170982D01*
X322567Y171010D01*
X322501Y171041D01*
X322437Y171076D01*
X322374Y171114D01*
X322314Y171156D01*
X322256Y171200D01*
X322200Y171248D01*
X322147Y171298D01*
X322097Y171351D01*
X322049Y171407D01*
X322005Y171465D01*
X321963Y171525D01*
X321925Y171588D01*
X321890Y171652D01*
X321859Y171718D01*
X321831Y171785D01*
X321806Y171854D01*
X321786Y171924D01*
X321769Y171996D01*
X321755Y172067D01*
X321746Y172140D01*
X321740Y172213D01*
X321738Y172286D01*
X321738Y174614D01*
X321740Y174699D01*
X321746Y174783D01*
X321755Y174868D01*
X321769Y174951D01*
X321786Y175034D01*
X321807Y175117D01*
X321832Y175198D01*
X321860Y175278D01*
X321892Y175356D01*
X321928Y175433D01*
X321967Y175509D01*
X322009Y175582D01*
X322055Y175653D01*
X322104Y175723D01*
X322156Y175790D01*
X322211Y175854D01*
X322269Y175916D01*
X322329Y175976D01*
X322393Y176032D01*
X322458Y176086D01*
X322527Y176136D01*
X322597Y176183D01*
X322670Y176227D01*
X322744Y176268D01*
X322820Y176305D01*
X322898Y176339D01*
X322977Y176369D01*
X323058Y176396D01*
X323139Y176419D01*
X323222Y176438D01*
X323305Y176453D01*
X323389Y176465D01*
X323474Y176473D01*
X323559Y176477D01*
X323643Y176477D01*
X323728Y176473D01*
X323813Y176465D01*
X323897Y176453D01*
X323980Y176438D01*
X324063Y176419D01*
X324144Y176396D01*
X324225Y176369D01*
X324304Y176339D01*
X324382Y176305D01*
X324458Y176268D01*
X324533Y176227D01*
X324605Y176183D01*
X324675Y176136D01*
X324744Y176086D01*
X324809Y176032D01*
X324873Y175976D01*
X324933Y175916D01*
X324991Y175854D01*
X325046Y175790D01*
X325098Y175723D01*
X325147Y175653D01*
X325193Y175582D01*
X325235Y175509D01*
X325274Y175433D01*
X325310Y175356D01*
X325342Y175278D01*
X325370Y175198D01*
X325395Y175117D01*
X325416Y175034D01*
X325433Y174951D01*
X325447Y174868D01*
X325456Y174783D01*
X325462Y174699D01*
X325464Y174614D01*
X325463Y174614D02*
X325463Y173683D01*
X321738Y173683D01*
X330052Y170889D02*
X330052Y176477D01*
X332846Y176477D01*
X332846Y175546D01*
D11*
X264804Y138449D02*
X263732Y138449D01*
X263667Y138451D01*
X263603Y138457D01*
X263539Y138467D01*
X263475Y138480D01*
X263413Y138498D01*
X263352Y138519D01*
X263292Y138543D01*
X263234Y138572D01*
X263177Y138604D01*
X263123Y138639D01*
X263071Y138677D01*
X263021Y138719D01*
X262974Y138763D01*
X262930Y138810D01*
X262888Y138860D01*
X262850Y138912D01*
X262815Y138966D01*
X262783Y139023D01*
X262754Y139081D01*
X262730Y139141D01*
X262709Y139202D01*
X262691Y139264D01*
X262678Y139328D01*
X262668Y139392D01*
X262662Y139456D01*
X262660Y139521D01*
X262659Y139521D02*
X262659Y142203D01*
X262660Y142203D02*
X262662Y142268D01*
X262668Y142332D01*
X262678Y142396D01*
X262691Y142460D01*
X262709Y142522D01*
X262730Y142583D01*
X262754Y142643D01*
X262783Y142701D01*
X262815Y142758D01*
X262850Y142812D01*
X262888Y142864D01*
X262930Y142914D01*
X262974Y142961D01*
X263021Y143005D01*
X263071Y143047D01*
X263123Y143085D01*
X263177Y143120D01*
X263234Y143152D01*
X263292Y143181D01*
X263352Y143205D01*
X263413Y143226D01*
X263475Y143244D01*
X263539Y143257D01*
X263603Y143267D01*
X263667Y143273D01*
X263732Y143275D01*
X264804Y143275D01*
X267260Y142203D02*
X268600Y143275D01*
X268600Y138449D01*
X267260Y138449D02*
X269941Y138449D01*
D12*
X368300Y37100D02*
X368300Y32100D01*
X378300Y32100D01*
X378300Y37100D01*
X392300Y37100D01*
X392300Y40100D01*
X395300Y40100D01*
X395300Y37100D01*
X402300Y37100D01*
X402300Y166100D02*
X395300Y166100D01*
X395300Y163100D01*
X392300Y163100D01*
X392300Y166100D01*
X378300Y166100D01*
X378300Y171100D01*
X368300Y171100D01*
X368300Y166100D01*
X348300Y166100D01*
X348300Y37100D01*
X368300Y37100D01*
X392300Y40100D02*
X392300Y163100D01*
X402300Y166100D02*
X402300Y37100D01*
X358300Y37100D02*
X348300Y37100D01*
X348300Y49100D01*
X348300Y166100D02*
X358300Y166100D01*
X348300Y166100D02*
X348300Y154100D01*
X388300Y37100D02*
X392300Y37100D01*
X392300Y166100D02*
X388300Y166100D01*
D13*
X343550Y54100D03*
X343550Y59100D03*
X343550Y64100D03*
X343550Y69100D03*
X343550Y74100D03*
X343550Y79100D03*
X343550Y84100D03*
X343550Y89100D03*
X343550Y94100D03*
X343550Y99100D03*
X343550Y104100D03*
X343550Y109100D03*
X343550Y114100D03*
X343550Y119100D03*
X343550Y124100D03*
X343550Y129100D03*
X343550Y134100D03*
X343550Y139100D03*
X343550Y144100D03*
X343550Y149100D03*
D14*
X386842Y82825D02*
X386842Y80228D01*
X386840Y80129D01*
X386834Y80029D01*
X386825Y79930D01*
X386812Y79832D01*
X386795Y79734D01*
X386774Y79636D01*
X386749Y79540D01*
X386721Y79445D01*
X386689Y79351D01*
X386654Y79258D01*
X386615Y79166D01*
X386572Y79076D01*
X386527Y78988D01*
X386477Y78901D01*
X386425Y78817D01*
X386369Y78734D01*
X386311Y78654D01*
X386249Y78576D01*
X386184Y78501D01*
X386116Y78428D01*
X386046Y78358D01*
X385973Y78290D01*
X385898Y78225D01*
X385820Y78163D01*
X385740Y78105D01*
X385657Y78049D01*
X385573Y77997D01*
X385486Y77947D01*
X385398Y77902D01*
X385308Y77859D01*
X385216Y77820D01*
X385123Y77785D01*
X385029Y77753D01*
X384934Y77725D01*
X384838Y77700D01*
X384740Y77679D01*
X384642Y77662D01*
X384544Y77649D01*
X384445Y77640D01*
X384345Y77634D01*
X384246Y77632D01*
X377754Y77632D01*
X377655Y77634D01*
X377555Y77640D01*
X377456Y77649D01*
X377358Y77662D01*
X377260Y77680D01*
X377162Y77700D01*
X377066Y77725D01*
X376970Y77753D01*
X376876Y77785D01*
X376783Y77820D01*
X376692Y77859D01*
X376602Y77902D01*
X376513Y77947D01*
X376427Y77997D01*
X376342Y78049D01*
X376260Y78105D01*
X376180Y78164D01*
X376102Y78225D01*
X376026Y78290D01*
X375953Y78358D01*
X375883Y78428D01*
X375815Y78501D01*
X375750Y78577D01*
X375689Y78655D01*
X375630Y78735D01*
X375574Y78817D01*
X375522Y78902D01*
X375473Y78988D01*
X375427Y79077D01*
X375384Y79167D01*
X375345Y79258D01*
X375310Y79351D01*
X375278Y79445D01*
X375250Y79541D01*
X375225Y79637D01*
X375205Y79735D01*
X375187Y79833D01*
X375174Y79931D01*
X375165Y80030D01*
X375159Y80129D01*
X375157Y80229D01*
X375158Y80228D02*
X375158Y82825D01*
X378404Y87190D02*
X383596Y87190D01*
X378404Y87190D02*
X378291Y87192D01*
X378178Y87198D01*
X378065Y87208D01*
X377952Y87222D01*
X377840Y87239D01*
X377729Y87261D01*
X377619Y87286D01*
X377509Y87316D01*
X377401Y87349D01*
X377294Y87386D01*
X377188Y87426D01*
X377084Y87471D01*
X376981Y87519D01*
X376880Y87570D01*
X376781Y87625D01*
X376684Y87683D01*
X376589Y87745D01*
X376496Y87810D01*
X376406Y87878D01*
X376318Y87949D01*
X376232Y88024D01*
X376149Y88101D01*
X376069Y88181D01*
X375992Y88264D01*
X375917Y88350D01*
X375846Y88438D01*
X375778Y88528D01*
X375713Y88621D01*
X375651Y88716D01*
X375593Y88813D01*
X375538Y88912D01*
X375487Y89013D01*
X375439Y89116D01*
X375394Y89220D01*
X375354Y89326D01*
X375317Y89433D01*
X375284Y89541D01*
X375254Y89651D01*
X375229Y89761D01*
X375207Y89872D01*
X375190Y89984D01*
X375176Y90097D01*
X375166Y90210D01*
X375160Y90323D01*
X375158Y90436D01*
X375160Y90549D01*
X375166Y90662D01*
X375176Y90775D01*
X375190Y90888D01*
X375207Y91000D01*
X375229Y91111D01*
X375254Y91221D01*
X375284Y91331D01*
X375317Y91439D01*
X375354Y91546D01*
X375394Y91652D01*
X375439Y91756D01*
X375487Y91859D01*
X375538Y91960D01*
X375593Y92059D01*
X375651Y92156D01*
X375713Y92251D01*
X375778Y92344D01*
X375846Y92434D01*
X375917Y92522D01*
X375992Y92608D01*
X376069Y92691D01*
X376149Y92771D01*
X376232Y92848D01*
X376318Y92923D01*
X376406Y92994D01*
X376496Y93062D01*
X376589Y93127D01*
X376684Y93189D01*
X376781Y93247D01*
X376880Y93302D01*
X376981Y93353D01*
X377084Y93401D01*
X377188Y93446D01*
X377294Y93486D01*
X377401Y93523D01*
X377509Y93556D01*
X377619Y93586D01*
X377729Y93611D01*
X377840Y93633D01*
X377952Y93650D01*
X378065Y93664D01*
X378178Y93674D01*
X378291Y93680D01*
X378404Y93682D01*
X378404Y93681D02*
X383596Y93681D01*
X383596Y93682D02*
X383709Y93680D01*
X383822Y93674D01*
X383935Y93664D01*
X384048Y93650D01*
X384160Y93633D01*
X384271Y93611D01*
X384381Y93586D01*
X384491Y93556D01*
X384599Y93523D01*
X384706Y93486D01*
X384812Y93446D01*
X384916Y93401D01*
X385019Y93353D01*
X385120Y93302D01*
X385219Y93247D01*
X385316Y93189D01*
X385411Y93127D01*
X385504Y93062D01*
X385594Y92994D01*
X385682Y92923D01*
X385768Y92848D01*
X385851Y92771D01*
X385931Y92691D01*
X386008Y92608D01*
X386083Y92522D01*
X386154Y92434D01*
X386222Y92344D01*
X386287Y92251D01*
X386349Y92156D01*
X386407Y92059D01*
X386462Y91960D01*
X386513Y91859D01*
X386561Y91756D01*
X386606Y91652D01*
X386646Y91546D01*
X386683Y91439D01*
X386716Y91331D01*
X386746Y91221D01*
X386771Y91111D01*
X386793Y91000D01*
X386810Y90888D01*
X386824Y90775D01*
X386834Y90662D01*
X386840Y90549D01*
X386842Y90436D01*
X386840Y90323D01*
X386834Y90210D01*
X386824Y90097D01*
X386810Y89984D01*
X386793Y89872D01*
X386771Y89761D01*
X386746Y89651D01*
X386716Y89541D01*
X386683Y89433D01*
X386646Y89326D01*
X386606Y89220D01*
X386561Y89116D01*
X386513Y89013D01*
X386462Y88912D01*
X386407Y88813D01*
X386349Y88716D01*
X386287Y88621D01*
X386222Y88528D01*
X386154Y88438D01*
X386083Y88350D01*
X386008Y88264D01*
X385931Y88181D01*
X385851Y88101D01*
X385768Y88024D01*
X385682Y87949D01*
X385594Y87878D01*
X385504Y87810D01*
X385411Y87745D01*
X385316Y87683D01*
X385219Y87625D01*
X385120Y87570D01*
X385019Y87519D01*
X384916Y87471D01*
X384812Y87426D01*
X384706Y87386D01*
X384599Y87349D01*
X384491Y87316D01*
X384381Y87286D01*
X384271Y87261D01*
X384160Y87239D01*
X384048Y87222D01*
X383935Y87208D01*
X383822Y87198D01*
X383709Y87192D01*
X383596Y87190D01*
X386842Y99001D02*
X375158Y99001D01*
X386842Y105492D01*
X375158Y105492D01*
X377754Y110812D02*
X375158Y114058D01*
X386842Y114058D01*
X386842Y117303D02*
X386842Y110812D01*
D10*
X105900Y21100D02*
X-19100Y21100D01*
X-19100Y182100D01*
X105900Y182100D01*
X196900Y182100D02*
X196900Y21100D01*
X132900Y21100D01*
X132900Y182100D02*
X196900Y182100D01*
D15*
X266171Y14957D03*
D16*
X266206Y15028D03*
D17*
X266171Y15099D03*
D18*
X266206Y15170D03*
D19*
X266171Y15241D03*
D20*
X266171Y15312D03*
D21*
X266171Y15384D03*
D22*
X266171Y15455D03*
D23*
X266171Y15526D03*
D24*
X266206Y15597D03*
D25*
X266171Y15668D03*
D26*
X266206Y15739D03*
D27*
X266171Y15810D03*
D28*
X266171Y15881D03*
D29*
X266171Y15952D03*
D30*
X266206Y16024D03*
D31*
X266171Y16095D03*
D32*
X266171Y16166D03*
D33*
X266171Y16237D03*
D34*
X266171Y16308D03*
D35*
X266171Y16379D03*
D36*
X266171Y16450D03*
D37*
X266171Y16521D03*
D38*
X266171Y16593D03*
D39*
X266171Y16664D03*
D40*
X266171Y16735D03*
D41*
X266171Y16806D03*
D42*
X266171Y16877D03*
D43*
X266171Y16948D03*
D44*
X266171Y17019D03*
D45*
X266171Y17090D03*
D46*
X266171Y17162D03*
D47*
X266171Y17233D03*
D48*
X266171Y17304D03*
D49*
X266206Y17375D03*
D50*
X266171Y17446D03*
D51*
X266171Y17517D03*
D52*
X266171Y17588D03*
D53*
X266206Y17659D03*
D54*
X266171Y17730D03*
D55*
X266171Y17802D03*
D56*
X266171Y17873D03*
D57*
X266171Y17944D03*
D58*
X266206Y18015D03*
D59*
X266171Y18086D03*
D60*
X266206Y18157D03*
D61*
X266171Y18228D03*
D62*
X266206Y18299D03*
D63*
X266171Y18371D03*
D64*
X266171Y18442D03*
D65*
X266171Y18513D03*
D66*
X266171Y18584D03*
D67*
X266206Y18655D03*
D68*
X266171Y18726D03*
D69*
X266171Y18797D03*
D70*
X266206Y18868D03*
D71*
X266171Y18940D03*
D72*
X266171Y19011D03*
D73*
X266171Y19082D03*
D74*
X266206Y19153D03*
D75*
X266171Y19224D03*
D76*
X266171Y19295D03*
D77*
X266171Y19366D03*
D78*
X266206Y19437D03*
D79*
X266171Y19508D03*
D80*
X266171Y19580D03*
D81*
X266171Y19651D03*
D82*
X266171Y19722D03*
D83*
X266171Y19793D03*
D84*
X266171Y19864D03*
D85*
X266206Y19935D03*
D86*
X266171Y20006D03*
D87*
X266171Y20077D03*
D88*
X266171Y20149D03*
D89*
X266171Y20220D03*
D90*
X266171Y20291D03*
D91*
X266171Y20362D03*
D92*
X266171Y20433D03*
D93*
X266171Y20504D03*
D94*
X266171Y20575D03*
D95*
X266171Y20646D03*
D96*
X266171Y20718D03*
D97*
X266171Y20789D03*
D98*
X266171Y20860D03*
D99*
X266171Y20931D03*
D100*
X266171Y21002D03*
D101*
X266171Y21073D03*
D102*
X266171Y21144D03*
D103*
X266171Y21215D03*
D104*
X266206Y21286D03*
D105*
X266206Y21358D03*
D106*
X266171Y21429D03*
D107*
X266171Y21500D03*
D108*
X266171Y21571D03*
D109*
X266171Y21642D03*
D110*
X266171Y21713D03*
D111*
X266171Y21784D03*
D112*
X266206Y21855D03*
D113*
X266171Y21927D03*
D114*
X266171Y21998D03*
D115*
X266171Y22069D03*
D116*
X266171Y22140D03*
D117*
X266171Y22211D03*
D118*
X266206Y22282D03*
D119*
X266171Y22353D03*
D120*
X266171Y22424D03*
D121*
X266171Y22496D03*
D122*
X266206Y22567D03*
D123*
X266171Y22638D03*
D124*
X266171Y22709D03*
D125*
X266171Y22780D03*
D126*
X266206Y22851D03*
D127*
X266171Y22922D03*
D128*
X266171Y22993D03*
D129*
X266171Y23064D03*
D130*
X266206Y23136D03*
D131*
X266171Y23207D03*
D132*
X266171Y23278D03*
D133*
X266206Y23349D03*
D134*
X266171Y23420D03*
D135*
X266171Y23491D03*
D136*
X266206Y23562D03*
D137*
X266171Y23633D03*
D138*
X266171Y23705D03*
D139*
X266206Y23776D03*
D140*
X266171Y23847D03*
D141*
X266171Y23918D03*
D142*
X266206Y23989D03*
D143*
X266171Y24060D03*
D144*
X266171Y24131D03*
X266171Y24202D03*
D145*
X266171Y24274D03*
D146*
X266206Y24345D03*
D147*
X266171Y24416D03*
D148*
X266171Y24487D03*
D149*
X230682Y24558D03*
D150*
X242097Y24558D03*
D151*
X256036Y24558D03*
D152*
X277479Y24558D03*
D153*
X290921Y24558D03*
D154*
X302798Y24558D03*
D155*
X230646Y24629D03*
D156*
X242061Y24629D03*
D157*
X255716Y24629D03*
D158*
X277763Y24629D03*
D159*
X290885Y24629D03*
D160*
X302798Y24629D03*
D155*
X230646Y24700D03*
D161*
X242026Y24700D03*
D162*
X255538Y24700D03*
D163*
X277906Y24700D03*
D156*
X290849Y24700D03*
D164*
X302798Y24700D03*
D165*
X230611Y24771D03*
D166*
X241990Y24771D03*
D167*
X255325Y24771D03*
D166*
X278048Y24771D03*
D168*
X290814Y24771D03*
D169*
X302762Y24771D03*
D170*
X230575Y24842D03*
D171*
X241954Y24842D03*
D172*
X255183Y24842D03*
D173*
X278155Y24842D03*
D174*
X290778Y24842D03*
D175*
X302762Y24842D03*
D170*
X230575Y24914D03*
D176*
X241919Y24914D03*
D177*
X255076Y24914D03*
D178*
X278226Y24914D03*
D171*
X290743Y24914D03*
D179*
X302727Y24914D03*
D180*
X230540Y24985D03*
D181*
X241883Y24985D03*
D182*
X254969Y24985D03*
D183*
X278297Y24985D03*
D176*
X290707Y24985D03*
D184*
X302727Y24985D03*
D180*
X230540Y25056D03*
D181*
X241883Y25056D03*
D185*
X254863Y25056D03*
D186*
X278368Y25056D03*
D173*
X290672Y25056D03*
D187*
X302691Y25056D03*
D188*
X230504Y25127D03*
D189*
X241848Y25127D03*
D190*
X254756Y25127D03*
D191*
X278439Y25127D03*
D189*
X290636Y25127D03*
D192*
X302691Y25127D03*
D193*
X230504Y25198D03*
D194*
X241812Y25198D03*
D195*
X254685Y25198D03*
D196*
X278475Y25198D03*
D194*
X290601Y25198D03*
D197*
X302655Y25198D03*
D198*
X230469Y25269D03*
D199*
X241777Y25269D03*
D200*
X254614Y25269D03*
D201*
X278510Y25269D03*
D199*
X290565Y25269D03*
D202*
X302655Y25269D03*
D198*
X230469Y25340D03*
D203*
X241741Y25340D03*
D200*
X254543Y25340D03*
D204*
X278546Y25340D03*
D203*
X290529Y25340D03*
D205*
X302620Y25340D03*
D190*
X230433Y25411D03*
D206*
X241706Y25411D03*
D200*
X254472Y25411D03*
D207*
X278581Y25411D03*
D206*
X290494Y25411D03*
D208*
X302584Y25411D03*
D190*
X230433Y25483D03*
D209*
X241670Y25483D03*
D190*
X254400Y25483D03*
D210*
X278617Y25483D03*
D186*
X290458Y25483D03*
D211*
X302584Y25483D03*
D212*
X230397Y25554D03*
D213*
X241634Y25554D03*
D190*
X254329Y25554D03*
D214*
X278652Y25554D03*
D186*
X290458Y25554D03*
D215*
X302549Y25554D03*
D212*
X230397Y25625D03*
D191*
X241599Y25625D03*
D212*
X254294Y25625D03*
D214*
X278652Y25625D03*
D216*
X290423Y25625D03*
D217*
X302549Y25625D03*
D218*
X230362Y25696D03*
D196*
X241563Y25696D03*
D219*
X254223Y25696D03*
D220*
X278688Y25696D03*
D221*
X290387Y25696D03*
D222*
X302513Y25696D03*
D223*
X230362Y25767D03*
D224*
X241528Y25767D03*
D177*
X254152Y25767D03*
D225*
X278724Y25767D03*
D226*
X290352Y25767D03*
D227*
X302513Y25767D03*
D177*
X230326Y25838D03*
D228*
X241492Y25838D03*
D177*
X254080Y25838D03*
D225*
X278724Y25838D03*
D224*
X290316Y25838D03*
D229*
X302478Y25838D03*
D177*
X230326Y25909D03*
D151*
X241457Y25909D03*
D172*
X254045Y25909D03*
D230*
X278759Y25909D03*
D228*
X290281Y25909D03*
D231*
X302478Y25909D03*
D172*
X230291Y25980D03*
D232*
X241421Y25980D03*
D172*
X253974Y25980D03*
D230*
X278759Y25980D03*
D207*
X290245Y25980D03*
D149*
X302442Y25980D03*
D172*
X230291Y26052D03*
D214*
X241386Y26052D03*
D233*
X253938Y26052D03*
D230*
X278759Y26052D03*
D210*
X290209Y26052D03*
D234*
X302442Y26052D03*
D235*
X230255Y26123D03*
D220*
X241350Y26123D03*
D236*
X253867Y26123D03*
D237*
X278795Y26123D03*
D238*
X290174Y26123D03*
D239*
X302406Y26123D03*
D240*
X230255Y26194D03*
D241*
X241350Y26194D03*
D242*
X253832Y26194D03*
D243*
X278795Y26194D03*
D241*
X290138Y26194D03*
D180*
X302371Y26194D03*
D244*
X230220Y26265D03*
D225*
X241314Y26265D03*
D245*
X253796Y26265D03*
D243*
X278795Y26265D03*
D225*
X290103Y26265D03*
D198*
X302371Y26265D03*
D244*
X230220Y26336D03*
D246*
X241279Y26336D03*
D247*
X253725Y26336D03*
D157*
X278830Y26336D03*
D246*
X290067Y26336D03*
D212*
X302300Y26336D03*
D247*
X230184Y26407D03*
D248*
X241243Y26407D03*
D249*
X253689Y26407D03*
D157*
X278830Y26407D03*
D248*
X290032Y26407D03*
D177*
X302300Y26407D03*
D247*
X230184Y26478D03*
D250*
X241208Y26478D03*
D251*
X253654Y26478D03*
D157*
X278830Y26478D03*
X289996Y26478D03*
D172*
X302264Y26478D03*
D252*
X230184Y26549D03*
D253*
X241172Y26549D03*
D254*
X253583Y26549D03*
D253*
X278866Y26549D03*
X289960Y26549D03*
D167*
X302264Y26549D03*
D249*
X230149Y26620D03*
D251*
X241137Y26620D03*
D255*
X253547Y26620D03*
X278866Y26620D03*
X289960Y26620D03*
D245*
X302229Y26620D03*
D249*
X230149Y26692D03*
D162*
X241101Y26692D03*
D157*
X253511Y26692D03*
D255*
X278866Y26692D03*
D251*
X289925Y26692D03*
X302229Y26692D03*
D256*
X230113Y26763D03*
D245*
X241065Y26763D03*
D230*
X253440Y26763D03*
D255*
X278866Y26763D03*
D162*
X289889Y26763D03*
D255*
X302193Y26763D03*
D256*
X230113Y26834D03*
D242*
X241030Y26834D03*
D230*
X253369Y26834D03*
D251*
X278901Y26834D03*
D245*
X289854Y26834D03*
D250*
X302158Y26834D03*
D255*
X230077Y26905D03*
D233*
X240994Y26905D03*
D225*
X253334Y26905D03*
D251*
X278901Y26905D03*
D242*
X289818Y26905D03*
D246*
X302158Y26905D03*
D253*
X230077Y26976D03*
D257*
X240959Y26976D03*
D220*
X253298Y26976D03*
D254*
X278901Y26976D03*
D235*
X289783Y26976D03*
D258*
X302122Y26976D03*
D255*
X230077Y27047D03*
D177*
X240923Y27047D03*
D214*
X253263Y27047D03*
D251*
X278901Y27047D03*
D172*
X289747Y27047D03*
D214*
X302122Y27047D03*
D157*
X230042Y27118D03*
D182*
X240888Y27118D03*
D210*
X253227Y27118D03*
D251*
X278901Y27118D03*
D177*
X289712Y27118D03*
D210*
X302086Y27118D03*
D157*
X230042Y27189D03*
D185*
X240852Y27189D03*
D207*
X253191Y27189D03*
D251*
X278901Y27189D03*
D182*
X289676Y27189D03*
D207*
X302051Y27189D03*
D243*
X230006Y27261D03*
D185*
X240852Y27261D03*
D207*
X253120Y27261D03*
D162*
X278937Y27261D03*
D185*
X289640Y27261D03*
D224*
X302051Y27261D03*
D243*
X230006Y27332D03*
D200*
X240817Y27332D03*
D228*
X253085Y27332D03*
D162*
X278937Y27332D03*
D200*
X289605Y27332D03*
D191*
X301980Y27332D03*
D243*
X230006Y27403D03*
D259*
X240781Y27403D03*
D224*
X253049Y27403D03*
D162*
X278937Y27403D03*
D198*
X289569Y27403D03*
D186*
X301980Y27403D03*
D260*
X229971Y27474D03*
D261*
X240745Y27474D03*
D196*
X253014Y27474D03*
D262*
X278937Y27474D03*
D193*
X289534Y27474D03*
D263*
X301944Y27474D03*
D230*
X229971Y27545D03*
D180*
X240710Y27545D03*
D191*
X252978Y27545D03*
D162*
X278937Y27545D03*
D180*
X289498Y27545D03*
D183*
X301909Y27545D03*
D264*
X229935Y27616D03*
D265*
X240674Y27616D03*
D216*
X252943Y27616D03*
D162*
X278937Y27616D03*
D265*
X289463Y27616D03*
D178*
X301909Y27616D03*
D264*
X229935Y27687D03*
D234*
X240639Y27687D03*
D186*
X252907Y27687D03*
D162*
X278937Y27687D03*
D234*
X289427Y27687D03*
D266*
X301873Y27687D03*
D264*
X229935Y27758D03*
D267*
X240603Y27758D03*
D203*
X252836Y27758D03*
D162*
X278937Y27758D03*
D234*
X289427Y27758D03*
D181*
X301838Y27758D03*
D268*
X229900Y27830D03*
D269*
X240568Y27830D03*
D199*
X252800Y27830D03*
D270*
X266242Y27830D03*
D162*
X278937Y27830D03*
D267*
X289392Y27830D03*
D171*
X301838Y27830D03*
D271*
X229900Y27901D03*
D272*
X240532Y27901D03*
D194*
X252765Y27901D03*
D273*
X266242Y27901D03*
D262*
X278937Y27901D03*
D274*
X289356Y27901D03*
D166*
X301802Y27901D03*
D268*
X229900Y27972D03*
D275*
X240497Y27972D03*
D189*
X252729Y27972D03*
D270*
X266242Y27972D03*
D247*
X278972Y27972D03*
D231*
X289320Y27972D03*
D156*
X301802Y27972D03*
D214*
X229864Y28043D03*
D229*
X240461Y28043D03*
D189*
X252658Y28043D03*
D270*
X266242Y28043D03*
D247*
X278972Y28043D03*
D275*
X289285Y28043D03*
D159*
X301766Y28043D03*
D214*
X229864Y28114D03*
D227*
X240425Y28114D03*
D181*
X252622Y28114D03*
D270*
X266242Y28114D03*
D247*
X278972Y28114D03*
D229*
X289249Y28114D03*
D153*
X301731Y28114D03*
D214*
X229864Y28185D03*
D276*
X240390Y28185D03*
D176*
X252587Y28185D03*
D270*
X266242Y28185D03*
D247*
X278972Y28185D03*
D227*
X289214Y28185D03*
D277*
X301731Y28185D03*
D210*
X229829Y28256D03*
D278*
X240354Y28256D03*
D171*
X252551Y28256D03*
D270*
X266242Y28256D03*
D247*
X278972Y28256D03*
D276*
X289178Y28256D03*
D279*
X301695Y28256D03*
D280*
X229829Y28327D03*
D281*
X240319Y28327D03*
D166*
X252516Y28327D03*
D273*
X266242Y28327D03*
D252*
X278972Y28327D03*
D222*
X289143Y28327D03*
D282*
X301624Y28327D03*
D210*
X229829Y28398D03*
D217*
X240319Y28398D03*
D161*
X252480Y28398D03*
D270*
X266242Y28398D03*
D247*
X278972Y28398D03*
D283*
X289107Y28398D03*
D284*
X301624Y28398D03*
D207*
X229793Y28470D03*
D285*
X240283Y28470D03*
D156*
X252445Y28470D03*
D270*
X266242Y28470D03*
D247*
X278972Y28470D03*
D285*
X289071Y28470D03*
D286*
X301589Y28470D03*
D207*
X229793Y28541D03*
D215*
X240248Y28541D03*
D159*
X252409Y28541D03*
D270*
X266242Y28541D03*
D247*
X278972Y28541D03*
D215*
X289036Y28541D03*
D287*
X301553Y28541D03*
D207*
X229793Y28612D03*
D288*
X240212Y28612D03*
D153*
X252374Y28612D03*
D270*
X266242Y28612D03*
D247*
X278972Y28612D03*
D288*
X289000Y28612D03*
D289*
X301517Y28612D03*
D204*
X229757Y28683D03*
D290*
X240176Y28683D03*
D291*
X252338Y28683D03*
D270*
X266242Y28683D03*
D247*
X278972Y28683D03*
D290*
X288965Y28683D03*
D152*
X301517Y28683D03*
D292*
X229757Y28754D03*
D293*
X240141Y28754D03*
D294*
X252267Y28754D03*
D273*
X266242Y28754D03*
D252*
X278972Y28754D03*
D293*
X288929Y28754D03*
D295*
X301482Y28754D03*
D204*
X229757Y28825D03*
D296*
X240105Y28825D03*
D158*
X252231Y28825D03*
D270*
X266242Y28825D03*
D247*
X278972Y28825D03*
D297*
X288929Y28825D03*
D298*
X301446Y28825D03*
D204*
X229757Y28896D03*
D299*
X240070Y28896D03*
D300*
X252196Y28896D03*
D270*
X266242Y28896D03*
D247*
X278972Y28896D03*
D205*
X288894Y28896D03*
D301*
X301446Y28896D03*
D201*
X229722Y28967D03*
D302*
X240034Y28967D03*
D303*
X252160Y28967D03*
D270*
X266242Y28967D03*
D247*
X278972Y28967D03*
D299*
X288858Y28967D03*
D304*
X301411Y28967D03*
D201*
X229722Y29039D03*
D202*
X239999Y29039D03*
D305*
X252125Y29039D03*
D270*
X266242Y29039D03*
D247*
X278972Y29039D03*
D302*
X288823Y29039D03*
D306*
X301375Y29039D03*
D201*
X229722Y29110D03*
D307*
X239963Y29110D03*
D286*
X252089Y29110D03*
D270*
X266242Y29110D03*
D247*
X278972Y29110D03*
D202*
X288787Y29110D03*
D308*
X301375Y29110D03*
D309*
X229686Y29181D03*
D310*
X239928Y29181D03*
D287*
X252054Y29181D03*
D270*
X266242Y29181D03*
D247*
X278972Y29181D03*
D307*
X288751Y29181D03*
D311*
X301340Y29181D03*
D312*
X229686Y29252D03*
D313*
X239892Y29252D03*
D314*
X252018Y29252D03*
D273*
X266242Y29252D03*
D252*
X278972Y29252D03*
D197*
X288716Y29252D03*
D273*
X301304Y29252D03*
D309*
X229686Y29323D03*
D315*
X239856Y29323D03*
D316*
X251982Y29323D03*
D270*
X266242Y29323D03*
D247*
X278972Y29323D03*
D192*
X288680Y29323D03*
D317*
X301233Y29323D03*
D309*
X229686Y29394D03*
D187*
X239821Y29394D03*
D318*
X251947Y29394D03*
D270*
X266242Y29394D03*
D247*
X278972Y29394D03*
D319*
X288645Y29394D03*
D320*
X301233Y29394D03*
D191*
X229651Y29465D03*
D187*
X239821Y29465D03*
D321*
X251911Y29465D03*
D270*
X266242Y29465D03*
D247*
X278972Y29465D03*
D187*
X288609Y29465D03*
D322*
X301197Y29465D03*
D191*
X229651Y29536D03*
D184*
X239785Y29536D03*
D323*
X251876Y29536D03*
D270*
X266242Y29536D03*
D247*
X278972Y29536D03*
D184*
X288574Y29536D03*
D324*
X301162Y29536D03*
D191*
X229651Y29608D03*
D325*
X239750Y29608D03*
D326*
X251840Y29608D03*
D270*
X266242Y29608D03*
D247*
X278972Y29608D03*
D325*
X288538Y29608D03*
D327*
X301126Y29608D03*
D221*
X229651Y29679D03*
D328*
X239714Y29679D03*
D329*
X251805Y29679D03*
D273*
X266242Y29679D03*
D252*
X278972Y29679D03*
D328*
X288503Y29679D03*
D330*
X301126Y29679D03*
D216*
X229615Y29750D03*
D175*
X239679Y29750D03*
D331*
X251733Y29750D03*
D270*
X266242Y29750D03*
D247*
X278972Y29750D03*
D332*
X288467Y29750D03*
D333*
X301091Y29750D03*
D216*
X229615Y29821D03*
D334*
X239643Y29821D03*
D335*
X251698Y29821D03*
D270*
X266242Y29821D03*
D247*
X278972Y29821D03*
D336*
X288431Y29821D03*
D337*
X301055Y29821D03*
D216*
X229615Y29892D03*
D338*
X239608Y29892D03*
D308*
X251662Y29892D03*
D270*
X266242Y29892D03*
D247*
X278972Y29892D03*
D338*
X288396Y29892D03*
D339*
X301020Y29892D03*
D216*
X229615Y29963D03*
D340*
X239572Y29963D03*
D311*
X251627Y29963D03*
D270*
X266242Y29963D03*
D247*
X278972Y29963D03*
D338*
X288396Y29963D03*
D341*
X301020Y29963D03*
D186*
X229580Y30034D03*
D342*
X239536Y30034D03*
D270*
X251591Y30034D03*
X266242Y30034D03*
D247*
X278972Y30034D03*
D340*
X288360Y30034D03*
D343*
X300984Y30034D03*
D344*
X229580Y30105D03*
D345*
X239501Y30105D03*
D346*
X251556Y30105D03*
D273*
X266242Y30105D03*
D252*
X278972Y30105D03*
D347*
X288325Y30105D03*
D348*
X300949Y30105D03*
D186*
X229580Y30176D03*
D349*
X239465Y30176D03*
D350*
X251520Y30176D03*
D270*
X266242Y30176D03*
D247*
X278972Y30176D03*
D351*
X288289Y30176D03*
D352*
X300913Y30176D03*
D186*
X229580Y30248D03*
D353*
X239430Y30248D03*
D354*
X251485Y30248D03*
D270*
X266242Y30248D03*
D247*
X278972Y30248D03*
D349*
X288254Y30248D03*
D355*
X300913Y30248D03*
D356*
X229544Y30319D03*
D357*
X239394Y30319D03*
D320*
X251449Y30319D03*
D270*
X266242Y30319D03*
D247*
X278972Y30319D03*
D154*
X288218Y30319D03*
D358*
X300842Y30319D03*
D356*
X229544Y30390D03*
D359*
X239359Y30390D03*
D322*
X251413Y30390D03*
D270*
X266242Y30390D03*
D247*
X278972Y30390D03*
D357*
X288182Y30390D03*
D360*
X300806Y30390D03*
D356*
X229544Y30461D03*
D361*
X239323Y30461D03*
D324*
X251378Y30461D03*
D270*
X266242Y30461D03*
D247*
X278972Y30461D03*
D359*
X288147Y30461D03*
D362*
X300771Y30461D03*
D263*
X229544Y30532D03*
D363*
X239287Y30532D03*
D364*
X251342Y30532D03*
D273*
X266242Y30532D03*
D252*
X278972Y30532D03*
D365*
X288111Y30532D03*
D366*
X300735Y30532D03*
D356*
X229544Y30603D03*
D367*
X239287Y30603D03*
D368*
X251307Y30603D03*
D270*
X266242Y30603D03*
D247*
X278972Y30603D03*
D367*
X288076Y30603D03*
D369*
X300735Y30603D03*
D183*
X229508Y30674D03*
D370*
X239252Y30674D03*
D371*
X251271Y30674D03*
D270*
X266242Y30674D03*
D247*
X278972Y30674D03*
D370*
X288040Y30674D03*
D372*
X300700Y30674D03*
D183*
X229508Y30745D03*
D373*
X239216Y30745D03*
D337*
X251200Y30745D03*
D270*
X266242Y30745D03*
D247*
X278972Y30745D03*
D374*
X288005Y30745D03*
D375*
X300664Y30745D03*
D183*
X229508Y30817D03*
D376*
X239181Y30817D03*
D339*
X251165Y30817D03*
D270*
X266242Y30817D03*
D247*
X278972Y30817D03*
D376*
X287969Y30817D03*
D377*
X300628Y30817D03*
D183*
X229508Y30888D03*
D378*
X239145Y30888D03*
D379*
X251129Y30888D03*
D270*
X266242Y30888D03*
D247*
X278972Y30888D03*
D378*
X287934Y30888D03*
D380*
X300593Y30888D03*
D183*
X229508Y30959D03*
D381*
X239110Y30959D03*
D341*
X251093Y30959D03*
D270*
X266242Y30959D03*
D247*
X278972Y30959D03*
D381*
X287898Y30959D03*
D382*
X300557Y30959D03*
D383*
X229508Y31030D03*
D384*
X239074Y31030D03*
D385*
X251058Y31030D03*
D273*
X266242Y31030D03*
D252*
X278972Y31030D03*
D386*
X287898Y31030D03*
D387*
X300557Y31030D03*
D388*
X229473Y31101D03*
D389*
X239039Y31101D03*
D390*
X251058Y31101D03*
D270*
X266242Y31101D03*
D247*
X278972Y31101D03*
D389*
X287898Y31101D03*
D391*
X300522Y31101D03*
D388*
X229473Y31172D03*
D174*
X252516Y31172D03*
D270*
X266242Y31172D03*
D247*
X278972Y31172D03*
D326*
X301980Y31172D03*
D388*
X229473Y31243D03*
D178*
X252694Y31243D03*
D270*
X266242Y31243D03*
D247*
X278972Y31243D03*
D289*
X302158Y31243D03*
D388*
X229473Y31314D03*
D206*
X252800Y31314D03*
D270*
X266242Y31314D03*
D247*
X278972Y31314D03*
D303*
X302300Y31314D03*
D388*
X229473Y31386D03*
D191*
X252907Y31386D03*
D270*
X266242Y31386D03*
D247*
X278972Y31386D03*
D279*
X302406Y31386D03*
D392*
X229473Y31457D03*
D393*
X253014Y31457D03*
D273*
X266242Y31457D03*
D252*
X278972Y31457D03*
D394*
X302513Y31457D03*
D178*
X229437Y31528D03*
D210*
X253085Y31528D03*
D270*
X266242Y31528D03*
D247*
X278972Y31528D03*
D153*
X302584Y31528D03*
D178*
X229437Y31599D03*
D241*
X253156Y31599D03*
D270*
X266242Y31599D03*
D247*
X278972Y31599D03*
D156*
X302655Y31599D03*
D178*
X229437Y31670D03*
D225*
X253191Y31670D03*
D270*
X266242Y31670D03*
D247*
X278972Y31670D03*
D174*
X302727Y31670D03*
D178*
X229437Y31741D03*
D246*
X253227Y31741D03*
D302*
X263362Y31741D03*
D247*
X278972Y31741D03*
D171*
X302762Y31741D03*
D178*
X229437Y31812D03*
D157*
X253298Y31812D03*
D302*
X263362Y31812D03*
D247*
X278972Y31812D03*
D176*
X302798Y31812D03*
D194*
X229437Y31883D03*
D253*
X253334Y31883D03*
D395*
X263362Y31883D03*
D252*
X278972Y31883D03*
D396*
X302833Y31883D03*
D178*
X229437Y31954D03*
D251*
X253369Y31954D03*
D302*
X263362Y31954D03*
D247*
X278972Y31954D03*
D173*
X302904Y31954D03*
D189*
X229402Y32026D03*
D162*
X253405Y32026D03*
D302*
X263362Y32026D03*
D247*
X278972Y32026D03*
D189*
X302940Y32026D03*
X229402Y32097D03*
D245*
X253440Y32097D03*
D302*
X263362Y32097D03*
D247*
X278972Y32097D03*
D178*
X302975Y32097D03*
D189*
X229402Y32168D03*
D245*
X253440Y32168D03*
D302*
X263362Y32168D03*
D247*
X278972Y32168D03*
D199*
X303011Y32168D03*
D189*
X229402Y32239D03*
D242*
X253476Y32239D03*
D302*
X263362Y32239D03*
D247*
X278972Y32239D03*
D203*
X303047Y32239D03*
D397*
X229402Y32310D03*
D236*
X253511Y32310D03*
D395*
X263362Y32310D03*
D252*
X278972Y32310D03*
D398*
X303047Y32310D03*
D189*
X229402Y32381D03*
D233*
X253511Y32381D03*
D302*
X263362Y32381D03*
D247*
X278972Y32381D03*
D206*
X303082Y32381D03*
D189*
X229402Y32452D03*
D172*
X253547Y32452D03*
D302*
X263362Y32452D03*
D247*
X278972Y32452D03*
D206*
X303082Y32452D03*
D189*
X229402Y32523D03*
D172*
X253547Y32523D03*
D302*
X263362Y32523D03*
D247*
X278972Y32523D03*
D186*
X303118Y32523D03*
D189*
X229402Y32595D03*
D177*
X253583Y32595D03*
D302*
X263362Y32595D03*
D247*
X278972Y32595D03*
D356*
X303153Y32595D03*
D189*
X229402Y32666D03*
D177*
X253583Y32666D03*
D302*
X263362Y32666D03*
D247*
X278972Y32666D03*
D186*
X303189Y32666D03*
D173*
X229366Y32737D03*
D182*
X253618Y32737D03*
D302*
X263362Y32737D03*
D247*
X278972Y32737D03*
D186*
X303189Y32737D03*
D399*
X229366Y32808D03*
D400*
X253618Y32808D03*
D395*
X263362Y32808D03*
D252*
X278972Y32808D03*
D401*
X303224Y32808D03*
D173*
X229366Y32879D03*
D182*
X253618Y32879D03*
D302*
X263362Y32879D03*
D247*
X278972Y32879D03*
D216*
X303224Y32879D03*
D173*
X229366Y32950D03*
D185*
X253654Y32950D03*
D302*
X263362Y32950D03*
D247*
X278972Y32950D03*
D216*
X303224Y32950D03*
D173*
X229366Y33021D03*
D185*
X253654Y33021D03*
D302*
X263362Y33021D03*
D247*
X278972Y33021D03*
D191*
X303260Y33021D03*
D173*
X229366Y33092D03*
D185*
X253654Y33092D03*
D302*
X263362Y33092D03*
D247*
X278972Y33092D03*
D191*
X303260Y33092D03*
D173*
X229366Y33164D03*
D200*
X253689Y33164D03*
D302*
X263362Y33164D03*
D247*
X278972Y33164D03*
D191*
X303260Y33164D03*
D399*
X229366Y33235D03*
D402*
X253689Y33235D03*
D395*
X263362Y33235D03*
D252*
X278972Y33235D03*
D221*
X303260Y33235D03*
D173*
X229366Y33306D03*
D200*
X253689Y33306D03*
D302*
X263362Y33306D03*
D247*
X278972Y33306D03*
D226*
X303295Y33306D03*
D173*
X229366Y33377D03*
D200*
X253689Y33377D03*
D302*
X263362Y33377D03*
D247*
X278972Y33377D03*
D226*
X303295Y33377D03*
D173*
X229366Y33448D03*
D200*
X253689Y33448D03*
D302*
X263362Y33448D03*
D247*
X278972Y33448D03*
D226*
X303295Y33448D03*
D173*
X229366Y33519D03*
D259*
X253725Y33519D03*
D302*
X263362Y33519D03*
D247*
X278972Y33519D03*
D226*
X303295Y33519D03*
D173*
X229366Y33590D03*
D259*
X253725Y33590D03*
D302*
X263362Y33590D03*
D247*
X278972Y33590D03*
D226*
X303295Y33590D03*
D399*
X229366Y33661D03*
D403*
X253725Y33661D03*
D395*
X263362Y33661D03*
D252*
X278972Y33661D03*
D221*
X303331Y33661D03*
D173*
X229366Y33732D03*
D259*
X253725Y33732D03*
D302*
X263362Y33732D03*
D247*
X278972Y33732D03*
D226*
X303367Y33732D03*
D173*
X229366Y33804D03*
D259*
X253725Y33804D03*
D302*
X263362Y33804D03*
D247*
X278972Y33804D03*
D226*
X303367Y33804D03*
D173*
X229366Y33875D03*
D259*
X253725Y33875D03*
D302*
X263362Y33875D03*
D247*
X278972Y33875D03*
D226*
X303367Y33875D03*
D173*
X229366Y33946D03*
D259*
X253725Y33946D03*
D302*
X263362Y33946D03*
D247*
X278972Y33946D03*
D226*
X303367Y33946D03*
D173*
X229366Y34017D03*
D259*
X253725Y34017D03*
D302*
X263362Y34017D03*
D247*
X278972Y34017D03*
D226*
X303367Y34017D03*
D399*
X229366Y34088D03*
D404*
X241421Y34088D03*
D403*
X253725Y34088D03*
D395*
X263362Y34088D03*
D252*
X278972Y34088D03*
D280*
X290281Y34088D03*
D196*
X303367Y34088D03*
D405*
X229331Y34159D03*
D203*
X241741Y34159D03*
D188*
X253760Y34159D03*
D302*
X263362Y34159D03*
D247*
X278972Y34159D03*
D199*
X290565Y34159D03*
D226*
X303367Y34159D03*
D405*
X229331Y34230D03*
D189*
X241848Y34230D03*
D188*
X253760Y34230D03*
D302*
X263362Y34230D03*
D247*
X278972Y34230D03*
D173*
X290672Y34230D03*
D226*
X303367Y34230D03*
D405*
X229331Y34301D03*
D176*
X241919Y34301D03*
D188*
X253760Y34301D03*
D302*
X263362Y34301D03*
D247*
X278972Y34301D03*
D171*
X290743Y34301D03*
D226*
X303367Y34301D03*
D405*
X229331Y34373D03*
D171*
X241954Y34373D03*
D188*
X253760Y34373D03*
D302*
X263362Y34373D03*
D247*
X278972Y34373D03*
D174*
X290778Y34373D03*
D226*
X303367Y34373D03*
D405*
X229331Y34444D03*
D174*
X241990Y34444D03*
D188*
X253760Y34444D03*
D302*
X263362Y34444D03*
D247*
X278972Y34444D03*
D161*
X290814Y34444D03*
D226*
X303367Y34444D03*
D405*
X229331Y34515D03*
D161*
X242026Y34515D03*
D188*
X253760Y34515D03*
D302*
X263362Y34515D03*
D247*
X278972Y34515D03*
D156*
X290849Y34515D03*
D226*
X303367Y34515D03*
D406*
X229331Y34586D03*
D407*
X242061Y34586D03*
D193*
X253760Y34586D03*
D395*
X263362Y34586D03*
D252*
X278972Y34586D03*
D408*
X290885Y34586D03*
D196*
X303367Y34586D03*
D405*
X229331Y34657D03*
D156*
X242061Y34657D03*
D188*
X253760Y34657D03*
D409*
X271683Y34657D03*
D159*
X290885Y34657D03*
D226*
X303367Y34657D03*
D405*
X229331Y34728D03*
D150*
X242097Y34728D03*
D188*
X253760Y34728D03*
D409*
X271683Y34728D03*
D153*
X290921Y34728D03*
D226*
X303367Y34728D03*
D405*
X229331Y34799D03*
D150*
X242097Y34799D03*
D188*
X253760Y34799D03*
D409*
X271683Y34799D03*
D153*
X290921Y34799D03*
D226*
X303367Y34799D03*
D405*
X229331Y34870D03*
D153*
X242132Y34870D03*
D188*
X253760Y34870D03*
D409*
X271683Y34870D03*
D153*
X290921Y34870D03*
D226*
X303367Y34870D03*
D405*
X229331Y34942D03*
D153*
X242132Y34942D03*
D188*
X253760Y34942D03*
D409*
X271683Y34942D03*
D153*
X290921Y34942D03*
D226*
X303367Y34942D03*
D406*
X229331Y35013D03*
D410*
X242132Y35013D03*
D193*
X253760Y35013D03*
D411*
X271683Y35013D03*
D412*
X290956Y35013D03*
D196*
X303367Y35013D03*
D405*
X229331Y35084D03*
D153*
X242132Y35084D03*
D188*
X253760Y35084D03*
D409*
X271683Y35084D03*
D291*
X290956Y35084D03*
D226*
X303367Y35084D03*
D405*
X229331Y35155D03*
D153*
X242132Y35155D03*
D188*
X253760Y35155D03*
D409*
X271683Y35155D03*
D291*
X290956Y35155D03*
D226*
X303367Y35155D03*
D405*
X229331Y35226D03*
D153*
X242132Y35226D03*
D188*
X253760Y35226D03*
D409*
X271683Y35226D03*
D291*
X290956Y35226D03*
D226*
X303367Y35226D03*
D405*
X229331Y35297D03*
D153*
X242132Y35297D03*
D188*
X253760Y35297D03*
D409*
X271683Y35297D03*
D291*
X290956Y35297D03*
D226*
X303367Y35297D03*
D405*
X229331Y35368D03*
D291*
X242168Y35368D03*
D188*
X253760Y35368D03*
D409*
X271683Y35368D03*
D291*
X290956Y35368D03*
D226*
X303367Y35368D03*
D406*
X229331Y35439D03*
D412*
X242168Y35439D03*
D193*
X253760Y35439D03*
D411*
X271683Y35439D03*
D412*
X290956Y35439D03*
D196*
X303367Y35439D03*
D405*
X229331Y35510D03*
D291*
X242168Y35510D03*
D188*
X253760Y35510D03*
D409*
X271683Y35510D03*
D291*
X290956Y35510D03*
D226*
X303367Y35510D03*
D405*
X229331Y35582D03*
D291*
X242168Y35582D03*
D188*
X253760Y35582D03*
D409*
X271683Y35582D03*
D291*
X290956Y35582D03*
D226*
X303367Y35582D03*
D405*
X229331Y35653D03*
D291*
X242168Y35653D03*
D188*
X253760Y35653D03*
D409*
X271683Y35653D03*
D291*
X290956Y35653D03*
D226*
X303367Y35653D03*
D405*
X229331Y35724D03*
D291*
X242168Y35724D03*
D188*
X253760Y35724D03*
D409*
X271683Y35724D03*
D291*
X290956Y35724D03*
D226*
X303367Y35724D03*
D405*
X229331Y35795D03*
D291*
X242168Y35795D03*
D188*
X253760Y35795D03*
D409*
X271683Y35795D03*
D291*
X290956Y35795D03*
D226*
X303367Y35795D03*
D406*
X229331Y35866D03*
D412*
X242168Y35866D03*
D193*
X253760Y35866D03*
D411*
X271683Y35866D03*
D412*
X290956Y35866D03*
D196*
X303367Y35866D03*
D405*
X229331Y35937D03*
D291*
X242168Y35937D03*
D188*
X253760Y35937D03*
D409*
X271683Y35937D03*
D291*
X290956Y35937D03*
D226*
X303367Y35937D03*
D405*
X229331Y36008D03*
D291*
X242168Y36008D03*
D188*
X253760Y36008D03*
D409*
X271683Y36008D03*
D291*
X290956Y36008D03*
D226*
X303367Y36008D03*
D405*
X229331Y36079D03*
D291*
X242168Y36079D03*
D188*
X253760Y36079D03*
D409*
X271683Y36079D03*
D291*
X290956Y36079D03*
D226*
X303367Y36079D03*
D405*
X229331Y36151D03*
D291*
X242168Y36151D03*
D188*
X253760Y36151D03*
D409*
X271683Y36151D03*
D291*
X290956Y36151D03*
D226*
X303367Y36151D03*
D405*
X229331Y36222D03*
D291*
X242168Y36222D03*
D188*
X253760Y36222D03*
D409*
X271683Y36222D03*
D291*
X290956Y36222D03*
D226*
X303367Y36222D03*
D405*
X229331Y36293D03*
D291*
X242168Y36293D03*
D188*
X253760Y36293D03*
D409*
X271683Y36293D03*
D291*
X290956Y36293D03*
D226*
X303367Y36293D03*
D406*
X229331Y36364D03*
D412*
X242168Y36364D03*
D193*
X253760Y36364D03*
D411*
X271683Y36364D03*
D412*
X290956Y36364D03*
D196*
X303367Y36364D03*
D405*
X229331Y36435D03*
D291*
X242168Y36435D03*
D188*
X253760Y36435D03*
D409*
X271683Y36435D03*
D291*
X290956Y36435D03*
D226*
X303367Y36435D03*
D405*
X229331Y36506D03*
D291*
X242168Y36506D03*
D188*
X253760Y36506D03*
D409*
X271683Y36506D03*
D291*
X290956Y36506D03*
D226*
X303367Y36506D03*
D405*
X229331Y36577D03*
D291*
X242168Y36577D03*
D188*
X253760Y36577D03*
D409*
X271683Y36577D03*
D291*
X290956Y36577D03*
D226*
X303367Y36577D03*
D405*
X229331Y36648D03*
D291*
X242168Y36648D03*
D188*
X253760Y36648D03*
D409*
X271683Y36648D03*
D291*
X290956Y36648D03*
D226*
X303367Y36648D03*
D405*
X229331Y36720D03*
D291*
X242168Y36720D03*
D188*
X253760Y36720D03*
D409*
X271683Y36720D03*
D291*
X290956Y36720D03*
D226*
X303367Y36720D03*
D406*
X229331Y36791D03*
D412*
X242168Y36791D03*
D193*
X253760Y36791D03*
D411*
X271683Y36791D03*
D412*
X290956Y36791D03*
D196*
X303367Y36791D03*
D405*
X229331Y36862D03*
D291*
X242168Y36862D03*
D188*
X253760Y36862D03*
D409*
X271683Y36862D03*
D291*
X290956Y36862D03*
D226*
X303367Y36862D03*
D405*
X229331Y36933D03*
D291*
X242168Y36933D03*
D188*
X253760Y36933D03*
D270*
X266242Y36933D03*
D301*
X277337Y36933D03*
D291*
X290956Y36933D03*
D226*
X303367Y36933D03*
D405*
X229331Y37004D03*
D291*
X242168Y37004D03*
D188*
X253760Y37004D03*
D270*
X266242Y37004D03*
D316*
X277514Y37004D03*
D291*
X290956Y37004D03*
D226*
X303367Y37004D03*
D405*
X229331Y37075D03*
D291*
X242168Y37075D03*
D188*
X253760Y37075D03*
D270*
X266242Y37075D03*
D413*
X277692Y37075D03*
D291*
X290956Y37075D03*
D226*
X303367Y37075D03*
D405*
X229331Y37146D03*
D291*
X242168Y37146D03*
D188*
X253760Y37146D03*
D270*
X266242Y37146D03*
D414*
X277870Y37146D03*
D291*
X290956Y37146D03*
D226*
X303367Y37146D03*
D406*
X229331Y37217D03*
D412*
X242168Y37217D03*
D193*
X253760Y37217D03*
D273*
X266242Y37217D03*
D168*
X278012Y37217D03*
D412*
X290956Y37217D03*
D196*
X303367Y37217D03*
D405*
X229331Y37288D03*
D291*
X242168Y37288D03*
D188*
X253760Y37288D03*
D270*
X266242Y37288D03*
D189*
X278190Y37288D03*
D291*
X290956Y37288D03*
D226*
X303367Y37288D03*
D405*
X229331Y37360D03*
D291*
X242168Y37360D03*
D188*
X253760Y37360D03*
D270*
X266242Y37360D03*
D186*
X278368Y37360D03*
D291*
X290956Y37360D03*
D226*
X303367Y37360D03*
D405*
X229331Y37431D03*
D291*
X242168Y37431D03*
D188*
X253760Y37431D03*
D270*
X266242Y37431D03*
D204*
X278546Y37431D03*
D291*
X290956Y37431D03*
D226*
X303367Y37431D03*
D405*
X229331Y37502D03*
D291*
X242168Y37502D03*
D188*
X253760Y37502D03*
D270*
X266242Y37502D03*
D225*
X278724Y37502D03*
D291*
X290956Y37502D03*
D226*
X303367Y37502D03*
D405*
X229331Y37573D03*
D291*
X242168Y37573D03*
D188*
X253760Y37573D03*
D270*
X266242Y37573D03*
D251*
X278901Y37573D03*
D291*
X290956Y37573D03*
D226*
X303367Y37573D03*
D406*
X229331Y37644D03*
D412*
X242168Y37644D03*
D193*
X253760Y37644D03*
D273*
X266242Y37644D03*
D252*
X278972Y37644D03*
D412*
X290956Y37644D03*
D196*
X303367Y37644D03*
D405*
X229331Y37715D03*
D153*
X242132Y37715D03*
D188*
X253760Y37715D03*
D270*
X266242Y37715D03*
D247*
X278972Y37715D03*
D291*
X290956Y37715D03*
D226*
X303367Y37715D03*
D405*
X229331Y37786D03*
D153*
X242132Y37786D03*
D188*
X253760Y37786D03*
D270*
X266242Y37786D03*
D247*
X278972Y37786D03*
D291*
X290956Y37786D03*
D226*
X303367Y37786D03*
D405*
X229331Y37857D03*
D153*
X242132Y37857D03*
D188*
X253760Y37857D03*
D270*
X266242Y37857D03*
D247*
X278972Y37857D03*
D291*
X290956Y37857D03*
D226*
X303367Y37857D03*
D405*
X229331Y37929D03*
D153*
X242132Y37929D03*
D188*
X253760Y37929D03*
D270*
X266242Y37929D03*
D247*
X278972Y37929D03*
D291*
X290956Y37929D03*
D226*
X303367Y37929D03*
D405*
X229331Y38000D03*
D153*
X242132Y38000D03*
D188*
X253760Y38000D03*
D270*
X266242Y38000D03*
D247*
X278972Y38000D03*
D291*
X290956Y38000D03*
D226*
X303367Y38000D03*
D405*
X229331Y38071D03*
D153*
X242132Y38071D03*
D188*
X253760Y38071D03*
D270*
X266242Y38071D03*
D247*
X278972Y38071D03*
D153*
X290921Y38071D03*
D226*
X303367Y38071D03*
D406*
X229331Y38142D03*
D410*
X242132Y38142D03*
D193*
X253760Y38142D03*
D273*
X266242Y38142D03*
D252*
X278972Y38142D03*
D410*
X290921Y38142D03*
D196*
X303367Y38142D03*
D405*
X229331Y38213D03*
D150*
X242097Y38213D03*
D188*
X253760Y38213D03*
D270*
X266242Y38213D03*
D247*
X278972Y38213D03*
D153*
X290921Y38213D03*
D226*
X303367Y38213D03*
D405*
X229331Y38284D03*
D150*
X242097Y38284D03*
D188*
X253760Y38284D03*
D270*
X266242Y38284D03*
D247*
X278972Y38284D03*
D153*
X290921Y38284D03*
D226*
X303367Y38284D03*
D405*
X229331Y38355D03*
D150*
X242097Y38355D03*
D188*
X253760Y38355D03*
D270*
X266242Y38355D03*
D247*
X278972Y38355D03*
D159*
X290885Y38355D03*
D226*
X303367Y38355D03*
D405*
X229331Y38426D03*
D156*
X242061Y38426D03*
D188*
X253760Y38426D03*
D270*
X266242Y38426D03*
D247*
X278972Y38426D03*
D159*
X290885Y38426D03*
D226*
X303367Y38426D03*
D405*
X229331Y38498D03*
D161*
X242026Y38498D03*
D198*
X253796Y38498D03*
D270*
X266242Y38498D03*
D247*
X278972Y38498D03*
D156*
X290849Y38498D03*
D226*
X303367Y38498D03*
D406*
X229331Y38569D03*
D168*
X242026Y38569D03*
D415*
X253796Y38569D03*
D273*
X266242Y38569D03*
D252*
X278972Y38569D03*
D168*
X290814Y38569D03*
D196*
X303367Y38569D03*
D405*
X229331Y38640D03*
D174*
X241990Y38640D03*
D198*
X253796Y38640D03*
D270*
X266242Y38640D03*
D162*
X278937Y38640D03*
D174*
X290778Y38640D03*
D226*
X303367Y38640D03*
D405*
X229331Y38711D03*
D176*
X241919Y38711D03*
D198*
X253796Y38711D03*
D270*
X266242Y38711D03*
D162*
X278937Y38711D03*
D171*
X290743Y38711D03*
D226*
X303367Y38711D03*
D405*
X229331Y38782D03*
D189*
X241848Y38782D03*
D198*
X253796Y38782D03*
D270*
X266242Y38782D03*
D162*
X278937Y38782D03*
D173*
X290672Y38782D03*
D226*
X303367Y38782D03*
D405*
X229331Y38853D03*
D203*
X241741Y38853D03*
D198*
X253796Y38853D03*
D162*
X278937Y38853D03*
D199*
X290565Y38853D03*
D226*
X303367Y38853D03*
D405*
X229331Y38924D03*
D224*
X241528Y38924D03*
D198*
X253796Y38924D03*
D162*
X278937Y38924D03*
D228*
X290352Y38924D03*
D226*
X303367Y38924D03*
D406*
X229331Y38995D03*
D402*
X253760Y38995D03*
D262*
X278937Y38995D03*
D196*
X303367Y38995D03*
D405*
X229331Y39066D03*
D200*
X253760Y39066D03*
D162*
X278937Y39066D03*
D226*
X303367Y39066D03*
D405*
X229331Y39138D03*
D200*
X253760Y39138D03*
D162*
X278937Y39138D03*
D226*
X303367Y39138D03*
D405*
X229331Y39209D03*
D200*
X253760Y39209D03*
D162*
X278937Y39209D03*
D226*
X303367Y39209D03*
D405*
X229331Y39280D03*
D185*
X253796Y39280D03*
D162*
X278937Y39280D03*
D226*
X303367Y39280D03*
D405*
X229331Y39351D03*
D185*
X253796Y39351D03*
D251*
X278901Y39351D03*
D226*
X303367Y39351D03*
D406*
X229331Y39422D03*
D219*
X253796Y39422D03*
D254*
X278901Y39422D03*
D221*
X303331Y39422D03*
D405*
X229331Y39493D03*
D185*
X253796Y39493D03*
D251*
X278901Y39493D03*
D191*
X303331Y39493D03*
D405*
X229331Y39564D03*
D185*
X253796Y39564D03*
D251*
X278901Y39564D03*
D191*
X303331Y39564D03*
D405*
X229331Y39635D03*
D182*
X253760Y39635D03*
D251*
X278901Y39635D03*
D191*
X303331Y39635D03*
D405*
X229331Y39707D03*
D177*
X253796Y39707D03*
D251*
X278901Y39707D03*
D191*
X303331Y39707D03*
D405*
X229331Y39778D03*
D177*
X253796Y39778D03*
D255*
X278866Y39778D03*
D191*
X303331Y39778D03*
D405*
X229331Y39849D03*
D177*
X253796Y39849D03*
D255*
X278866Y39849D03*
D216*
X303295Y39849D03*
D406*
X229331Y39920D03*
D257*
X253760Y39920D03*
D253*
X278866Y39920D03*
D401*
X303295Y39920D03*
D405*
X229331Y39991D03*
D240*
X253796Y39991D03*
D255*
X278866Y39991D03*
D216*
X303295Y39991D03*
D405*
X229331Y40062D03*
D240*
X253796Y40062D03*
D157*
X278830Y40062D03*
D186*
X303260Y40062D03*
D405*
X229331Y40133D03*
D240*
X253796Y40133D03*
D157*
X278830Y40133D03*
D186*
X303260Y40133D03*
D405*
X229331Y40204D03*
D245*
X253796Y40204D03*
D157*
X278830Y40204D03*
D186*
X303260Y40204D03*
D405*
X229331Y40276D03*
D245*
X253796Y40276D03*
D243*
X278795Y40276D03*
D356*
X303224Y40276D03*
D406*
X229331Y40347D03*
D416*
X253796Y40347D03*
D237*
X278795Y40347D03*
D263*
X303224Y40347D03*
D405*
X229331Y40418D03*
D251*
X253796Y40418D03*
D230*
X278759Y40418D03*
D356*
X303224Y40418D03*
D405*
X229331Y40489D03*
D251*
X253796Y40489D03*
D230*
X278759Y40489D03*
D183*
X303189Y40489D03*
D405*
X229331Y40560D03*
D157*
X253796Y40560D03*
D230*
X278759Y40560D03*
D183*
X303189Y40560D03*
D405*
X229331Y40631D03*
D157*
X253796Y40631D03*
D225*
X278724Y40631D03*
D199*
X303153Y40631D03*
D405*
X229331Y40702D03*
D246*
X253796Y40702D03*
D225*
X278724Y40702D03*
D199*
X303153Y40702D03*
D406*
X229331Y40773D03*
D258*
X253760Y40773D03*
D220*
X278688Y40773D03*
D194*
X303118Y40773D03*
D405*
X229331Y40844D03*
D241*
X253796Y40844D03*
D214*
X278652Y40844D03*
D189*
X303082Y40844D03*
D405*
X229331Y40916D03*
D214*
X253760Y40916D03*
X278652Y40916D03*
D189*
X303082Y40916D03*
D405*
X229331Y40987D03*
D207*
X253760Y40987D03*
D210*
X278617Y40987D03*
D173*
X303047Y40987D03*
D405*
X229331Y41058D03*
D224*
X253760Y41058D03*
D207*
X278581Y41058D03*
D405*
X303011Y41058D03*
X229331Y41129D03*
D226*
X253796Y41129D03*
D204*
X278546Y41129D03*
D417*
X302975Y41129D03*
D406*
X229331Y41200D03*
D344*
X253760Y41200D03*
D418*
X278510Y41200D03*
D166*
X302940Y41200D03*
D405*
X229331Y41271D03*
D203*
X253760Y41271D03*
D226*
X278475Y41271D03*
D161*
X302904Y41271D03*
D405*
X229331Y41342D03*
D178*
X253760Y41342D03*
D191*
X278439Y41342D03*
D156*
X302869Y41342D03*
D405*
X229331Y41413D03*
D176*
X253796Y41413D03*
D186*
X278368Y41413D03*
D163*
X302798Y41413D03*
D405*
X229331Y41485D03*
D156*
X253796Y41485D03*
D183*
X278297Y41485D03*
D414*
X302762Y41485D03*
D405*
X229331Y41556D03*
D277*
X253796Y41556D03*
D178*
X278226Y41556D03*
D279*
X302691Y41556D03*
D405*
X229331Y41627D03*
D413*
X253796Y41627D03*
D173*
X278155Y41627D03*
D413*
X302584Y41627D03*
D406*
X229331Y41698D03*
D419*
X253796Y41698D03*
D166*
X278048Y41698D03*
D420*
X302513Y41698D03*
D405*
X229331Y41769D03*
D306*
X253796Y41769D03*
D159*
X277941Y41769D03*
D316*
X302406Y41769D03*
D405*
X229331Y41840D03*
D322*
X253832Y41840D03*
D158*
X277763Y41840D03*
D326*
X302264Y41840D03*
D405*
X229331Y41911D03*
D421*
X253867Y41911D03*
D316*
X277514Y41911D03*
D270*
X302015Y41911D03*
D422*
X266171Y41982D03*
X266171Y42054D03*
D423*
X266171Y42125D03*
D422*
X266171Y42196D03*
X266171Y42267D03*
X266171Y42338D03*
X266171Y42409D03*
X266171Y42480D03*
D423*
X266171Y42551D03*
D422*
X266171Y42622D03*
X266171Y42694D03*
X266171Y42765D03*
X266171Y42836D03*
X266171Y42907D03*
D423*
X266171Y42978D03*
D422*
X266171Y43049D03*
X266171Y43120D03*
X266171Y43191D03*
X266171Y43263D03*
X266171Y43334D03*
X266171Y43405D03*
D423*
X266171Y43476D03*
D422*
X266171Y43547D03*
X266171Y43618D03*
X266171Y43689D03*
X266171Y43760D03*
X266171Y43832D03*
D423*
X266171Y43903D03*
D422*
X266171Y43974D03*
X266171Y44045D03*
X266171Y44116D03*
X266171Y44187D03*
X266171Y44258D03*
D423*
X266171Y44329D03*
D422*
X266171Y44400D03*
X266171Y44472D03*
X266171Y44543D03*
X266171Y44614D03*
X266171Y44685D03*
D423*
X266171Y44756D03*
D422*
X266171Y44827D03*
X266171Y44898D03*
X266171Y44969D03*
X266171Y45041D03*
X266171Y45112D03*
X266171Y45183D03*
D423*
X266171Y45254D03*
D422*
X266171Y45325D03*
X266171Y45396D03*
X266171Y45467D03*
X266171Y45538D03*
X266171Y45610D03*
D423*
X266171Y45681D03*
D422*
X266171Y45752D03*
X266171Y45823D03*
X266171Y45894D03*
X266171Y45965D03*
X266171Y46036D03*
D423*
X266171Y46107D03*
D422*
X266171Y46178D03*
X266171Y46250D03*
X266171Y46321D03*
X266171Y46392D03*
X266171Y46463D03*
D423*
X266171Y46534D03*
D422*
X266171Y46605D03*
X266171Y46676D03*
X266171Y46747D03*
X266171Y46819D03*
X266171Y46890D03*
X266171Y46961D03*
D423*
X266171Y47032D03*
D422*
X266171Y47103D03*
X266171Y47174D03*
X266171Y47245D03*
X266171Y47316D03*
X266171Y47388D03*
D423*
X266171Y47459D03*
D422*
X266171Y47530D03*
X266171Y47601D03*
X266171Y47672D03*
X266171Y47743D03*
X266171Y47814D03*
D423*
X266171Y47885D03*
D422*
X266171Y47956D03*
X266171Y48028D03*
X266171Y48099D03*
X266171Y48170D03*
X266171Y48241D03*
D423*
X266171Y48312D03*
D422*
X266171Y48383D03*
X266171Y48454D03*
X266171Y48525D03*
X266171Y48597D03*
X266171Y48668D03*
X266171Y48739D03*
D423*
X266171Y48810D03*
D422*
X266171Y48881D03*
X266171Y48952D03*
X266171Y49023D03*
D424*
X266171Y49094D03*
D422*
X266171Y56491D03*
X266171Y56562D03*
X266171Y56633D03*
X266171Y56704D03*
D423*
X266171Y56775D03*
D422*
X266171Y56846D03*
X266171Y56918D03*
X266171Y56989D03*
X266171Y57060D03*
X266171Y57131D03*
D423*
X266171Y57202D03*
D422*
X266171Y57273D03*
X266171Y57344D03*
X266171Y57415D03*
X266171Y57487D03*
X266171Y57558D03*
X266171Y57629D03*
D423*
X266171Y57700D03*
D422*
X266171Y57771D03*
X266171Y57842D03*
X266171Y57913D03*
X266171Y57984D03*
X266171Y58056D03*
D423*
X266171Y58127D03*
D422*
X266171Y58198D03*
X266171Y58269D03*
X266171Y58340D03*
X266171Y58411D03*
X266171Y58482D03*
D423*
X266171Y58553D03*
D422*
X266171Y58624D03*
X266171Y58696D03*
X266171Y58767D03*
X266171Y58838D03*
X266171Y58909D03*
D423*
X266171Y58980D03*
D422*
X266171Y59051D03*
X266171Y59122D03*
X266171Y59193D03*
X266171Y59265D03*
X266171Y59336D03*
X266171Y59407D03*
D423*
X266171Y59478D03*
D422*
X266171Y59549D03*
X266171Y59620D03*
X266171Y59691D03*
X266171Y59762D03*
X266171Y59834D03*
D423*
X266171Y59905D03*
D422*
X266171Y59976D03*
X266171Y60047D03*
X266171Y60118D03*
X266171Y60189D03*
X266171Y60260D03*
D423*
X266171Y60331D03*
D422*
X266171Y60402D03*
X266171Y60474D03*
X266171Y60545D03*
X266171Y60616D03*
X266171Y60687D03*
D423*
X266171Y60758D03*
D422*
X266171Y60829D03*
X266171Y60900D03*
X266171Y60971D03*
X266171Y61043D03*
X266171Y61114D03*
X266171Y61185D03*
D423*
X266171Y61256D03*
D422*
X266171Y61327D03*
X266171Y61398D03*
X266171Y61469D03*
X266171Y61540D03*
X266171Y61612D03*
D423*
X266171Y61683D03*
D422*
X266171Y61754D03*
X266171Y61825D03*
X266171Y61896D03*
X266171Y61967D03*
X266171Y62038D03*
D423*
X266171Y62109D03*
D422*
X266171Y62180D03*
X266171Y62252D03*
X266171Y62323D03*
X266171Y62394D03*
X266171Y62465D03*
D423*
X266171Y62536D03*
D422*
X266171Y62607D03*
X266171Y62678D03*
X266171Y62749D03*
X266171Y62821D03*
X266171Y62892D03*
X266171Y62963D03*
D423*
X266171Y63034D03*
D422*
X266171Y63105D03*
X266171Y63176D03*
X266171Y63247D03*
X266171Y63318D03*
X266171Y63390D03*
D423*
X266171Y63461D03*
D422*
X266171Y63532D03*
X266171Y63603D03*
D210*
X228833Y63674D03*
D214*
X303544Y63674D03*
X228797Y63745D03*
X303544Y63745D03*
X228797Y63816D03*
X303544Y63816D03*
D238*
X228797Y63887D03*
X303544Y63887D03*
D214*
X228797Y63958D03*
X303544Y63958D03*
X228797Y64030D03*
X303544Y64030D03*
X228797Y64101D03*
X303544Y64101D03*
X228797Y64172D03*
X303544Y64172D03*
X228797Y64243D03*
X303544Y64243D03*
D238*
X228797Y64314D03*
X303544Y64314D03*
D214*
X228797Y64385D03*
X303544Y64385D03*
X228797Y64456D03*
X303544Y64456D03*
X228797Y64527D03*
X303544Y64527D03*
X228797Y64599D03*
X303544Y64599D03*
X228797Y64670D03*
X303544Y64670D03*
X228797Y64741D03*
X303544Y64741D03*
D238*
X228797Y64812D03*
X303544Y64812D03*
D214*
X228797Y64883D03*
X303544Y64883D03*
X228797Y64954D03*
X303544Y64954D03*
X228797Y65025D03*
X303544Y65025D03*
X228797Y65096D03*
X303544Y65096D03*
X228797Y65168D03*
X303544Y65168D03*
D238*
X228797Y65239D03*
X303544Y65239D03*
D214*
X228797Y65310D03*
X303544Y65310D03*
X228797Y65381D03*
X303544Y65381D03*
X228797Y65452D03*
X303544Y65452D03*
X228797Y65523D03*
X303544Y65523D03*
X228797Y65594D03*
X303544Y65594D03*
D238*
X228797Y65665D03*
X303544Y65665D03*
D214*
X228797Y65736D03*
X303544Y65736D03*
X228797Y65808D03*
X303544Y65808D03*
X228797Y65879D03*
X303544Y65879D03*
X228797Y65950D03*
X303544Y65950D03*
X228797Y66021D03*
X303544Y66021D03*
D238*
X228797Y66092D03*
X303544Y66092D03*
D214*
X228797Y66163D03*
X303544Y66163D03*
X228797Y66234D03*
X303544Y66234D03*
X228797Y66305D03*
X303544Y66305D03*
X228797Y66377D03*
X303544Y66377D03*
X228797Y66448D03*
D186*
X248640Y66448D03*
D214*
X303544Y66448D03*
X228797Y66519D03*
D186*
X248640Y66519D03*
D214*
X303544Y66519D03*
D238*
X228797Y66590D03*
D344*
X248640Y66590D03*
D238*
X303544Y66590D03*
D214*
X228797Y66661D03*
D186*
X248640Y66661D03*
D214*
X303544Y66661D03*
X228797Y66732D03*
D186*
X248640Y66732D03*
D214*
X303544Y66732D03*
X228797Y66803D03*
D186*
X248640Y66803D03*
D214*
X303544Y66803D03*
X228797Y66874D03*
D186*
X248640Y66874D03*
D214*
X303544Y66874D03*
X228797Y66946D03*
D186*
X248640Y66946D03*
D214*
X303544Y66946D03*
D238*
X228797Y67017D03*
D344*
X248640Y67017D03*
D238*
X303544Y67017D03*
D214*
X228797Y67088D03*
D186*
X248640Y67088D03*
D425*
X262828Y67088D03*
X267807Y67088D03*
D214*
X303544Y67088D03*
X228797Y67159D03*
D186*
X248640Y67159D03*
D426*
X262828Y67159D03*
X267807Y67159D03*
D214*
X303544Y67159D03*
X228797Y67230D03*
D186*
X248640Y67230D03*
D427*
X262828Y67230D03*
D428*
X267807Y67230D03*
D214*
X303544Y67230D03*
X228797Y67301D03*
D186*
X248640Y67301D03*
D429*
X262828Y67301D03*
D430*
X267807Y67301D03*
D214*
X303544Y67301D03*
X228797Y67372D03*
D186*
X248640Y67372D03*
D431*
X262864Y67372D03*
D432*
X267807Y67372D03*
D214*
X303544Y67372D03*
D238*
X228797Y67443D03*
D344*
X248640Y67443D03*
D433*
X262864Y67443D03*
D434*
X267807Y67443D03*
D238*
X303544Y67443D03*
D214*
X228797Y67514D03*
D186*
X248640Y67514D03*
D435*
X262899Y67514D03*
X267807Y67514D03*
D214*
X303544Y67514D03*
X228797Y67586D03*
D186*
X248640Y67586D03*
D436*
X262899Y67586D03*
X267807Y67586D03*
D214*
X303544Y67586D03*
X228797Y67657D03*
D186*
X248640Y67657D03*
D437*
X262899Y67657D03*
D438*
X267842Y67657D03*
D214*
X303544Y67657D03*
X228797Y67728D03*
D186*
X248640Y67728D03*
D439*
X262935Y67728D03*
D440*
X267878Y67728D03*
D214*
X303544Y67728D03*
X228797Y67799D03*
D186*
X248640Y67799D03*
D440*
X262970Y67799D03*
D441*
X267913Y67799D03*
D214*
X303544Y67799D03*
D238*
X228797Y67870D03*
D344*
X248640Y67870D03*
D442*
X263006Y67870D03*
D443*
X267949Y67870D03*
D238*
X303544Y67870D03*
D214*
X228797Y67941D03*
D186*
X248640Y67941D03*
D444*
X263042Y67941D03*
D445*
X267984Y67941D03*
D214*
X303544Y67941D03*
X228797Y68012D03*
D186*
X248640Y68012D03*
D445*
X263077Y68012D03*
D446*
X268020Y68012D03*
D428*
X282244Y68012D03*
D214*
X303544Y68012D03*
X228797Y68083D03*
D186*
X248640Y68083D03*
D446*
X263113Y68083D03*
D447*
X268056Y68083D03*
D438*
X282280Y68083D03*
D214*
X303544Y68083D03*
X228797Y68155D03*
D186*
X248640Y68155D03*
D448*
X263184Y68155D03*
X268091Y68155D03*
D446*
X282244Y68155D03*
D214*
X303544Y68155D03*
X228797Y68226D03*
D186*
X248640Y68226D03*
D449*
X263219Y68226D03*
D448*
X268162Y68226D03*
D450*
X282244Y68226D03*
D214*
X303544Y68226D03*
X228797Y68297D03*
D186*
X248640Y68297D03*
D449*
X263290Y68297D03*
X268198Y68297D03*
D451*
X282244Y68297D03*
D214*
X303544Y68297D03*
D238*
X228797Y68368D03*
D344*
X248640Y68368D03*
D452*
X263326Y68368D03*
D453*
X268269Y68368D03*
D454*
X282244Y68368D03*
D238*
X303544Y68368D03*
D214*
X228797Y68439D03*
D186*
X248640Y68439D03*
D455*
X263397Y68439D03*
X268304Y68439D03*
D378*
X282244Y68439D03*
D214*
X303544Y68439D03*
X228797Y68510D03*
D186*
X248640Y68510D03*
D455*
X263468Y68510D03*
X268376Y68510D03*
D367*
X282244Y68510D03*
D214*
X303544Y68510D03*
X228797Y68581D03*
D186*
X248640Y68581D03*
D455*
X263539Y68581D03*
D456*
X268518Y68581D03*
D357*
X282280Y68581D03*
D214*
X303544Y68581D03*
X228797Y68652D03*
D186*
X248640Y68652D03*
D455*
X263611Y68652D03*
D456*
X268589Y68652D03*
D351*
X282244Y68652D03*
D214*
X303544Y68652D03*
X228797Y68724D03*
D186*
X248640Y68724D03*
D456*
X263682Y68724D03*
D455*
X268660Y68724D03*
D340*
X282244Y68724D03*
D214*
X303544Y68724D03*
D238*
X228797Y68795D03*
D344*
X248640Y68795D03*
D452*
X263753Y68795D03*
X268731Y68795D03*
D457*
X282280Y68795D03*
D238*
X303544Y68795D03*
D214*
X228797Y68866D03*
D186*
X248640Y68866D03*
D455*
X263824Y68866D03*
X268802Y68866D03*
D325*
X282280Y68866D03*
D214*
X303544Y68866D03*
X228797Y68937D03*
D186*
X248640Y68937D03*
D455*
X263895Y68937D03*
X268873Y68937D03*
D319*
X282244Y68937D03*
D214*
X303544Y68937D03*
X228797Y69008D03*
D186*
X248640Y69008D03*
D455*
X264037Y69008D03*
X268945Y69008D03*
D458*
X282244Y69008D03*
D214*
X303544Y69008D03*
X228797Y69079D03*
D186*
X248640Y69079D03*
D456*
X264108Y69079D03*
X269016Y69079D03*
D202*
X282244Y69079D03*
D214*
X303544Y69079D03*
X228797Y69150D03*
D186*
X248640Y69150D03*
D455*
X264179Y69150D03*
X269087Y69150D03*
D299*
X282244Y69150D03*
D214*
X303544Y69150D03*
D238*
X228797Y69221D03*
D344*
X248640Y69221D03*
D452*
X264251Y69221D03*
X269158Y69221D03*
D459*
X282280Y69221D03*
D238*
X303544Y69221D03*
D214*
X228797Y69292D03*
D186*
X248640Y69292D03*
D455*
X264322Y69292D03*
X269229Y69292D03*
D290*
X282280Y69292D03*
D214*
X303544Y69292D03*
X228797Y69364D03*
D186*
X248640Y69364D03*
D455*
X264393Y69364D03*
X269300Y69364D03*
D288*
X282244Y69364D03*
D214*
X303544Y69364D03*
X228797Y69435D03*
D186*
X248640Y69435D03*
D455*
X264464Y69435D03*
D456*
X269442Y69435D03*
D285*
X282244Y69435D03*
D214*
X303544Y69435D03*
X228797Y69506D03*
D186*
X248640Y69506D03*
D456*
X264535Y69506D03*
D455*
X269513Y69506D03*
D460*
X282244Y69506D03*
D214*
X303544Y69506D03*
X228797Y69577D03*
D186*
X248640Y69577D03*
D456*
X264606Y69577D03*
D455*
X269585Y69577D03*
D461*
X282280Y69577D03*
D214*
X303544Y69577D03*
D238*
X228797Y69648D03*
D344*
X248640Y69648D03*
D452*
X264677Y69648D03*
X269656Y69648D03*
D462*
X282244Y69648D03*
D238*
X303544Y69648D03*
D214*
X228797Y69719D03*
D186*
X248640Y69719D03*
D455*
X264748Y69719D03*
X269727Y69719D03*
D275*
X282244Y69719D03*
D214*
X303544Y69719D03*
X228797Y69790D03*
D186*
X248640Y69790D03*
D455*
X264891Y69790D03*
X269798Y69790D03*
D231*
X282280Y69790D03*
D214*
X303544Y69790D03*
X228797Y69861D03*
D186*
X248640Y69861D03*
D456*
X264962Y69861D03*
X269869Y69861D03*
D149*
X282244Y69861D03*
D214*
X303544Y69861D03*
X228797Y69933D03*
D186*
X248640Y69933D03*
D456*
X265033Y69933D03*
X269940Y69933D03*
D267*
X282280Y69933D03*
D214*
X303544Y69933D03*
X228797Y70004D03*
D186*
X248640Y70004D03*
D455*
X265104Y70004D03*
X270011Y70004D03*
D234*
X282244Y70004D03*
D214*
X303544Y70004D03*
X228797Y70075D03*
D186*
X248640Y70075D03*
D455*
X265175Y70075D03*
X270082Y70075D03*
D265*
X282280Y70075D03*
D214*
X303544Y70075D03*
D238*
X228797Y70146D03*
D344*
X248640Y70146D03*
D452*
X265246Y70146D03*
X270154Y70146D03*
D463*
X282244Y70146D03*
D238*
X303544Y70146D03*
D214*
X228797Y70217D03*
D186*
X248640Y70217D03*
D455*
X265317Y70217D03*
D456*
X270296Y70217D03*
D188*
X282280Y70217D03*
D214*
X303544Y70217D03*
X228797Y70288D03*
D186*
X248640Y70288D03*
D455*
X265389Y70288D03*
D456*
X270367Y70288D03*
D198*
X282244Y70288D03*
D214*
X303544Y70288D03*
X228797Y70359D03*
D186*
X248640Y70359D03*
D456*
X265460Y70359D03*
D455*
X270438Y70359D03*
D198*
X282244Y70359D03*
D214*
X303544Y70359D03*
X228797Y70430D03*
D186*
X248640Y70430D03*
D455*
X265531Y70430D03*
X270509Y70430D03*
D190*
X282280Y70430D03*
D214*
X303544Y70430D03*
X228797Y70502D03*
D186*
X248640Y70502D03*
D455*
X265602Y70502D03*
X270580Y70502D03*
D185*
X282244Y70502D03*
D214*
X303544Y70502D03*
D238*
X228797Y70573D03*
D344*
X248640Y70573D03*
D452*
X265673Y70573D03*
X270651Y70573D03*
D219*
X282244Y70573D03*
D238*
X303544Y70573D03*
D214*
X228797Y70644D03*
D186*
X248640Y70644D03*
D455*
X265815Y70644D03*
X270723Y70644D03*
D182*
X282280Y70644D03*
D214*
X303544Y70644D03*
X228797Y70715D03*
D186*
X248640Y70715D03*
D456*
X265886Y70715D03*
X270794Y70715D03*
D177*
X282244Y70715D03*
D214*
X303544Y70715D03*
X228797Y70786D03*
D186*
X248640Y70786D03*
D455*
X265957Y70786D03*
X270865Y70786D03*
D177*
X282244Y70786D03*
D214*
X303544Y70786D03*
X228797Y70857D03*
D186*
X248640Y70857D03*
D455*
X266029Y70857D03*
X270936Y70857D03*
D177*
X282244Y70857D03*
D214*
X303544Y70857D03*
X228797Y70928D03*
D186*
X248640Y70928D03*
D455*
X266100Y70928D03*
X271007Y70928D03*
D172*
X282280Y70928D03*
D214*
X303544Y70928D03*
D238*
X228797Y70999D03*
D344*
X248640Y70999D03*
D452*
X266171Y70999D03*
X271078Y70999D03*
D257*
X282280Y70999D03*
D238*
X303544Y70999D03*
D214*
X228797Y71070D03*
D186*
X248640Y71070D03*
D455*
X266242Y71070D03*
D456*
X271220Y71070D03*
D172*
X282280Y71070D03*
D214*
X303544Y71070D03*
X228797Y71142D03*
D186*
X248640Y71142D03*
D456*
X266313Y71142D03*
D455*
X271291Y71142D03*
D240*
X282244Y71142D03*
D214*
X303544Y71142D03*
X228797Y71213D03*
D186*
X248640Y71213D03*
D456*
X266384Y71213D03*
D455*
X271363Y71213D03*
D240*
X282244Y71213D03*
D214*
X303544Y71213D03*
X228797Y71284D03*
D186*
X248640Y71284D03*
D455*
X266455Y71284D03*
X271434Y71284D03*
D240*
X282244Y71284D03*
D214*
X303544Y71284D03*
X228797Y71355D03*
D186*
X248640Y71355D03*
D455*
X266526Y71355D03*
D464*
X271469Y71355D03*
D240*
X282244Y71355D03*
D214*
X303544Y71355D03*
D238*
X228797Y71426D03*
D344*
X248640Y71426D03*
D453*
X266562Y71426D03*
X271540Y71426D03*
D235*
X282244Y71426D03*
D238*
X303544Y71426D03*
D214*
X228797Y71497D03*
D186*
X248640Y71497D03*
D448*
X266669Y71497D03*
X271576Y71497D03*
D240*
X282244Y71497D03*
D214*
X303544Y71497D03*
X228797Y71568D03*
D186*
X248640Y71568D03*
D447*
X266704Y71568D03*
D448*
X271647Y71568D03*
D240*
X282244Y71568D03*
D214*
X303544Y71568D03*
X228797Y71639D03*
D186*
X248640Y71639D03*
D446*
X266740Y71639D03*
D447*
X271683Y71639D03*
D240*
X282244Y71639D03*
D214*
X303544Y71639D03*
X228797Y71711D03*
D186*
X248640Y71711D03*
D445*
X266775Y71711D03*
D446*
X271718Y71711D03*
D240*
X282244Y71711D03*
D214*
X303544Y71711D03*
X228797Y71782D03*
D186*
X248640Y71782D03*
D465*
X266811Y71782D03*
D445*
X271754Y71782D03*
D240*
X282244Y71782D03*
D214*
X303544Y71782D03*
X228797Y71853D03*
D186*
X248640Y71853D03*
D466*
X266846Y71853D03*
D441*
X271825Y71853D03*
D240*
X282244Y71853D03*
D214*
X303544Y71853D03*
D238*
X228797Y71924D03*
D344*
X248640Y71924D03*
D467*
X266882Y71924D03*
D468*
X271860Y71924D03*
D235*
X282244Y71924D03*
D238*
X303544Y71924D03*
D214*
X228797Y71995D03*
D186*
X248640Y71995D03*
D439*
X266918Y71995D03*
D437*
X271860Y71995D03*
D240*
X282244Y71995D03*
D214*
X303544Y71995D03*
X228797Y72066D03*
D186*
X248640Y72066D03*
D438*
X266918Y72066D03*
X271896Y72066D03*
D240*
X282244Y72066D03*
D214*
X303544Y72066D03*
X228797Y72137D03*
D186*
X248640Y72137D03*
D436*
X266953Y72137D03*
D469*
X271896Y72137D03*
D240*
X282244Y72137D03*
D214*
X303544Y72137D03*
X228797Y72208D03*
D470*
X248675Y72208D03*
D435*
X266953Y72208D03*
X271932Y72208D03*
D172*
X282280Y72208D03*
D214*
X303544Y72208D03*
X228797Y72280D03*
D470*
X248675Y72280D03*
D431*
X266989Y72280D03*
D471*
X271932Y72280D03*
D172*
X282280Y72280D03*
D214*
X303544Y72280D03*
D238*
X228797Y72351D03*
D472*
X248675Y72351D03*
D473*
X266989Y72351D03*
D474*
X271932Y72351D03*
D475*
X282244Y72351D03*
D238*
X303544Y72351D03*
D214*
X228797Y72422D03*
D470*
X248675Y72422D03*
D476*
X266989Y72422D03*
D430*
X271932Y72422D03*
D177*
X282244Y72422D03*
D214*
X303544Y72422D03*
X228797Y72493D03*
D470*
X248675Y72493D03*
D477*
X266989Y72493D03*
D428*
X271932Y72493D03*
D177*
X282244Y72493D03*
D214*
X303544Y72493D03*
X228797Y72564D03*
D470*
X248675Y72564D03*
D478*
X266989Y72564D03*
X271967Y72564D03*
D182*
X282280Y72564D03*
D214*
X303544Y72564D03*
X228797Y72635D03*
D470*
X248675Y72635D03*
D479*
X266989Y72635D03*
D480*
X271967Y72635D03*
D182*
X282280Y72635D03*
D214*
X303544Y72635D03*
X228797Y72706D03*
D470*
X248675Y72706D03*
D185*
X282244Y72706D03*
D214*
X303544Y72706D03*
D238*
X228797Y72777D03*
D472*
X248675Y72777D03*
D219*
X282244Y72777D03*
D238*
X303544Y72777D03*
D214*
X228797Y72848D03*
D470*
X248675Y72848D03*
D190*
X282280Y72848D03*
D214*
X303544Y72848D03*
X228797Y72920D03*
D470*
X248675Y72920D03*
D198*
X282244Y72920D03*
D214*
X303544Y72920D03*
X228797Y72991D03*
D470*
X248675Y72991D03*
D188*
X282280Y72991D03*
D214*
X303544Y72991D03*
X228797Y73062D03*
D470*
X248675Y73062D03*
D180*
X282244Y73062D03*
D214*
X303544Y73062D03*
X228797Y73133D03*
D470*
X248675Y73133D03*
D180*
X282244Y73133D03*
D214*
X303544Y73133D03*
D238*
X228797Y73204D03*
D472*
X248675Y73204D03*
D481*
X282244Y73204D03*
D238*
X303544Y73204D03*
D214*
X228797Y73275D03*
D470*
X248675Y73275D03*
D234*
X282244Y73275D03*
D214*
X303544Y73275D03*
X228797Y73346D03*
D470*
X248675Y73346D03*
D149*
X282244Y73346D03*
D214*
X303544Y73346D03*
X228797Y73417D03*
D470*
X248675Y73417D03*
D231*
X282280Y73417D03*
D214*
X303544Y73417D03*
X228797Y73489D03*
D470*
X248675Y73489D03*
D275*
X282244Y73489D03*
D214*
X303544Y73489D03*
X228797Y73560D03*
D470*
X248675Y73560D03*
D229*
X282280Y73560D03*
D214*
X303544Y73560D03*
X228797Y73631D03*
D470*
X248675Y73631D03*
D227*
X282244Y73631D03*
D214*
X303544Y73631D03*
D238*
X228797Y73702D03*
D472*
X248675Y73702D03*
D482*
X282244Y73702D03*
D238*
X303544Y73702D03*
D214*
X228797Y73773D03*
D470*
X248675Y73773D03*
D283*
X282280Y73773D03*
D214*
X303544Y73773D03*
X228797Y73844D03*
D470*
X248675Y73844D03*
D285*
X282244Y73844D03*
D214*
X303544Y73844D03*
X228797Y73915D03*
D470*
X248675Y73915D03*
D288*
X282244Y73915D03*
D214*
X303544Y73915D03*
X228797Y73986D03*
D470*
X248675Y73986D03*
D297*
X282244Y73986D03*
D214*
X303544Y73986D03*
X228797Y74058D03*
D470*
X248675Y74058D03*
D299*
X282244Y74058D03*
D214*
X303544Y74058D03*
D238*
X228797Y74129D03*
D472*
X248675Y74129D03*
D395*
X282280Y74129D03*
D238*
X303544Y74129D03*
D214*
X228797Y74200D03*
D470*
X248675Y74200D03*
D483*
X282280Y74200D03*
D214*
X303544Y74200D03*
X228797Y74271D03*
D470*
X248675Y74271D03*
D192*
X282280Y74271D03*
D214*
X303544Y74271D03*
X228797Y74342D03*
D470*
X248675Y74342D03*
D184*
X282244Y74342D03*
D214*
X303544Y74342D03*
X228797Y74413D03*
D470*
X248675Y74413D03*
D179*
X282244Y74413D03*
D214*
X303544Y74413D03*
X228797Y74484D03*
D470*
X248675Y74484D03*
D336*
X282244Y74484D03*
D214*
X303544Y74484D03*
D238*
X228797Y74555D03*
D472*
X248675Y74555D03*
D347*
X282280Y74555D03*
D434*
X290067Y74555D03*
D238*
X303544Y74555D03*
D214*
X228797Y74626D03*
D470*
X248675Y74626D03*
D154*
X282244Y74626D03*
D441*
X290103Y74626D03*
D214*
X303544Y74626D03*
X228797Y74698D03*
D470*
X248675Y74698D03*
D361*
X282280Y74698D03*
D464*
X290103Y74698D03*
D214*
X303544Y74698D03*
X228797Y74769D03*
D470*
X248675Y74769D03*
D374*
X282244Y74769D03*
D484*
X290067Y74769D03*
D214*
X303544Y74769D03*
X228797Y74840D03*
D470*
X248675Y74840D03*
D485*
X282244Y74840D03*
D486*
X290067Y74840D03*
D214*
X303544Y74840D03*
X228797Y74911D03*
D470*
X248675Y74911D03*
D487*
X282280Y74911D03*
D485*
X290067Y74911D03*
D214*
X303544Y74911D03*
D238*
X228797Y74982D03*
D472*
X248675Y74982D03*
D488*
X282244Y74982D03*
D489*
X290067Y74982D03*
D238*
X303544Y74982D03*
D214*
X228797Y75053D03*
D470*
X248675Y75053D03*
D449*
X282280Y75053D03*
D490*
X290103Y75053D03*
D214*
X303544Y75053D03*
X228797Y75124D03*
D470*
X248675Y75124D03*
D466*
X282280Y75124D03*
D353*
X290067Y75124D03*
D214*
X303544Y75124D03*
X228797Y75195D03*
D470*
X248675Y75195D03*
D491*
X282280Y75195D03*
D342*
X290103Y75195D03*
D214*
X303544Y75195D03*
X228797Y75267D03*
D470*
X248675Y75267D03*
D336*
X290067Y75267D03*
D214*
X303544Y75267D03*
X228797Y75338D03*
D470*
X248675Y75338D03*
D492*
X290067Y75338D03*
D214*
X303544Y75338D03*
X228797Y75409D03*
D470*
X248675Y75409D03*
D184*
X290067Y75409D03*
D214*
X303544Y75409D03*
D238*
X228797Y75480D03*
D472*
X248675Y75480D03*
D493*
X290067Y75480D03*
D238*
X303544Y75480D03*
D214*
X228797Y75551D03*
D470*
X248675Y75551D03*
D307*
X290103Y75551D03*
D214*
X303544Y75551D03*
X228797Y75622D03*
D470*
X248675Y75622D03*
D202*
X290067Y75622D03*
D214*
X303544Y75622D03*
X228797Y75693D03*
D470*
X248675Y75693D03*
D299*
X290067Y75693D03*
D214*
X303544Y75693D03*
X228797Y75764D03*
D470*
X248675Y75764D03*
D208*
X290067Y75764D03*
D214*
X303544Y75764D03*
X228797Y75836D03*
D470*
X248675Y75836D03*
D288*
X290067Y75836D03*
D214*
X303544Y75836D03*
D238*
X228797Y75907D03*
D472*
X248675Y75907D03*
D494*
X290103Y75907D03*
D238*
X303544Y75907D03*
D214*
X228797Y75978D03*
D470*
X248675Y75978D03*
D217*
X290103Y75978D03*
D214*
X303544Y75978D03*
X228797Y76049D03*
D470*
X248675Y76049D03*
D278*
X290067Y76049D03*
D214*
X303544Y76049D03*
X228797Y76120D03*
D470*
X248675Y76120D03*
D227*
X290067Y76120D03*
D214*
X303544Y76120D03*
X228797Y76191D03*
D470*
X248675Y76191D03*
D229*
X290103Y76191D03*
D214*
X303544Y76191D03*
X228797Y76262D03*
D470*
X248675Y76262D03*
D275*
X290067Y76262D03*
D214*
X303544Y76262D03*
D238*
X228797Y76333D03*
D472*
X248675Y76333D03*
D495*
X290103Y76333D03*
D238*
X303544Y76333D03*
D214*
X228797Y76404D03*
D470*
X248675Y76404D03*
D149*
X290067Y76404D03*
D214*
X303544Y76404D03*
X228797Y76476D03*
D470*
X248675Y76476D03*
D155*
X290103Y76476D03*
D214*
X303544Y76476D03*
X228797Y76547D03*
D470*
X248675Y76547D03*
D496*
X290067Y76547D03*
D214*
X303544Y76547D03*
X228797Y76618D03*
D470*
X248675Y76618D03*
D170*
X290103Y76618D03*
D214*
X303544Y76618D03*
X228797Y76689D03*
D470*
X248675Y76689D03*
D180*
X290067Y76689D03*
D214*
X303544Y76689D03*
D238*
X228797Y76760D03*
D472*
X248675Y76760D03*
D261*
X290103Y76760D03*
D238*
X303544Y76760D03*
D214*
X228797Y76831D03*
D470*
X248675Y76831D03*
D259*
X290067Y76831D03*
D214*
X303544Y76831D03*
X228797Y76902D03*
D470*
X248675Y76902D03*
D200*
X290103Y76902D03*
D214*
X303544Y76902D03*
X228797Y76973D03*
D470*
X248675Y76973D03*
D200*
X290103Y76973D03*
D214*
X303544Y76973D03*
X228797Y77045D03*
D470*
X248675Y77045D03*
D185*
X290067Y77045D03*
D214*
X303544Y77045D03*
X228797Y77116D03*
D470*
X248675Y77116D03*
D182*
X290103Y77116D03*
D214*
X303544Y77116D03*
X228797Y77187D03*
D470*
X248675Y77187D03*
D182*
X290103Y77187D03*
D214*
X303544Y77187D03*
D238*
X228797Y77258D03*
D472*
X248675Y77258D03*
D475*
X290067Y77258D03*
D238*
X303544Y77258D03*
D214*
X228797Y77329D03*
D470*
X248675Y77329D03*
D177*
X290067Y77329D03*
D214*
X303544Y77329D03*
D210*
X228833Y77400D03*
D470*
X248675Y77400D03*
D172*
X290103Y77400D03*
D214*
X303544Y77400D03*
D210*
X228833Y77471D03*
D470*
X248675Y77471D03*
D172*
X290103Y77471D03*
D214*
X303544Y77471D03*
D210*
X228833Y77542D03*
D470*
X248675Y77542D03*
D172*
X290103Y77542D03*
D214*
X303544Y77542D03*
D210*
X228833Y77614D03*
D470*
X248675Y77614D03*
D240*
X290067Y77614D03*
D214*
X303544Y77614D03*
D280*
X228833Y77685D03*
D472*
X248675Y77685D03*
D235*
X290067Y77685D03*
D280*
X303509Y77685D03*
D210*
X228833Y77756D03*
D470*
X248675Y77756D03*
D240*
X290067Y77756D03*
D210*
X303509Y77756D03*
X228833Y77827D03*
D470*
X248675Y77827D03*
D240*
X290067Y77827D03*
D210*
X303509Y77827D03*
X228833Y77898D03*
D470*
X248675Y77898D03*
D240*
X290067Y77898D03*
D210*
X303509Y77898D03*
X228833Y77969D03*
D470*
X248675Y77969D03*
D240*
X290067Y77969D03*
D210*
X303509Y77969D03*
X228833Y78040D03*
D470*
X248675Y78040D03*
D240*
X290067Y78040D03*
D210*
X303509Y78040D03*
D280*
X228833Y78111D03*
D472*
X248675Y78111D03*
D235*
X290067Y78111D03*
D280*
X303509Y78111D03*
D210*
X228833Y78182D03*
D470*
X248675Y78182D03*
D240*
X290067Y78182D03*
D210*
X303509Y78182D03*
X228833Y78254D03*
D470*
X248675Y78254D03*
D240*
X290067Y78254D03*
D210*
X303509Y78254D03*
D214*
X228868Y78325D03*
D470*
X248675Y78325D03*
D240*
X290067Y78325D03*
D210*
X303509Y78325D03*
X228904Y78396D03*
D470*
X248675Y78396D03*
D240*
X290067Y78396D03*
D210*
X303509Y78396D03*
X228904Y78467D03*
D470*
X248675Y78467D03*
D240*
X290067Y78467D03*
D210*
X303509Y78467D03*
D280*
X228904Y78538D03*
D472*
X248675Y78538D03*
D235*
X290067Y78538D03*
D497*
X303473Y78538D03*
D210*
X228904Y78609D03*
D470*
X248675Y78609D03*
D240*
X290067Y78609D03*
D207*
X303473Y78609D03*
D210*
X228904Y78680D03*
D470*
X248675Y78680D03*
D172*
X290103Y78680D03*
D207*
X303473Y78680D03*
D210*
X228904Y78751D03*
D470*
X248675Y78751D03*
D172*
X290103Y78751D03*
D207*
X303473Y78751D03*
D210*
X228904Y78823D03*
D470*
X248675Y78823D03*
D172*
X290103Y78823D03*
D210*
X303438Y78823D03*
X228904Y78894D03*
D470*
X248675Y78894D03*
D177*
X290067Y78894D03*
D210*
X303438Y78894D03*
D151*
X228940Y78965D03*
D470*
X248675Y78965D03*
D177*
X290067Y78965D03*
D210*
X303438Y78965D03*
D498*
X228940Y79036D03*
D472*
X248675Y79036D03*
D475*
X290067Y79036D03*
D497*
X303402Y79036D03*
D151*
X228940Y79107D03*
D470*
X248675Y79107D03*
D182*
X290103Y79107D03*
D207*
X303402Y79107D03*
D151*
X228940Y79178D03*
D470*
X248675Y79178D03*
D185*
X290067Y79178D03*
D207*
X303402Y79178D03*
D151*
X228940Y79249D03*
D470*
X248675Y79249D03*
D185*
X290067Y79249D03*
D207*
X303402Y79249D03*
D151*
X228940Y79320D03*
D470*
X248675Y79320D03*
D200*
X290103Y79320D03*
D207*
X303402Y79320D03*
D228*
X228975Y79392D03*
D470*
X248675Y79392D03*
D259*
X290067Y79392D03*
D207*
X303402Y79392D03*
D393*
X228975Y79463D03*
D472*
X248675Y79463D03*
D403*
X290067Y79463D03*
D292*
X303367Y79463D03*
D228*
X228975Y79534D03*
D470*
X248675Y79534D03*
D499*
X290103Y79534D03*
D204*
X303367Y79534D03*
D228*
X228975Y79605D03*
D470*
X248675Y79605D03*
D180*
X290067Y79605D03*
D204*
X303367Y79605D03*
D228*
X228975Y79676D03*
D470*
X248675Y79676D03*
D170*
X290103Y79676D03*
D204*
X303367Y79676D03*
D228*
X229046Y79747D03*
D470*
X248675Y79747D03*
D496*
X290067Y79747D03*
D204*
X303367Y79747D03*
D228*
X229046Y79818D03*
D470*
X248675Y79818D03*
D155*
X290103Y79818D03*
D224*
X303331Y79818D03*
D393*
X229046Y79889D03*
D472*
X248675Y79889D03*
D274*
X290067Y79889D03*
D393*
X303295Y79889D03*
D228*
X229046Y79960D03*
D470*
X248675Y79960D03*
D231*
X290103Y79960D03*
D228*
X303295Y79960D03*
D224*
X229082Y80032D03*
D470*
X248675Y80032D03*
D275*
X290067Y80032D03*
D228*
X303295Y80032D03*
D224*
X229082Y80103D03*
D470*
X248675Y80103D03*
D227*
X290067Y80103D03*
D224*
X303260Y80103D03*
X229082Y80174D03*
D470*
X248675Y80174D03*
D276*
X290103Y80174D03*
D224*
X303260Y80174D03*
X229082Y80245D03*
D470*
X248675Y80245D03*
D278*
X290067Y80245D03*
D224*
X303260Y80245D03*
D196*
X229117Y80316D03*
D472*
X248675Y80316D03*
D500*
X290067Y80316D03*
D501*
X303260Y80316D03*
D224*
X229153Y80387D03*
D470*
X248675Y80387D03*
D215*
X290103Y80387D03*
D226*
X303224Y80387D03*
D224*
X229153Y80458D03*
D470*
X248675Y80458D03*
D502*
X290103Y80458D03*
D226*
X303224Y80458D03*
D224*
X229153Y80529D03*
D470*
X248675Y80529D03*
D205*
X290103Y80529D03*
D224*
X303189Y80529D03*
D226*
X229188Y80601D03*
D470*
X248675Y80601D03*
D299*
X290067Y80601D03*
D224*
X303189Y80601D03*
D226*
X229188Y80672D03*
D470*
X248675Y80672D03*
D202*
X290067Y80672D03*
D226*
X303153Y80672D03*
X229188Y80743D03*
D470*
X248675Y80743D03*
D310*
X290067Y80743D03*
D226*
X303153Y80743D03*
D503*
X229224Y80814D03*
D344*
X248640Y80814D03*
D493*
X290067Y80814D03*
D196*
X303153Y80814D03*
D504*
X229224Y80885D03*
D186*
X248640Y80885D03*
D505*
X290103Y80885D03*
D191*
X303118Y80885D03*
D226*
X229260Y80956D03*
D186*
X248640Y80956D03*
D332*
X290103Y80956D03*
D191*
X303118Y80956D03*
D226*
X229260Y81027D03*
D186*
X248640Y81027D03*
D340*
X290067Y81027D03*
D226*
X303082Y81027D03*
D191*
X229295Y81098D03*
D186*
X248640Y81098D03*
D351*
X290067Y81098D03*
D191*
X303047Y81098D03*
X229295Y81170D03*
D186*
X248640Y81170D03*
D506*
X290103Y81170D03*
D191*
X303047Y81170D03*
D221*
X229295Y81241D03*
D344*
X248640Y81241D03*
D507*
X290067Y81241D03*
D221*
X303047Y81241D03*
D216*
X229331Y81312D03*
D186*
X248640Y81312D03*
D378*
X290067Y81312D03*
D213*
X303011Y81312D03*
D191*
X229366Y81383D03*
D186*
X248640Y81383D03*
D389*
X290103Y81383D03*
D213*
X303011Y81383D03*
D216*
X229402Y81454D03*
D186*
X248640Y81454D03*
D508*
X290067Y81454D03*
D191*
X302975Y81454D03*
D216*
X229402Y81525D03*
D186*
X248640Y81525D03*
D450*
X290067Y81525D03*
D216*
X302940Y81525D03*
X229402Y81596D03*
D186*
X248640Y81596D03*
D509*
X290103Y81596D03*
D216*
X302940Y81596D03*
D344*
X229437Y81667D03*
X248640Y81667D03*
D510*
X290067Y81667D03*
D401*
X302940Y81667D03*
D216*
X229473Y81738D03*
D186*
X248640Y81738D03*
D476*
X290103Y81738D03*
D186*
X302904Y81738D03*
D216*
X229473Y81810D03*
D186*
X248640Y81810D03*
D216*
X302869Y81810D03*
D186*
X229508Y81881D03*
X248640Y81881D03*
X302833Y81881D03*
X229508Y81952D03*
X248640Y81952D03*
X302833Y81952D03*
D356*
X229544Y82023D03*
D186*
X248640Y82023D03*
X302833Y82023D03*
D344*
X229580Y82094D03*
X248640Y82094D03*
D263*
X302798Y82094D03*
D186*
X229580Y82165D03*
X248640Y82165D03*
X302762Y82165D03*
D206*
X229615Y82236D03*
D186*
X248640Y82236D03*
D356*
X302727Y82236D03*
D206*
X229615Y82307D03*
D186*
X248640Y82307D03*
D356*
X302727Y82307D03*
D203*
X229651Y82379D03*
D186*
X248640Y82379D03*
D356*
X302727Y82379D03*
D206*
X229686Y82450D03*
D186*
X248640Y82450D03*
D203*
X302691Y82450D03*
X229722Y82521D03*
D186*
X248640Y82521D03*
D206*
X302655Y82521D03*
D398*
X229722Y82592D03*
D344*
X248640Y82592D03*
D398*
X302620Y82592D03*
D199*
X229757Y82663D03*
D186*
X248640Y82663D03*
D203*
X302620Y82663D03*
X229793Y82734D03*
D186*
X248640Y82734D03*
D199*
X302584Y82734D03*
D203*
X229793Y82805D03*
D186*
X248640Y82805D03*
D203*
X302549Y82805D03*
D199*
X229829Y82876D03*
D186*
X248640Y82876D03*
D199*
X302513Y82876D03*
X229829Y82948D03*
D186*
X248640Y82948D03*
D199*
X302513Y82948D03*
D392*
X229900Y83019D03*
D344*
X248640Y83019D03*
D194*
X302478Y83019D03*
D178*
X229935Y83090D03*
D186*
X248640Y83090D03*
D199*
X302442Y83090D03*
D178*
X229935Y83161D03*
D186*
X248640Y83161D03*
D178*
X302406Y83161D03*
D189*
X229971Y83232D03*
D186*
X248640Y83232D03*
D178*
X302406Y83232D03*
X230006Y83303D03*
D186*
X248640Y83303D03*
D178*
X302335Y83303D03*
D189*
X230042Y83374D03*
D186*
X248640Y83374D03*
D178*
X302335Y83374D03*
D397*
X230042Y83445D03*
D344*
X248640Y83445D03*
D397*
X302300Y83445D03*
D189*
X230113Y83516D03*
D186*
X248640Y83516D03*
D173*
X302264Y83516D03*
D189*
X230113Y83588D03*
D186*
X248640Y83588D03*
D189*
X302229Y83588D03*
D173*
X230149Y83659D03*
D186*
X248640Y83659D03*
D173*
X302193Y83659D03*
X230220Y83730D03*
D186*
X248640Y83730D03*
D173*
X302193Y83730D03*
X230220Y83801D03*
D186*
X248640Y83801D03*
D173*
X302122Y83801D03*
D511*
X230255Y83872D03*
D344*
X248640Y83872D03*
D406*
X302086Y83872D03*
D176*
X230255Y83943D03*
D186*
X248640Y83943D03*
D405*
X302086Y83943D03*
D176*
X230326Y84014D03*
D186*
X248640Y84014D03*
D405*
X302015Y84014D03*
D171*
X230362Y84085D03*
D186*
X248640Y84085D03*
D405*
X302015Y84085D03*
D171*
X230362Y84157D03*
D186*
X248640Y84157D03*
D171*
X301980Y84157D03*
X230433Y84228D03*
D186*
X248640Y84228D03*
D171*
X301909Y84228D03*
D174*
X230469Y84299D03*
D186*
X248640Y84299D03*
D171*
X301909Y84299D03*
D166*
X230469Y84370D03*
D344*
X248640Y84370D03*
D166*
X301873Y84370D03*
D512*
X230540Y84441D03*
D186*
X248640Y84441D03*
D174*
X301802Y84441D03*
D161*
X230575Y84512D03*
D186*
X248640Y84512D03*
D174*
X301802Y84512D03*
X230611Y84583D03*
D186*
X248640Y84583D03*
D161*
X301766Y84583D03*
X230646Y84654D03*
D186*
X248640Y84654D03*
D161*
X301695Y84654D03*
D156*
X230682Y84726D03*
D186*
X248640Y84726D03*
D161*
X301695Y84726D03*
D168*
X230718Y84797D03*
D344*
X248640Y84797D03*
D513*
X301660Y84797D03*
D156*
X230753Y84868D03*
D186*
X248640Y84868D03*
D156*
X301589Y84868D03*
D159*
X230789Y84939D03*
D186*
X248640Y84939D03*
D159*
X301553Y84939D03*
X230860Y85010D03*
D186*
X248640Y85010D03*
D156*
X301517Y85010D03*
D159*
X230860Y85081D03*
D186*
X248640Y85081D03*
D159*
X301482Y85081D03*
X230931Y85152D03*
D186*
X248640Y85152D03*
D163*
X301446Y85152D03*
D410*
X230966Y85223D03*
D344*
X248640Y85223D03*
D514*
X301375Y85223D03*
D291*
X231002Y85294D03*
D186*
X248640Y85294D03*
D291*
X301340Y85294D03*
X231073Y85366D03*
D186*
X248640Y85366D03*
D153*
X301304Y85366D03*
D291*
X231073Y85437D03*
D186*
X248640Y85437D03*
D291*
X301269Y85437D03*
D414*
X231144Y85508D03*
D186*
X248640Y85508D03*
D277*
X301233Y85508D03*
D515*
X231180Y85579D03*
D186*
X248640Y85579D03*
D277*
X301162Y85579D03*
D516*
X231215Y85650D03*
D344*
X248640Y85650D03*
D294*
X301126Y85650D03*
D279*
X231286Y85721D03*
D186*
X248640Y85721D03*
D279*
X301055Y85721D03*
D158*
X231322Y85792D03*
D186*
X248640Y85792D03*
D279*
X301055Y85792D03*
D158*
X231393Y85863D03*
D186*
X248640Y85863D03*
D517*
X301020Y85863D03*
D300*
X231429Y85935D03*
D186*
X248640Y85935D03*
D158*
X300949Y85935D03*
X231464Y86006D03*
D186*
X248640Y86006D03*
D300*
X300913Y86006D03*
X231500Y86077D03*
D186*
X248640Y86077D03*
D300*
X300842Y86077D03*
D518*
X231535Y86148D03*
D344*
X248640Y86148D03*
D518*
X300806Y86148D03*
D303*
X231607Y86219D03*
D186*
X248640Y86219D03*
D413*
X300735Y86219D03*
D305*
X231642Y86290D03*
D186*
X248640Y86290D03*
D284*
X300700Y86290D03*
D305*
X231713Y86361D03*
D186*
X248640Y86361D03*
D305*
X300628Y86361D03*
D286*
X231749Y86432D03*
D186*
X248640Y86432D03*
D286*
X300593Y86432D03*
X231820Y86504D03*
D186*
X248640Y86504D03*
D286*
X300522Y86504D03*
D519*
X231855Y86575D03*
D344*
X248640Y86575D03*
D519*
X300486Y86575D03*
D287*
X231927Y86646D03*
X300415Y86646D03*
D289*
X231962Y86717D03*
X300380Y86717D03*
D316*
X232069Y86788D03*
D289*
X300308Y86788D03*
D152*
X232104Y86859D03*
D316*
X300273Y86859D03*
D152*
X232175Y86930D03*
X300166Y86930D03*
D295*
X232211Y87001D03*
X300131Y87001D03*
D321*
X232282Y87072D03*
D520*
X300060Y87072D03*
D323*
X232318Y87144D03*
X300024Y87144D03*
X232389Y87215D03*
X299953Y87215D03*
D301*
X232460Y87286D03*
D326*
X299917Y87286D03*
D301*
X232531Y87357D03*
X299811Y87357D03*
D329*
X232602Y87428D03*
D521*
X299775Y87428D03*
D304*
X232638Y87499D03*
D522*
X299704Y87499D03*
D306*
X232744Y87570D03*
D335*
X299633Y87570D03*
D523*
X232780Y87641D03*
X299562Y87641D03*
X232851Y87713D03*
X299491Y87713D03*
D311*
X232922Y87784D03*
D524*
X299419Y87784D03*
D311*
X232993Y87855D03*
X299348Y87855D03*
D273*
X233100Y87926D03*
X299313Y87926D03*
D525*
X233136Y87997D03*
X299206Y87997D03*
D317*
X233242Y88068D03*
D525*
X299135Y88068D03*
D354*
X233278Y88139D03*
X299064Y88139D03*
D526*
X233385Y88210D03*
D354*
X298993Y88210D03*
D526*
X233456Y88282D03*
D322*
X298922Y88282D03*
D527*
X233527Y88353D03*
X298815Y88353D03*
D327*
X233633Y88424D03*
D324*
X298744Y88424D03*
D368*
X233669Y88495D03*
X298673Y88495D03*
D528*
X233776Y88566D03*
X298566Y88566D03*
D333*
X233882Y88637D03*
X298459Y88637D03*
D339*
X233953Y88708D03*
D337*
X298424Y88708D03*
D529*
X234060Y88779D03*
D530*
X298317Y88779D03*
D341*
X234167Y88850D03*
D379*
X298210Y88850D03*
D531*
X234238Y88922D03*
D390*
X298139Y88922D03*
D532*
X234345Y88993D03*
D533*
X298033Y88993D03*
D534*
X234451Y89064D03*
D421*
X297890Y89064D03*
D355*
X234558Y89135D03*
D535*
X297819Y89135D03*
D536*
X234629Y89206D03*
X297713Y89206D03*
D537*
X234771Y89277D03*
X297570Y89277D03*
D538*
X234878Y89348D03*
D539*
X297499Y89348D03*
D540*
X234985Y89419D03*
D372*
X297357Y89419D03*
D541*
X235127Y89491D03*
D542*
X297250Y89491D03*
D543*
X235269Y89562D03*
D544*
X297108Y89562D03*
D545*
X235411Y89633D03*
D546*
X297001Y89633D03*
D547*
X235518Y89704D03*
D548*
X296824Y89704D03*
D549*
X235660Y89775D03*
X296681Y89775D03*
D550*
X235838Y89846D03*
D551*
X296504Y89846D03*
D552*
X236016Y89917D03*
D553*
X296361Y89917D03*
D554*
X236158Y89988D03*
X296183Y89988D03*
D555*
X236407Y90060D03*
D556*
X295970Y90060D03*
D557*
X236656Y90131D03*
D558*
X295721Y90131D03*
D559*
X236976Y90202D03*
D560*
X295401Y90202D03*
D561*
X266206Y90273D03*
D115*
X266171Y90344D03*
D114*
X266171Y90415D03*
D113*
X266171Y90486D03*
D562*
X266171Y90557D03*
D110*
X266171Y90628D03*
D563*
X266206Y90700D03*
D564*
X266171Y90771D03*
D108*
X266171Y90842D03*
D107*
X266171Y90913D03*
D565*
X266171Y90984D03*
D566*
X266171Y91055D03*
D567*
X266171Y91126D03*
D102*
X266171Y91197D03*
D101*
X266171Y91269D03*
D568*
X266206Y91340D03*
D569*
X266206Y91411D03*
D570*
X266206Y91482D03*
D571*
X266206Y91553D03*
D572*
X266206Y91624D03*
D96*
X266171Y91695D03*
D95*
X266171Y91766D03*
D94*
X266171Y91838D03*
D573*
X266171Y91909D03*
D574*
X266206Y91980D03*
D575*
X266206Y92051D03*
D576*
X266206Y92122D03*
D577*
X266206Y92193D03*
D87*
X266171Y92264D03*
D578*
X266171Y92335D03*
D579*
X266171Y92406D03*
D580*
X266171Y92478D03*
D581*
X266171Y92549D03*
D83*
X266171Y92620D03*
D82*
X266171Y92691D03*
D582*
X266206Y92762D03*
D583*
X266206Y92833D03*
D584*
X266171Y92904D03*
D585*
X266171Y92975D03*
D77*
X266171Y93047D03*
D76*
X266171Y93118D03*
D586*
X266206Y93189D03*
D587*
X266171Y93260D03*
D73*
X266171Y93331D03*
D588*
X266171Y93402D03*
D589*
X266171Y93473D03*
D590*
X266171Y93544D03*
D69*
X266171Y93616D03*
D591*
X266171Y93687D03*
D592*
X266171Y93758D03*
D593*
X266171Y93829D03*
D594*
X266171Y93900D03*
D64*
X266171Y93971D03*
D595*
X266171Y94042D03*
D596*
X266171Y94113D03*
D597*
X266206Y94184D03*
D598*
X266171Y94256D03*
D599*
X266206Y94327D03*
D600*
X266171Y94398D03*
D601*
X266171Y94469D03*
D602*
X266171Y94540D03*
D603*
X266171Y94611D03*
D604*
X266206Y94682D03*
D605*
X266171Y94753D03*
D606*
X266171Y94825D03*
D607*
X266206Y94896D03*
D50*
X266171Y94967D03*
D608*
X266171Y95038D03*
D609*
X266171Y95109D03*
D610*
X266171Y95180D03*
D611*
X266171Y95251D03*
D612*
X266206Y95322D03*
D613*
X266206Y95394D03*
D614*
X266206Y95465D03*
D615*
X266206Y95536D03*
D616*
X266171Y95607D03*
D617*
X266171Y95678D03*
D618*
X266171Y95749D03*
D619*
X266171Y95820D03*
D620*
X266206Y95891D03*
D621*
X266171Y95962D03*
D622*
X266171Y96034D03*
D623*
X266171Y96105D03*
D624*
X266171Y96176D03*
D625*
X266171Y96247D03*
D626*
X266206Y96318D03*
D627*
X266171Y96389D03*
D628*
X266171Y96460D03*
D629*
X266171Y96531D03*
D630*
X266206Y96603D03*
D631*
X266171Y96674D03*
D632*
X266171Y96745D03*
D633*
X266171Y96816D03*
D634*
X266206Y96887D03*
D635*
X266206Y96958D03*
D636*
X266171Y97029D03*
D637*
X266206Y97100D03*
D638*
X266171Y97172D03*
D639*
X266206Y97243D03*
D640*
X266171Y97314D03*
D641*
X266206Y97385D03*
D642*
X266171Y97456D03*
M02*
