G04 EAGLE Gerber RS-274X export*
G75*
%MOMM*%
%FSLAX34Y34*%
%LPD*%
%INBottom Silkscreen*%
%IPPOS*%
%AMOC8*
5,1,8,0,0,1.08239X$1,22.5*%
G01*
%ADD10C,0.228600*%
%ADD11R,6.016753X0.009144*%
%ADD12R,6.208778X0.009144*%
%ADD13R,6.345934X0.009144*%
%ADD14R,6.464809X0.009144*%
%ADD15R,6.565391X0.009147*%
%ADD16R,6.656834X0.009144*%
%ADD17R,6.748272X0.009144*%
%ADD18R,6.821422X0.009144*%
%ADD19R,6.894578X0.009144*%
%ADD20R,6.958584X0.009144*%
%ADD21R,7.022591X0.009144*%
%ADD22R,7.086600X0.009144*%
%ADD23R,7.150609X0.009144*%
%ADD24R,7.205472X0.009144*%
%ADD25R,7.260334X0.009144*%
%ADD26R,7.306056X0.009144*%
%ADD27R,7.351778X0.009147*%
%ADD28R,7.406641X0.009144*%
%ADD29R,7.461503X0.009144*%
%ADD30R,7.498078X0.009144*%
%ADD31R,7.552944X0.009144*%
%ADD32R,7.589522X0.009144*%
%ADD33R,7.626097X0.009144*%
%ADD34R,7.680959X0.009144*%
%ADD35R,7.717534X0.009144*%
%ADD36R,7.754109X0.009144*%
%ADD37R,7.790691X0.009144*%
%ADD38R,7.827266X0.009144*%
%ADD39R,7.863841X0.009144*%
%ADD40R,7.900416X0.009147*%
%ADD41R,7.936991X0.009144*%
%ADD42R,7.973566X0.009144*%
%ADD43R,8.010144X0.009144*%
%ADD44R,8.046722X0.009144*%
%ADD45R,8.074153X0.009144*%
%ADD46R,8.101584X0.009144*%
%ADD47R,8.138159X0.009144*%
%ADD48R,8.174734X0.009144*%
%ADD49R,8.202166X0.009144*%
%ADD50R,8.229600X0.009144*%
%ADD51R,8.266178X0.009144*%
%ADD52R,8.284466X0.009147*%
%ADD53R,8.321041X0.009144*%
%ADD54R,8.348472X0.009144*%
%ADD55R,8.375903X0.009144*%
%ADD56R,8.403334X0.009144*%
%ADD57R,8.430766X0.009144*%
%ADD58R,8.458200X0.009144*%
%ADD59R,8.485634X0.009144*%
%ADD60R,8.503922X0.009144*%
%ADD61R,8.540497X0.009144*%
%ADD62R,8.558784X0.009144*%
%ADD63R,8.586216X0.009144*%
%ADD64R,8.613647X0.009144*%
%ADD65R,8.631934X0.009147*%
%ADD66R,8.659366X0.009144*%
%ADD67R,8.686800X0.009144*%
%ADD68R,8.705091X0.009144*%
%ADD69R,8.723378X0.009144*%
%ADD70R,8.750809X0.009144*%
%ADD71R,8.778241X0.009144*%
%ADD72R,8.796528X0.009144*%
%ADD73R,8.814816X0.009144*%
%ADD74R,8.842247X0.009144*%
%ADD75R,8.869678X0.009144*%
%ADD76R,8.887966X0.009144*%
%ADD77R,8.906256X0.009147*%
%ADD78R,8.924544X0.009144*%
%ADD79R,8.942834X0.009144*%
%ADD80R,8.961122X0.009144*%
%ADD81R,8.988553X0.009144*%
%ADD82R,9.015984X0.009144*%
%ADD83R,9.034272X0.009144*%
%ADD84R,9.052559X0.009144*%
%ADD85R,9.070847X0.009144*%
%ADD86R,9.089134X0.009144*%
%ADD87R,9.107422X0.009144*%
%ADD88R,9.125709X0.009144*%
%ADD89R,9.144000X0.009144*%
%ADD90R,9.162291X0.009147*%
%ADD91R,9.180578X0.009144*%
%ADD92R,9.198866X0.009144*%
%ADD93R,9.217153X0.009144*%
%ADD94R,9.235441X0.009144*%
%ADD95R,9.253728X0.009144*%
%ADD96R,9.272016X0.009144*%
%ADD97R,9.290303X0.009144*%
%ADD98R,9.308591X0.009144*%
%ADD99R,9.326878X0.009144*%
%ADD100R,9.336022X0.009144*%
%ADD101R,9.354313X0.009144*%
%ADD102R,9.363456X0.009147*%
%ADD103R,9.381744X0.009144*%
%ADD104R,9.400034X0.009144*%
%ADD105R,9.418322X0.009144*%
%ADD106R,9.436609X0.009144*%
%ADD107R,9.454897X0.009144*%
%ADD108R,9.464041X0.009144*%
%ADD109R,9.473184X0.009144*%
%ADD110R,9.491472X0.009144*%
%ADD111R,9.509759X0.009144*%
%ADD112R,9.528047X0.009144*%
%ADD113R,9.546334X0.009144*%
%ADD114R,9.555478X0.009144*%
%ADD115R,9.564622X0.009147*%
%ADD116R,9.582909X0.009144*%
%ADD117R,9.601200X0.009144*%
%ADD118R,9.610344X0.009144*%
%ADD119R,9.619491X0.009144*%
%ADD120R,9.637778X0.009144*%
%ADD121R,9.656066X0.009144*%
%ADD122R,9.665209X0.009144*%
%ADD123R,9.674353X0.009144*%
%ADD124R,9.692641X0.009144*%
%ADD125R,9.710928X0.009144*%
%ADD126R,9.720072X0.009144*%
%ADD127R,9.729216X0.009147*%
%ADD128R,9.747503X0.009144*%
%ADD129R,9.756647X0.009144*%
%ADD130R,9.765791X0.009144*%
%ADD131R,9.784078X0.009144*%
%ADD132R,9.793222X0.009144*%
%ADD133R,9.802366X0.009144*%
%ADD134R,9.820656X0.009144*%
%ADD135R,9.829800X0.009144*%
%ADD136R,9.838944X0.009144*%
%ADD137R,9.857234X0.009144*%
%ADD138R,9.866378X0.009144*%
%ADD139R,9.875522X0.009144*%
%ADD140R,9.893809X0.009147*%
%ADD141R,9.893809X0.009144*%
%ADD142R,9.912097X0.009144*%
%ADD143R,9.921241X0.009144*%
%ADD144R,9.930384X0.009144*%
%ADD145R,9.948672X0.009144*%
%ADD146R,0.822959X0.009144*%
%ADD147R,1.216153X0.009144*%
%ADD148R,1.051559X0.009144*%
%ADD149R,1.335025X0.009144*%
%ADD150R,1.225297X0.009144*%
%ADD151R,0.530353X0.009144*%
%ADD152R,0.832103X0.009144*%
%ADD153R,1.207009X0.009144*%
%ADD154R,0.987553X0.009144*%
%ADD155R,1.261872X0.009144*%
%ADD156R,0.548641X0.009144*%
%ADD157R,1.197866X0.009144*%
%ADD158R,0.960122X0.009144*%
%ADD159R,0.566928X0.009144*%
%ADD160R,0.841247X0.009144*%
%ADD161R,1.188722X0.009144*%
%ADD162R,0.941831X0.009144*%
%ADD163R,1.188719X0.009144*%
%ADD164R,0.576072X0.009144*%
%ADD165R,0.850391X0.009144*%
%ADD166R,1.179575X0.009144*%
%ADD167R,0.923544X0.009144*%
%ADD168R,1.161288X0.009144*%
%ADD169R,0.594359X0.009144*%
%ADD170R,1.170431X0.009144*%
%ADD171R,0.914400X0.009144*%
%ADD172R,1.143000X0.009144*%
%ADD173R,0.603503X0.009144*%
%ADD174R,0.859534X0.009147*%
%ADD175R,1.161288X0.009147*%
%ADD176R,0.905256X0.009147*%
%ADD177R,1.124713X0.009147*%
%ADD178R,1.170431X0.009147*%
%ADD179R,0.621791X0.009147*%
%ADD180R,0.859534X0.009144*%
%ADD181R,0.896113X0.009144*%
%ADD182R,1.106425X0.009144*%
%ADD183R,0.630934X0.009144*%
%ADD184R,0.868678X0.009144*%
%ADD185R,1.152144X0.009144*%
%ADD186R,0.886969X0.009144*%
%ADD187R,1.088134X0.009144*%
%ADD188R,0.649222X0.009144*%
%ADD189R,1.078991X0.009144*%
%ADD190R,0.658366X0.009144*%
%ADD191R,0.877822X0.009144*%
%ADD192R,1.133856X0.009144*%
%ADD193R,0.886966X0.009144*%
%ADD194R,1.069847X0.009144*%
%ADD195R,0.676656X0.009144*%
%ADD196R,1.124713X0.009144*%
%ADD197R,1.060703X0.009144*%
%ADD198R,0.704091X0.009144*%
%ADD199R,1.115569X0.009144*%
%ADD200R,0.713234X0.009144*%
%ADD201R,1.042416X0.009144*%
%ADD202R,0.731522X0.009144*%
%ADD203R,1.097281X0.009144*%
%ADD204R,1.033272X0.009144*%
%ADD205R,0.740666X0.009144*%
%ADD206R,1.088137X0.009144*%
%ADD207R,0.758953X0.009144*%
%ADD208R,0.905256X0.009144*%
%ADD209R,1.078994X0.009144*%
%ADD210R,1.024128X0.009144*%
%ADD211R,0.768097X0.009144*%
%ADD212R,1.069850X0.009144*%
%ADD213R,1.014984X0.009144*%
%ADD214R,0.786384X0.009144*%
%ADD215R,0.795528X0.009144*%
%ADD216R,0.914400X0.009147*%
%ADD217R,1.051559X0.009147*%
%ADD218R,0.923544X0.009147*%
%ADD219R,1.005841X0.009147*%
%ADD220R,1.060703X0.009147*%
%ADD221R,0.813816X0.009147*%
%ADD222R,1.005841X0.009144*%
%ADD223R,0.932688X0.009144*%
%ADD224R,0.996697X0.009144*%
%ADD225R,0.950978X0.009144*%
%ADD226R,0.877825X0.009144*%
%ADD227R,0.950975X0.009144*%
%ADD228R,0.969266X0.009144*%
%ADD229R,0.978409X0.009144*%
%ADD230R,0.978406X0.009144*%
%ADD231R,0.960119X0.009144*%
%ADD232R,0.969263X0.009144*%
%ADD233R,0.969263X0.009147*%
%ADD234R,0.950975X0.009147*%
%ADD235R,0.978406X0.009147*%
%ADD236R,0.960119X0.009147*%
%ADD237R,0.987550X0.009144*%
%ADD238R,1.005837X0.009144*%
%ADD239R,1.014981X0.009144*%
%ADD240R,1.033275X0.009144*%
%ADD241R,1.042419X0.009144*%
%ADD242R,1.051562X0.009144*%
%ADD243R,0.996694X0.009144*%
%ADD244R,0.868681X0.009144*%
%ADD245R,0.859538X0.009144*%
%ADD246R,0.850394X0.009144*%
%ADD247R,1.097278X0.009144*%
%ADD248R,1.014984X0.009147*%
%ADD249R,0.841250X0.009147*%
%ADD250R,1.106422X0.009147*%
%ADD251R,0.841247X0.009147*%
%ADD252R,1.152144X0.009147*%
%ADD253R,1.124709X0.009144*%
%ADD254R,1.133853X0.009144*%
%ADD255R,1.426466X0.009144*%
%ADD256R,0.813816X0.009144*%
%ADD257R,0.804672X0.009144*%
%ADD258R,0.777241X0.009144*%
%ADD259R,1.243584X0.009144*%
%ADD260R,1.252728X0.009144*%
%ADD261R,1.271016X0.009144*%
%ADD262R,1.197863X0.009144*%
%ADD263R,1.289303X0.009144*%
%ADD264R,0.749809X0.009144*%
%ADD265R,1.207006X0.009144*%
%ADD266R,1.298447X0.009144*%
%ADD267R,0.740666X0.009147*%
%ADD268R,1.216150X0.009147*%
%ADD269R,1.426466X0.009147*%
%ADD270R,1.307591X0.009147*%
%ADD271R,1.225294X0.009144*%
%ADD272R,0.731519X0.009144*%
%ADD273R,1.316734X0.009144*%
%ADD274R,0.722375X0.009144*%
%ADD275R,1.234438X0.009144*%
%ADD276R,0.713231X0.009144*%
%ADD277R,1.344169X0.009144*%
%ADD278R,0.704088X0.009144*%
%ADD279R,1.353313X0.009144*%
%ADD280R,0.694944X0.009144*%
%ADD281R,1.371600X0.009144*%
%ADD282R,0.685800X0.009144*%
%ADD283R,1.280159X0.009144*%
%ADD284R,1.380744X0.009144*%
%ADD285R,1.389888X0.009144*%
%ADD286R,0.667513X0.009144*%
%ADD287R,1.408175X0.009144*%
%ADD288R,0.658369X0.009144*%
%ADD289R,1.307591X0.009144*%
%ADD290R,1.417319X0.009144*%
%ADD291R,0.649225X0.009144*%
%ADD292R,1.426462X0.009144*%
%ADD293R,0.640081X0.009144*%
%ADD294R,1.325878X0.009144*%
%ADD295R,1.444750X0.009144*%
%ADD296R,0.630938X0.009144*%
%ADD297R,1.335022X0.009144*%
%ADD298R,1.463037X0.009144*%
%ADD299R,1.088134X0.009147*%
%ADD300R,0.630938X0.009147*%
%ADD301R,1.344166X0.009147*%
%ADD302R,1.472181X0.009147*%
%ADD303R,0.621794X0.009144*%
%ADD304R,1.353309X0.009144*%
%ADD305R,0.621791X0.009144*%
%ADD306R,1.481328X0.009144*%
%ADD307R,0.612650X0.009144*%
%ADD308R,1.362456X0.009144*%
%ADD309R,0.612647X0.009144*%
%ADD310R,1.490472X0.009144*%
%ADD311R,1.508759X0.009144*%
%ADD312R,1.517903X0.009144*%
%ADD313R,0.585216X0.009144*%
%ADD314R,1.399031X0.009144*%
%ADD315R,1.527047X0.009144*%
%ADD316R,1.536191X0.009144*%
%ADD317R,1.554481X0.009144*%
%ADD318R,1.106422X0.009144*%
%ADD319R,0.557784X0.009144*%
%ADD320R,1.563625X0.009144*%
%ADD321R,1.435606X0.009144*%
%ADD322R,1.572769X0.009144*%
%ADD323R,0.539497X0.009144*%
%ADD324R,1.581913X0.009144*%
%ADD325R,1.453894X0.009144*%
%ADD326R,1.600200X0.009144*%
%ADD327R,1.115569X0.009147*%
%ADD328R,0.521209X0.009147*%
%ADD329R,1.463037X0.009147*%
%ADD330R,0.530353X0.009147*%
%ADD331R,1.618491X0.009147*%
%ADD332R,0.512066X0.009144*%
%ADD333R,1.472181X0.009144*%
%ADD334R,0.521209X0.009144*%
%ADD335R,1.627634X0.009144*%
%ADD336R,0.502922X0.009144*%
%ADD337R,1.636778X0.009144*%
%ADD338R,0.493775X0.009144*%
%ADD339R,0.502919X0.009144*%
%ADD340R,1.645922X0.009144*%
%ADD341R,1.499616X0.009144*%
%ADD342R,1.664209X0.009144*%
%ADD343R,0.484631X0.009144*%
%ADD344R,1.673353X0.009144*%
%ADD345R,0.475488X0.009144*%
%ADD346R,1.682497X0.009144*%
%ADD347R,0.466344X0.009144*%
%ADD348R,1.691641X0.009144*%
%ADD349R,0.457200X0.009144*%
%ADD350R,1.545334X0.009144*%
%ADD351R,1.700784X0.009144*%
%ADD352R,0.448056X0.009144*%
%ADD353R,1.554478X0.009144*%
%ADD354R,1.709928X0.009144*%
%ADD355R,0.438913X0.009144*%
%ADD356R,1.563622X0.009144*%
%ADD357R,1.728216X0.009144*%
%ADD358R,0.429769X0.009144*%
%ADD359R,1.737359X0.009144*%
%ADD360R,1.133856X0.009147*%
%ADD361R,1.143000X0.009147*%
%ADD362R,1.316738X0.009147*%
%ADD363R,1.115566X0.009144*%
%ADD364R,0.685800X0.009147*%
%ADD365R,0.896109X0.009144*%
%ADD366R,0.896109X0.009147*%
%ADD367R,0.877822X0.009147*%
%ADD368R,1.078991X0.009147*%
%ADD369R,2.825497X0.009144*%
%ADD370R,1.216153X0.009147*%
%ADD371R,0.868678X0.009147*%
%ADD372R,2.825497X0.009147*%
%ADD373R,1.225297X0.009147*%
%ADD374R,1.234441X0.009144*%
%ADD375R,1.234441X0.009147*%
%ADD376R,0.886966X0.009147*%
%ADD377R,0.932688X0.009147*%
%ADD378R,0.987553X0.009147*%
%ADD379R,1.106425X0.009147*%
%ADD380R,1.042416X0.009147*%
%ADD381R,1.472184X0.009144*%
%ADD382R,1.591056X0.009147*%
%ADD383R,1.325878X0.009147*%
%ADD384R,1.426462X0.009147*%
%ADD385R,10.643616X0.009144*%
%ADD386R,10.643616X0.009147*%
%ADD387R,10.625328X0.009144*%
%ADD388R,1.033272X0.009147*%
%ADD389R,0.073153X0.009144*%
%ADD390R,0.109728X0.009144*%
%ADD391R,0.128016X0.009144*%
%ADD392R,0.146303X0.009144*%
%ADD393R,0.173738X0.009144*%
%ADD394R,0.164591X0.009144*%
%ADD395R,0.192025X0.009144*%
%ADD396R,0.182878X0.009144*%
%ADD397R,0.201169X0.009144*%
%ADD398R,0.201166X0.009144*%
%ADD399R,0.219456X0.009144*%
%ADD400R,0.237744X0.009147*%
%ADD401R,0.228600X0.009147*%
%ADD402R,0.246888X0.009144*%
%ADD403R,0.256034X0.009144*%
%ADD404R,0.256031X0.009144*%
%ADD405R,0.265178X0.009144*%
%ADD406R,0.265175X0.009144*%
%ADD407R,0.274322X0.009144*%
%ADD408R,0.274319X0.009144*%
%ADD409R,0.283466X0.009144*%
%ADD410R,0.283463X0.009144*%
%ADD411R,0.292609X0.009144*%
%ADD412R,0.292606X0.009144*%
%ADD413R,0.301753X0.009144*%
%ADD414R,0.228600X0.009144*%
%ADD415R,0.310897X0.009144*%
%ADD416R,0.320041X0.009144*%
%ADD417R,0.347472X0.009144*%
%ADD418R,0.384047X0.009144*%
%ADD419R,0.329184X0.009144*%
%ADD420R,0.320038X0.009144*%
%ADD421R,0.420622X0.009144*%
%ADD422R,0.329181X0.009144*%
%ADD423R,0.493778X0.009144*%
%ADD424R,0.329184X0.009147*%
%ADD425R,0.640078X0.009144*%
%ADD426R,0.749809X0.009147*%
%ADD427R,0.310894X0.009144*%
%ADD428R,0.301750X0.009144*%
%ADD429R,0.237744X0.009144*%
%ADD430R,0.219456X0.009147*%
%ADD431R,0.210313X0.009147*%
%ADD432R,2.596894X0.009144*%
%ADD433R,0.173734X0.009144*%
%ADD434R,0.182881X0.009144*%
%ADD435R,0.155447X0.009144*%
%ADD436R,0.164594X0.009144*%
%ADD437R,0.137159X0.009144*%
%ADD438R,0.146306X0.009144*%
%ADD439R,0.118872X0.009144*%
%ADD440R,0.128019X0.009144*%
%ADD441R,0.100584X0.009144*%
%ADD442R,0.064009X0.009144*%
%ADD443R,0.064006X0.009144*%
%ADD444R,2.596894X0.009147*%
%ADD445R,0.731522X0.009147*%
%ADD446R,0.475488X0.009147*%
%ADD447R,0.365759X0.009147*%
%ADD448R,0.402334X0.009144*%
%ADD449R,0.411478X0.009144*%
%ADD450R,0.438909X0.009144*%
%ADD451R,0.365759X0.009144*%
%ADD452R,0.475491X0.009144*%
%ADD453R,0.667509X0.009144*%
%ADD454R,0.694944X0.009147*%
%ADD455R,0.905253X0.009144*%
%ADD456R,0.923547X0.009144*%
%ADD457R,0.923547X0.009147*%
%ADD458R,0.932691X0.009144*%
%ADD459R,0.932691X0.009147*%
%ADD460R,1.069850X0.009147*%
%ADD461R,0.786384X0.009147*%
%ADD462R,1.069847X0.009147*%
%ADD463R,0.722378X0.009144*%
%ADD464R,1.078994X0.009147*%
%ADD465R,0.566928X0.009147*%
%ADD466R,0.429766X0.009144*%
%ADD467R,1.124709X0.009147*%
%ADD468R,1.179578X0.009144*%
%ADD469R,1.188722X0.009147*%
%ADD470R,1.197866X0.009147*%
%ADD471R,1.216150X0.009144*%
%ADD472R,1.234438X0.009147*%
%ADD473R,1.243581X0.009144*%
%ADD474R,1.289303X0.009147*%
%ADD475R,1.298450X0.009144*%
%ADD476R,1.307594X0.009144*%
%ADD477R,1.316738X0.009144*%
%ADD478R,1.325881X0.009144*%
%ADD479R,1.344166X0.009144*%
%ADD480R,1.353309X0.009147*%
%ADD481R,1.362453X0.009144*%
%ADD482R,1.435609X0.009144*%
%ADD483R,1.444753X0.009144*%
%ADD484R,1.453897X0.009147*%
%ADD485R,1.463041X0.009144*%
%ADD486R,1.453897X0.009144*%
%ADD487R,1.499619X0.009144*%
%ADD488R,1.508763X0.009144*%
%ADD489R,1.517906X0.009144*%
%ADD490R,1.527050X0.009144*%
%ADD491R,1.581913X0.009147*%
%ADD492R,1.572766X0.009147*%
%ADD493R,1.591056X0.009144*%
%ADD494R,1.609344X0.009144*%
%ADD495R,1.618488X0.009144*%
%ADD496R,1.636775X0.009144*%
%ADD497R,1.655063X0.009144*%
%ADD498R,1.728219X0.009144*%
%ADD499R,1.755650X0.009144*%
%ADD500R,1.773938X0.009144*%
%ADD501R,1.801366X0.009144*%
%ADD502R,1.801369X0.009144*%
%ADD503R,1.828800X0.009147*%
%ADD504R,1.837947X0.009147*%
%ADD505R,1.865375X0.009144*%
%ADD506R,1.911094X0.009144*%
%ADD507R,1.901950X0.009144*%
%ADD508R,1.956816X0.009144*%
%ADD509R,1.947672X0.009144*%
%ADD510R,2.020825X0.009144*%
%ADD511R,2.011678X0.009144*%
%ADD512R,9.518903X0.009144*%
%ADD513R,9.427466X0.009144*%
%ADD514R,9.418322X0.009147*%
%ADD515R,9.363456X0.009144*%
%ADD516R,9.345166X0.009144*%
%ADD517R,9.281159X0.009144*%
%ADD518R,9.262872X0.009144*%
%ADD519R,9.244584X0.009144*%
%ADD520R,9.226297X0.009144*%
%ADD521R,9.208009X0.009144*%
%ADD522R,9.198866X0.009147*%
%ADD523R,9.162291X0.009144*%
%ADD524R,9.116566X0.009144*%
%ADD525R,9.098278X0.009144*%
%ADD526R,9.079991X0.009144*%
%ADD527R,9.061703X0.009144*%
%ADD528R,8.997697X0.009144*%
%ADD529R,8.979409X0.009144*%
%ADD530R,8.961122X0.009147*%
%ADD531R,8.897113X0.009144*%
%ADD532R,8.878822X0.009144*%
%ADD533R,8.851391X0.009144*%
%ADD534R,8.833103X0.009144*%
%ADD535R,8.769097X0.009144*%
%ADD536R,8.741666X0.009144*%
%ADD537R,8.668509X0.009147*%
%ADD538R,8.650222X0.009144*%
%ADD539R,8.631934X0.009144*%
%ADD540R,8.595359X0.009144*%
%ADD541R,8.577072X0.009144*%
%ADD542R,8.522209X0.009144*%
%ADD543R,8.467344X0.009144*%
%ADD544R,8.449056X0.009144*%
%ADD545R,8.421622X0.009144*%
%ADD546R,8.394191X0.009144*%
%ADD547R,8.366759X0.009147*%
%ADD548R,8.339328X0.009144*%
%ADD549R,8.302753X0.009144*%
%ADD550R,8.284466X0.009144*%
%ADD551R,8.247891X0.009144*%
%ADD552R,8.220456X0.009144*%
%ADD553R,8.193022X0.009144*%
%ADD554R,8.156447X0.009144*%
%ADD555R,8.129016X0.009144*%
%ADD556R,8.065009X0.009144*%
%ADD557R,8.028434X0.009144*%
%ADD558R,7.991856X0.009144*%
%ADD559R,7.955278X0.009147*%
%ADD560R,7.927847X0.009144*%
%ADD561R,7.891272X0.009144*%
%ADD562R,7.854697X0.009144*%
%ADD563R,7.818122X0.009144*%
%ADD564R,7.772400X0.009144*%
%ADD565R,7.735822X0.009144*%
%ADD566R,7.699247X0.009144*%
%ADD567R,7.662672X0.009144*%
%ADD568R,7.616953X0.009144*%
%ADD569R,7.571234X0.009144*%
%ADD570R,7.534656X0.009144*%
%ADD571R,7.479791X0.009147*%
%ADD572R,7.443216X0.009144*%
%ADD573R,7.388353X0.009144*%
%ADD574R,7.342634X0.009144*%
%ADD575R,7.296909X0.009144*%
%ADD576R,7.242047X0.009144*%
%ADD577R,7.187184X0.009144*%
%ADD578R,7.123178X0.009144*%
%ADD579R,7.059166X0.009144*%
%ADD580R,7.004303X0.009144*%
%ADD581R,6.931153X0.009144*%
%ADD582R,6.867144X0.009144*%
%ADD583R,6.793991X0.009144*%
%ADD584R,6.711697X0.009147*%
%ADD585R,6.629400X0.009144*%
%ADD586R,6.528816X0.009144*%
%ADD587R,6.428234X0.009144*%
%ADD588R,6.309359X0.009144*%
%ADD589R,6.153913X0.009144*%
%ADD590R,5.925309X0.009144*%


D10*
X385857Y35193D02*
X385857Y45607D01*
X382964Y45607D01*
X382857Y45605D01*
X382750Y45599D01*
X382644Y45589D01*
X382538Y45575D01*
X382432Y45558D01*
X382328Y45536D01*
X382224Y45511D01*
X382121Y45481D01*
X382019Y45448D01*
X381919Y45412D01*
X381820Y45371D01*
X381723Y45327D01*
X381627Y45279D01*
X381533Y45228D01*
X381441Y45174D01*
X381351Y45116D01*
X381264Y45054D01*
X381178Y44990D01*
X381095Y44923D01*
X381015Y44852D01*
X380937Y44778D01*
X380862Y44702D01*
X380790Y44623D01*
X380721Y44542D01*
X380655Y44457D01*
X380592Y44371D01*
X380533Y44282D01*
X380477Y44191D01*
X380424Y44098D01*
X380374Y44004D01*
X380328Y43907D01*
X380286Y43809D01*
X380248Y43709D01*
X380213Y43608D01*
X380181Y43506D01*
X380154Y43402D01*
X380131Y43298D01*
X380111Y43193D01*
X380095Y43087D01*
X380083Y42981D01*
X380075Y42874D01*
X380071Y42767D01*
X380071Y42661D01*
X380075Y42554D01*
X380083Y42447D01*
X380095Y42341D01*
X380111Y42235D01*
X380131Y42130D01*
X380154Y42026D01*
X380181Y41922D01*
X380213Y41820D01*
X380248Y41719D01*
X380286Y41619D01*
X380328Y41521D01*
X380374Y41424D01*
X380424Y41330D01*
X380477Y41237D01*
X380533Y41146D01*
X380592Y41057D01*
X380655Y40971D01*
X380721Y40886D01*
X380790Y40805D01*
X380862Y40726D01*
X380937Y40650D01*
X381015Y40576D01*
X381095Y40505D01*
X381178Y40438D01*
X381264Y40374D01*
X381351Y40312D01*
X381441Y40254D01*
X381533Y40200D01*
X381627Y40149D01*
X381723Y40101D01*
X381820Y40057D01*
X381919Y40016D01*
X382019Y39980D01*
X382121Y39947D01*
X382224Y39917D01*
X382328Y39892D01*
X382432Y39870D01*
X382538Y39853D01*
X382644Y39839D01*
X382750Y39829D01*
X382857Y39823D01*
X382964Y39821D01*
X385857Y39821D01*
X382386Y39821D02*
X380071Y35193D01*
X373090Y35193D02*
X370197Y35193D01*
X373090Y35193D02*
X373173Y35195D01*
X373255Y35201D01*
X373337Y35211D01*
X373419Y35224D01*
X373499Y35242D01*
X373579Y35263D01*
X373658Y35288D01*
X373735Y35317D01*
X373811Y35350D01*
X373885Y35386D01*
X373958Y35426D01*
X374029Y35469D01*
X374097Y35515D01*
X374163Y35564D01*
X374227Y35617D01*
X374288Y35673D01*
X374346Y35731D01*
X374402Y35792D01*
X374455Y35856D01*
X374504Y35922D01*
X374550Y35990D01*
X374593Y36061D01*
X374633Y36134D01*
X374669Y36208D01*
X374702Y36284D01*
X374731Y36361D01*
X374756Y36440D01*
X374777Y36520D01*
X374795Y36600D01*
X374808Y36682D01*
X374818Y36764D01*
X374824Y36846D01*
X374826Y36929D01*
X374826Y40400D01*
X374824Y40483D01*
X374818Y40565D01*
X374808Y40647D01*
X374795Y40729D01*
X374777Y40809D01*
X374756Y40889D01*
X374731Y40968D01*
X374702Y41045D01*
X374669Y41121D01*
X374633Y41195D01*
X374593Y41268D01*
X374550Y41339D01*
X374504Y41407D01*
X374455Y41473D01*
X374402Y41537D01*
X374346Y41598D01*
X374288Y41656D01*
X374227Y41712D01*
X374163Y41765D01*
X374097Y41814D01*
X374029Y41860D01*
X373958Y41903D01*
X373885Y41943D01*
X373811Y41979D01*
X373735Y42012D01*
X373658Y42041D01*
X373579Y42066D01*
X373499Y42087D01*
X373419Y42105D01*
X373337Y42118D01*
X373255Y42128D01*
X373173Y42134D01*
X373090Y42136D01*
X370197Y42136D01*
X370197Y33457D01*
X370199Y33374D01*
X370205Y33292D01*
X370215Y33210D01*
X370228Y33128D01*
X370246Y33048D01*
X370267Y32968D01*
X370292Y32889D01*
X370321Y32812D01*
X370354Y32736D01*
X370390Y32662D01*
X370430Y32589D01*
X370473Y32518D01*
X370519Y32450D01*
X370568Y32384D01*
X370621Y32320D01*
X370677Y32259D01*
X370735Y32201D01*
X370796Y32145D01*
X370860Y32092D01*
X370926Y32043D01*
X370994Y31997D01*
X371065Y31954D01*
X371138Y31914D01*
X371212Y31878D01*
X371288Y31845D01*
X371365Y31816D01*
X371444Y31791D01*
X371524Y31770D01*
X371604Y31752D01*
X371686Y31739D01*
X371768Y31729D01*
X371850Y31723D01*
X371933Y31721D01*
X371933Y31722D02*
X374247Y31722D01*
X363759Y35193D02*
X363759Y45607D01*
X360866Y45607D01*
X360759Y45605D01*
X360652Y45599D01*
X360546Y45589D01*
X360440Y45575D01*
X360334Y45558D01*
X360230Y45536D01*
X360126Y45511D01*
X360023Y45481D01*
X359921Y45448D01*
X359821Y45412D01*
X359722Y45371D01*
X359625Y45327D01*
X359529Y45279D01*
X359435Y45228D01*
X359343Y45174D01*
X359253Y45116D01*
X359166Y45054D01*
X359080Y44990D01*
X358997Y44923D01*
X358917Y44852D01*
X358839Y44778D01*
X358764Y44702D01*
X358692Y44623D01*
X358623Y44542D01*
X358557Y44457D01*
X358494Y44371D01*
X358435Y44282D01*
X358379Y44191D01*
X358326Y44098D01*
X358276Y44004D01*
X358230Y43907D01*
X358188Y43809D01*
X358150Y43709D01*
X358115Y43608D01*
X358083Y43506D01*
X358056Y43402D01*
X358033Y43298D01*
X358013Y43193D01*
X357997Y43087D01*
X357985Y42981D01*
X357977Y42874D01*
X357973Y42767D01*
X357973Y42661D01*
X357977Y42554D01*
X357985Y42447D01*
X357997Y42341D01*
X358013Y42235D01*
X358033Y42130D01*
X358056Y42026D01*
X358083Y41922D01*
X358115Y41820D01*
X358150Y41719D01*
X358188Y41619D01*
X358230Y41521D01*
X358276Y41424D01*
X358326Y41330D01*
X358379Y41237D01*
X358435Y41146D01*
X358494Y41057D01*
X358557Y40971D01*
X358623Y40886D01*
X358692Y40805D01*
X358764Y40726D01*
X358839Y40650D01*
X358917Y40576D01*
X358997Y40505D01*
X359080Y40438D01*
X359166Y40374D01*
X359253Y40312D01*
X359343Y40254D01*
X359435Y40200D01*
X359529Y40149D01*
X359625Y40101D01*
X359722Y40057D01*
X359821Y40016D01*
X359921Y39980D01*
X360023Y39947D01*
X360126Y39917D01*
X360230Y39892D01*
X360334Y39870D01*
X360440Y39853D01*
X360546Y39839D01*
X360652Y39829D01*
X360759Y39823D01*
X360866Y39821D01*
X363759Y39821D01*
X360288Y39821D02*
X357974Y35193D01*
X341922Y40979D02*
X340186Y40979D01*
X340186Y35193D01*
X343658Y35193D01*
X343751Y35195D01*
X343844Y35201D01*
X343937Y35210D01*
X344029Y35223D01*
X344121Y35240D01*
X344212Y35260D01*
X344302Y35284D01*
X344391Y35312D01*
X344479Y35343D01*
X344565Y35378D01*
X344650Y35416D01*
X344733Y35458D01*
X344815Y35503D01*
X344895Y35551D01*
X344973Y35603D01*
X345048Y35657D01*
X345121Y35715D01*
X345192Y35775D01*
X345261Y35838D01*
X345327Y35904D01*
X345390Y35973D01*
X345450Y36044D01*
X345508Y36117D01*
X345562Y36193D01*
X345614Y36270D01*
X345662Y36350D01*
X345707Y36432D01*
X345749Y36515D01*
X345787Y36600D01*
X345822Y36686D01*
X345853Y36774D01*
X345881Y36863D01*
X345905Y36953D01*
X345925Y37044D01*
X345942Y37136D01*
X345955Y37228D01*
X345964Y37321D01*
X345970Y37414D01*
X345972Y37507D01*
X345972Y43293D01*
X345971Y43293D02*
X345969Y43389D01*
X345963Y43484D01*
X345953Y43579D01*
X345939Y43674D01*
X345922Y43768D01*
X345900Y43861D01*
X345875Y43953D01*
X345846Y44044D01*
X345813Y44134D01*
X345776Y44223D01*
X345736Y44309D01*
X345692Y44394D01*
X345645Y44477D01*
X345594Y44559D01*
X345540Y44638D01*
X345483Y44714D01*
X345423Y44789D01*
X345359Y44860D01*
X345293Y44929D01*
X345224Y44995D01*
X345153Y45059D01*
X345078Y45119D01*
X345002Y45176D01*
X344923Y45230D01*
X344842Y45281D01*
X344758Y45328D01*
X344673Y45372D01*
X344587Y45412D01*
X344498Y45449D01*
X344408Y45482D01*
X344317Y45511D01*
X344225Y45536D01*
X344132Y45558D01*
X344038Y45575D01*
X343943Y45589D01*
X343848Y45599D01*
X343753Y45605D01*
X343657Y45607D01*
X343658Y45607D02*
X340186Y45607D01*
X333505Y45607D02*
X333505Y35193D01*
X333505Y45607D02*
X330612Y45607D01*
X330505Y45605D01*
X330398Y45599D01*
X330292Y45589D01*
X330186Y45575D01*
X330080Y45558D01*
X329976Y45536D01*
X329872Y45511D01*
X329769Y45481D01*
X329667Y45448D01*
X329567Y45412D01*
X329468Y45371D01*
X329371Y45327D01*
X329275Y45279D01*
X329181Y45228D01*
X329089Y45174D01*
X328999Y45116D01*
X328912Y45054D01*
X328826Y44990D01*
X328743Y44923D01*
X328663Y44852D01*
X328585Y44778D01*
X328510Y44702D01*
X328438Y44623D01*
X328369Y44542D01*
X328303Y44457D01*
X328240Y44371D01*
X328181Y44282D01*
X328125Y44191D01*
X328072Y44098D01*
X328022Y44004D01*
X327976Y43907D01*
X327934Y43809D01*
X327896Y43709D01*
X327861Y43608D01*
X327829Y43506D01*
X327802Y43402D01*
X327779Y43298D01*
X327759Y43193D01*
X327743Y43087D01*
X327731Y42981D01*
X327723Y42874D01*
X327719Y42767D01*
X327719Y42661D01*
X327723Y42554D01*
X327731Y42447D01*
X327743Y42341D01*
X327759Y42235D01*
X327779Y42130D01*
X327802Y42026D01*
X327829Y41922D01*
X327861Y41820D01*
X327896Y41719D01*
X327934Y41619D01*
X327976Y41521D01*
X328022Y41424D01*
X328072Y41330D01*
X328125Y41237D01*
X328181Y41146D01*
X328240Y41057D01*
X328303Y40971D01*
X328369Y40886D01*
X328438Y40805D01*
X328510Y40726D01*
X328585Y40650D01*
X328663Y40576D01*
X328743Y40505D01*
X328826Y40438D01*
X328912Y40374D01*
X328999Y40312D01*
X329089Y40254D01*
X329181Y40200D01*
X329275Y40149D01*
X329371Y40101D01*
X329468Y40057D01*
X329567Y40016D01*
X329667Y39980D01*
X329769Y39947D01*
X329872Y39917D01*
X329976Y39892D01*
X330080Y39870D01*
X330186Y39853D01*
X330292Y39839D01*
X330398Y39829D01*
X330505Y39823D01*
X330612Y39821D01*
X333505Y39821D01*
X323267Y42136D02*
X323267Y35193D01*
X323556Y45028D02*
X323556Y45607D01*
X322978Y45607D01*
X322978Y45028D01*
X323556Y45028D01*
X317594Y45607D02*
X317594Y35193D01*
X314123Y39821D02*
X317594Y45607D01*
X314123Y39821D02*
X310652Y45607D01*
X310652Y35193D01*
X302697Y39243D02*
X300094Y39243D01*
X302697Y39243D02*
X302785Y39241D01*
X302873Y39235D01*
X302961Y39226D01*
X303049Y39212D01*
X303135Y39195D01*
X303221Y39174D01*
X303306Y39149D01*
X303390Y39121D01*
X303472Y39089D01*
X303553Y39053D01*
X303632Y39014D01*
X303710Y38972D01*
X303785Y38926D01*
X303858Y38877D01*
X303930Y38825D01*
X303999Y38769D01*
X304065Y38711D01*
X304129Y38650D01*
X304190Y38586D01*
X304248Y38520D01*
X304304Y38451D01*
X304356Y38379D01*
X304405Y38306D01*
X304451Y38230D01*
X304493Y38153D01*
X304532Y38074D01*
X304568Y37993D01*
X304600Y37911D01*
X304628Y37827D01*
X304653Y37742D01*
X304674Y37656D01*
X304691Y37570D01*
X304705Y37482D01*
X304714Y37394D01*
X304720Y37306D01*
X304722Y37218D01*
X304720Y37130D01*
X304714Y37042D01*
X304705Y36954D01*
X304691Y36866D01*
X304674Y36780D01*
X304653Y36694D01*
X304628Y36609D01*
X304600Y36525D01*
X304568Y36443D01*
X304532Y36362D01*
X304493Y36283D01*
X304451Y36206D01*
X304405Y36130D01*
X304356Y36057D01*
X304304Y35985D01*
X304248Y35916D01*
X304190Y35850D01*
X304129Y35786D01*
X304065Y35725D01*
X303999Y35667D01*
X303930Y35611D01*
X303858Y35559D01*
X303785Y35510D01*
X303710Y35464D01*
X303632Y35422D01*
X303553Y35383D01*
X303472Y35347D01*
X303390Y35315D01*
X303306Y35287D01*
X303221Y35262D01*
X303135Y35241D01*
X303049Y35224D01*
X302961Y35210D01*
X302873Y35201D01*
X302785Y35195D01*
X302697Y35193D01*
X300094Y35193D01*
X300094Y40400D01*
X300093Y40400D02*
X300095Y40483D01*
X300101Y40565D01*
X300111Y40647D01*
X300124Y40729D01*
X300142Y40809D01*
X300163Y40889D01*
X300188Y40968D01*
X300217Y41045D01*
X300250Y41121D01*
X300286Y41195D01*
X300326Y41268D01*
X300369Y41339D01*
X300415Y41407D01*
X300464Y41473D01*
X300517Y41537D01*
X300573Y41598D01*
X300631Y41656D01*
X300692Y41712D01*
X300756Y41765D01*
X300822Y41814D01*
X300890Y41860D01*
X300961Y41903D01*
X301034Y41943D01*
X301108Y41979D01*
X301184Y42012D01*
X301261Y42041D01*
X301340Y42066D01*
X301420Y42087D01*
X301500Y42105D01*
X301582Y42118D01*
X301664Y42128D01*
X301746Y42134D01*
X301829Y42136D01*
X304143Y42136D01*
X295435Y42136D02*
X291964Y42136D01*
X294278Y45607D02*
X294278Y36929D01*
X294276Y36846D01*
X294270Y36764D01*
X294260Y36682D01*
X294247Y36600D01*
X294229Y36520D01*
X294208Y36440D01*
X294183Y36361D01*
X294154Y36284D01*
X294121Y36208D01*
X294085Y36134D01*
X294045Y36061D01*
X294002Y35990D01*
X293956Y35922D01*
X293907Y35856D01*
X293854Y35792D01*
X293798Y35731D01*
X293740Y35673D01*
X293679Y35617D01*
X293615Y35564D01*
X293549Y35515D01*
X293481Y35469D01*
X293410Y35426D01*
X293338Y35386D01*
X293263Y35350D01*
X293187Y35317D01*
X293110Y35288D01*
X293031Y35263D01*
X292951Y35242D01*
X292871Y35224D01*
X292789Y35211D01*
X292707Y35201D01*
X292625Y35195D01*
X292542Y35193D01*
X291964Y35193D01*
X285365Y35193D02*
X282472Y35193D01*
X285365Y35193D02*
X285448Y35195D01*
X285530Y35201D01*
X285612Y35211D01*
X285694Y35224D01*
X285774Y35242D01*
X285854Y35263D01*
X285933Y35288D01*
X286010Y35317D01*
X286086Y35350D01*
X286160Y35386D01*
X286233Y35426D01*
X286304Y35469D01*
X286372Y35515D01*
X286438Y35564D01*
X286502Y35617D01*
X286563Y35673D01*
X286621Y35731D01*
X286677Y35792D01*
X286730Y35856D01*
X286779Y35922D01*
X286825Y35990D01*
X286868Y36061D01*
X286908Y36134D01*
X286944Y36208D01*
X286977Y36284D01*
X287006Y36361D01*
X287031Y36440D01*
X287052Y36520D01*
X287070Y36600D01*
X287083Y36682D01*
X287093Y36764D01*
X287099Y36846D01*
X287101Y36929D01*
X287100Y36929D02*
X287100Y39821D01*
X287098Y39915D01*
X287092Y40010D01*
X287083Y40104D01*
X287069Y40197D01*
X287052Y40290D01*
X287031Y40382D01*
X287006Y40473D01*
X286978Y40563D01*
X286946Y40652D01*
X286910Y40739D01*
X286871Y40825D01*
X286828Y40909D01*
X286782Y40992D01*
X286733Y41072D01*
X286680Y41150D01*
X286624Y41227D01*
X286565Y41300D01*
X286504Y41372D01*
X286439Y41440D01*
X286371Y41507D01*
X286301Y41570D01*
X286229Y41630D01*
X286154Y41688D01*
X286076Y41742D01*
X285997Y41793D01*
X285916Y41841D01*
X285832Y41885D01*
X285747Y41926D01*
X285661Y41963D01*
X285573Y41997D01*
X285483Y42028D01*
X285393Y42054D01*
X285301Y42077D01*
X285208Y42096D01*
X285115Y42111D01*
X285022Y42123D01*
X284928Y42131D01*
X284833Y42135D01*
X284739Y42135D01*
X284644Y42131D01*
X284550Y42123D01*
X284457Y42111D01*
X284364Y42096D01*
X284271Y42077D01*
X284179Y42054D01*
X284089Y42028D01*
X283999Y41997D01*
X283911Y41963D01*
X283825Y41926D01*
X283740Y41885D01*
X283656Y41841D01*
X283575Y41793D01*
X283496Y41742D01*
X283418Y41688D01*
X283343Y41630D01*
X283271Y41570D01*
X283201Y41507D01*
X283133Y41440D01*
X283068Y41372D01*
X283007Y41300D01*
X282948Y41227D01*
X282892Y41150D01*
X282839Y41072D01*
X282790Y40992D01*
X282744Y40909D01*
X282701Y40825D01*
X282662Y40739D01*
X282626Y40652D01*
X282594Y40563D01*
X282566Y40473D01*
X282541Y40382D01*
X282520Y40290D01*
X282503Y40197D01*
X282489Y40104D01*
X282480Y40010D01*
X282474Y39915D01*
X282472Y39821D01*
X282472Y38664D01*
X287100Y38664D01*
X276827Y39243D02*
X269885Y39243D01*
X273356Y35772D02*
X273356Y42714D01*
X381229Y16143D02*
X385857Y16143D01*
X385857Y26557D01*
X381229Y26557D01*
X382386Y21929D02*
X385857Y21929D01*
X377648Y23086D02*
X374176Y23086D01*
X376491Y26557D02*
X376491Y17879D01*
X376489Y17796D01*
X376483Y17714D01*
X376473Y17632D01*
X376460Y17550D01*
X376442Y17470D01*
X376421Y17390D01*
X376396Y17311D01*
X376367Y17234D01*
X376334Y17158D01*
X376298Y17084D01*
X376258Y17011D01*
X376215Y16940D01*
X376169Y16872D01*
X376120Y16806D01*
X376067Y16742D01*
X376011Y16681D01*
X375953Y16623D01*
X375892Y16567D01*
X375828Y16514D01*
X375762Y16465D01*
X375694Y16419D01*
X375623Y16376D01*
X375551Y16336D01*
X375476Y16300D01*
X375400Y16267D01*
X375323Y16238D01*
X375244Y16213D01*
X375164Y16192D01*
X375084Y16174D01*
X375002Y16161D01*
X374920Y16151D01*
X374838Y16145D01*
X374755Y16143D01*
X374176Y16143D01*
X368932Y16143D02*
X368932Y26557D01*
X368932Y23086D02*
X366039Y23086D01*
X365956Y23084D01*
X365874Y23078D01*
X365792Y23068D01*
X365710Y23055D01*
X365630Y23037D01*
X365550Y23016D01*
X365471Y22991D01*
X365394Y22962D01*
X365318Y22929D01*
X365244Y22893D01*
X365171Y22853D01*
X365100Y22810D01*
X365032Y22764D01*
X364966Y22715D01*
X364902Y22662D01*
X364841Y22606D01*
X364783Y22548D01*
X364727Y22487D01*
X364674Y22423D01*
X364625Y22357D01*
X364579Y22289D01*
X364536Y22218D01*
X364496Y22146D01*
X364460Y22071D01*
X364427Y21995D01*
X364398Y21918D01*
X364373Y21839D01*
X364352Y21759D01*
X364334Y21679D01*
X364321Y21597D01*
X364311Y21515D01*
X364305Y21433D01*
X364303Y21350D01*
X364304Y21350D02*
X364304Y16143D01*
X356910Y16143D02*
X354017Y16143D01*
X356910Y16143D02*
X356993Y16145D01*
X357075Y16151D01*
X357157Y16161D01*
X357239Y16174D01*
X357319Y16192D01*
X357399Y16213D01*
X357478Y16238D01*
X357555Y16267D01*
X357631Y16300D01*
X357705Y16336D01*
X357778Y16376D01*
X357849Y16419D01*
X357917Y16465D01*
X357983Y16514D01*
X358047Y16567D01*
X358108Y16623D01*
X358166Y16681D01*
X358222Y16742D01*
X358275Y16806D01*
X358324Y16872D01*
X358370Y16940D01*
X358413Y17011D01*
X358453Y17084D01*
X358489Y17158D01*
X358522Y17234D01*
X358551Y17311D01*
X358576Y17390D01*
X358597Y17470D01*
X358615Y17550D01*
X358628Y17632D01*
X358638Y17714D01*
X358644Y17796D01*
X358646Y17879D01*
X358645Y17879D02*
X358645Y20771D01*
X358643Y20865D01*
X358637Y20960D01*
X358628Y21054D01*
X358614Y21147D01*
X358597Y21240D01*
X358576Y21332D01*
X358551Y21423D01*
X358523Y21513D01*
X358491Y21602D01*
X358455Y21689D01*
X358416Y21775D01*
X358373Y21859D01*
X358327Y21942D01*
X358278Y22022D01*
X358225Y22100D01*
X358169Y22177D01*
X358110Y22250D01*
X358049Y22322D01*
X357984Y22390D01*
X357916Y22457D01*
X357846Y22520D01*
X357774Y22580D01*
X357699Y22638D01*
X357621Y22692D01*
X357542Y22743D01*
X357461Y22791D01*
X357377Y22835D01*
X357292Y22876D01*
X357206Y22913D01*
X357118Y22947D01*
X357028Y22978D01*
X356938Y23004D01*
X356846Y23027D01*
X356753Y23046D01*
X356660Y23061D01*
X356567Y23073D01*
X356473Y23081D01*
X356378Y23085D01*
X356284Y23085D01*
X356189Y23081D01*
X356095Y23073D01*
X356002Y23061D01*
X355909Y23046D01*
X355816Y23027D01*
X355724Y23004D01*
X355634Y22978D01*
X355544Y22947D01*
X355456Y22913D01*
X355370Y22876D01*
X355285Y22835D01*
X355201Y22791D01*
X355120Y22743D01*
X355041Y22692D01*
X354963Y22638D01*
X354888Y22580D01*
X354816Y22520D01*
X354746Y22457D01*
X354678Y22390D01*
X354613Y22322D01*
X354552Y22250D01*
X354493Y22177D01*
X354437Y22100D01*
X354384Y22022D01*
X354335Y21942D01*
X354289Y21859D01*
X354246Y21775D01*
X354207Y21689D01*
X354171Y21602D01*
X354139Y21513D01*
X354111Y21423D01*
X354086Y21332D01*
X354065Y21240D01*
X354048Y21147D01*
X354034Y21054D01*
X354025Y20960D01*
X354019Y20865D01*
X354017Y20771D01*
X354017Y19614D01*
X358645Y19614D01*
X348250Y16143D02*
X348250Y23086D01*
X344779Y23086D01*
X344779Y21929D01*
X340357Y23086D02*
X340357Y16143D01*
X340357Y23086D02*
X337464Y23086D01*
X337381Y23084D01*
X337299Y23078D01*
X337217Y23068D01*
X337135Y23055D01*
X337055Y23037D01*
X336975Y23016D01*
X336896Y22991D01*
X336819Y22962D01*
X336743Y22929D01*
X336669Y22893D01*
X336596Y22853D01*
X336525Y22810D01*
X336457Y22764D01*
X336391Y22715D01*
X336327Y22662D01*
X336266Y22606D01*
X336208Y22548D01*
X336152Y22487D01*
X336099Y22423D01*
X336050Y22357D01*
X336004Y22289D01*
X335961Y22218D01*
X335921Y22146D01*
X335885Y22071D01*
X335852Y21995D01*
X335823Y21918D01*
X335798Y21839D01*
X335777Y21759D01*
X335759Y21679D01*
X335746Y21597D01*
X335736Y21515D01*
X335730Y21433D01*
X335728Y21350D01*
X335729Y21350D02*
X335729Y16143D01*
X328335Y16143D02*
X325442Y16143D01*
X328335Y16143D02*
X328418Y16145D01*
X328500Y16151D01*
X328582Y16161D01*
X328664Y16174D01*
X328744Y16192D01*
X328824Y16213D01*
X328903Y16238D01*
X328980Y16267D01*
X329056Y16300D01*
X329130Y16336D01*
X329203Y16376D01*
X329274Y16419D01*
X329342Y16465D01*
X329408Y16514D01*
X329472Y16567D01*
X329533Y16623D01*
X329591Y16681D01*
X329647Y16742D01*
X329700Y16806D01*
X329749Y16872D01*
X329795Y16940D01*
X329838Y17011D01*
X329878Y17084D01*
X329914Y17158D01*
X329947Y17234D01*
X329976Y17311D01*
X330001Y17390D01*
X330022Y17470D01*
X330040Y17550D01*
X330053Y17632D01*
X330063Y17714D01*
X330069Y17796D01*
X330071Y17879D01*
X330070Y17879D02*
X330070Y20771D01*
X330068Y20865D01*
X330062Y20960D01*
X330053Y21054D01*
X330039Y21147D01*
X330022Y21240D01*
X330001Y21332D01*
X329976Y21423D01*
X329948Y21513D01*
X329916Y21602D01*
X329880Y21689D01*
X329841Y21775D01*
X329798Y21859D01*
X329752Y21942D01*
X329703Y22022D01*
X329650Y22100D01*
X329594Y22177D01*
X329535Y22250D01*
X329474Y22322D01*
X329409Y22390D01*
X329341Y22457D01*
X329271Y22520D01*
X329199Y22580D01*
X329124Y22638D01*
X329046Y22692D01*
X328967Y22743D01*
X328886Y22791D01*
X328802Y22835D01*
X328717Y22876D01*
X328631Y22913D01*
X328543Y22947D01*
X328453Y22978D01*
X328363Y23004D01*
X328271Y23027D01*
X328178Y23046D01*
X328085Y23061D01*
X327992Y23073D01*
X327898Y23081D01*
X327803Y23085D01*
X327709Y23085D01*
X327614Y23081D01*
X327520Y23073D01*
X327427Y23061D01*
X327334Y23046D01*
X327241Y23027D01*
X327149Y23004D01*
X327059Y22978D01*
X326969Y22947D01*
X326881Y22913D01*
X326795Y22876D01*
X326710Y22835D01*
X326626Y22791D01*
X326545Y22743D01*
X326466Y22692D01*
X326388Y22638D01*
X326313Y22580D01*
X326241Y22520D01*
X326171Y22457D01*
X326103Y22390D01*
X326038Y22322D01*
X325977Y22250D01*
X325918Y22177D01*
X325862Y22100D01*
X325809Y22022D01*
X325760Y21942D01*
X325714Y21859D01*
X325671Y21775D01*
X325632Y21689D01*
X325596Y21602D01*
X325564Y21513D01*
X325536Y21423D01*
X325511Y21332D01*
X325490Y21240D01*
X325473Y21147D01*
X325459Y21054D01*
X325450Y20960D01*
X325444Y20865D01*
X325442Y20771D01*
X325442Y19614D01*
X330070Y19614D01*
X321260Y23086D02*
X317788Y23086D01*
X320103Y26557D02*
X320103Y17879D01*
X320101Y17796D01*
X320095Y17714D01*
X320085Y17632D01*
X320072Y17550D01*
X320054Y17470D01*
X320033Y17390D01*
X320008Y17311D01*
X319979Y17234D01*
X319946Y17158D01*
X319910Y17084D01*
X319870Y17011D01*
X319827Y16940D01*
X319781Y16872D01*
X319732Y16806D01*
X319679Y16742D01*
X319623Y16681D01*
X319565Y16623D01*
X319504Y16567D01*
X319440Y16514D01*
X319374Y16465D01*
X319306Y16419D01*
X319235Y16376D01*
X319163Y16336D01*
X319088Y16300D01*
X319012Y16267D01*
X318935Y16238D01*
X318856Y16213D01*
X318776Y16192D01*
X318696Y16174D01*
X318614Y16161D01*
X318532Y16151D01*
X318450Y16145D01*
X318367Y16143D01*
X317788Y16143D01*
X307224Y16143D02*
X303753Y26557D01*
X300282Y16143D01*
X301150Y18747D02*
X306357Y18747D01*
X290867Y16143D02*
X290867Y26557D01*
X290867Y16143D02*
X293759Y16143D01*
X293842Y16145D01*
X293924Y16151D01*
X294006Y16161D01*
X294088Y16174D01*
X294168Y16192D01*
X294248Y16213D01*
X294327Y16238D01*
X294404Y16267D01*
X294480Y16300D01*
X294554Y16336D01*
X294627Y16376D01*
X294698Y16419D01*
X294766Y16465D01*
X294832Y16514D01*
X294896Y16567D01*
X294957Y16623D01*
X295015Y16681D01*
X295071Y16742D01*
X295124Y16806D01*
X295173Y16872D01*
X295219Y16940D01*
X295262Y17011D01*
X295302Y17084D01*
X295338Y17158D01*
X295371Y17234D01*
X295400Y17311D01*
X295425Y17390D01*
X295446Y17470D01*
X295464Y17550D01*
X295477Y17632D01*
X295487Y17714D01*
X295493Y17796D01*
X295495Y17879D01*
X295495Y21350D01*
X295493Y21433D01*
X295487Y21515D01*
X295477Y21597D01*
X295464Y21679D01*
X295446Y21759D01*
X295425Y21839D01*
X295400Y21918D01*
X295371Y21995D01*
X295338Y22071D01*
X295302Y22145D01*
X295262Y22218D01*
X295219Y22289D01*
X295173Y22357D01*
X295124Y22423D01*
X295071Y22487D01*
X295015Y22548D01*
X294957Y22606D01*
X294896Y22662D01*
X294832Y22715D01*
X294766Y22764D01*
X294698Y22810D01*
X294627Y22853D01*
X294554Y22893D01*
X294480Y22929D01*
X294404Y22962D01*
X294327Y22991D01*
X294248Y23016D01*
X294168Y23037D01*
X294088Y23055D01*
X294006Y23068D01*
X293924Y23078D01*
X293842Y23084D01*
X293759Y23086D01*
X290867Y23086D01*
X283183Y20193D02*
X280580Y20193D01*
X283183Y20193D02*
X283271Y20191D01*
X283359Y20185D01*
X283447Y20176D01*
X283535Y20162D01*
X283621Y20145D01*
X283707Y20124D01*
X283792Y20099D01*
X283876Y20071D01*
X283958Y20039D01*
X284039Y20003D01*
X284118Y19964D01*
X284196Y19922D01*
X284271Y19876D01*
X284344Y19827D01*
X284416Y19775D01*
X284485Y19719D01*
X284551Y19661D01*
X284615Y19600D01*
X284676Y19536D01*
X284734Y19470D01*
X284790Y19401D01*
X284842Y19329D01*
X284891Y19256D01*
X284937Y19180D01*
X284979Y19103D01*
X285018Y19024D01*
X285054Y18943D01*
X285086Y18861D01*
X285114Y18777D01*
X285139Y18692D01*
X285160Y18606D01*
X285177Y18520D01*
X285191Y18432D01*
X285200Y18344D01*
X285206Y18256D01*
X285208Y18168D01*
X285206Y18080D01*
X285200Y17992D01*
X285191Y17904D01*
X285177Y17816D01*
X285160Y17730D01*
X285139Y17644D01*
X285114Y17559D01*
X285086Y17475D01*
X285054Y17393D01*
X285018Y17312D01*
X284979Y17233D01*
X284937Y17155D01*
X284891Y17080D01*
X284842Y17007D01*
X284790Y16935D01*
X284734Y16866D01*
X284676Y16800D01*
X284615Y16736D01*
X284551Y16675D01*
X284485Y16617D01*
X284416Y16561D01*
X284344Y16509D01*
X284271Y16460D01*
X284196Y16414D01*
X284118Y16372D01*
X284039Y16333D01*
X283958Y16297D01*
X283876Y16265D01*
X283792Y16237D01*
X283707Y16212D01*
X283621Y16191D01*
X283535Y16174D01*
X283447Y16160D01*
X283359Y16151D01*
X283271Y16145D01*
X283183Y16143D01*
X280580Y16143D01*
X280580Y21350D01*
X280579Y21350D02*
X280581Y21433D01*
X280587Y21515D01*
X280597Y21597D01*
X280610Y21679D01*
X280628Y21759D01*
X280649Y21839D01*
X280674Y21918D01*
X280703Y21995D01*
X280736Y22071D01*
X280772Y22145D01*
X280812Y22218D01*
X280855Y22289D01*
X280901Y22357D01*
X280950Y22423D01*
X281003Y22487D01*
X281059Y22548D01*
X281117Y22606D01*
X281178Y22662D01*
X281242Y22715D01*
X281308Y22764D01*
X281376Y22810D01*
X281447Y22853D01*
X281520Y22893D01*
X281594Y22929D01*
X281670Y22962D01*
X281747Y22991D01*
X281826Y23016D01*
X281906Y23037D01*
X281986Y23055D01*
X282068Y23068D01*
X282150Y23078D01*
X282232Y23084D01*
X282315Y23086D01*
X284629Y23086D01*
X274349Y23086D02*
X274349Y12672D01*
X274349Y23086D02*
X271456Y23086D01*
X271373Y23084D01*
X271291Y23078D01*
X271209Y23068D01*
X271127Y23055D01*
X271047Y23037D01*
X270967Y23016D01*
X270888Y22991D01*
X270811Y22962D01*
X270735Y22929D01*
X270661Y22893D01*
X270588Y22853D01*
X270517Y22810D01*
X270449Y22764D01*
X270383Y22715D01*
X270319Y22662D01*
X270258Y22606D01*
X270200Y22548D01*
X270144Y22487D01*
X270091Y22423D01*
X270042Y22357D01*
X269996Y22289D01*
X269953Y22218D01*
X269913Y22146D01*
X269877Y22071D01*
X269844Y21995D01*
X269815Y21918D01*
X269790Y21839D01*
X269769Y21759D01*
X269751Y21679D01*
X269738Y21597D01*
X269728Y21515D01*
X269722Y21433D01*
X269720Y21350D01*
X269720Y17879D01*
X269722Y17796D01*
X269728Y17714D01*
X269738Y17632D01*
X269751Y17550D01*
X269769Y17470D01*
X269790Y17390D01*
X269815Y17311D01*
X269844Y17234D01*
X269877Y17158D01*
X269913Y17084D01*
X269953Y17011D01*
X269996Y16940D01*
X270042Y16872D01*
X270091Y16806D01*
X270144Y16742D01*
X270200Y16681D01*
X270258Y16623D01*
X270319Y16567D01*
X270383Y16514D01*
X270449Y16465D01*
X270517Y16419D01*
X270588Y16376D01*
X270661Y16336D01*
X270735Y16300D01*
X270811Y16267D01*
X270888Y16238D01*
X270967Y16213D01*
X271047Y16192D01*
X271127Y16174D01*
X271209Y16161D01*
X271291Y16151D01*
X271373Y16145D01*
X271456Y16143D01*
X274349Y16143D01*
X265634Y23086D02*
X262163Y23086D01*
X264477Y26557D02*
X264477Y17879D01*
X264475Y17796D01*
X264469Y17714D01*
X264459Y17632D01*
X264446Y17550D01*
X264428Y17470D01*
X264407Y17390D01*
X264382Y17311D01*
X264353Y17234D01*
X264320Y17158D01*
X264284Y17084D01*
X264244Y17011D01*
X264201Y16940D01*
X264155Y16872D01*
X264106Y16806D01*
X264053Y16742D01*
X263997Y16681D01*
X263939Y16623D01*
X263878Y16567D01*
X263814Y16514D01*
X263748Y16465D01*
X263680Y16419D01*
X263609Y16376D01*
X263537Y16336D01*
X263462Y16300D01*
X263386Y16267D01*
X263309Y16238D01*
X263230Y16213D01*
X263150Y16192D01*
X263070Y16174D01*
X262988Y16161D01*
X262906Y16151D01*
X262824Y16145D01*
X262741Y16143D01*
X262163Y16143D01*
X255564Y16143D02*
X252671Y16143D01*
X255564Y16143D02*
X255647Y16145D01*
X255729Y16151D01*
X255811Y16161D01*
X255893Y16174D01*
X255973Y16192D01*
X256053Y16213D01*
X256132Y16238D01*
X256209Y16267D01*
X256285Y16300D01*
X256359Y16336D01*
X256432Y16376D01*
X256503Y16419D01*
X256571Y16465D01*
X256637Y16514D01*
X256701Y16567D01*
X256762Y16623D01*
X256820Y16681D01*
X256876Y16742D01*
X256929Y16806D01*
X256978Y16872D01*
X257024Y16940D01*
X257067Y17011D01*
X257107Y17084D01*
X257143Y17158D01*
X257176Y17234D01*
X257205Y17311D01*
X257230Y17390D01*
X257251Y17470D01*
X257269Y17550D01*
X257282Y17632D01*
X257292Y17714D01*
X257298Y17796D01*
X257300Y17879D01*
X257299Y17879D02*
X257299Y20771D01*
X257297Y20865D01*
X257291Y20960D01*
X257282Y21054D01*
X257268Y21147D01*
X257251Y21240D01*
X257230Y21332D01*
X257205Y21423D01*
X257177Y21513D01*
X257145Y21602D01*
X257109Y21689D01*
X257070Y21775D01*
X257027Y21859D01*
X256981Y21942D01*
X256932Y22022D01*
X256879Y22100D01*
X256823Y22177D01*
X256764Y22250D01*
X256703Y22322D01*
X256638Y22390D01*
X256570Y22457D01*
X256500Y22520D01*
X256428Y22580D01*
X256353Y22638D01*
X256275Y22692D01*
X256196Y22743D01*
X256115Y22791D01*
X256031Y22835D01*
X255946Y22876D01*
X255860Y22913D01*
X255772Y22947D01*
X255682Y22978D01*
X255592Y23004D01*
X255500Y23027D01*
X255407Y23046D01*
X255314Y23061D01*
X255221Y23073D01*
X255127Y23081D01*
X255032Y23085D01*
X254938Y23085D01*
X254843Y23081D01*
X254749Y23073D01*
X254656Y23061D01*
X254563Y23046D01*
X254470Y23027D01*
X254378Y23004D01*
X254288Y22978D01*
X254198Y22947D01*
X254110Y22913D01*
X254024Y22876D01*
X253939Y22835D01*
X253855Y22791D01*
X253774Y22743D01*
X253695Y22692D01*
X253617Y22638D01*
X253542Y22580D01*
X253470Y22520D01*
X253400Y22457D01*
X253332Y22390D01*
X253267Y22322D01*
X253206Y22250D01*
X253147Y22177D01*
X253091Y22100D01*
X253038Y22022D01*
X252989Y21942D01*
X252943Y21859D01*
X252900Y21775D01*
X252861Y21689D01*
X252825Y21602D01*
X252793Y21513D01*
X252765Y21423D01*
X252740Y21332D01*
X252719Y21240D01*
X252702Y21147D01*
X252688Y21054D01*
X252679Y20960D01*
X252673Y20865D01*
X252671Y20771D01*
X252671Y19614D01*
X257299Y19614D01*
X246904Y16143D02*
X246904Y23086D01*
X243433Y23086D01*
X243433Y21929D01*
D11*
X329209Y82802D03*
D12*
X329163Y82893D03*
D13*
X329209Y82984D03*
D14*
X329163Y83076D03*
D15*
X329209Y83167D03*
D16*
X329209Y83259D03*
D17*
X329209Y83350D03*
D18*
X329209Y83442D03*
D19*
X329209Y83533D03*
D20*
X329163Y83625D03*
D21*
X329209Y83716D03*
D22*
X329163Y83807D03*
D23*
X329209Y83899D03*
D24*
X329209Y83990D03*
D25*
X329209Y84082D03*
D26*
X329163Y84173D03*
D27*
X329209Y84265D03*
D28*
X329209Y84356D03*
D29*
X329209Y84448D03*
D30*
X329209Y84539D03*
D31*
X329209Y84630D03*
D32*
X329209Y84722D03*
D33*
X329209Y84813D03*
D34*
X329209Y84905D03*
D35*
X329209Y84996D03*
D36*
X329209Y85088D03*
D37*
X329209Y85179D03*
D38*
X329209Y85270D03*
D39*
X329209Y85362D03*
D40*
X329209Y85453D03*
D41*
X329209Y85545D03*
D42*
X329209Y85636D03*
D43*
X329209Y85728D03*
D44*
X329209Y85819D03*
D45*
X329163Y85911D03*
D46*
X329209Y86002D03*
D47*
X329209Y86093D03*
D48*
X329209Y86185D03*
D49*
X329163Y86276D03*
D50*
X329209Y86368D03*
D51*
X329209Y86459D03*
D52*
X329209Y86551D03*
D53*
X329209Y86642D03*
D54*
X329163Y86734D03*
D55*
X329209Y86825D03*
D56*
X329163Y86916D03*
D57*
X329209Y87008D03*
D58*
X329163Y87099D03*
D59*
X329209Y87191D03*
D60*
X329209Y87282D03*
D61*
X329209Y87374D03*
D62*
X329209Y87465D03*
D63*
X329163Y87556D03*
D64*
X329209Y87648D03*
D65*
X329209Y87739D03*
D66*
X329163Y87831D03*
D67*
X329209Y87922D03*
D68*
X329209Y88014D03*
D69*
X329209Y88105D03*
D70*
X329163Y88197D03*
D71*
X329209Y88288D03*
D72*
X329209Y88379D03*
D73*
X329209Y88471D03*
D74*
X329163Y88562D03*
D75*
X329209Y88654D03*
D76*
X329209Y88745D03*
D77*
X329209Y88837D03*
D78*
X329209Y88928D03*
D79*
X329209Y89020D03*
D80*
X329209Y89111D03*
D81*
X329163Y89202D03*
D82*
X329209Y89294D03*
D83*
X329209Y89385D03*
D84*
X329209Y89477D03*
D85*
X329209Y89568D03*
D86*
X329209Y89660D03*
D87*
X329209Y89751D03*
D88*
X329209Y89842D03*
D89*
X329209Y89934D03*
D90*
X329209Y90025D03*
D91*
X329209Y90117D03*
D92*
X329209Y90208D03*
D93*
X329209Y90300D03*
D94*
X329209Y90391D03*
D95*
X329209Y90483D03*
D96*
X329209Y90574D03*
D97*
X329209Y90665D03*
D98*
X329209Y90757D03*
D99*
X329209Y90848D03*
D100*
X329163Y90940D03*
D101*
X329163Y91031D03*
D102*
X329209Y91123D03*
D103*
X329209Y91214D03*
D104*
X329209Y91306D03*
D105*
X329209Y91397D03*
D106*
X329209Y91488D03*
D107*
X329209Y91580D03*
D108*
X329163Y91671D03*
D109*
X329209Y91763D03*
D110*
X329209Y91854D03*
D111*
X329209Y91946D03*
D112*
X329209Y92037D03*
D113*
X329209Y92128D03*
D114*
X329163Y92220D03*
D115*
X329209Y92311D03*
D116*
X329209Y92403D03*
D117*
X329209Y92494D03*
D118*
X329163Y92586D03*
D119*
X329209Y92677D03*
D120*
X329209Y92769D03*
D121*
X329209Y92860D03*
D122*
X329163Y92951D03*
D123*
X329209Y93043D03*
D124*
X329209Y93134D03*
D125*
X329209Y93226D03*
D126*
X329163Y93317D03*
D127*
X329209Y93409D03*
D128*
X329209Y93500D03*
D129*
X329163Y93592D03*
D130*
X329209Y93683D03*
D131*
X329209Y93774D03*
D132*
X329163Y93866D03*
D133*
X329209Y93957D03*
D134*
X329209Y94049D03*
D135*
X329163Y94140D03*
D136*
X329209Y94232D03*
D137*
X329209Y94323D03*
D138*
X329163Y94414D03*
D139*
X329209Y94506D03*
D140*
X329209Y94597D03*
D141*
X329209Y94689D03*
D142*
X329209Y94780D03*
D143*
X329163Y94872D03*
D144*
X329209Y94963D03*
D145*
X329209Y95055D03*
D146*
X374838Y95146D03*
D147*
X360161Y95146D03*
D148*
X342239Y95146D03*
D149*
X314670Y95146D03*
D150*
X297388Y95146D03*
D151*
X282117Y95146D03*
D152*
X374883Y95237D03*
D153*
X360207Y95237D03*
D154*
X342651Y95237D03*
D155*
X314304Y95237D03*
D147*
X297434Y95237D03*
D156*
X282117Y95237D03*
D152*
X374883Y95329D03*
D157*
X360253Y95329D03*
D158*
X342879Y95329D03*
D150*
X314121Y95329D03*
D153*
X297479Y95329D03*
D159*
X282117Y95329D03*
D160*
X374929Y95420D03*
D161*
X360299Y95420D03*
D162*
X343154Y95420D03*
D163*
X313938Y95420D03*
D157*
X297525Y95420D03*
D164*
X282163Y95420D03*
D165*
X374975Y95512D03*
D166*
X360344Y95512D03*
D167*
X343336Y95512D03*
D168*
X313801Y95512D03*
D163*
X297571Y95512D03*
D169*
X282163Y95512D03*
D165*
X374975Y95603D03*
D170*
X360390Y95603D03*
D171*
X343474Y95603D03*
D172*
X313710Y95603D03*
D166*
X297616Y95603D03*
D173*
X282209Y95603D03*
D174*
X375020Y95695D03*
D175*
X360436Y95695D03*
D176*
X343611Y95695D03*
D177*
X313618Y95695D03*
D178*
X297662Y95695D03*
D179*
X282209Y95695D03*
D180*
X375020Y95786D03*
D168*
X360436Y95786D03*
D181*
X343748Y95786D03*
D182*
X313527Y95786D03*
D168*
X297708Y95786D03*
D183*
X282255Y95786D03*
D184*
X375066Y95878D03*
D185*
X360481Y95878D03*
D186*
X343885Y95878D03*
D187*
X313436Y95878D03*
D185*
X297754Y95878D03*
D188*
X282255Y95878D03*
D184*
X375066Y95969D03*
D172*
X360527Y95969D03*
D186*
X343976Y95969D03*
D189*
X313390Y95969D03*
D172*
X297799Y95969D03*
D190*
X282300Y95969D03*
D191*
X375112Y96060D03*
D192*
X360573Y96060D03*
D193*
X344068Y96060D03*
D194*
X313344Y96060D03*
D192*
X297845Y96060D03*
D195*
X282300Y96060D03*
D191*
X375112Y96152D03*
D196*
X360619Y96152D03*
D193*
X344159Y96152D03*
D197*
X313298Y96152D03*
D196*
X297891Y96152D03*
D198*
X282346Y96152D03*
D186*
X375158Y96243D03*
D199*
X360664Y96243D03*
D193*
X344251Y96243D03*
D148*
X313253Y96243D03*
D199*
X297936Y96243D03*
D200*
X282392Y96243D03*
D186*
X375158Y96335D03*
D182*
X360710Y96335D03*
D186*
X344342Y96335D03*
D201*
X313207Y96335D03*
D182*
X297982Y96335D03*
D202*
X282392Y96335D03*
D181*
X375203Y96426D03*
D203*
X360756Y96426D03*
D186*
X344434Y96426D03*
D204*
X313161Y96426D03*
D182*
X297982Y96426D03*
D205*
X282437Y96426D03*
D181*
X375203Y96518D03*
D206*
X360801Y96518D03*
D181*
X344479Y96518D03*
D204*
X313161Y96518D03*
D203*
X298028Y96518D03*
D207*
X282437Y96518D03*
D208*
X375249Y96609D03*
D209*
X360847Y96609D03*
D181*
X344571Y96609D03*
D210*
X313116Y96609D03*
D206*
X298074Y96609D03*
D211*
X282483Y96609D03*
D208*
X375249Y96700D03*
D212*
X360893Y96700D03*
D171*
X344662Y96700D03*
D213*
X313070Y96700D03*
D189*
X298119Y96700D03*
D214*
X282483Y96700D03*
D171*
X375295Y96792D03*
D197*
X360939Y96792D03*
D171*
X344754Y96792D03*
D213*
X313070Y96792D03*
D194*
X298165Y96792D03*
D215*
X282529Y96792D03*
D216*
X375295Y96883D03*
D217*
X360984Y96883D03*
D218*
X344799Y96883D03*
D219*
X313024Y96883D03*
D220*
X298211Y96883D03*
D221*
X282529Y96883D03*
D167*
X375340Y96975D03*
D201*
X361030Y96975D03*
D167*
X344891Y96975D03*
D222*
X313024Y96975D03*
D148*
X298257Y96975D03*
D146*
X282575Y96975D03*
D167*
X375340Y97066D03*
D204*
X361076Y97066D03*
D223*
X344937Y97066D03*
D222*
X313024Y97066D03*
D201*
X298302Y97066D03*
D160*
X282575Y97066D03*
D223*
X375386Y97158D03*
D210*
X361122Y97158D03*
D223*
X345028Y97158D03*
D224*
X312978Y97158D03*
D204*
X298348Y97158D03*
D165*
X282620Y97158D03*
D223*
X375386Y97249D03*
D210*
X361122Y97249D03*
D162*
X345074Y97249D03*
D224*
X312978Y97249D03*
D210*
X298394Y97249D03*
D180*
X282666Y97249D03*
D162*
X375432Y97341D03*
D213*
X361167Y97341D03*
D225*
X345120Y97341D03*
D224*
X312978Y97341D03*
D213*
X298439Y97341D03*
D226*
X282666Y97341D03*
D162*
X375432Y97432D03*
D222*
X361213Y97432D03*
D225*
X345211Y97432D03*
D154*
X312933Y97432D03*
D222*
X298485Y97432D03*
D181*
X282757Y97432D03*
D227*
X375478Y97523D03*
D224*
X361259Y97523D03*
D158*
X345257Y97523D03*
D154*
X312933Y97523D03*
D224*
X298531Y97523D03*
D171*
X282757Y97523D03*
D227*
X375478Y97615D03*
D154*
X361304Y97615D03*
D228*
X345302Y97615D03*
D154*
X312933Y97615D03*
X298577Y97615D03*
D167*
X282803Y97615D03*
D227*
X375478Y97706D03*
D229*
X361350Y97706D03*
D228*
X345394Y97706D03*
D230*
X312887Y97706D03*
D229*
X298622Y97706D03*
D162*
X282803Y97706D03*
D231*
X375523Y97798D03*
D228*
X361396Y97798D03*
D229*
X345440Y97798D03*
D230*
X312887Y97798D03*
D229*
X298622Y97798D03*
D227*
X282849Y97798D03*
D231*
X375523Y97889D03*
D158*
X361442Y97889D03*
D154*
X345485Y97889D03*
D230*
X312887Y97889D03*
D228*
X298668Y97889D03*
D232*
X282849Y97889D03*
D233*
X375569Y97981D03*
D234*
X361487Y97981D03*
D219*
X345577Y97981D03*
D235*
X312887Y97981D03*
D236*
X298714Y97981D03*
D235*
X282895Y97981D03*
D232*
X375569Y98072D03*
D162*
X361533Y98072D03*
D222*
X345668Y98072D03*
D232*
X312841Y98072D03*
D227*
X298759Y98072D03*
D237*
X282940Y98072D03*
D230*
X375615Y98164D03*
D223*
X361579Y98164D03*
D213*
X345714Y98164D03*
D232*
X312841Y98164D03*
D162*
X298805Y98164D03*
D238*
X282940Y98164D03*
D230*
X375615Y98255D03*
D167*
X361624Y98255D03*
D210*
X345760Y98255D03*
D232*
X312841Y98255D03*
D223*
X298851Y98255D03*
D239*
X282986Y98255D03*
D230*
X375615Y98346D03*
D171*
X361670Y98346D03*
D204*
X345805Y98346D03*
D232*
X312841Y98346D03*
D167*
X298897Y98346D03*
D240*
X282986Y98346D03*
D237*
X375660Y98438D03*
D208*
X361716Y98438D03*
D241*
X345851Y98438D03*
D232*
X312841Y98438D03*
D171*
X298942Y98438D03*
D241*
X283032Y98438D03*
D237*
X375660Y98529D03*
D181*
X361762Y98529D03*
D242*
X345897Y98529D03*
D232*
X312841Y98529D03*
D208*
X298988Y98529D03*
D242*
X283077Y98529D03*
D243*
X375706Y98621D03*
D181*
X361762Y98621D03*
D148*
X345988Y98621D03*
D231*
X312795Y98621D03*
D181*
X299034Y98621D03*
D212*
X283077Y98621D03*
D243*
X375706Y98712D03*
D186*
X361807Y98712D03*
D197*
X346034Y98712D03*
D231*
X312795Y98712D03*
D186*
X299079Y98712D03*
D206*
X283169Y98712D03*
D243*
X375706Y98804D03*
D226*
X361853Y98804D03*
D194*
X346080Y98804D03*
D231*
X312795Y98804D03*
D226*
X299125Y98804D03*
D182*
X283169Y98804D03*
D222*
X375752Y98895D03*
D244*
X361899Y98895D03*
D189*
X346125Y98895D03*
D231*
X312795Y98895D03*
D244*
X299171Y98895D03*
D199*
X283215Y98895D03*
D222*
X375752Y98986D03*
D245*
X361944Y98986D03*
D187*
X346171Y98986D03*
D231*
X312795Y98986D03*
D245*
X299217Y98986D03*
D196*
X283260Y98986D03*
D213*
X375798Y99078D03*
D246*
X361990Y99078D03*
D247*
X346217Y99078D03*
D231*
X312795Y99078D03*
D165*
X299262Y99078D03*
D172*
X283260Y99078D03*
D248*
X375798Y99169D03*
D249*
X362036Y99169D03*
D250*
X346263Y99169D03*
D236*
X312795Y99169D03*
D251*
X299308Y99169D03*
D252*
X283306Y99169D03*
D213*
X375798Y99261D03*
D152*
X362082Y99261D03*
D253*
X346354Y99261D03*
D231*
X312795Y99261D03*
D160*
X299308Y99261D03*
D168*
X283352Y99261D03*
D210*
X375843Y99352D03*
D146*
X362127Y99352D03*
D254*
X346400Y99352D03*
D255*
X329118Y99352D03*
D231*
X312795Y99352D03*
D152*
X299354Y99352D03*
D166*
X283352Y99352D03*
D210*
X375843Y99444D03*
D256*
X362173Y99444D03*
D172*
X346445Y99444D03*
D255*
X329118Y99444D03*
D231*
X312795Y99444D03*
D146*
X299400Y99444D03*
D161*
X283398Y99444D03*
D210*
X375843Y99535D03*
D257*
X362219Y99535D03*
D185*
X346491Y99535D03*
D255*
X329118Y99535D03*
D227*
X312750Y99535D03*
D256*
X299445Y99535D03*
D153*
X283398Y99535D03*
D204*
X375889Y99627D03*
D215*
X362265Y99627D03*
D185*
X346583Y99627D03*
D255*
X329118Y99627D03*
D227*
X312750Y99627D03*
D257*
X299491Y99627D03*
D147*
X283443Y99627D03*
D204*
X375889Y99718D03*
D214*
X362310Y99718D03*
D168*
X346628Y99718D03*
D255*
X329118Y99718D03*
D227*
X312750Y99718D03*
D215*
X299537Y99718D03*
D150*
X283489Y99718D03*
D204*
X375889Y99809D03*
D258*
X362356Y99809D03*
D170*
X346674Y99809D03*
D255*
X329118Y99809D03*
D227*
X312750Y99809D03*
D214*
X299582Y99809D03*
D259*
X283489Y99809D03*
D201*
X375935Y99901D03*
D211*
X362402Y99901D03*
D166*
X346720Y99901D03*
D255*
X329118Y99901D03*
D227*
X312750Y99901D03*
D258*
X299628Y99901D03*
D260*
X283535Y99901D03*
D201*
X375935Y99992D03*
D207*
X362447Y99992D03*
D163*
X346765Y99992D03*
D255*
X329118Y99992D03*
D227*
X312750Y99992D03*
D211*
X299674Y99992D03*
D261*
X283626Y99992D03*
D201*
X375935Y100084D03*
D207*
X362447Y100084D03*
D262*
X346811Y100084D03*
D255*
X329118Y100084D03*
D227*
X312750Y100084D03*
D207*
X299720Y100084D03*
D263*
X283626Y100084D03*
D148*
X375981Y100175D03*
D264*
X362493Y100175D03*
D265*
X346857Y100175D03*
D255*
X329118Y100175D03*
D227*
X312750Y100175D03*
D264*
X299765Y100175D03*
D266*
X283672Y100175D03*
D217*
X375981Y100267D03*
D267*
X362539Y100267D03*
D268*
X346903Y100267D03*
D269*
X329118Y100267D03*
D234*
X312750Y100267D03*
D267*
X299811Y100267D03*
D270*
X283718Y100267D03*
D148*
X375981Y100358D03*
D202*
X362585Y100358D03*
D271*
X346948Y100358D03*
D255*
X329118Y100358D03*
D227*
X312750Y100358D03*
D272*
X299857Y100358D03*
D273*
X283763Y100358D03*
D197*
X376026Y100450D03*
D274*
X362630Y100450D03*
D275*
X346994Y100450D03*
D255*
X329118Y100450D03*
D227*
X312750Y100450D03*
D274*
X299902Y100450D03*
D149*
X283763Y100450D03*
D197*
X376026Y100541D03*
D276*
X362676Y100541D03*
D260*
X347085Y100541D03*
D255*
X329118Y100541D03*
D227*
X312750Y100541D03*
D276*
X299948Y100541D03*
D277*
X283809Y100541D03*
D197*
X376026Y100632D03*
D278*
X362722Y100632D03*
D155*
X347131Y100632D03*
D255*
X329118Y100632D03*
D227*
X312750Y100632D03*
D276*
X299948Y100632D03*
D279*
X283855Y100632D03*
D197*
X376026Y100724D03*
D280*
X362767Y100724D03*
D261*
X347177Y100724D03*
D255*
X329118Y100724D03*
D227*
X312750Y100724D03*
D278*
X299994Y100724D03*
D281*
X283855Y100724D03*
D194*
X376072Y100815D03*
D282*
X362813Y100815D03*
D283*
X347223Y100815D03*
D255*
X329118Y100815D03*
D227*
X312750Y100815D03*
D280*
X300040Y100815D03*
D284*
X283900Y100815D03*
D194*
X376072Y100907D03*
D195*
X362859Y100907D03*
D263*
X347268Y100907D03*
D255*
X329118Y100907D03*
D227*
X312750Y100907D03*
D282*
X300085Y100907D03*
D285*
X283946Y100907D03*
D194*
X376072Y100998D03*
D286*
X362905Y100998D03*
D266*
X347314Y100998D03*
D255*
X329118Y100998D03*
D227*
X312750Y100998D03*
D195*
X300131Y100998D03*
D287*
X283946Y100998D03*
D189*
X376118Y101090D03*
D288*
X362950Y101090D03*
D289*
X347360Y101090D03*
D255*
X329118Y101090D03*
D227*
X312750Y101090D03*
D286*
X300177Y101090D03*
D290*
X283992Y101090D03*
D189*
X376118Y101181D03*
D291*
X362996Y101181D03*
D273*
X347406Y101181D03*
D255*
X329118Y101181D03*
D227*
X312750Y101181D03*
D288*
X300222Y101181D03*
D292*
X284038Y101181D03*
D189*
X376118Y101272D03*
D293*
X363042Y101272D03*
D294*
X347451Y101272D03*
D255*
X329118Y101272D03*
D227*
X312750Y101272D03*
D291*
X300268Y101272D03*
D295*
X284129Y101272D03*
D189*
X376118Y101364D03*
D296*
X363087Y101364D03*
D297*
X347497Y101364D03*
D255*
X329118Y101364D03*
D227*
X312750Y101364D03*
D293*
X300314Y101364D03*
D298*
X284129Y101364D03*
D299*
X376163Y101455D03*
D300*
X363087Y101455D03*
D301*
X347543Y101455D03*
D269*
X329118Y101455D03*
D234*
X312750Y101455D03*
D300*
X300360Y101455D03*
D302*
X284175Y101455D03*
D187*
X376163Y101547D03*
D303*
X363133Y101547D03*
D304*
X347588Y101547D03*
D255*
X329118Y101547D03*
D227*
X312750Y101547D03*
D305*
X300405Y101547D03*
D306*
X284220Y101547D03*
D187*
X376163Y101638D03*
D307*
X363179Y101638D03*
D308*
X347634Y101638D03*
D255*
X329118Y101638D03*
D227*
X312750Y101638D03*
D309*
X300451Y101638D03*
D310*
X284266Y101638D03*
D187*
X376163Y101730D03*
D173*
X363225Y101730D03*
D281*
X347680Y101730D03*
D255*
X329118Y101730D03*
D227*
X312750Y101730D03*
D173*
X300497Y101730D03*
D311*
X284266Y101730D03*
D247*
X376209Y101821D03*
D169*
X363270Y101821D03*
D285*
X347771Y101821D03*
D255*
X329118Y101821D03*
D227*
X312750Y101821D03*
D169*
X300543Y101821D03*
D312*
X284312Y101821D03*
D247*
X376209Y101913D03*
D313*
X363316Y101913D03*
D314*
X347817Y101913D03*
D255*
X329118Y101913D03*
D227*
X312750Y101913D03*
D313*
X300588Y101913D03*
D315*
X284358Y101913D03*
D247*
X376209Y102004D03*
D164*
X363362Y102004D03*
D287*
X347863Y102004D03*
D255*
X329118Y102004D03*
D227*
X312750Y102004D03*
D164*
X300634Y102004D03*
D316*
X284403Y102004D03*
D247*
X376209Y102095D03*
D159*
X363408Y102095D03*
D290*
X347908Y102095D03*
D255*
X329118Y102095D03*
D227*
X312750Y102095D03*
D164*
X300634Y102095D03*
D317*
X284403Y102095D03*
D318*
X376255Y102187D03*
D319*
X363453Y102187D03*
D292*
X347954Y102187D03*
D255*
X329118Y102187D03*
D227*
X312750Y102187D03*
D159*
X300680Y102187D03*
D320*
X284449Y102187D03*
D318*
X376255Y102278D03*
D156*
X363499Y102278D03*
D321*
X348000Y102278D03*
D255*
X329118Y102278D03*
D227*
X312750Y102278D03*
D319*
X300725Y102278D03*
D322*
X284495Y102278D03*
D318*
X376255Y102370D03*
D323*
X363545Y102370D03*
D295*
X348046Y102370D03*
D255*
X329118Y102370D03*
D227*
X312750Y102370D03*
D156*
X300771Y102370D03*
D324*
X284540Y102370D03*
D318*
X376255Y102461D03*
D151*
X363590Y102461D03*
D325*
X348091Y102461D03*
D255*
X329118Y102461D03*
D227*
X312750Y102461D03*
D323*
X300817Y102461D03*
D326*
X284540Y102461D03*
D327*
X376301Y102553D03*
D328*
X363636Y102553D03*
D329*
X348137Y102553D03*
D269*
X329118Y102553D03*
D234*
X312750Y102553D03*
D330*
X300863Y102553D03*
D331*
X284632Y102553D03*
D199*
X376301Y102644D03*
D332*
X363682Y102644D03*
D333*
X348183Y102644D03*
D255*
X329118Y102644D03*
D227*
X312750Y102644D03*
D334*
X300908Y102644D03*
D335*
X284678Y102644D03*
D199*
X376301Y102736D03*
D336*
X363728Y102736D03*
D306*
X348228Y102736D03*
D255*
X329118Y102736D03*
D227*
X312750Y102736D03*
D332*
X300954Y102736D03*
D337*
X284723Y102736D03*
D199*
X376301Y102827D03*
D338*
X363773Y102827D03*
D310*
X348274Y102827D03*
D255*
X329118Y102827D03*
D227*
X312750Y102827D03*
D339*
X301000Y102827D03*
D340*
X284769Y102827D03*
D199*
X376301Y102918D03*
D338*
X363773Y102918D03*
D341*
X348320Y102918D03*
D255*
X329118Y102918D03*
D227*
X312750Y102918D03*
D338*
X301045Y102918D03*
D342*
X284769Y102918D03*
D196*
X376346Y103010D03*
D343*
X363819Y103010D03*
D311*
X348366Y103010D03*
D255*
X329118Y103010D03*
D227*
X312750Y103010D03*
D343*
X301091Y103010D03*
D344*
X284815Y103010D03*
D196*
X376346Y103101D03*
D345*
X363865Y103101D03*
D315*
X348457Y103101D03*
D255*
X329118Y103101D03*
D227*
X312750Y103101D03*
D345*
X301137Y103101D03*
D346*
X284861Y103101D03*
D196*
X376346Y103193D03*
D347*
X363910Y103193D03*
D316*
X348503Y103193D03*
D255*
X329118Y103193D03*
D227*
X312750Y103193D03*
D347*
X301183Y103193D03*
D348*
X284906Y103193D03*
D196*
X376346Y103284D03*
D349*
X363956Y103284D03*
D350*
X348549Y103284D03*
D255*
X329118Y103284D03*
D227*
X312750Y103284D03*
D349*
X301228Y103284D03*
D351*
X284952Y103284D03*
D196*
X376346Y103376D03*
D352*
X364002Y103376D03*
D353*
X348594Y103376D03*
D255*
X329118Y103376D03*
D227*
X312750Y103376D03*
D352*
X301274Y103376D03*
D354*
X284998Y103376D03*
D196*
X376346Y103467D03*
D355*
X364048Y103467D03*
D356*
X348640Y103467D03*
D255*
X329118Y103467D03*
D227*
X312750Y103467D03*
D352*
X301274Y103467D03*
D357*
X284998Y103467D03*
D192*
X376392Y103558D03*
D358*
X364093Y103558D03*
D356*
X348640Y103558D03*
D255*
X329118Y103558D03*
D227*
X312750Y103558D03*
D358*
X301274Y103558D03*
D359*
X285043Y103558D03*
D192*
X376392Y103650D03*
D163*
X346765Y103650D03*
D255*
X329118Y103650D03*
D227*
X312750Y103650D03*
D308*
X283169Y103650D03*
D360*
X376392Y103741D03*
D361*
X346537Y103741D03*
D269*
X329118Y103741D03*
D234*
X312750Y103741D03*
D362*
X282940Y103741D03*
D192*
X376392Y103833D03*
D363*
X346400Y103833D03*
D255*
X329118Y103833D03*
D227*
X312750Y103833D03*
D283*
X282757Y103833D03*
D192*
X376392Y103924D03*
D187*
X346263Y103924D03*
D255*
X329118Y103924D03*
D227*
X312750Y103924D03*
D260*
X282620Y103924D03*
D192*
X376392Y104016D03*
D197*
X346125Y104016D03*
D255*
X329118Y104016D03*
D227*
X312750Y104016D03*
D259*
X282483Y104016D03*
D172*
X376438Y104107D03*
D201*
X346034Y104107D03*
D255*
X329118Y104107D03*
D227*
X312750Y104107D03*
D150*
X282392Y104107D03*
D172*
X376438Y104199D03*
D210*
X345942Y104199D03*
D255*
X329118Y104199D03*
D227*
X312750Y104199D03*
D153*
X282300Y104199D03*
D172*
X376438Y104290D03*
D239*
X345897Y104290D03*
D255*
X329118Y104290D03*
D227*
X312750Y104290D03*
D161*
X282209Y104290D03*
D172*
X376438Y104381D03*
D238*
X345851Y104381D03*
D282*
X332821Y104381D03*
D227*
X312750Y104381D03*
D166*
X282163Y104381D03*
D172*
X376438Y104473D03*
D237*
X345760Y104473D03*
D282*
X332821Y104473D03*
D227*
X312750Y104473D03*
D170*
X282117Y104473D03*
D172*
X376438Y104564D03*
D230*
X345714Y104564D03*
D282*
X332821Y104564D03*
D227*
X312750Y104564D03*
D168*
X282072Y104564D03*
D172*
X376438Y104656D03*
D232*
X345668Y104656D03*
D282*
X332821Y104656D03*
D227*
X312750Y104656D03*
D168*
X281980Y104656D03*
D185*
X376483Y104747D03*
D231*
X345622Y104747D03*
D282*
X332821Y104747D03*
D227*
X312750Y104747D03*
D185*
X281934Y104747D03*
D252*
X376483Y104839D03*
D234*
X345577Y104839D03*
D364*
X332821Y104839D03*
D234*
X312750Y104839D03*
D361*
X281889Y104839D03*
D185*
X376483Y104930D03*
D227*
X345577Y104930D03*
D282*
X332821Y104930D03*
D227*
X312750Y104930D03*
D192*
X281843Y104930D03*
D185*
X376483Y105022D03*
D162*
X345531Y105022D03*
D282*
X332821Y105022D03*
D227*
X312750Y105022D03*
D196*
X281797Y105022D03*
D185*
X376483Y105113D03*
D223*
X345485Y105113D03*
D282*
X332821Y105113D03*
D227*
X312750Y105113D03*
D196*
X281797Y105113D03*
D185*
X376483Y105204D03*
D223*
X345485Y105204D03*
D282*
X332821Y105204D03*
D227*
X312750Y105204D03*
D199*
X281752Y105204D03*
D185*
X376483Y105296D03*
D167*
X345440Y105296D03*
D282*
X332821Y105296D03*
D227*
X312750Y105296D03*
D199*
X281752Y105296D03*
D185*
X376483Y105387D03*
D167*
X345440Y105387D03*
D282*
X332821Y105387D03*
D227*
X312750Y105387D03*
D182*
X281706Y105387D03*
D185*
X376483Y105479D03*
D171*
X345394Y105479D03*
D282*
X332821Y105479D03*
D227*
X312750Y105479D03*
D199*
X281660Y105479D03*
D185*
X376483Y105570D03*
D171*
X345394Y105570D03*
D282*
X332821Y105570D03*
D227*
X312750Y105570D03*
D182*
X281614Y105570D03*
D168*
X376529Y105662D03*
D208*
X345348Y105662D03*
D282*
X332821Y105662D03*
D227*
X312750Y105662D03*
D182*
X281614Y105662D03*
D168*
X376529Y105753D03*
D208*
X345348Y105753D03*
D282*
X332821Y105753D03*
D227*
X312750Y105753D03*
D203*
X281569Y105753D03*
D168*
X376529Y105844D03*
D208*
X345348Y105844D03*
D282*
X332821Y105844D03*
D227*
X312750Y105844D03*
D203*
X281569Y105844D03*
D168*
X376529Y105936D03*
D365*
X345302Y105936D03*
D282*
X332821Y105936D03*
D227*
X312750Y105936D03*
D203*
X281569Y105936D03*
D175*
X376529Y106027D03*
D366*
X345302Y106027D03*
D364*
X332821Y106027D03*
D234*
X312750Y106027D03*
D299*
X281523Y106027D03*
D168*
X376529Y106119D03*
D365*
X345302Y106119D03*
D282*
X332821Y106119D03*
D227*
X312750Y106119D03*
D187*
X281523Y106119D03*
D168*
X376529Y106210D03*
D193*
X345257Y106210D03*
D282*
X332821Y106210D03*
D227*
X312750Y106210D03*
D187*
X281523Y106210D03*
D168*
X376529Y106302D03*
D193*
X345257Y106302D03*
D282*
X332821Y106302D03*
D227*
X312750Y106302D03*
D187*
X281523Y106302D03*
D168*
X376529Y106393D03*
D193*
X345257Y106393D03*
D282*
X332821Y106393D03*
D227*
X312750Y106393D03*
D189*
X281477Y106393D03*
D168*
X376529Y106485D03*
D193*
X345257Y106485D03*
D282*
X332821Y106485D03*
D227*
X312750Y106485D03*
D189*
X281477Y106485D03*
D168*
X376529Y106576D03*
D193*
X345257Y106576D03*
D282*
X332821Y106576D03*
D227*
X312750Y106576D03*
D189*
X281477Y106576D03*
D168*
X376529Y106667D03*
D191*
X345211Y106667D03*
D282*
X332821Y106667D03*
D227*
X312750Y106667D03*
D189*
X281477Y106667D03*
D168*
X376529Y106759D03*
D191*
X345211Y106759D03*
D282*
X332821Y106759D03*
D227*
X312750Y106759D03*
D189*
X281477Y106759D03*
D168*
X376529Y106850D03*
D191*
X345211Y106850D03*
D282*
X332821Y106850D03*
D227*
X312750Y106850D03*
D187*
X281432Y106850D03*
D168*
X376529Y106942D03*
D191*
X345211Y106942D03*
D282*
X332821Y106942D03*
D227*
X312750Y106942D03*
D189*
X281386Y106942D03*
D168*
X376529Y107033D03*
D191*
X345211Y107033D03*
D282*
X332821Y107033D03*
D227*
X312750Y107033D03*
D189*
X281386Y107033D03*
D175*
X376529Y107125D03*
D367*
X345211Y107125D03*
D364*
X332821Y107125D03*
D234*
X312750Y107125D03*
D368*
X281386Y107125D03*
D168*
X376529Y107216D03*
D191*
X345211Y107216D03*
D282*
X332821Y107216D03*
D227*
X312750Y107216D03*
D189*
X281386Y107216D03*
D168*
X376529Y107308D03*
D191*
X345211Y107308D03*
D282*
X332821Y107308D03*
D227*
X312750Y107308D03*
D189*
X281386Y107308D03*
D168*
X376529Y107399D03*
D201*
X361030Y107399D03*
D191*
X345211Y107399D03*
D282*
X332821Y107399D03*
D227*
X312750Y107399D03*
D201*
X298211Y107399D03*
D189*
X281386Y107399D03*
D170*
X376575Y107490D03*
D196*
X360619Y107490D03*
D184*
X345165Y107490D03*
D282*
X332821Y107490D03*
D227*
X312750Y107490D03*
D192*
X297845Y107490D03*
D189*
X281386Y107490D03*
D170*
X376575Y107582D03*
D185*
X360481Y107582D03*
D184*
X345165Y107582D03*
D282*
X332821Y107582D03*
D227*
X312750Y107582D03*
D168*
X297708Y107582D03*
D189*
X281386Y107582D03*
D170*
X376575Y107673D03*
X360390Y107673D03*
D184*
X345165Y107673D03*
D282*
X332821Y107673D03*
D227*
X312750Y107673D03*
D166*
X297616Y107673D03*
D189*
X281386Y107673D03*
D170*
X376575Y107765D03*
D166*
X360344Y107765D03*
D184*
X345165Y107765D03*
D282*
X332821Y107765D03*
D227*
X312750Y107765D03*
D163*
X297571Y107765D03*
D189*
X281386Y107765D03*
D170*
X376575Y107856D03*
D161*
X360299Y107856D03*
D184*
X345165Y107856D03*
D282*
X332821Y107856D03*
D227*
X312750Y107856D03*
D157*
X297525Y107856D03*
D189*
X281386Y107856D03*
D170*
X376575Y107948D03*
D157*
X360253Y107948D03*
D184*
X345165Y107948D03*
D282*
X332821Y107948D03*
D227*
X312750Y107948D03*
D153*
X297479Y107948D03*
D189*
X281386Y107948D03*
D170*
X376575Y108039D03*
D153*
X360207Y108039D03*
D184*
X345165Y108039D03*
D282*
X332821Y108039D03*
D227*
X312750Y108039D03*
D147*
X297434Y108039D03*
D189*
X281386Y108039D03*
D170*
X376575Y108130D03*
D153*
X360207Y108130D03*
D184*
X345165Y108130D03*
D369*
X322122Y108130D03*
D147*
X297434Y108130D03*
D189*
X281386Y108130D03*
D170*
X376575Y108222D03*
D147*
X360161Y108222D03*
D184*
X345165Y108222D03*
D369*
X322122Y108222D03*
D150*
X297388Y108222D03*
D189*
X281386Y108222D03*
D178*
X376575Y108313D03*
D370*
X360161Y108313D03*
D371*
X345165Y108313D03*
D372*
X322122Y108313D03*
D373*
X297388Y108313D03*
D368*
X281386Y108313D03*
D170*
X376575Y108405D03*
D150*
X360116Y108405D03*
D184*
X345165Y108405D03*
D369*
X322122Y108405D03*
D150*
X297388Y108405D03*
D189*
X281386Y108405D03*
D170*
X376575Y108496D03*
D150*
X360116Y108496D03*
D184*
X345165Y108496D03*
D369*
X322122Y108496D03*
D150*
X297388Y108496D03*
D189*
X281386Y108496D03*
D170*
X376575Y108588D03*
D150*
X360116Y108588D03*
D184*
X345165Y108588D03*
D369*
X322122Y108588D03*
D374*
X297342Y108588D03*
D189*
X281386Y108588D03*
D170*
X376575Y108679D03*
D150*
X360116Y108679D03*
D184*
X345165Y108679D03*
D369*
X322122Y108679D03*
D374*
X297342Y108679D03*
D189*
X281386Y108679D03*
D170*
X376575Y108771D03*
D150*
X360116Y108771D03*
D184*
X345165Y108771D03*
D369*
X322122Y108771D03*
D374*
X297342Y108771D03*
D189*
X281386Y108771D03*
D170*
X376575Y108862D03*
D150*
X360116Y108862D03*
D184*
X345165Y108862D03*
D369*
X322122Y108862D03*
D374*
X297342Y108862D03*
D189*
X281386Y108862D03*
D170*
X376575Y108953D03*
D150*
X360116Y108953D03*
D184*
X345165Y108953D03*
D369*
X322122Y108953D03*
D374*
X297342Y108953D03*
D189*
X281386Y108953D03*
D170*
X376575Y109045D03*
D374*
X360070Y109045D03*
D184*
X345165Y109045D03*
D369*
X322122Y109045D03*
D374*
X297342Y109045D03*
D189*
X281386Y109045D03*
D170*
X376575Y109136D03*
D374*
X360070Y109136D03*
D184*
X345165Y109136D03*
D369*
X322122Y109136D03*
D374*
X297342Y109136D03*
D189*
X281386Y109136D03*
D170*
X376575Y109228D03*
D374*
X360070Y109228D03*
D184*
X345165Y109228D03*
D369*
X322122Y109228D03*
D374*
X297342Y109228D03*
D189*
X281386Y109228D03*
D170*
X376575Y109319D03*
D374*
X360070Y109319D03*
D184*
X345165Y109319D03*
D369*
X322122Y109319D03*
D374*
X297342Y109319D03*
D189*
X281386Y109319D03*
D178*
X376575Y109411D03*
D375*
X360070Y109411D03*
D371*
X345165Y109411D03*
D372*
X322122Y109411D03*
D375*
X297342Y109411D03*
D368*
X281386Y109411D03*
D170*
X376575Y109502D03*
D374*
X360070Y109502D03*
D184*
X345165Y109502D03*
D369*
X322122Y109502D03*
D374*
X297342Y109502D03*
D189*
X281386Y109502D03*
D170*
X376575Y109594D03*
D374*
X360070Y109594D03*
D184*
X345165Y109594D03*
D369*
X322122Y109594D03*
D374*
X297342Y109594D03*
D189*
X281386Y109594D03*
D170*
X376575Y109685D03*
D374*
X360070Y109685D03*
D184*
X345165Y109685D03*
D369*
X322122Y109685D03*
D374*
X297342Y109685D03*
D189*
X281386Y109685D03*
D170*
X376575Y109776D03*
D374*
X360070Y109776D03*
D184*
X345165Y109776D03*
D369*
X322122Y109776D03*
D374*
X297342Y109776D03*
D189*
X281386Y109776D03*
D170*
X376575Y109868D03*
D374*
X360070Y109868D03*
D184*
X345165Y109868D03*
D369*
X322122Y109868D03*
D374*
X297342Y109868D03*
D189*
X281386Y109868D03*
D170*
X376575Y109959D03*
D374*
X360070Y109959D03*
D184*
X345165Y109959D03*
D369*
X322122Y109959D03*
D374*
X297342Y109959D03*
D189*
X281386Y109959D03*
D170*
X376575Y110051D03*
D374*
X360070Y110051D03*
D184*
X345165Y110051D03*
D369*
X322122Y110051D03*
D374*
X297342Y110051D03*
D189*
X281386Y110051D03*
D170*
X376575Y110142D03*
D374*
X360070Y110142D03*
D184*
X345165Y110142D03*
D369*
X322122Y110142D03*
D374*
X297342Y110142D03*
D189*
X281386Y110142D03*
D170*
X376575Y110234D03*
D374*
X360070Y110234D03*
D184*
X345165Y110234D03*
D369*
X322122Y110234D03*
D374*
X297342Y110234D03*
D189*
X281386Y110234D03*
D170*
X376575Y110325D03*
D374*
X360070Y110325D03*
D184*
X345165Y110325D03*
D369*
X322122Y110325D03*
D374*
X297342Y110325D03*
D189*
X281386Y110325D03*
D170*
X376575Y110416D03*
D374*
X360070Y110416D03*
D184*
X345165Y110416D03*
D369*
X322122Y110416D03*
D374*
X297342Y110416D03*
D189*
X281386Y110416D03*
D170*
X376575Y110508D03*
D374*
X360070Y110508D03*
D184*
X345165Y110508D03*
D369*
X322122Y110508D03*
D374*
X297342Y110508D03*
D189*
X281386Y110508D03*
D178*
X376575Y110599D03*
D375*
X360070Y110599D03*
D371*
X345165Y110599D03*
D372*
X322122Y110599D03*
D375*
X297342Y110599D03*
D368*
X281386Y110599D03*
D170*
X376575Y110691D03*
D374*
X360070Y110691D03*
D184*
X345165Y110691D03*
D369*
X322122Y110691D03*
D374*
X297342Y110691D03*
D189*
X281386Y110691D03*
D170*
X376575Y110782D03*
D374*
X360070Y110782D03*
D184*
X345165Y110782D03*
D369*
X322122Y110782D03*
D374*
X297342Y110782D03*
D189*
X281386Y110782D03*
D170*
X376575Y110874D03*
D374*
X360070Y110874D03*
D184*
X345165Y110874D03*
D369*
X322122Y110874D03*
D374*
X297342Y110874D03*
D189*
X281386Y110874D03*
D170*
X376575Y110965D03*
D374*
X360070Y110965D03*
D184*
X345165Y110965D03*
D369*
X322122Y110965D03*
D374*
X297342Y110965D03*
D189*
X281386Y110965D03*
D170*
X376575Y111057D03*
D374*
X360070Y111057D03*
D184*
X345165Y111057D03*
D255*
X329118Y111057D03*
D281*
X314853Y111057D03*
D374*
X297342Y111057D03*
D189*
X281386Y111057D03*
D170*
X376575Y111148D03*
D374*
X360070Y111148D03*
D184*
X345165Y111148D03*
D255*
X329118Y111148D03*
D294*
X314624Y111148D03*
D374*
X297342Y111148D03*
D189*
X281386Y111148D03*
D170*
X376575Y111239D03*
D374*
X360070Y111239D03*
D184*
X345165Y111239D03*
D255*
X329118Y111239D03*
D283*
X314396Y111239D03*
D374*
X297342Y111239D03*
D189*
X281386Y111239D03*
D170*
X376575Y111331D03*
D374*
X360070Y111331D03*
D184*
X345165Y111331D03*
D255*
X329118Y111331D03*
D374*
X314167Y111331D03*
X297342Y111331D03*
D189*
X281386Y111331D03*
D170*
X376575Y111422D03*
D374*
X360070Y111422D03*
D184*
X345165Y111422D03*
D255*
X329118Y111422D03*
D262*
X313984Y111422D03*
D374*
X297342Y111422D03*
D189*
X281386Y111422D03*
D170*
X376575Y111514D03*
D374*
X360070Y111514D03*
D184*
X345165Y111514D03*
D255*
X329118Y111514D03*
D185*
X313756Y111514D03*
D374*
X297342Y111514D03*
D189*
X281386Y111514D03*
D170*
X376575Y111605D03*
D374*
X360070Y111605D03*
D184*
X345165Y111605D03*
D255*
X329118Y111605D03*
D182*
X313527Y111605D03*
D374*
X297342Y111605D03*
D189*
X281386Y111605D03*
D178*
X376575Y111697D03*
D375*
X360070Y111697D03*
D371*
X345165Y111697D03*
D269*
X329118Y111697D03*
D220*
X313298Y111697D03*
D375*
X297342Y111697D03*
D368*
X281386Y111697D03*
D170*
X376575Y111788D03*
D374*
X360070Y111788D03*
D184*
X345165Y111788D03*
D255*
X329118Y111788D03*
D213*
X313070Y111788D03*
D374*
X297342Y111788D03*
D189*
X281386Y111788D03*
D170*
X376575Y111880D03*
D374*
X360070Y111880D03*
D184*
X345165Y111880D03*
D255*
X329118Y111880D03*
D232*
X312841Y111880D03*
D374*
X297342Y111880D03*
D189*
X281386Y111880D03*
D170*
X376575Y111971D03*
D374*
X360070Y111971D03*
D184*
X345165Y111971D03*
D255*
X329118Y111971D03*
D227*
X312750Y111971D03*
D374*
X297342Y111971D03*
D189*
X281386Y111971D03*
D170*
X376575Y112062D03*
D150*
X360116Y112062D03*
D184*
X345165Y112062D03*
D255*
X329118Y112062D03*
D227*
X312750Y112062D03*
D374*
X297342Y112062D03*
D189*
X281386Y112062D03*
D170*
X376575Y112154D03*
D150*
X360116Y112154D03*
D184*
X345165Y112154D03*
D255*
X329118Y112154D03*
D227*
X312750Y112154D03*
D374*
X297342Y112154D03*
D189*
X281386Y112154D03*
D170*
X376575Y112245D03*
D150*
X360116Y112245D03*
D184*
X345165Y112245D03*
D255*
X329118Y112245D03*
D227*
X312750Y112245D03*
D374*
X297342Y112245D03*
D189*
X281386Y112245D03*
D170*
X376575Y112337D03*
D150*
X360116Y112337D03*
D184*
X345165Y112337D03*
D255*
X329118Y112337D03*
D227*
X312750Y112337D03*
D374*
X297342Y112337D03*
D189*
X281386Y112337D03*
D170*
X376575Y112428D03*
D150*
X360116Y112428D03*
D184*
X345165Y112428D03*
D255*
X329118Y112428D03*
D227*
X312750Y112428D03*
D374*
X297342Y112428D03*
D189*
X281386Y112428D03*
D170*
X376575Y112520D03*
D150*
X360116Y112520D03*
D184*
X345165Y112520D03*
D255*
X329118Y112520D03*
D227*
X312750Y112520D03*
D150*
X297388Y112520D03*
D189*
X281386Y112520D03*
D170*
X376575Y112611D03*
D150*
X360116Y112611D03*
D184*
X345165Y112611D03*
D255*
X329118Y112611D03*
D227*
X312750Y112611D03*
D150*
X297388Y112611D03*
D189*
X281386Y112611D03*
D170*
X376575Y112702D03*
D147*
X360161Y112702D03*
D184*
X345165Y112702D03*
D255*
X329118Y112702D03*
D227*
X312750Y112702D03*
D150*
X297388Y112702D03*
D189*
X281386Y112702D03*
D170*
X376575Y112794D03*
D147*
X360161Y112794D03*
D184*
X345165Y112794D03*
D255*
X329118Y112794D03*
D227*
X312750Y112794D03*
D150*
X297388Y112794D03*
D189*
X281386Y112794D03*
D178*
X376575Y112885D03*
D370*
X360161Y112885D03*
D371*
X345165Y112885D03*
D269*
X329118Y112885D03*
D234*
X312750Y112885D03*
D370*
X297434Y112885D03*
D368*
X281386Y112885D03*
D170*
X376575Y112977D03*
D153*
X360207Y112977D03*
D184*
X345165Y112977D03*
D255*
X329118Y112977D03*
D227*
X312750Y112977D03*
D147*
X297434Y112977D03*
D189*
X281386Y112977D03*
D170*
X376575Y113068D03*
D157*
X360253Y113068D03*
D191*
X345120Y113068D03*
D255*
X329118Y113068D03*
D227*
X312750Y113068D03*
D153*
X297479Y113068D03*
D189*
X281386Y113068D03*
D170*
X376575Y113160D03*
D157*
X360253Y113160D03*
D191*
X345120Y113160D03*
D255*
X329118Y113160D03*
D227*
X312750Y113160D03*
D157*
X297525Y113160D03*
D189*
X281386Y113160D03*
D170*
X376575Y113251D03*
D161*
X360299Y113251D03*
D191*
X345120Y113251D03*
D255*
X329118Y113251D03*
D231*
X312795Y113251D03*
D163*
X297571Y113251D03*
D189*
X281386Y113251D03*
D170*
X376575Y113343D03*
X360390Y113343D03*
D191*
X345120Y113343D03*
D255*
X329118Y113343D03*
D231*
X312795Y113343D03*
D166*
X297616Y113343D03*
D189*
X281386Y113343D03*
D170*
X376575Y113434D03*
D185*
X360481Y113434D03*
D191*
X345120Y113434D03*
D255*
X329118Y113434D03*
D231*
X312795Y113434D03*
D168*
X297708Y113434D03*
D189*
X281386Y113434D03*
D170*
X376575Y113525D03*
D196*
X360619Y113525D03*
D191*
X345120Y113525D03*
D231*
X312795Y113525D03*
D192*
X297845Y113525D03*
D189*
X281386Y113525D03*
D170*
X376575Y113617D03*
D212*
X360893Y113617D03*
D191*
X345120Y113617D03*
D231*
X312795Y113617D03*
D197*
X298119Y113617D03*
D189*
X281386Y113617D03*
D170*
X376575Y113708D03*
D193*
X345165Y113708D03*
D231*
X312795Y113708D03*
D189*
X281386Y113708D03*
D170*
X376575Y113800D03*
D193*
X345165Y113800D03*
D231*
X312795Y113800D03*
D189*
X281386Y113800D03*
D170*
X376575Y113891D03*
D193*
X345165Y113891D03*
D231*
X312795Y113891D03*
D189*
X281386Y113891D03*
D178*
X376575Y113983D03*
D376*
X345165Y113983D03*
D236*
X312795Y113983D03*
D368*
X281386Y113983D03*
D170*
X376575Y114074D03*
D181*
X345119Y114074D03*
D231*
X312795Y114074D03*
D189*
X281386Y114074D03*
D170*
X376575Y114166D03*
D181*
X345119Y114166D03*
D232*
X312841Y114166D03*
D189*
X281386Y114166D03*
D170*
X376575Y114257D03*
D181*
X345119Y114257D03*
D232*
X312841Y114257D03*
D187*
X281432Y114257D03*
D170*
X376575Y114348D03*
D181*
X345119Y114348D03*
D232*
X312841Y114348D03*
D187*
X281432Y114348D03*
D170*
X376575Y114440D03*
D181*
X345119Y114440D03*
D232*
X312841Y114440D03*
D187*
X281432Y114440D03*
D170*
X376575Y114531D03*
D208*
X345165Y114531D03*
D232*
X312841Y114531D03*
D187*
X281432Y114531D03*
D170*
X376575Y114623D03*
D171*
X345119Y114623D03*
D232*
X312841Y114623D03*
D187*
X281432Y114623D03*
D170*
X376575Y114714D03*
D171*
X345119Y114714D03*
D230*
X312887Y114714D03*
D187*
X281432Y114714D03*
D170*
X376575Y114806D03*
D171*
X345119Y114806D03*
D230*
X312887Y114806D03*
D247*
X281477Y114806D03*
D170*
X376575Y114897D03*
D167*
X345165Y114897D03*
D230*
X312887Y114897D03*
D247*
X281477Y114897D03*
D170*
X376575Y114988D03*
D223*
X345119Y114988D03*
D230*
X312887Y114988D03*
D247*
X281477Y114988D03*
D170*
X376575Y115080D03*
D223*
X345119Y115080D03*
D154*
X312933Y115080D03*
D182*
X281523Y115080D03*
D178*
X376575Y115171D03*
D377*
X345119Y115171D03*
D378*
X312933Y115171D03*
D379*
X281523Y115171D03*
D170*
X376575Y115263D03*
D225*
X345120Y115263D03*
D154*
X312933Y115263D03*
D182*
X281523Y115263D03*
D170*
X376575Y115354D03*
D225*
X345120Y115354D03*
D224*
X312978Y115354D03*
D199*
X281569Y115354D03*
D170*
X376575Y115446D03*
D225*
X345120Y115446D03*
D224*
X312978Y115446D03*
D199*
X281569Y115446D03*
D170*
X376575Y115537D03*
D228*
X345120Y115537D03*
D222*
X313024Y115537D03*
D199*
X281569Y115537D03*
D170*
X376575Y115629D03*
D228*
X345120Y115629D03*
D222*
X313024Y115629D03*
D196*
X281614Y115629D03*
D170*
X376575Y115720D03*
D154*
X345120Y115720D03*
D222*
X313024Y115720D03*
D196*
X281614Y115720D03*
D170*
X376575Y115811D03*
D154*
X345120Y115811D03*
D213*
X313070Y115811D03*
D192*
X281660Y115811D03*
D170*
X376575Y115903D03*
D222*
X345120Y115903D03*
D213*
X313070Y115903D03*
D192*
X281660Y115903D03*
D170*
X376575Y115994D03*
D213*
X345165Y115994D03*
D210*
X313116Y115994D03*
D172*
X281706Y115994D03*
D170*
X376575Y116086D03*
D210*
X345120Y116086D03*
D204*
X313161Y116086D03*
D185*
X281752Y116086D03*
D170*
X376575Y116177D03*
D204*
X345165Y116177D03*
X313161Y116177D03*
D185*
X281752Y116177D03*
D178*
X376575Y116269D03*
D217*
X345165Y116269D03*
D380*
X313207Y116269D03*
D175*
X281797Y116269D03*
D170*
X376575Y116360D03*
D194*
X345165Y116360D03*
D148*
X313253Y116360D03*
D170*
X281843Y116360D03*
X376575Y116452D03*
D189*
X345120Y116452D03*
D197*
X313298Y116452D03*
D166*
X281889Y116452D03*
D170*
X376575Y116543D03*
D318*
X345165Y116543D03*
D194*
X313344Y116543D03*
D163*
X281934Y116543D03*
D170*
X376575Y116634D03*
D196*
X345165Y116634D03*
D189*
X313390Y116634D03*
D262*
X281980Y116634D03*
D170*
X376575Y116726D03*
D172*
X345165Y116726D03*
D187*
X313436Y116726D03*
D265*
X282026Y116726D03*
D170*
X376575Y116817D03*
X345119Y116817D03*
D182*
X313527Y116817D03*
D150*
X282117Y116817D03*
D170*
X376575Y116909D03*
D153*
X345120Y116909D03*
D196*
X313618Y116909D03*
D374*
X282163Y116909D03*
D170*
X376575Y117000D03*
D259*
X345120Y117000D03*
D172*
X313710Y117000D03*
D260*
X282255Y117000D03*
D170*
X376575Y117092D03*
D283*
X345120Y117092D03*
D168*
X313801Y117092D03*
D283*
X282392Y117092D03*
D170*
X376575Y117183D03*
D297*
X345120Y117183D03*
D163*
X313938Y117183D03*
D266*
X282483Y117183D03*
D170*
X376575Y117274D03*
D285*
X345119Y117274D03*
D147*
X314076Y117274D03*
D294*
X282620Y117274D03*
D170*
X376575Y117366D03*
D381*
X345074Y117366D03*
D155*
X314304Y117366D03*
D308*
X282803Y117366D03*
D178*
X376575Y117457D03*
D382*
X345028Y117457D03*
D383*
X314624Y117457D03*
D384*
X283123Y117457D03*
D385*
X329209Y117549D03*
X329209Y117640D03*
X329209Y117732D03*
X329209Y117823D03*
X329209Y117915D03*
X329209Y118006D03*
X329209Y118097D03*
X329209Y118189D03*
X329209Y118280D03*
X329209Y118372D03*
X329209Y118463D03*
D386*
X329209Y118555D03*
D385*
X329209Y118646D03*
X329209Y118738D03*
X329209Y118829D03*
X329209Y118920D03*
X329209Y119012D03*
X329209Y119103D03*
X329209Y119195D03*
X329209Y119286D03*
X329209Y119378D03*
X329209Y119469D03*
X329209Y119560D03*
X329209Y119652D03*
D386*
X329209Y119743D03*
D385*
X329209Y119835D03*
X329209Y119926D03*
X329209Y120018D03*
X329209Y120109D03*
X329209Y120201D03*
X329209Y120292D03*
X329209Y120383D03*
X329209Y120475D03*
X329209Y120566D03*
X329209Y120658D03*
X329209Y120749D03*
D386*
X329209Y120841D03*
D385*
X329209Y120932D03*
X329209Y121024D03*
X329209Y121115D03*
X329209Y121206D03*
X329209Y121298D03*
X329209Y121389D03*
X329209Y121481D03*
X329209Y121572D03*
X329209Y121664D03*
X329209Y121755D03*
X329209Y121846D03*
X329209Y121938D03*
D386*
X329209Y122029D03*
D385*
X329209Y122121D03*
X329209Y122212D03*
X329209Y122304D03*
X329209Y122395D03*
X329209Y122487D03*
X329209Y122578D03*
X329209Y122669D03*
X329209Y122761D03*
X329209Y122852D03*
X329209Y122944D03*
X329209Y123035D03*
D386*
X329209Y123127D03*
D385*
X329209Y123218D03*
X329209Y123310D03*
X329209Y123401D03*
X329209Y123492D03*
X329209Y123584D03*
X329209Y123675D03*
X329209Y123767D03*
X329209Y123858D03*
X329209Y123950D03*
X329209Y124041D03*
X329209Y124132D03*
X329209Y124224D03*
D386*
X329209Y124315D03*
D385*
X329209Y124407D03*
X329209Y124498D03*
X329209Y124590D03*
X329209Y124681D03*
X329209Y124773D03*
X329209Y124864D03*
X329209Y124955D03*
X329209Y125047D03*
X329209Y125138D03*
X329209Y125230D03*
X329209Y125321D03*
D386*
X329209Y125413D03*
D385*
X329209Y125504D03*
X329209Y125596D03*
X329209Y125687D03*
X329209Y125778D03*
X329209Y125870D03*
X329209Y125961D03*
X329209Y126053D03*
X329209Y126144D03*
X329209Y126236D03*
X329209Y126327D03*
X329209Y126418D03*
X329209Y126510D03*
D386*
X329209Y126601D03*
D387*
X329209Y126693D03*
D385*
X329209Y136203D03*
X329209Y136294D03*
X329209Y136385D03*
X329209Y136477D03*
X329209Y136568D03*
X329209Y136660D03*
X329209Y136751D03*
D386*
X329209Y136843D03*
D385*
X329209Y136934D03*
X329209Y137026D03*
X329209Y137117D03*
X329209Y137208D03*
X329209Y137300D03*
X329209Y137391D03*
X329209Y137483D03*
X329209Y137574D03*
X329209Y137666D03*
X329209Y137757D03*
X329209Y137848D03*
X329209Y137940D03*
D386*
X329209Y138031D03*
D385*
X329209Y138123D03*
X329209Y138214D03*
X329209Y138306D03*
X329209Y138397D03*
X329209Y138489D03*
X329209Y138580D03*
X329209Y138671D03*
X329209Y138763D03*
X329209Y138854D03*
X329209Y138946D03*
X329209Y139037D03*
D386*
X329209Y139129D03*
D385*
X329209Y139220D03*
X329209Y139312D03*
X329209Y139403D03*
X329209Y139494D03*
X329209Y139586D03*
X329209Y139677D03*
X329209Y139769D03*
X329209Y139860D03*
X329209Y139952D03*
X329209Y140043D03*
X329209Y140134D03*
X329209Y140226D03*
D386*
X329209Y140317D03*
D385*
X329209Y140409D03*
X329209Y140500D03*
X329209Y140592D03*
X329209Y140683D03*
X329209Y140775D03*
X329209Y140866D03*
X329209Y140957D03*
X329209Y141049D03*
X329209Y141140D03*
X329209Y141232D03*
X329209Y141323D03*
D386*
X329209Y141415D03*
D385*
X329209Y141506D03*
X329209Y141598D03*
X329209Y141689D03*
X329209Y141780D03*
X329209Y141872D03*
X329209Y141963D03*
X329209Y142055D03*
X329209Y142146D03*
X329209Y142238D03*
X329209Y142329D03*
X329209Y142420D03*
X329209Y142512D03*
D386*
X329209Y142603D03*
D385*
X329209Y142695D03*
X329209Y142786D03*
X329209Y142878D03*
X329209Y142969D03*
X329209Y143061D03*
X329209Y143152D03*
X329209Y143243D03*
X329209Y143335D03*
X329209Y143426D03*
X329209Y143518D03*
X329209Y143609D03*
D386*
X329209Y143701D03*
D385*
X329209Y143792D03*
X329209Y143884D03*
X329209Y143975D03*
X329209Y144066D03*
X329209Y144158D03*
X329209Y144249D03*
X329209Y144341D03*
X329209Y144432D03*
X329209Y144524D03*
X329209Y144615D03*
X329209Y144706D03*
X329209Y144798D03*
D386*
X329209Y144889D03*
D385*
X329209Y144981D03*
X329209Y145072D03*
X329209Y145164D03*
X329209Y145255D03*
X329209Y145347D03*
D201*
X377215Y145438D03*
D204*
X281157Y145438D03*
X377261Y145529D03*
X281157Y145529D03*
X377261Y145621D03*
X281157Y145621D03*
X377261Y145712D03*
X281157Y145712D03*
X377261Y145804D03*
X281157Y145804D03*
X377261Y145895D03*
X281157Y145895D03*
D388*
X377261Y145987D03*
X281157Y145987D03*
D204*
X377261Y146078D03*
X281157Y146078D03*
X377261Y146170D03*
X281157Y146170D03*
X377261Y146261D03*
X281157Y146261D03*
X377261Y146352D03*
X281157Y146352D03*
X377261Y146444D03*
X281157Y146444D03*
X377261Y146535D03*
X281157Y146535D03*
X377261Y146627D03*
X281157Y146627D03*
X377261Y146718D03*
X281157Y146718D03*
X377261Y146810D03*
X281157Y146810D03*
X377261Y146901D03*
X281157Y146901D03*
X377261Y146992D03*
X281157Y146992D03*
X377261Y147084D03*
X281157Y147084D03*
D388*
X377261Y147175D03*
X281157Y147175D03*
D204*
X377261Y147267D03*
X281157Y147267D03*
X377261Y147358D03*
X281157Y147358D03*
X377261Y147450D03*
X281157Y147450D03*
X377261Y147541D03*
X281157Y147541D03*
X377261Y147633D03*
X281157Y147633D03*
X377261Y147724D03*
X281157Y147724D03*
X377261Y147815D03*
X281157Y147815D03*
X377261Y147907D03*
X281157Y147907D03*
X377261Y147998D03*
X281157Y147998D03*
X377261Y148090D03*
X281157Y148090D03*
X377261Y148181D03*
X281157Y148181D03*
D388*
X377261Y148273D03*
X281157Y148273D03*
D204*
X377261Y148364D03*
X281157Y148364D03*
X377261Y148456D03*
X281157Y148456D03*
X377261Y148547D03*
X281157Y148547D03*
X377261Y148638D03*
X281157Y148638D03*
X377261Y148730D03*
X281157Y148730D03*
X377261Y148821D03*
X281157Y148821D03*
X377261Y148913D03*
X281157Y148913D03*
X377261Y149004D03*
D182*
X351749Y149004D03*
D204*
X281157Y149004D03*
X377261Y149096D03*
D182*
X351749Y149096D03*
D204*
X281157Y149096D03*
X377261Y149187D03*
D182*
X351749Y149187D03*
D204*
X281157Y149187D03*
X377261Y149278D03*
D182*
X351749Y149278D03*
D204*
X281157Y149278D03*
X377261Y149370D03*
D182*
X351749Y149370D03*
D204*
X281157Y149370D03*
D388*
X377261Y149461D03*
D379*
X351749Y149461D03*
D388*
X281157Y149461D03*
D204*
X377261Y149553D03*
D182*
X351749Y149553D03*
D204*
X281157Y149553D03*
X377261Y149644D03*
D182*
X351749Y149644D03*
D204*
X281157Y149644D03*
X377261Y149736D03*
D182*
X351749Y149736D03*
D204*
X281157Y149736D03*
X377261Y149827D03*
D182*
X351749Y149827D03*
D389*
X333507Y149827D03*
X327106Y149827D03*
D204*
X281157Y149827D03*
X377261Y149919D03*
D182*
X351749Y149919D03*
D390*
X333507Y149919D03*
X327106Y149919D03*
D204*
X281157Y149919D03*
X377261Y150010D03*
D182*
X351749Y150010D03*
D391*
X333507Y150010D03*
X327106Y150010D03*
D204*
X281157Y150010D03*
X377261Y150101D03*
D182*
X351749Y150101D03*
D392*
X333507Y150101D03*
X327106Y150101D03*
D204*
X281157Y150101D03*
X377261Y150193D03*
D182*
X351749Y150193D03*
D393*
X333461Y150193D03*
D394*
X327106Y150193D03*
D204*
X281157Y150193D03*
X377261Y150284D03*
D182*
X351749Y150284D03*
D395*
X333461Y150284D03*
D396*
X327106Y150284D03*
D204*
X281157Y150284D03*
X377261Y150376D03*
D182*
X351749Y150376D03*
D397*
X333415Y150376D03*
D398*
X327106Y150376D03*
D204*
X281157Y150376D03*
X377261Y150467D03*
D182*
X351749Y150467D03*
D399*
X333415Y150467D03*
X327106Y150467D03*
D204*
X281157Y150467D03*
D388*
X377261Y150559D03*
D379*
X351749Y150559D03*
D400*
X333415Y150559D03*
D401*
X327060Y150559D03*
D388*
X281157Y150559D03*
D204*
X377261Y150650D03*
D182*
X351749Y150650D03*
D402*
X333369Y150650D03*
D403*
X327014Y150650D03*
D204*
X281157Y150650D03*
X377261Y150742D03*
D182*
X351749Y150742D03*
D404*
X333324Y150742D03*
D405*
X326969Y150742D03*
D204*
X281157Y150742D03*
X377261Y150833D03*
D182*
X351749Y150833D03*
D406*
X333278Y150833D03*
D407*
X326923Y150833D03*
D204*
X281157Y150833D03*
X377261Y150924D03*
D182*
X351749Y150924D03*
D408*
X333232Y150924D03*
D409*
X326877Y150924D03*
D204*
X281157Y150924D03*
X377261Y151016D03*
D182*
X351749Y151016D03*
D410*
X333187Y151016D03*
D411*
X326832Y151016D03*
D391*
X308544Y151016D03*
D204*
X281157Y151016D03*
X377261Y151107D03*
D182*
X351749Y151107D03*
D412*
X333141Y151107D03*
D413*
X326786Y151107D03*
D414*
X308498Y151107D03*
D204*
X281157Y151107D03*
X377261Y151199D03*
D182*
X351749Y151199D03*
D415*
X333049Y151199D03*
X326740Y151199D03*
D411*
X308544Y151199D03*
D204*
X281157Y151199D03*
X377261Y151290D03*
D182*
X351749Y151290D03*
D416*
X333004Y151290D03*
D415*
X326649Y151290D03*
D417*
X308544Y151290D03*
D204*
X281157Y151290D03*
X377261Y151382D03*
D182*
X351749Y151382D03*
D416*
X332912Y151382D03*
X326603Y151382D03*
D418*
X308544Y151382D03*
D204*
X281157Y151382D03*
X377261Y151473D03*
D182*
X351749Y151473D03*
D419*
X332867Y151473D03*
D420*
X326511Y151473D03*
D421*
X308544Y151473D03*
D204*
X281157Y151473D03*
X377261Y151564D03*
D182*
X351749Y151564D03*
D419*
X332775Y151564D03*
D422*
X326466Y151564D03*
D349*
X308543Y151564D03*
D204*
X281157Y151564D03*
X377261Y151656D03*
D182*
X351749Y151656D03*
D419*
X332684Y151656D03*
D422*
X326374Y151656D03*
D423*
X308544Y151656D03*
D204*
X281157Y151656D03*
D388*
X377261Y151747D03*
D379*
X351749Y151747D03*
D424*
X332592Y151747D03*
X326191Y151747D03*
D328*
X308498Y151747D03*
D388*
X281157Y151747D03*
D204*
X377261Y151839D03*
D182*
X351749Y151839D03*
D419*
X332501Y151839D03*
X326100Y151839D03*
D156*
X308544Y151839D03*
D204*
X281157Y151839D03*
X377261Y151930D03*
D182*
X351749Y151930D03*
D419*
X332409Y151930D03*
X326009Y151930D03*
D159*
X308544Y151930D03*
D204*
X281157Y151930D03*
X377261Y152022D03*
D182*
X351749Y152022D03*
D419*
X332318Y152022D03*
X325917Y152022D03*
D169*
X308498Y152022D03*
D204*
X281157Y152022D03*
X377261Y152113D03*
D182*
X351749Y152113D03*
D419*
X332226Y152113D03*
X325826Y152113D03*
D309*
X308498Y152113D03*
D204*
X281157Y152113D03*
X377261Y152205D03*
D182*
X351749Y152205D03*
D422*
X332135Y152205D03*
D419*
X325734Y152205D03*
D425*
X308544Y152205D03*
D204*
X281157Y152205D03*
X377261Y152296D03*
D182*
X351749Y152296D03*
D419*
X331952Y152296D03*
X325643Y152296D03*
D288*
X308543Y152296D03*
D204*
X281157Y152296D03*
X377261Y152387D03*
D182*
X351749Y152387D03*
D419*
X331861Y152387D03*
X325551Y152387D03*
D195*
X308543Y152387D03*
D204*
X281157Y152387D03*
X377261Y152479D03*
D182*
X351749Y152479D03*
D419*
X331769Y152479D03*
X325460Y152479D03*
D280*
X308543Y152479D03*
D204*
X281157Y152479D03*
X377261Y152570D03*
D182*
X351749Y152570D03*
D419*
X331678Y152570D03*
X325368Y152570D03*
D278*
X308498Y152570D03*
D204*
X281157Y152570D03*
X377261Y152662D03*
D182*
X351749Y152662D03*
D419*
X331586Y152662D03*
D422*
X325277Y152662D03*
D274*
X308498Y152662D03*
D204*
X281157Y152662D03*
X377261Y152753D03*
D182*
X351749Y152753D03*
D419*
X331495Y152753D03*
X325186Y152753D03*
D202*
X308544Y152753D03*
D204*
X281157Y152753D03*
D388*
X377261Y152845D03*
D379*
X351749Y152845D03*
D424*
X331404Y152845D03*
X325003Y152845D03*
D426*
X308544Y152845D03*
D388*
X281157Y152845D03*
D204*
X377261Y152936D03*
D182*
X351749Y152936D03*
D419*
X331312Y152936D03*
X324911Y152936D03*
D211*
X308544Y152936D03*
D204*
X281157Y152936D03*
X377261Y153028D03*
D182*
X351749Y153028D03*
D419*
X331221Y153028D03*
X324820Y153028D03*
D258*
X308498Y153028D03*
D204*
X281157Y153028D03*
X377261Y153119D03*
D182*
X351749Y153119D03*
D419*
X331129Y153119D03*
X324728Y153119D03*
D214*
X308544Y153119D03*
D204*
X281157Y153119D03*
X377261Y153210D03*
D182*
X351749Y153210D03*
D422*
X331038Y153210D03*
D419*
X324637Y153210D03*
D257*
X308544Y153210D03*
D204*
X281157Y153210D03*
X377261Y153302D03*
D182*
X351749Y153302D03*
D419*
X330855Y153302D03*
X324546Y153302D03*
D256*
X308498Y153302D03*
D204*
X281157Y153302D03*
X377261Y153393D03*
D182*
X351749Y153393D03*
D419*
X330763Y153393D03*
X324454Y153393D03*
D146*
X308544Y153393D03*
D204*
X281157Y153393D03*
X377261Y153485D03*
D182*
X351749Y153485D03*
D419*
X330672Y153485D03*
X324363Y153485D03*
D152*
X308498Y153485D03*
D204*
X281157Y153485D03*
X377261Y153576D03*
D182*
X351749Y153576D03*
D419*
X330581Y153576D03*
X324271Y153576D03*
D160*
X308544Y153576D03*
D204*
X281157Y153576D03*
X377261Y153668D03*
D182*
X351749Y153668D03*
D419*
X330489Y153668D03*
D422*
X324180Y153668D03*
D165*
X308498Y153668D03*
D204*
X281157Y153668D03*
X377261Y153759D03*
D182*
X351749Y153759D03*
D419*
X330398Y153759D03*
D422*
X324088Y153759D03*
D180*
X308544Y153759D03*
D204*
X281157Y153759D03*
X377261Y153850D03*
D182*
X351749Y153850D03*
D419*
X330306Y153850D03*
X323905Y153850D03*
D184*
X308498Y153850D03*
D204*
X281157Y153850D03*
X377261Y153942D03*
D182*
X351749Y153942D03*
D419*
X330215Y153942D03*
X323814Y153942D03*
D191*
X308544Y153942D03*
D204*
X281157Y153942D03*
D388*
X377261Y154033D03*
D379*
X351749Y154033D03*
D424*
X330123Y154033D03*
X323723Y154033D03*
D367*
X308544Y154033D03*
D388*
X281157Y154033D03*
D204*
X377261Y154125D03*
D182*
X351749Y154125D03*
D419*
X330032Y154125D03*
X323631Y154125D03*
D186*
X308498Y154125D03*
D204*
X281157Y154125D03*
X377261Y154216D03*
D182*
X351749Y154216D03*
D419*
X329940Y154216D03*
X323540Y154216D03*
D181*
X308543Y154216D03*
D204*
X281157Y154216D03*
X377261Y154308D03*
D182*
X351749Y154308D03*
D422*
X329849Y154308D03*
D419*
X323448Y154308D03*
D181*
X308543Y154308D03*
D204*
X281157Y154308D03*
X377261Y154399D03*
D182*
X351749Y154399D03*
D419*
X329666Y154399D03*
X323357Y154399D03*
D208*
X308498Y154399D03*
D204*
X281157Y154399D03*
X377261Y154491D03*
D182*
X351749Y154491D03*
D419*
X329575Y154491D03*
X323265Y154491D03*
D171*
X308543Y154491D03*
D204*
X281157Y154491D03*
X377261Y154582D03*
D182*
X351749Y154582D03*
D419*
X329483Y154582D03*
X323174Y154582D03*
D171*
X308543Y154582D03*
D204*
X281157Y154582D03*
X377261Y154673D03*
D182*
X351749Y154673D03*
D419*
X329392Y154673D03*
X323082Y154673D03*
D171*
X308543Y154673D03*
D204*
X281157Y154673D03*
X377261Y154765D03*
D182*
X351749Y154765D03*
D419*
X329300Y154765D03*
D422*
X322991Y154765D03*
D167*
X308498Y154765D03*
D204*
X281157Y154765D03*
X377261Y154856D03*
D182*
X351749Y154856D03*
D419*
X329209Y154856D03*
X322900Y154856D03*
D167*
X308498Y154856D03*
D204*
X281157Y154856D03*
X377261Y154948D03*
D182*
X351749Y154948D03*
D419*
X329118Y154948D03*
X322717Y154948D03*
D167*
X308498Y154948D03*
D204*
X281157Y154948D03*
X377261Y155039D03*
D182*
X351749Y155039D03*
D419*
X329026Y155039D03*
X322625Y155039D03*
D223*
X308543Y155039D03*
D204*
X281157Y155039D03*
D388*
X377261Y155131D03*
D379*
X351749Y155131D03*
D424*
X328935Y155131D03*
X322534Y155131D03*
D377*
X308543Y155131D03*
D388*
X281157Y155131D03*
D204*
X377261Y155222D03*
D182*
X351749Y155222D03*
D419*
X328843Y155222D03*
X322442Y155222D03*
D223*
X308543Y155222D03*
D204*
X281157Y155222D03*
X377261Y155314D03*
D182*
X351749Y155314D03*
D422*
X328752Y155314D03*
D416*
X322397Y155314D03*
D223*
X308543Y155314D03*
D204*
X281157Y155314D03*
X377261Y155405D03*
D182*
X351749Y155405D03*
D420*
X328706Y155405D03*
D416*
X322305Y155405D03*
D223*
X308543Y155405D03*
D204*
X281157Y155405D03*
X377261Y155496D03*
D182*
X351749Y155496D03*
D427*
X328569Y155496D03*
D415*
X322260Y155496D03*
D223*
X308543Y155496D03*
D204*
X281157Y155496D03*
X377261Y155588D03*
D182*
X351749Y155588D03*
D428*
X328523Y155588D03*
D415*
X322168Y155588D03*
D223*
X308543Y155588D03*
D204*
X281157Y155588D03*
X377261Y155679D03*
D182*
X351749Y155679D03*
D412*
X328477Y155679D03*
D413*
X322122Y155679D03*
D223*
X308543Y155679D03*
D204*
X281157Y155679D03*
X377261Y155771D03*
D182*
X351749Y155771D03*
D410*
X328432Y155771D03*
D412*
X322077Y155771D03*
D223*
X308543Y155771D03*
D204*
X281157Y155771D03*
X377261Y155862D03*
D182*
X351749Y155862D03*
D408*
X328386Y155862D03*
D410*
X322031Y155862D03*
D223*
X308543Y155862D03*
D204*
X281157Y155862D03*
X377261Y155954D03*
D182*
X351749Y155954D03*
D406*
X328340Y155954D03*
X321939Y155954D03*
D223*
X308543Y155954D03*
D204*
X281157Y155954D03*
X377261Y156045D03*
D182*
X351749Y156045D03*
D404*
X328295Y156045D03*
X321894Y156045D03*
D223*
X308543Y156045D03*
D204*
X281157Y156045D03*
X377261Y156136D03*
D182*
X351749Y156136D03*
D402*
X328249Y156136D03*
D429*
X321894Y156136D03*
D223*
X308543Y156136D03*
D204*
X281157Y156136D03*
X377261Y156228D03*
D182*
X351749Y156228D03*
D414*
X328249Y156228D03*
X321848Y156228D03*
D223*
X308543Y156228D03*
D204*
X281157Y156228D03*
D388*
X377261Y156319D03*
D379*
X351749Y156319D03*
D430*
X328203Y156319D03*
D431*
X321848Y156319D03*
D377*
X308543Y156319D03*
D388*
X281157Y156319D03*
D204*
X377261Y156411D03*
D432*
X351703Y156411D03*
D398*
X328203Y156411D03*
D397*
X321802Y156411D03*
D167*
X308498Y156411D03*
D204*
X281157Y156411D03*
X377261Y156502D03*
D432*
X351703Y156502D03*
D433*
X328157Y156502D03*
D434*
X321802Y156502D03*
D167*
X308498Y156502D03*
D204*
X281157Y156502D03*
X377261Y156594D03*
D432*
X351703Y156594D03*
D435*
X328157Y156594D03*
D436*
X321802Y156594D03*
D171*
X308543Y156594D03*
D204*
X281157Y156594D03*
X377261Y156685D03*
D432*
X351703Y156685D03*
D437*
X328157Y156685D03*
D438*
X321802Y156685D03*
D171*
X308543Y156685D03*
D204*
X281157Y156685D03*
X377261Y156777D03*
D432*
X351703Y156777D03*
D439*
X328157Y156777D03*
D440*
X321802Y156777D03*
D171*
X308543Y156777D03*
D204*
X281157Y156777D03*
X377261Y156868D03*
D432*
X351703Y156868D03*
D441*
X328157Y156868D03*
X321757Y156868D03*
D208*
X308498Y156868D03*
D204*
X281157Y156868D03*
X377261Y156959D03*
D432*
X351703Y156959D03*
D442*
X328157Y156959D03*
D443*
X321757Y156959D03*
D208*
X308498Y156959D03*
D204*
X281157Y156959D03*
X377261Y157051D03*
D432*
X351703Y157051D03*
D181*
X308543Y157051D03*
D204*
X281157Y157051D03*
X377261Y157142D03*
D432*
X351703Y157142D03*
D181*
X308543Y157142D03*
D204*
X281157Y157142D03*
X377261Y157234D03*
D432*
X351703Y157234D03*
D186*
X308498Y157234D03*
D204*
X281157Y157234D03*
X377261Y157325D03*
D432*
X351703Y157325D03*
D191*
X308544Y157325D03*
D204*
X281157Y157325D03*
D388*
X377261Y157417D03*
D444*
X351703Y157417D03*
D371*
X308498Y157417D03*
D388*
X281157Y157417D03*
D204*
X377261Y157508D03*
D432*
X351703Y157508D03*
D180*
X308544Y157508D03*
D204*
X281157Y157508D03*
X377261Y157600D03*
D432*
X351703Y157600D03*
D180*
X308544Y157600D03*
D204*
X281157Y157600D03*
X377261Y157691D03*
D432*
X351703Y157691D03*
D160*
X308544Y157691D03*
D204*
X281157Y157691D03*
X377261Y157782D03*
D432*
X351703Y157782D03*
D160*
X308544Y157782D03*
D204*
X281157Y157782D03*
X377261Y157874D03*
D432*
X351703Y157874D03*
D146*
X308544Y157874D03*
D204*
X281157Y157874D03*
X377261Y157965D03*
D432*
X351703Y157965D03*
D256*
X308498Y157965D03*
D204*
X281157Y157965D03*
X377261Y158057D03*
D432*
X351703Y158057D03*
D257*
X308544Y158057D03*
D204*
X281157Y158057D03*
X377261Y158148D03*
D432*
X351703Y158148D03*
D215*
X308498Y158148D03*
D204*
X281157Y158148D03*
X377261Y158240D03*
D432*
X351703Y158240D03*
D214*
X308544Y158240D03*
D204*
X281157Y158240D03*
X377261Y158331D03*
D432*
X351703Y158331D03*
D211*
X308544Y158331D03*
D204*
X281157Y158331D03*
X377261Y158422D03*
D432*
X351703Y158422D03*
D207*
X308498Y158422D03*
D204*
X281157Y158422D03*
X377261Y158514D03*
D432*
X351703Y158514D03*
D264*
X308544Y158514D03*
D204*
X281157Y158514D03*
D388*
X377261Y158605D03*
D444*
X351703Y158605D03*
D445*
X308544Y158605D03*
D388*
X281157Y158605D03*
D204*
X377261Y158697D03*
D432*
X351703Y158697D03*
D276*
X308543Y158697D03*
D204*
X281157Y158697D03*
X377261Y158788D03*
D432*
X351703Y158788D03*
D280*
X308543Y158788D03*
D204*
X281157Y158788D03*
X377261Y158880D03*
D432*
X351703Y158880D03*
D282*
X308498Y158880D03*
D204*
X281157Y158880D03*
X377261Y158971D03*
D432*
X351703Y158971D03*
D286*
X308498Y158971D03*
D204*
X281157Y158971D03*
X377261Y159063D03*
D432*
X351703Y159063D03*
D291*
X308498Y159063D03*
D204*
X281157Y159063D03*
X377261Y159154D03*
D432*
X351703Y159154D03*
D305*
X308544Y159154D03*
D204*
X281157Y159154D03*
X377261Y159245D03*
D432*
X351703Y159245D03*
D173*
X308544Y159245D03*
D204*
X281157Y159245D03*
X377261Y159337D03*
D432*
X351703Y159337D03*
D313*
X308544Y159337D03*
D204*
X281157Y159337D03*
X377261Y159428D03*
D432*
X351703Y159428D03*
D319*
X308498Y159428D03*
D396*
X298485Y159428D03*
D204*
X281157Y159428D03*
X377261Y159520D03*
D432*
X351703Y159520D03*
D151*
X308544Y159520D03*
D405*
X298439Y159520D03*
D204*
X281157Y159520D03*
X377261Y159611D03*
D432*
X351703Y159611D03*
D336*
X308498Y159611D03*
D416*
X298439Y159611D03*
D204*
X281157Y159611D03*
D388*
X377261Y159703D03*
D444*
X351703Y159703D03*
D446*
X308543Y159703D03*
D447*
X298485Y159703D03*
D388*
X281157Y159703D03*
D204*
X377261Y159794D03*
D432*
X351703Y159794D03*
D355*
X308543Y159794D03*
D448*
X298485Y159794D03*
D204*
X281157Y159794D03*
X377261Y159886D03*
D432*
X351703Y159886D03*
D449*
X308498Y159886D03*
D450*
X298485Y159886D03*
D204*
X281157Y159886D03*
X377261Y159977D03*
D432*
X351703Y159977D03*
D451*
X308544Y159977D03*
D452*
X298485Y159977D03*
D204*
X281157Y159977D03*
X377261Y160068D03*
D432*
X351703Y160068D03*
D416*
X308498Y160068D03*
D336*
X298439Y160068D03*
D204*
X281157Y160068D03*
X377261Y160160D03*
D432*
X351703Y160160D03*
D406*
X308498Y160160D03*
D151*
X298485Y160160D03*
D204*
X281157Y160160D03*
X377261Y160251D03*
D432*
X351703Y160251D03*
D395*
X308498Y160251D03*
D319*
X298439Y160251D03*
D204*
X281157Y160251D03*
X377261Y160343D03*
D432*
X351703Y160343D03*
D313*
X298485Y160343D03*
D204*
X281157Y160343D03*
X377261Y160434D03*
D432*
X351703Y160434D03*
D173*
X298485Y160434D03*
D204*
X281157Y160434D03*
X377261Y160526D03*
D432*
X351703Y160526D03*
D305*
X298485Y160526D03*
D204*
X281157Y160526D03*
X377261Y160617D03*
D432*
X351703Y160617D03*
D425*
X298485Y160617D03*
D204*
X281157Y160617D03*
X377261Y160708D03*
D432*
X351703Y160708D03*
D453*
X298439Y160708D03*
D204*
X281157Y160708D03*
X377261Y160800D03*
D432*
X351703Y160800D03*
D195*
X298485Y160800D03*
D204*
X281157Y160800D03*
D388*
X377261Y160891D03*
D444*
X351703Y160891D03*
D454*
X298485Y160891D03*
D388*
X281157Y160891D03*
D204*
X377261Y160983D03*
D432*
X351703Y160983D03*
D200*
X298485Y160983D03*
D204*
X281157Y160983D03*
X377261Y161074D03*
D432*
X351703Y161074D03*
D202*
X298485Y161074D03*
D204*
X281157Y161074D03*
X377261Y161166D03*
D432*
X351703Y161166D03*
D205*
X298439Y161166D03*
D204*
X281157Y161166D03*
X377261Y161257D03*
D432*
X351703Y161257D03*
D207*
X298439Y161257D03*
D204*
X281157Y161257D03*
X377261Y161349D03*
D432*
X351703Y161349D03*
D211*
X298485Y161349D03*
D204*
X281157Y161349D03*
X377261Y161440D03*
D432*
X351703Y161440D03*
D214*
X298485Y161440D03*
D204*
X281157Y161440D03*
X377261Y161531D03*
D432*
X351703Y161531D03*
D215*
X298439Y161531D03*
D204*
X281157Y161531D03*
X377261Y161623D03*
D432*
X351703Y161623D03*
D257*
X298485Y161623D03*
D204*
X281157Y161623D03*
X377261Y161714D03*
D432*
X351703Y161714D03*
D256*
X298439Y161714D03*
D204*
X281157Y161714D03*
X377261Y161806D03*
D432*
X351703Y161806D03*
D146*
X298485Y161806D03*
D204*
X281157Y161806D03*
X377261Y161897D03*
D432*
X351703Y161897D03*
D152*
X298439Y161897D03*
D204*
X281157Y161897D03*
D388*
X377261Y161989D03*
D444*
X351703Y161989D03*
D251*
X298485Y161989D03*
D388*
X281157Y161989D03*
D204*
X377261Y162080D03*
D432*
X351703Y162080D03*
D165*
X298439Y162080D03*
D204*
X281157Y162080D03*
X377261Y162172D03*
D432*
X351703Y162172D03*
D180*
X298485Y162172D03*
D204*
X281157Y162172D03*
X377261Y162263D03*
D432*
X351703Y162263D03*
D184*
X298439Y162263D03*
D204*
X281157Y162263D03*
X377261Y162354D03*
D432*
X351703Y162354D03*
D191*
X298485Y162354D03*
D204*
X281157Y162354D03*
X377261Y162446D03*
D432*
X351703Y162446D03*
D193*
X298439Y162446D03*
D204*
X281157Y162446D03*
X377261Y162537D03*
D432*
X351703Y162537D03*
D193*
X298439Y162537D03*
D204*
X281157Y162537D03*
X377261Y162629D03*
D432*
X351703Y162629D03*
D365*
X298485Y162629D03*
D204*
X281157Y162629D03*
X377261Y162720D03*
D432*
X351703Y162720D03*
D455*
X298439Y162720D03*
D204*
X281157Y162720D03*
X377261Y162812D03*
D432*
X351703Y162812D03*
D455*
X298439Y162812D03*
D204*
X281157Y162812D03*
X377261Y162903D03*
D432*
X351703Y162903D03*
D171*
X298485Y162903D03*
D204*
X281157Y162903D03*
X377261Y162994D03*
D432*
X351703Y162994D03*
D171*
X298485Y162994D03*
D204*
X281157Y162994D03*
D201*
X377215Y163086D03*
D432*
X351703Y163086D03*
D456*
X298439Y163086D03*
D204*
X281157Y163086D03*
D380*
X377215Y163177D03*
D444*
X351703Y163177D03*
D457*
X298439Y163177D03*
D388*
X281157Y163177D03*
D201*
X377215Y163269D03*
D432*
X351703Y163269D03*
D456*
X298439Y163269D03*
D204*
X281157Y163269D03*
D201*
X377215Y163360D03*
D432*
X351703Y163360D03*
D458*
X298485Y163360D03*
D204*
X281157Y163360D03*
D201*
X377215Y163452D03*
D432*
X351703Y163452D03*
D458*
X298485Y163452D03*
D201*
X281203Y163452D03*
X377215Y163543D03*
D432*
X351703Y163543D03*
D458*
X298485Y163543D03*
D201*
X281203Y163543D03*
X377215Y163635D03*
D432*
X351703Y163635D03*
D458*
X298485Y163635D03*
D201*
X281203Y163635D03*
X377215Y163726D03*
D432*
X351703Y163726D03*
D458*
X298485Y163726D03*
D201*
X281203Y163726D03*
X377215Y163817D03*
D432*
X351703Y163817D03*
D458*
X298485Y163817D03*
D201*
X281203Y163817D03*
X377215Y163909D03*
D432*
X351703Y163909D03*
D458*
X298485Y163909D03*
D201*
X281203Y163909D03*
X377215Y164000D03*
D432*
X351703Y164000D03*
D458*
X298485Y164000D03*
D201*
X281203Y164000D03*
X377215Y164092D03*
D432*
X351703Y164092D03*
D458*
X298485Y164092D03*
D201*
X281203Y164092D03*
X377215Y164183D03*
D432*
X351703Y164183D03*
D458*
X298485Y164183D03*
D201*
X281203Y164183D03*
D388*
X377169Y164275D03*
D444*
X351703Y164275D03*
D459*
X298485Y164275D03*
D380*
X281203Y164275D03*
D201*
X377124Y164366D03*
D432*
X351703Y164366D03*
D458*
X298485Y164366D03*
D201*
X281203Y164366D03*
X377124Y164458D03*
D432*
X351703Y164458D03*
D458*
X298485Y164458D03*
D201*
X281203Y164458D03*
X377124Y164549D03*
D432*
X351703Y164549D03*
D458*
X298485Y164549D03*
D148*
X281249Y164549D03*
D201*
X377124Y164640D03*
D432*
X351703Y164640D03*
D458*
X298485Y164640D03*
D148*
X281249Y164640D03*
D201*
X377124Y164732D03*
D432*
X351703Y164732D03*
D456*
X298439Y164732D03*
D148*
X281249Y164732D03*
D201*
X377124Y164823D03*
D432*
X351703Y164823D03*
D456*
X298439Y164823D03*
D148*
X281249Y164823D03*
D201*
X377124Y164915D03*
D432*
X351703Y164915D03*
D456*
X298439Y164915D03*
D201*
X281294Y164915D03*
X377124Y165006D03*
D432*
X351703Y165006D03*
D171*
X298485Y165006D03*
D201*
X281294Y165006D03*
D148*
X377078Y165098D03*
D432*
X351703Y165098D03*
D171*
X298485Y165098D03*
D201*
X281294Y165098D03*
D148*
X377078Y165189D03*
D432*
X351703Y165189D03*
D171*
X298485Y165189D03*
D148*
X281340Y165189D03*
X377078Y165280D03*
D432*
X351703Y165280D03*
D455*
X298439Y165280D03*
D148*
X281340Y165280D03*
X377078Y165372D03*
D432*
X351703Y165372D03*
D365*
X298485Y165372D03*
D148*
X281340Y165372D03*
D217*
X377078Y165463D03*
D444*
X351703Y165463D03*
D366*
X298485Y165463D03*
D217*
X281340Y165463D03*
D148*
X377078Y165555D03*
D432*
X351703Y165555D03*
D193*
X298439Y165555D03*
D148*
X281340Y165555D03*
D197*
X377032Y165646D03*
D432*
X351703Y165646D03*
D191*
X298485Y165646D03*
D148*
X281340Y165646D03*
D197*
X377032Y165738D03*
D432*
X351703Y165738D03*
D191*
X298485Y165738D03*
D197*
X281386Y165738D03*
X377032Y165829D03*
D432*
X351703Y165829D03*
D184*
X298439Y165829D03*
D197*
X281386Y165829D03*
X377032Y165921D03*
D432*
X351703Y165921D03*
D180*
X298485Y165921D03*
D197*
X281386Y165921D03*
X377032Y166012D03*
D432*
X351703Y166012D03*
D165*
X298439Y166012D03*
D197*
X281386Y166012D03*
X376941Y166103D03*
D432*
X351703Y166103D03*
D160*
X298485Y166103D03*
D197*
X281386Y166103D03*
X376941Y166195D03*
D432*
X351703Y166195D03*
D152*
X298439Y166195D03*
D194*
X281432Y166195D03*
D197*
X376941Y166286D03*
D432*
X351703Y166286D03*
D146*
X298485Y166286D03*
D197*
X281477Y166286D03*
X376941Y166378D03*
D432*
X351703Y166378D03*
D256*
X298439Y166378D03*
D197*
X281477Y166378D03*
D212*
X376895Y166469D03*
D432*
X351703Y166469D03*
D257*
X298485Y166469D03*
D197*
X281477Y166469D03*
D460*
X376895Y166561D03*
D444*
X351703Y166561D03*
D461*
X298485Y166561D03*
D462*
X281523Y166561D03*
D212*
X376895Y166652D03*
D432*
X351703Y166652D03*
D258*
X298439Y166652D03*
D194*
X281523Y166652D03*
D212*
X376895Y166744D03*
D432*
X351703Y166744D03*
D211*
X298485Y166744D03*
D194*
X281523Y166744D03*
D209*
X376849Y166835D03*
D432*
X351703Y166835D03*
D264*
X298485Y166835D03*
D194*
X281523Y166835D03*
D212*
X376803Y166926D03*
D432*
X351703Y166926D03*
D205*
X298439Y166926D03*
D189*
X281569Y166926D03*
D212*
X376803Y167018D03*
D432*
X351703Y167018D03*
D463*
X298439Y167018D03*
D189*
X281569Y167018D03*
D212*
X376803Y167109D03*
D432*
X351703Y167109D03*
D198*
X298439Y167109D03*
D194*
X281614Y167109D03*
D209*
X376758Y167201D03*
D432*
X351703Y167201D03*
D280*
X298485Y167201D03*
D194*
X281614Y167201D03*
D209*
X376758Y167292D03*
D432*
X351703Y167292D03*
D195*
X298485Y167292D03*
D209*
X281660Y167292D03*
X376758Y167384D03*
D432*
X351703Y167384D03*
D190*
X298485Y167384D03*
D209*
X281660Y167384D03*
D206*
X376712Y167475D03*
D182*
X351749Y167475D03*
D425*
X298485Y167475D03*
D209*
X281660Y167475D03*
D206*
X376712Y167566D03*
D182*
X351749Y167566D03*
D309*
X298439Y167566D03*
D206*
X281706Y167566D03*
D209*
X376666Y167658D03*
D182*
X351749Y167658D03*
D169*
X298439Y167658D03*
D206*
X281706Y167658D03*
D464*
X376666Y167749D03*
D379*
X351749Y167749D03*
D465*
X298485Y167749D03*
D464*
X281752Y167749D03*
D206*
X376621Y167841D03*
D182*
X351749Y167841D03*
D156*
X298485Y167841D03*
D206*
X281797Y167841D03*
X376621Y167932D03*
D182*
X351749Y167932D03*
D334*
X298439Y167932D03*
D206*
X281797Y167932D03*
X376621Y168024D03*
D182*
X351749Y168024D03*
D423*
X298485Y168024D03*
D206*
X281797Y168024D03*
D203*
X376575Y168115D03*
D182*
X351749Y168115D03*
D349*
X298485Y168115D03*
D203*
X281843Y168115D03*
D206*
X376529Y168207D03*
D182*
X351749Y168207D03*
D466*
X298439Y168207D03*
D203*
X281843Y168207D03*
X376483Y168298D03*
D182*
X351749Y168298D03*
D418*
X298485Y168298D03*
D206*
X281889Y168298D03*
D203*
X376483Y168389D03*
D182*
X351749Y168389D03*
D417*
X298485Y168389D03*
D203*
X281934Y168389D03*
X376483Y168481D03*
D182*
X351749Y168481D03*
D413*
X298439Y168481D03*
D203*
X281934Y168481D03*
D182*
X376438Y168572D03*
X351749Y168572D03*
D429*
X298485Y168572D03*
D203*
X281934Y168572D03*
X376392Y168664D03*
D182*
X351749Y168664D03*
D437*
X298439Y168664D03*
D182*
X281980Y168664D03*
D203*
X376392Y168755D03*
D182*
X351749Y168755D03*
D203*
X282026Y168755D03*
D379*
X376346Y168847D03*
X351749Y168847D03*
X282072Y168847D03*
D182*
X376346Y168938D03*
X351749Y168938D03*
X282072Y168938D03*
D199*
X376301Y169030D03*
D182*
X351749Y169030D03*
X282072Y169030D03*
D318*
X376255Y169121D03*
D182*
X351749Y169121D03*
D199*
X282117Y169121D03*
D318*
X376255Y169212D03*
D182*
X351749Y169212D03*
X282163Y169212D03*
D363*
X376209Y169304D03*
D182*
X351749Y169304D03*
D199*
X282209Y169304D03*
D363*
X376209Y169395D03*
D182*
X351749Y169395D03*
D199*
X282209Y169395D03*
D253*
X376163Y169487D03*
D182*
X351749Y169487D03*
D199*
X282209Y169487D03*
D363*
X376118Y169578D03*
D182*
X351749Y169578D03*
D196*
X282254Y169578D03*
D253*
X376072Y169670D03*
D182*
X351749Y169670D03*
D363*
X282300Y169670D03*
D253*
X376072Y169761D03*
D182*
X351749Y169761D03*
D253*
X282346Y169761D03*
D192*
X376026Y169852D03*
D182*
X351749Y169852D03*
D253*
X282346Y169852D03*
D196*
X375980Y169944D03*
D182*
X351749Y169944D03*
D254*
X282392Y169944D03*
D177*
X375980Y170035D03*
D379*
X351749Y170035D03*
D467*
X282437Y170035D03*
D192*
X375935Y170127D03*
D182*
X351749Y170127D03*
D192*
X282483Y170127D03*
X375935Y170218D03*
D182*
X351749Y170218D03*
D192*
X282483Y170218D03*
X375843Y170310D03*
D182*
X351749Y170310D03*
D172*
X282529Y170310D03*
X375798Y170401D03*
D182*
X351749Y170401D03*
D192*
X282575Y170401D03*
D172*
X375798Y170493D03*
D182*
X351749Y170493D03*
D172*
X282620Y170493D03*
D185*
X375752Y170584D03*
D182*
X351749Y170584D03*
D172*
X282620Y170584D03*
X375706Y170675D03*
D182*
X351749Y170675D03*
D172*
X282712Y170675D03*
D185*
X375660Y170767D03*
D182*
X351749Y170767D03*
D172*
X282712Y170767D03*
D185*
X375660Y170858D03*
D182*
X351749Y170858D03*
D185*
X282757Y170858D03*
X375569Y170950D03*
D182*
X351749Y170950D03*
D168*
X282803Y170950D03*
D185*
X375569Y171041D03*
D182*
X351749Y171041D03*
D185*
X282849Y171041D03*
D175*
X375523Y171133D03*
D379*
X351749Y171133D03*
D175*
X282895Y171133D03*
D168*
X375432Y171224D03*
D182*
X351749Y171224D03*
D168*
X282895Y171224D03*
X375432Y171316D03*
D182*
X351749Y171316D03*
D168*
X282986Y171316D03*
D170*
X375386Y171407D03*
D182*
X351749Y171407D03*
D170*
X283032Y171407D03*
X375386Y171498D03*
D182*
X351749Y171498D03*
D170*
X283032Y171498D03*
X375295Y171590D03*
D182*
X351749Y171590D03*
D170*
X283123Y171590D03*
D166*
X375249Y171681D03*
D182*
X351749Y171681D03*
D170*
X283123Y171681D03*
D166*
X375249Y171773D03*
D182*
X351749Y171773D03*
D166*
X283169Y171773D03*
D468*
X375158Y171864D03*
D182*
X351749Y171864D03*
D166*
X283260Y171864D03*
D161*
X375112Y171956D03*
D182*
X351749Y171956D03*
D166*
X283260Y171956D03*
D161*
X375112Y172047D03*
D182*
X351749Y172047D03*
D163*
X283306Y172047D03*
D161*
X375020Y172138D03*
D182*
X351749Y172138D03*
D161*
X283398Y172138D03*
D157*
X374975Y172230D03*
D182*
X351749Y172230D03*
D161*
X283398Y172230D03*
D469*
X374929Y172321D03*
D379*
X351749Y172321D03*
D470*
X283443Y172321D03*
D157*
X374883Y172413D03*
D182*
X351749Y172413D03*
D157*
X283535Y172413D03*
D153*
X374838Y172504D03*
D182*
X351749Y172504D03*
D157*
X283535Y172504D03*
X374792Y172596D03*
D182*
X351749Y172596D03*
D153*
X283580Y172596D03*
X374746Y172687D03*
D182*
X351749Y172687D03*
D153*
X283672Y172687D03*
D147*
X374700Y172779D03*
D182*
X351749Y172779D03*
D147*
X283718Y172779D03*
D471*
X374609Y172870D03*
D182*
X351749Y172870D03*
D153*
X283763Y172870D03*
D471*
X374609Y172961D03*
D182*
X351749Y172961D03*
D147*
X283809Y172961D03*
D471*
X374517Y173053D03*
D182*
X351749Y173053D03*
D150*
X283855Y173053D03*
D271*
X374472Y173144D03*
D182*
X351749Y173144D03*
D150*
X283946Y173144D03*
D275*
X374426Y173236D03*
D182*
X351749Y173236D03*
D374*
X283992Y173236D03*
D275*
X374335Y173327D03*
D182*
X351749Y173327D03*
D271*
X284038Y173327D03*
D472*
X374335Y173419D03*
D379*
X351749Y173419D03*
D472*
X284083Y173419D03*
D374*
X374243Y173510D03*
D182*
X351749Y173510D03*
D473*
X284129Y173510D03*
D259*
X374197Y173602D03*
D182*
X351749Y173602D03*
D259*
X284220Y173602D03*
D260*
X374152Y173693D03*
D182*
X351749Y173693D03*
D260*
X284266Y173693D03*
X374060Y173784D03*
D182*
X351749Y173784D03*
D260*
X284358Y173784D03*
D155*
X374015Y173876D03*
D182*
X351749Y173876D03*
D260*
X284358Y173876D03*
D155*
X373923Y173967D03*
D182*
X351749Y173967D03*
D155*
X284403Y173967D03*
D261*
X373877Y174059D03*
D182*
X351749Y174059D03*
D155*
X284495Y174059D03*
X373832Y174150D03*
D182*
X351749Y174150D03*
D261*
X284541Y174150D03*
X373786Y174242D03*
D182*
X351749Y174242D03*
D261*
X284632Y174242D03*
D283*
X373740Y174333D03*
D182*
X351749Y174333D03*
D283*
X284678Y174333D03*
X373649Y174424D03*
D182*
X351749Y174424D03*
D283*
X284769Y174424D03*
D263*
X373603Y174516D03*
D182*
X351749Y174516D03*
D263*
X284815Y174516D03*
D474*
X373512Y174607D03*
D379*
X351749Y174607D03*
D474*
X284906Y174607D03*
D475*
X373466Y174699D03*
D182*
X351749Y174699D03*
D266*
X284952Y174699D03*
D475*
X373374Y174790D03*
D182*
X351749Y174790D03*
D266*
X285043Y174790D03*
D476*
X373329Y174882D03*
D182*
X351749Y174882D03*
D476*
X285089Y174882D03*
X373237Y174973D03*
X285181Y174973D03*
D477*
X373192Y175065D03*
X285226Y175065D03*
D478*
X373054Y175156D03*
D477*
X285318Y175156D03*
D149*
X373009Y175247D03*
D478*
X285363Y175247D03*
D149*
X372917Y175339D03*
X285501Y175339D03*
D277*
X372872Y175430D03*
X285546Y175430D03*
D479*
X372780Y175522D03*
D277*
X285638Y175522D03*
D304*
X372734Y175613D03*
D279*
X285683Y175613D03*
D480*
X372643Y175705D03*
X285775Y175705D03*
D281*
X372551Y175796D03*
D481*
X285821Y175796D03*
D281*
X372460Y175888D03*
X285958Y175888D03*
X372369Y175979D03*
D284*
X286004Y175979D03*
X372323Y176070D03*
X286095Y176070D03*
D285*
X372186Y176162D03*
D314*
X286186Y176162D03*
X372140Y176253D03*
X286278Y176253D03*
X372049Y176345D03*
X286369Y176345D03*
D290*
X371957Y176436D03*
X286461Y176436D03*
X371866Y176528D03*
X286552Y176528D03*
D255*
X371729Y176619D03*
D292*
X286598Y176619D03*
D482*
X371683Y176710D03*
X286735Y176710D03*
D483*
X371546Y176802D03*
D482*
X286827Y176802D03*
D484*
X371500Y176893D03*
X286918Y176893D03*
D485*
X371363Y176985D03*
D486*
X287009Y176985D03*
D485*
X371271Y177076D03*
D381*
X287101Y177076D03*
D306*
X371180Y177168D03*
X287238Y177168D03*
D310*
X371043Y177259D03*
D306*
X287329Y177259D03*
D487*
X370997Y177351D03*
D341*
X287421Y177351D03*
D311*
X370860Y177442D03*
D488*
X287558Y177442D03*
D312*
X370723Y177533D03*
D489*
X287695Y177533D03*
D316*
X370631Y177625D03*
D490*
X287741Y177625D03*
D350*
X370494Y177716D03*
D316*
X287878Y177716D03*
D353*
X370357Y177808D03*
D350*
X288015Y177808D03*
D322*
X370265Y177899D03*
D356*
X288107Y177899D03*
D491*
X370128Y177991D03*
D492*
X288244Y177991D03*
D493*
X369991Y178082D03*
X288427Y178082D03*
D326*
X369854Y178174D03*
D494*
X288518Y178174D03*
D495*
X369763Y178265D03*
X288655Y178265D03*
D496*
X369580Y178356D03*
X288838Y178356D03*
D340*
X369443Y178448D03*
D497*
X288930Y178448D03*
D344*
X369305Y178539D03*
X289113Y178539D03*
D348*
X369123Y178631D03*
D346*
X289250Y178631D03*
D354*
X368940Y178722D03*
D351*
X289433Y178722D03*
D498*
X368757Y178814D03*
D357*
X289570Y178814D03*
D499*
X368620Y178905D03*
X289798Y178905D03*
D500*
X368437Y178996D03*
X289981Y178996D03*
D501*
X368208Y179088D03*
D502*
X290210Y179088D03*
D503*
X367979Y179179D03*
D504*
X290393Y179179D03*
D505*
X367797Y179271D03*
X290621Y179271D03*
D506*
X367477Y179362D03*
D507*
X290896Y179362D03*
D508*
X367157Y179454D03*
D509*
X291216Y179454D03*
D510*
X366745Y179545D03*
D511*
X291627Y179545D03*
D512*
X329163Y179637D03*
D111*
X329209Y179728D03*
D110*
X329209Y179819D03*
D109*
X329209Y179911D03*
D107*
X329209Y180002D03*
D106*
X329209Y180094D03*
D513*
X329163Y180185D03*
D514*
X329209Y180277D03*
D104*
X329209Y180368D03*
D103*
X329209Y180460D03*
D515*
X329209Y180551D03*
D516*
X329209Y180642D03*
D99*
X329209Y180734D03*
D98*
X329209Y180825D03*
D97*
X329209Y180917D03*
D517*
X329163Y181008D03*
D518*
X329163Y181100D03*
D519*
X329163Y181191D03*
D520*
X329163Y181282D03*
D521*
X329163Y181374D03*
D522*
X329209Y181465D03*
D91*
X329209Y181557D03*
D523*
X329209Y181648D03*
D89*
X329209Y181740D03*
D524*
X329163Y181831D03*
D525*
X329163Y181923D03*
D526*
X329163Y182014D03*
D527*
X329163Y182105D03*
D83*
X329209Y182197D03*
D82*
X329209Y182288D03*
D528*
X329209Y182380D03*
D529*
X329209Y182471D03*
D530*
X329209Y182563D03*
D79*
X329209Y182654D03*
D78*
X329209Y182746D03*
D531*
X329163Y182837D03*
D532*
X329163Y182928D03*
D533*
X329209Y183020D03*
D534*
X329209Y183111D03*
D73*
X329209Y183203D03*
D72*
X329209Y183294D03*
D535*
X329163Y183386D03*
D536*
X329209Y183477D03*
D69*
X329209Y183568D03*
D68*
X329209Y183660D03*
D537*
X329209Y183751D03*
D538*
X329209Y183843D03*
D539*
X329209Y183934D03*
D540*
X329209Y184026D03*
D541*
X329209Y184117D03*
D62*
X329209Y184209D03*
D542*
X329209Y184300D03*
D60*
X329209Y184391D03*
D543*
X329209Y184483D03*
D544*
X329209Y184574D03*
D545*
X329163Y184666D03*
D546*
X329209Y184757D03*
D547*
X329163Y184849D03*
D548*
X329209Y184940D03*
D549*
X329209Y185032D03*
D550*
X329209Y185123D03*
D551*
X329209Y185214D03*
D552*
X329163Y185306D03*
D553*
X329209Y185397D03*
D554*
X329209Y185489D03*
D555*
X329163Y185580D03*
D46*
X329209Y185672D03*
D556*
X329209Y185763D03*
D557*
X329209Y185854D03*
D558*
X329209Y185946D03*
D559*
X329209Y186037D03*
D560*
X329163Y186129D03*
D561*
X329163Y186220D03*
D562*
X329163Y186312D03*
D563*
X329163Y186403D03*
D564*
X329209Y186495D03*
D565*
X329209Y186586D03*
D566*
X329209Y186677D03*
D567*
X329209Y186769D03*
D568*
X329163Y186860D03*
D569*
X329209Y186952D03*
D570*
X329209Y187043D03*
D571*
X329209Y187135D03*
D572*
X329209Y187226D03*
D573*
X329209Y187318D03*
D574*
X329163Y187409D03*
D575*
X329209Y187500D03*
D576*
X329209Y187592D03*
D577*
X329209Y187683D03*
D578*
X329163Y187775D03*
D579*
X329209Y187866D03*
D580*
X329209Y187958D03*
D581*
X329209Y188049D03*
D582*
X329163Y188140D03*
D583*
X329163Y188232D03*
D584*
X329209Y188323D03*
D585*
X329163Y188415D03*
D586*
X329209Y188506D03*
D587*
X329163Y188598D03*
D588*
X329209Y188689D03*
D589*
X329163Y188781D03*
D590*
X329209Y188872D03*
M02*
