G04 EAGLE Gerber RS-274X export*
G75*
%MOMM*%
%FSLAX34Y34*%
%LPD*%
%INTop Solder Mask*%
%IPPOS*%
%AMOC8*
5,1,8,0,0,1.08239X$1,22.5*%
G01*
%ADD10R,1.003200X1.403200*%
%ADD11R,1.400000X0.400000*%
%ADD12R,2.350000X1.900000*%
%ADD13C,2.648200*%
%ADD14C,1.601200*%
%ADD15C,1.733200*%
%ADD16C,3.553200*%


D10*
X275300Y152800D03*
X257300Y152800D03*
D11*
X340800Y54100D03*
X340800Y59100D03*
X340800Y64100D03*
X340800Y69100D03*
X340800Y74100D03*
X340800Y79100D03*
X340800Y84100D03*
X340800Y89100D03*
X340800Y94100D03*
X340800Y99100D03*
X340800Y104100D03*
X340800Y109100D03*
X340800Y114100D03*
X340800Y119100D03*
X340800Y124100D03*
X340800Y129100D03*
X340800Y134100D03*
X340800Y139100D03*
X340800Y144100D03*
X340800Y149100D03*
D12*
X373300Y168100D03*
X373300Y35100D03*
D13*
X119400Y24150D03*
X119400Y179050D03*
D14*
X177800Y108000D03*
X152400Y120700D03*
X152400Y146100D03*
X152400Y95300D03*
X152400Y69900D03*
X152400Y44500D03*
X177800Y133400D03*
X177800Y158800D03*
X177800Y82600D03*
X177800Y57200D03*
D15*
X40100Y35350D03*
X40100Y167850D03*
X40100Y142450D03*
X40100Y60750D03*
D16*
X88900Y44450D03*
X88900Y158750D03*
M02*
